<svg width="3000" height="2000" viewBox="0 0 3000 2000" fill="none" xmlns="http://www.w3.org/2000/svg">
<rect width="3000" height="2000" fill="white"/>
<g clip-path="url(#clip0_2479_212)">
<path d="M1807.8 755L1776.9 850.11L1824.46 865.561L1807.8 755Z" fill="#FBD324"/>
<path d="M1807.8 755L1838.71 850.11L1791.15 865.561L1807.8 755Z" fill="#FBD324"/>
<path d="M1902.91 824.1H1802.91V874.102L1902.91 824.1Z" fill="#FBD324"/>
<path d="M1902.91 824.1L1822.01 882.881L1792.62 842.429L1902.91 824.1Z" fill="#FBD324"/>
<path d="M1866.59 935.909L1835.68 840.799L1788.13 856.25L1866.59 935.909Z" fill="#FBD324"/>
<path d="M1866.59 935.909L1785.68 877.128L1815.07 836.675L1866.59 935.909Z" fill="#FBD324"/>
<path d="M1712.7 824.1H1812.7V874.102L1712.7 824.1Z" fill="#FBD324"/>
<path d="M1712.7 824.1L1793.6 882.881L1822.99 842.429L1712.7 824.1Z" fill="#FBD324"/>
<path d="M1749.02 935.909L1779.93 840.799L1827.48 856.25L1749.02 935.909Z" fill="#FBD324"/>
<path d="M1749.02 935.909L1829.93 877.127L1800.54 836.675L1749.02 935.909Z" fill="#FBD324"/>
<path d="M2032.8 815L2001.9 910.11L2049.46 925.561L2032.8 815Z" fill="#FBD324"/>
<path d="M2032.8 815L2063.71 910.11L2016.15 925.561L2032.8 815Z" fill="#FBD324"/>
<path d="M2127.91 884.1H2027.91V934.102L2127.91 884.1Z" fill="#FBD324"/>
<path d="M2127.91 884.1L2047.01 942.881L2017.62 902.429L2127.91 884.1Z" fill="#FBD324"/>
<path d="M2091.59 995.909L2060.68 900.799L2013.13 916.25L2091.59 995.909Z" fill="#FBD324"/>
<path d="M2091.59 995.909L2010.68 937.128L2040.07 896.675L2091.59 995.909Z" fill="#FBD324"/>
<path d="M1937.7 884.1H2037.7V934.102L1937.7 884.1Z" fill="#FBD324"/>
<path d="M1937.7 884.1L2018.6 942.881L2047.99 902.429L1937.7 884.1Z" fill="#FBD324"/>
<path d="M1974.02 995.909L2004.93 900.799L2052.48 916.25L1974.02 995.909Z" fill="#FBD324"/>
<path d="M1974.02 995.909L2054.93 937.127L2025.54 896.675L1974.02 995.909Z" fill="#FBD324"/>
<path d="M2197.8 980L2166.9 1075.11L2214.46 1090.56L2197.8 980Z" fill="#FBD324"/>
<path d="M2197.8 980L2228.71 1075.11L2181.15 1090.56L2197.8 980Z" fill="#FBD324"/>
<path d="M2292.91 1049.1H2192.91V1099.1L2292.91 1049.1Z" fill="#FBD324"/>
<path d="M2292.91 1049.1L2212.01 1107.88L2182.62 1067.43L2292.91 1049.1Z" fill="#FBD324"/>
<path d="M2256.59 1160.91L2225.68 1065.8L2178.13 1081.25L2256.59 1160.91Z" fill="#FBD324"/>
<path d="M2256.59 1160.91L2175.68 1102.13L2205.07 1061.68L2256.59 1160.91Z" fill="#FBD324"/>
<path d="M2102.7 1049.1H2202.7V1099.1L2102.7 1049.1Z" fill="#FBD324"/>
<path d="M2102.7 1049.1L2183.6 1107.88L2212.99 1067.43L2102.7 1049.1Z" fill="#FBD324"/>
<path d="M2139.02 1160.91L2169.93 1065.8L2217.48 1081.25L2139.02 1160.91Z" fill="#FBD324"/>
<path d="M2139.02 1160.91L2219.93 1102.13L2190.54 1061.67L2139.02 1160.91Z" fill="#FBD324"/>
<path d="M2257.8 1205L2226.9 1300.11L2274.46 1315.56L2257.8 1205Z" fill="#FBD324"/>
<path d="M2257.8 1205L2288.71 1300.11L2241.15 1315.56L2257.8 1205Z" fill="#FBD324"/>
<path d="M2352.91 1274.1H2252.91V1324.1L2352.91 1274.1Z" fill="#FBD324"/>
<path d="M2352.91 1274.1L2272.01 1332.88L2242.62 1292.43L2352.91 1274.1Z" fill="#FBD324"/>
<path d="M2316.59 1385.91L2285.68 1290.8L2238.13 1306.25L2316.59 1385.91Z" fill="#FBD324"/>
<path d="M2316.59 1385.91L2235.68 1327.13L2265.07 1286.68L2316.59 1385.91Z" fill="#FBD324"/>
<path d="M2162.7 1274.1H2262.7V1324.1L2162.7 1274.1Z" fill="#FBD324"/>
<path d="M2162.7 1274.1L2243.6 1332.88L2272.99 1292.43L2162.7 1274.1Z" fill="#FBD324"/>
<path d="M2199.02 1385.91L2229.93 1290.8L2277.48 1306.25L2199.02 1385.91Z" fill="#FBD324"/>
<path d="M2199.02 1385.91L2279.93 1327.13L2250.54 1286.67L2199.02 1385.91Z" fill="#FBD324"/>
<path d="M2197.8 1430L2166.9 1525.11L2214.46 1540.56L2197.8 1430Z" fill="#FBD324"/>
<path d="M2197.8 1430L2228.71 1525.11L2181.15 1540.56L2197.8 1430Z" fill="#FBD324"/>
<path d="M2292.91 1499.1H2192.91V1549.1L2292.91 1499.1Z" fill="#FBD324"/>
<path d="M2292.91 1499.1L2212.01 1557.88L2182.62 1517.43L2292.91 1499.1Z" fill="#FBD324"/>
<path d="M2256.59 1610.91L2225.68 1515.8L2178.13 1531.25L2256.59 1610.91Z" fill="#FBD324"/>
<path d="M2256.59 1610.91L2175.68 1552.13L2205.07 1511.68L2256.59 1610.91Z" fill="#FBD324"/>
<path d="M2102.7 1499.1H2202.7V1549.1L2102.7 1499.1Z" fill="#FBD324"/>
<path d="M2102.7 1499.1L2183.6 1557.88L2212.99 1517.43L2102.7 1499.1Z" fill="#FBD324"/>
<path d="M2139.02 1610.91L2169.93 1515.8L2217.48 1531.25L2139.02 1610.91Z" fill="#FBD324"/>
<path d="M2139.02 1610.91L2219.93 1552.13L2190.54 1511.67L2139.02 1610.91Z" fill="#FBD324"/>
<path d="M2032.8 1594L2001.9 1689.11L2049.46 1704.56L2032.8 1594Z" fill="#FBD324"/>
<path d="M2032.8 1594L2063.71 1689.11L2016.15 1704.56L2032.8 1594Z" fill="#FBD324"/>
<path d="M2127.91 1663.1H2027.91V1713.1L2127.91 1663.1Z" fill="#FBD324"/>
<path d="M2127.91 1663.1L2047.01 1721.88L2017.62 1681.43L2127.91 1663.1Z" fill="#FBD324"/>
<path d="M2091.59 1774.91L2060.68 1679.8L2013.13 1695.25L2091.59 1774.91Z" fill="#FBD324"/>
<path d="M2091.59 1774.91L2010.68 1716.13L2040.07 1675.68L2091.59 1774.91Z" fill="#FBD324"/>
<path d="M1937.7 1663.1H2037.7V1713.1L1937.7 1663.1Z" fill="#FBD324"/>
<path d="M1937.7 1663.1L2018.6 1721.88L2047.99 1681.43L1937.7 1663.1Z" fill="#FBD324"/>
<path d="M1974.02 1774.91L2004.93 1679.8L2052.48 1695.25L1974.02 1774.91Z" fill="#FBD324"/>
<path d="M1974.02 1774.91L2054.93 1716.13L2025.54 1675.67L1974.02 1774.91Z" fill="#FBD324"/>
<path d="M1807.8 1655L1776.9 1750.11L1824.46 1765.56L1807.8 1655Z" fill="#FBD324"/>
<path d="M1807.8 1655L1838.71 1750.11L1791.15 1765.56L1807.8 1655Z" fill="#FBD324"/>
<path d="M1902.91 1724.1H1802.91V1774.1L1902.91 1724.1Z" fill="#FBD324"/>
<path d="M1902.91 1724.1L1822.01 1782.88L1792.62 1742.43L1902.91 1724.1Z" fill="#FBD324"/>
<path d="M1866.59 1835.91L1835.68 1740.8L1788.13 1756.25L1866.59 1835.91Z" fill="#FBD324"/>
<path d="M1866.59 1835.91L1785.68 1777.13L1815.07 1736.68L1866.59 1835.91Z" fill="#FBD324"/>
<path d="M1712.7 1724.1H1812.7V1774.1L1712.7 1724.1Z" fill="#FBD324"/>
<path d="M1712.7 1724.1L1793.6 1782.88L1822.99 1742.43L1712.7 1724.1Z" fill="#FBD324"/>
<path d="M1749.02 1835.91L1779.93 1740.8L1827.48 1756.25L1749.02 1835.91Z" fill="#FBD324"/>
<path d="M1749.02 1835.91L1829.93 1777.13L1800.54 1736.67L1749.02 1835.91Z" fill="#FBD324"/>
<path d="M1582.8 1595L1551.9 1690.11L1599.46 1705.56L1582.8 1595Z" fill="#FBD324"/>
<path d="M1582.8 1595L1613.71 1690.11L1566.15 1705.56L1582.8 1595Z" fill="#FBD324"/>
<path d="M1677.91 1664.1H1577.91V1714.1L1677.91 1664.1Z" fill="#FBD324"/>
<path d="M1677.91 1664.1L1597.01 1722.88L1567.62 1682.43L1677.91 1664.1Z" fill="#FBD324"/>
<path d="M1641.59 1775.91L1610.68 1680.8L1563.13 1696.25L1641.59 1775.91Z" fill="#FBD324"/>
<path d="M1641.59 1775.91L1560.68 1717.13L1590.07 1676.68L1641.59 1775.91Z" fill="#FBD324"/>
<path d="M1487.7 1664.1H1587.7V1714.1L1487.7 1664.1Z" fill="#FBD324"/>
<path d="M1487.7 1664.1L1568.6 1722.88L1597.99 1682.43L1487.7 1664.1Z" fill="#FBD324"/>
<path d="M1524.02 1775.91L1554.93 1680.8L1602.48 1696.25L1524.02 1775.91Z" fill="#FBD324"/>
<path d="M1524.02 1775.91L1604.93 1717.13L1575.54 1676.67L1524.02 1775.91Z" fill="#FBD324"/>
<path d="M1417.8 1430L1386.9 1525.11L1434.46 1540.56L1417.8 1430Z" fill="#FBD324"/>
<path d="M1417.8 1430L1448.71 1525.11L1401.15 1540.56L1417.8 1430Z" fill="#FBD324"/>
<path d="M1512.91 1499.1H1412.91V1549.1L1512.91 1499.1Z" fill="#FBD324"/>
<path d="M1512.91 1499.1L1432.01 1557.88L1402.62 1517.43L1512.91 1499.1Z" fill="#FBD324"/>
<path d="M1476.59 1610.91L1445.68 1515.8L1398.13 1531.25L1476.59 1610.91Z" fill="#FBD324"/>
<path d="M1476.59 1610.91L1395.68 1552.13L1425.07 1511.68L1476.59 1610.91Z" fill="#FBD324"/>
<path d="M1322.7 1499.1H1422.7V1549.1L1322.7 1499.1Z" fill="#FBD324"/>
<path d="M1322.7 1499.1L1403.6 1557.88L1432.99 1517.43L1322.7 1499.1Z" fill="#FBD324"/>
<path d="M1359.02 1610.91L1389.93 1515.8L1437.48 1531.25L1359.02 1610.91Z" fill="#FBD324"/>
<path d="M1359.02 1610.91L1439.93 1552.13L1410.54 1511.67L1359.02 1610.91Z" fill="#FBD324"/>
<path d="M1582.8 815L1551.9 910.11L1599.46 925.561L1582.8 815Z" fill="#FBD324"/>
<path d="M1582.8 815L1613.71 910.11L1566.15 925.561L1582.8 815Z" fill="#FBD324"/>
<path d="M1677.91 884.1H1577.91V934.102L1677.91 884.1Z" fill="#FBD324"/>
<path d="M1677.91 884.1L1597.01 942.881L1567.62 902.429L1677.91 884.1Z" fill="#FBD324"/>
<path d="M1641.59 995.909L1610.68 900.799L1563.13 916.25L1641.59 995.909Z" fill="#FBD324"/>
<path d="M1641.59 995.909L1560.68 937.128L1590.07 896.675L1641.59 995.909Z" fill="#FBD324"/>
<path d="M1487.7 884.1H1587.7V934.102L1487.7 884.1Z" fill="#FBD324"/>
<path d="M1487.7 884.1L1568.6 942.881L1597.99 902.429L1487.7 884.1Z" fill="#FBD324"/>
<path d="M1524.02 995.909L1554.93 900.799L1602.48 916.25L1524.02 995.909Z" fill="#FBD324"/>
<path d="M1524.02 995.909L1604.93 937.127L1575.54 896.675L1524.02 995.909Z" fill="#FBD324"/>
<path d="M1417.8 979L1386.9 1074.11L1434.46 1089.56L1417.8 979Z" fill="#FBD324"/>
<path d="M1417.8 979L1448.71 1074.11L1401.15 1089.56L1417.8 979Z" fill="#FBD324"/>
<path d="M1512.91 1048.1H1412.91V1098.1L1512.91 1048.1Z" fill="#FBD324"/>
<path d="M1512.91 1048.1L1432.01 1106.88L1402.62 1066.43L1512.91 1048.1Z" fill="#FBD324"/>
<path d="M1476.59 1159.91L1445.68 1064.8L1398.13 1080.25L1476.59 1159.91Z" fill="#FBD324"/>
<path d="M1476.59 1159.91L1395.68 1101.13L1425.07 1060.68L1476.59 1159.91Z" fill="#FBD324"/>
<path d="M1322.7 1048.1H1422.7V1098.1L1322.7 1048.1Z" fill="#FBD324"/>
<path d="M1322.7 1048.1L1403.6 1106.88L1432.99 1066.43L1322.7 1048.1Z" fill="#FBD324"/>
<path d="M1359.02 1159.91L1389.93 1064.8L1437.48 1080.25L1359.02 1159.91Z" fill="#FBD324"/>
<path d="M1359.02 1159.91L1439.93 1101.13L1410.54 1060.67L1359.02 1159.91Z" fill="#FBD324"/>
<path d="M1192.8 1040L1161.9 1135.11L1209.46 1150.56L1192.8 1040Z" fill="#FBD324"/>
<path d="M1192.8 1040L1223.71 1135.11L1176.15 1150.56L1192.8 1040Z" fill="#FBD324"/>
<path d="M1287.91 1109.1H1187.91V1159.1L1287.91 1109.1Z" fill="#FBD324"/>
<path d="M1287.91 1109.1L1207.01 1167.88L1177.62 1127.43L1287.91 1109.1Z" fill="#FBD324"/>
<path d="M1251.59 1220.91L1220.68 1125.8L1173.13 1141.25L1251.59 1220.91Z" fill="#FBD324"/>
<path d="M1251.59 1220.91L1170.68 1162.13L1200.07 1121.68L1251.59 1220.91Z" fill="#FBD324"/>
<path d="M1097.7 1109.1H1197.7V1159.1L1097.7 1109.1Z" fill="#FBD324"/>
<path d="M1097.7 1109.1L1178.6 1167.88L1207.99 1127.43L1097.7 1109.1Z" fill="#FBD324"/>
<path d="M1134.02 1220.91L1164.93 1125.8L1212.48 1141.25L1134.02 1220.91Z" fill="#FBD324"/>
<path d="M1134.02 1220.91L1214.93 1162.13L1185.54 1121.67L1134.02 1220.91Z" fill="#FBD324"/>
<path d="M967.805 980L936.902 1075.11L984.456 1090.56L967.805 980Z" fill="#FBD324"/>
<path d="M967.805 980L998.708 1075.11L951.153 1090.56L967.805 980Z" fill="#FBD324"/>
<path d="M1062.91 1049.1H962.911V1099.1L1062.91 1049.1Z" fill="#FBD324"/>
<path d="M1062.91 1049.1L982.01 1107.88L952.619 1067.43L1062.91 1049.1Z" fill="#FBD324"/>
<path d="M1026.59 1160.91L995.683 1065.8L948.128 1081.25L1026.59 1160.91Z" fill="#FBD324"/>
<path d="M1026.59 1160.91L945.681 1102.13L975.071 1061.68L1026.59 1160.91Z" fill="#FBD324"/>
<path d="M872.695 1049.1H972.7V1099.1L872.695 1049.1Z" fill="#FBD324"/>
<path d="M872.695 1049.1L953.601 1107.88L982.991 1067.43L872.695 1049.1Z" fill="#FBD324"/>
<path d="M909.024 1160.91L939.927 1065.8L987.482 1081.25L909.024 1160.91Z" fill="#FBD324"/>
<path d="M909.024 1160.91L989.929 1102.13L960.539 1061.67L909.024 1160.91Z" fill="#FBD324"/>
<path d="M803.805 815L772.902 910.11L820.456 925.561L803.805 815Z" fill="#FBD324"/>
<path d="M803.805 815L834.708 910.11L787.153 925.561L803.805 815Z" fill="#FBD324"/>
<path d="M898.915 884.1H798.911V934.102L898.915 884.1Z" fill="#FBD324"/>
<path d="M898.915 884.1L818.01 942.881L788.619 902.429L898.915 884.1Z" fill="#FBD324"/>
<path d="M862.586 995.909L831.683 900.799L784.128 916.25L862.586 995.909Z" fill="#FBD324"/>
<path d="M862.586 995.909L781.681 937.128L811.071 896.675L862.586 995.909Z" fill="#FBD324"/>
<path d="M708.695 884.1H808.7V934.102L708.695 884.1Z" fill="#FBD324"/>
<path d="M708.695 884.1L789.601 942.881L818.991 902.429L708.695 884.1Z" fill="#FBD324"/>
<path d="M745.024 995.909L775.927 900.799L823.482 916.25L745.024 995.909Z" fill="#FBD324"/>
<path d="M745.024 995.909L825.929 937.127L796.539 896.675L745.024 995.909Z" fill="#FBD324"/>
<path d="M742.805 590L711.902 685.11L759.456 700.561L742.805 590Z" fill="#FBD324"/>
<path d="M742.805 590L773.708 685.11L726.153 700.561L742.805 590Z" fill="#FBD324"/>
<path d="M837.915 659.1H737.911V709.102L837.915 659.1Z" fill="#FBD324"/>
<path d="M837.915 659.1L757.01 717.881L727.619 677.429L837.915 659.1Z" fill="#FBD324"/>
<path d="M801.586 770.909L770.683 675.799L723.128 691.25L801.586 770.909Z" fill="#FBD324"/>
<path d="M801.586 770.909L720.681 712.128L750.071 671.675L801.586 770.909Z" fill="#FBD324"/>
<path d="M647.695 659.1H747.7V709.102L647.695 659.1Z" fill="#FBD324"/>
<path d="M647.695 659.1L728.601 717.881L757.991 677.429L647.695 659.1Z" fill="#FBD324"/>
<path d="M684.024 770.909L714.927 675.799L762.482 691.25L684.024 770.909Z" fill="#FBD324"/>
<path d="M684.024 770.909L764.929 712.127L735.539 671.675L684.024 770.909Z" fill="#FBD324"/>
<path d="M803.805 365L772.902 460.11L820.456 475.561L803.805 365Z" fill="#FBD324"/>
<path d="M803.805 365L834.708 460.11L787.153 475.561L803.805 365Z" fill="#FBD324"/>
<path d="M898.915 434.1H798.911V484.102L898.915 434.1Z" fill="#FBD324"/>
<path d="M898.915 434.1L818.01 492.881L788.619 452.429L898.915 434.1Z" fill="#FBD324"/>
<path d="M862.586 545.909L831.683 450.799L784.128 466.25L862.586 545.909Z" fill="#FBD324"/>
<path d="M862.586 545.909L781.681 487.128L811.071 446.675L862.586 545.909Z" fill="#FBD324"/>
<path d="M708.695 434.1H808.7V484.102L708.695 434.1Z" fill="#FBD324"/>
<path d="M708.695 434.1L789.601 492.881L818.991 452.429L708.695 434.1Z" fill="#FBD324"/>
<path d="M745.024 545.909L775.927 450.799L823.482 466.25L745.024 545.909Z" fill="#FBD324"/>
<path d="M745.024 545.909L825.929 487.127L796.539 446.675L745.024 545.909Z" fill="#FBD324"/>
<path d="M967.805 200L936.902 295.11L984.456 310.561L967.805 200Z" fill="#FBD324"/>
<path d="M967.805 200L998.708 295.11L951.153 310.561L967.805 200Z" fill="#FBD324"/>
<path d="M1062.91 269.1H962.911V319.102L1062.91 269.1Z" fill="#FBD324"/>
<path d="M1062.91 269.1L982.01 327.881L952.619 287.429L1062.91 269.1Z" fill="#FBD324"/>
<path d="M1026.59 380.909L995.683 285.799L948.128 301.25L1026.59 380.909Z" fill="#FBD324"/>
<path d="M1026.59 380.909L945.681 322.128L975.071 281.675L1026.59 380.909Z" fill="#FBD324"/>
<path d="M872.695 269.1H972.7V319.102L872.695 269.1Z" fill="#FBD324"/>
<path d="M872.695 269.1L953.601 327.881L982.991 287.429L872.695 269.1Z" fill="#FBD324"/>
<path d="M909.024 380.909L939.927 285.799L987.482 301.25L909.024 380.909Z" fill="#FBD324"/>
<path d="M909.024 380.909L989.929 322.127L960.539 281.675L909.024 380.909Z" fill="#FBD324"/>
<path d="M1192.8 140L1161.9 235.11L1209.46 250.561L1192.8 140Z" fill="#FBD324"/>
<path d="M1192.8 140L1223.71 235.11L1176.15 250.561L1192.8 140Z" fill="#FBD324"/>
<path d="M1287.91 209.1H1187.91V259.102L1287.91 209.1Z" fill="#FBD324"/>
<path d="M1287.91 209.1L1207.01 267.881L1177.62 227.429L1287.91 209.1Z" fill="#FBD324"/>
<path d="M1251.59 320.909L1220.68 225.799L1173.13 241.25L1251.59 320.909Z" fill="#FBD324"/>
<path d="M1251.59 320.909L1170.68 262.128L1200.07 221.675L1251.59 320.909Z" fill="#FBD324"/>
<path d="M1097.7 209.1H1197.7V259.102L1097.7 209.1Z" fill="#FBD324"/>
<path d="M1097.7 209.1L1178.6 267.881L1207.99 227.429L1097.7 209.1Z" fill="#FBD324"/>
<path d="M1134.02 320.909L1164.93 225.799L1212.48 241.25L1134.02 320.909Z" fill="#FBD324"/>
<path d="M1134.02 320.909L1214.93 262.127L1185.54 221.675L1134.02 320.909Z" fill="#FBD324"/>
<path d="M1417.8 200L1386.9 295.11L1434.46 310.561L1417.8 200Z" fill="#FBD324"/>
<path d="M1417.8 200L1448.71 295.11L1401.15 310.561L1417.8 200Z" fill="#FBD324"/>
<path d="M1512.91 269.1H1412.91V319.102L1512.91 269.1Z" fill="#FBD324"/>
<path d="M1512.91 269.1L1432.01 327.881L1402.62 287.429L1512.91 269.1Z" fill="#FBD324"/>
<path d="M1476.59 380.909L1445.68 285.799L1398.13 301.25L1476.59 380.909Z" fill="#FBD324"/>
<path d="M1476.59 380.909L1395.68 322.128L1425.07 281.675L1476.59 380.909Z" fill="#FBD324"/>
<path d="M1322.7 269.1H1422.7V319.102L1322.7 269.1Z" fill="#FBD324"/>
<path d="M1322.7 269.1L1403.6 327.881L1432.99 287.429L1322.7 269.1Z" fill="#FBD324"/>
<path d="M1359.02 380.909L1389.93 285.799L1437.48 301.25L1359.02 380.909Z" fill="#FBD324"/>
<path d="M1359.02 380.909L1439.93 322.127L1410.54 281.675L1359.02 380.909Z" fill="#FBD324"/>
<path d="M1582.8 365L1551.9 460.11L1599.46 475.561L1582.8 365Z" fill="#FBD324"/>
<path d="M1582.8 365L1613.71 460.11L1566.15 475.561L1582.8 365Z" fill="#FBD324"/>
<path d="M1677.91 434.1H1577.91V484.102L1677.91 434.1Z" fill="#FBD324"/>
<path d="M1677.91 434.1L1597.01 492.881L1567.62 452.429L1677.91 434.1Z" fill="#FBD324"/>
<path d="M1641.59 545.909L1610.68 450.799L1563.13 466.25L1641.59 545.909Z" fill="#FBD324"/>
<path d="M1641.59 545.909L1560.68 487.128L1590.07 446.675L1641.59 545.909Z" fill="#FBD324"/>
<path d="M1487.7 434.1H1587.7V484.102L1487.7 434.1Z" fill="#FBD324"/>
<path d="M1487.7 434.1L1568.6 492.881L1597.99 452.429L1487.7 434.1Z" fill="#FBD324"/>
<path d="M1524.02 545.909L1554.93 450.799L1602.48 466.25L1524.02 545.909Z" fill="#FBD324"/>
<path d="M1524.02 545.909L1604.93 487.127L1575.54 446.675L1524.02 545.909Z" fill="#FBD324"/>
</g>
<defs>
<clipPath id="clip0_2479_212">
<rect width="1735" height="1728" fill="white" transform="translate(633 136)"/>
</clipPath>
</defs>
</svg>
