<svg width="3000" height="2000" viewBox="0 0 3000 2000" fill="none" xmlns="http://www.w3.org/2000/svg">
<rect width="3000" height="2000" fill="white"/>
<path d="M1586 351.351L1560.11 431.039L1599.95 443.985L1586 351.351Z" fill="#FFCC00"/>
<path d="M1586 351.351L1611.89 431.039L1572.05 443.985L1586 351.351Z" fill="#FFCC00"/>
<path d="M1665.69 409.247H1581.9V451.141L1665.69 409.247Z" fill="#FFCC00"/>
<path d="M1665.69 409.247L1597.9 458.497L1573.28 424.603L1665.69 409.247Z" fill="#FFCC00"/>
<path d="M1635.25 502.926L1609.36 423.238L1569.51 436.184L1635.25 502.926Z" fill="#FFCC00"/>
<path d="M1635.25 502.926L1567.46 453.676L1592.09 419.783L1635.25 502.926Z" fill="#FFCC00"/>
<path d="M1506.31 409.247H1590.1V451.141L1506.31 409.247Z" fill="#FFCC00"/>
<path d="M1506.31 409.247L1574.1 458.496L1598.72 424.603L1506.31 409.247Z" fill="#FFCC00"/>
<path d="M1536.75 502.925L1562.64 423.238L1602.49 436.184L1536.75 502.925Z" fill="#FFCC00"/>
<path d="M1536.75 502.925L1604.54 453.676L1579.91 419.783L1536.75 502.925Z" fill="#FFCC00"/>
<path d="M1413 178.351L1387.11 258.039L1426.95 270.985L1413 178.351Z" fill="#FFCC00"/>
<path d="M1413 178.351L1438.89 258.039L1399.05 270.985L1413 178.351Z" fill="#FFCC00"/>
<path d="M1492.69 236.247H1408.9V278.141L1492.69 236.247Z" fill="#FFCC00"/>
<path d="M1492.69 236.247L1424.9 285.497L1400.28 251.603L1492.69 236.247Z" fill="#FFCC00"/>
<path d="M1462.25 329.926L1436.36 250.238L1396.51 263.184L1462.25 329.926Z" fill="#FFCC00"/>
<path d="M1462.25 329.926L1394.46 280.676L1419.09 246.783L1462.25 329.926Z" fill="#FFCC00"/>
<path d="M1333.31 236.247H1417.1V278.141L1333.31 236.247Z" fill="#FFCC00"/>
<path d="M1333.31 236.247L1401.1 285.496L1425.72 251.603L1333.31 236.247Z" fill="#FFCC00"/>
<path d="M1363.75 329.925L1389.64 250.238L1429.49 263.184L1363.75 329.925Z" fill="#FFCC00"/>
<path d="M1363.75 329.925L1431.54 280.676L1406.91 246.783L1363.75 329.925Z" fill="#FFCC00"/>
<path d="M1175 114.351L1149.11 194.039L1188.95 206.985L1175 114.351Z" fill="#FFCC00"/>
<path d="M1175 114.351L1200.89 194.039L1161.05 206.985L1175 114.351Z" fill="#FFCC00"/>
<path d="M1254.69 172.247H1170.9V214.141L1254.69 172.247Z" fill="#FFCC00"/>
<path d="M1254.69 172.247L1186.9 221.497L1162.28 187.603L1254.69 172.247Z" fill="#FFCC00"/>
<path d="M1224.25 265.926L1198.36 186.238L1158.51 199.184L1224.25 265.926Z" fill="#FFCC00"/>
<path d="M1224.25 265.926L1156.46 216.676L1181.09 182.783L1224.25 265.926Z" fill="#FFCC00"/>
<path d="M1095.31 172.247H1179.1V214.141L1095.31 172.247Z" fill="#FFCC00"/>
<path d="M1095.31 172.247L1163.1 221.496L1187.72 187.603L1095.31 172.247Z" fill="#FFCC00"/>
<path d="M1125.75 265.925L1151.64 186.238L1191.49 199.184L1125.75 265.925Z" fill="#FFCC00"/>
<path d="M1125.75 265.925L1193.54 216.676L1168.91 182.783L1125.75 265.925Z" fill="#FFCC00"/>
<path d="M937 178.351L911.108 258.039L950.951 270.985L937 178.351Z" fill="#FFCC00"/>
<path d="M937 178.351L962.892 258.039L923.048 270.985L937 178.351Z" fill="#FFCC00"/>
<path d="M1016.69 236.247H932.899V278.141L1016.69 236.247Z" fill="#FFCC00"/>
<path d="M1016.69 236.247L948.901 285.497L924.277 251.603L1016.69 236.247Z" fill="#FFCC00"/>
<path d="M986.25 329.926L960.358 250.238L920.514 263.184L986.25 329.926Z" fill="#FFCC00"/>
<path d="M986.25 329.926L918.463 280.676L943.088 246.783L986.25 329.926Z" fill="#FFCC00"/>
<path d="M857.312 236.247H941.101V278.141L857.312 236.247Z" fill="#FFCC00"/>
<path d="M857.312 236.247L925.099 285.496L949.724 251.603L857.312 236.247Z" fill="#FFCC00"/>
<path d="M887.75 329.925L913.642 250.238L953.486 263.184L887.75 329.925Z" fill="#FFCC00"/>
<path d="M887.75 329.925L955.537 280.676L930.912 246.783L887.75 329.925Z" fill="#FFCC00"/>
<path d="M764 351.351L738.108 431.039L777.951 443.985L764 351.351Z" fill="#FFCC00"/>
<path d="M764 351.351L789.892 431.039L750.048 443.985L764 351.351Z" fill="#FFCC00"/>
<path d="M843.688 409.247H759.899V451.141L843.688 409.247Z" fill="#FFCC00"/>
<path d="M843.688 409.247L775.901 458.497L751.277 424.603L843.688 409.247Z" fill="#FFCC00"/>
<path d="M813.25 502.926L787.358 423.238L747.514 436.184L813.25 502.926Z" fill="#FFCC00"/>
<path d="M813.25 502.926L745.463 453.676L770.088 419.783L813.25 502.926Z" fill="#FFCC00"/>
<path d="M684.312 409.247H768.101V451.141L684.312 409.247Z" fill="#FFCC00"/>
<path d="M684.312 409.247L752.099 458.496L776.724 424.603L684.312 409.247Z" fill="#FFCC00"/>
<path d="M714.75 502.925L740.642 423.238L780.486 436.184L714.75 502.925Z" fill="#FFCC00"/>
<path d="M714.75 502.925L782.537 453.676L757.912 419.783L714.75 502.925Z" fill="#FFCC00"/>
<path d="M700 589.351L674.108 669.039L713.951 681.985L700 589.351Z" fill="#FFCC00"/>
<path d="M700 589.351L725.892 669.039L686.048 681.985L700 589.351Z" fill="#FFCC00"/>
<path d="M779.688 647.247H695.899V689.141L779.688 647.247Z" fill="#FFCC00"/>
<path d="M779.688 647.247L711.901 696.497L687.277 662.603L779.688 647.247Z" fill="#FFCC00"/>
<path d="M749.25 740.926L723.358 661.238L683.514 674.184L749.25 740.926Z" fill="#FFCC00"/>
<path d="M749.25 740.926L681.463 691.676L706.088 657.783L749.25 740.926Z" fill="#FFCC00"/>
<path d="M620.312 647.247H704.101V689.141L620.312 647.247Z" fill="#FFCC00"/>
<path d="M620.312 647.247L688.099 696.496L712.724 662.603L620.312 647.247Z" fill="#FFCC00"/>
<path d="M650.75 740.925L676.642 661.238L716.486 674.184L650.75 740.925Z" fill="#FFCC00"/>
<path d="M650.75 740.925L718.537 691.676L693.912 657.783L650.75 740.925Z" fill="#FFCC00"/>
<path d="M764 826.351L738.108 906.039L777.951 918.985L764 826.351Z" fill="#FFCC00"/>
<path d="M764 826.351L789.892 906.039L750.048 918.985L764 826.351Z" fill="#FFCC00"/>
<path d="M843.688 884.247H759.899V926.141L843.688 884.247Z" fill="#FFCC00"/>
<path d="M843.688 884.247L775.901 933.497L751.277 899.604L843.688 884.247Z" fill="#FFCC00"/>
<path d="M813.25 977.926L787.358 898.238L747.514 911.184L813.25 977.926Z" fill="#FFCC00"/>
<path d="M813.25 977.926L745.463 928.676L770.088 894.783L813.25 977.926Z" fill="#FFCC00"/>
<path d="M684.312 884.247H768.101V926.141L684.312 884.247Z" fill="#FFCC00"/>
<path d="M684.312 884.247L752.099 933.497L776.724 899.603L684.312 884.247Z" fill="#FFCC00"/>
<path d="M714.75 977.925L740.642 898.238L780.486 911.184L714.75 977.925Z" fill="#FFCC00"/>
<path d="M714.75 977.925L782.537 928.676L757.912 894.783L714.75 977.925Z" fill="#FFCC00"/>
<path d="M938 1000.35L912.108 1080.04L951.951 1092.99L938 1000.35Z" fill="#FFCC00"/>
<path d="M938 1000.35L963.892 1080.04L924.048 1092.99L938 1000.35Z" fill="#FFCC00"/>
<path d="M1017.69 1058.25H933.899V1100.14L1017.69 1058.25Z" fill="#FFCC00"/>
<path d="M1017.69 1058.25L949.901 1107.5L925.277 1073.6L1017.69 1058.25Z" fill="#FFCC00"/>
<path d="M987.25 1151.93L961.358 1072.24L921.514 1085.18L987.25 1151.93Z" fill="#FFCC00"/>
<path d="M987.25 1151.93L919.463 1102.68L944.088 1068.78L987.25 1151.93Z" fill="#FFCC00"/>
<path d="M858.312 1058.25H942.101V1100.14L858.312 1058.25Z" fill="#FFCC00"/>
<path d="M858.312 1058.25L926.099 1107.5L950.724 1073.6L858.312 1058.25Z" fill="#FFCC00"/>
<path d="M888.75 1151.93L914.642 1072.24L954.486 1085.18L888.75 1151.93Z" fill="#FFCC00"/>
<path d="M888.75 1151.93L956.537 1102.68L931.912 1068.78L888.75 1151.93Z" fill="#FFCC00"/>
<path d="M1175 1064.35L1149.11 1144.04L1188.95 1156.99L1175 1064.35Z" fill="#FFCC00"/>
<path d="M1175 1064.35L1200.89 1144.04L1161.05 1156.99L1175 1064.35Z" fill="#FFCC00"/>
<path d="M1254.69 1122.25H1170.9V1164.14L1254.69 1122.25Z" fill="#FFCC00"/>
<path d="M1254.69 1122.25L1186.9 1171.5L1162.28 1137.6L1254.69 1122.25Z" fill="#FFCC00"/>
<path d="M1224.25 1215.93L1198.36 1136.24L1158.51 1149.18L1224.25 1215.93Z" fill="#FFCC00"/>
<path d="M1224.25 1215.93L1156.46 1166.68L1181.09 1132.78L1224.25 1215.93Z" fill="#FFCC00"/>
<path d="M1095.31 1122.25H1179.1V1164.14L1095.31 1122.25Z" fill="#FFCC00"/>
<path d="M1095.31 1122.25L1163.1 1171.5L1187.72 1137.6L1095.31 1122.25Z" fill="#FFCC00"/>
<path d="M1125.75 1215.93L1151.64 1136.24L1191.49 1149.18L1125.75 1215.93Z" fill="#FFCC00"/>
<path d="M1125.75 1215.93L1193.54 1166.68L1168.91 1132.78L1125.75 1215.93Z" fill="#FFCC00"/>
<path d="M1413 1001.35L1387.11 1081.04L1426.95 1093.99L1413 1001.35Z" fill="#FFCC00"/>
<path d="M1413 1001.35L1438.89 1081.04L1399.05 1093.99L1413 1001.35Z" fill="#FFCC00"/>
<path d="M1492.69 1059.25H1408.9V1101.14L1492.69 1059.25Z" fill="#FFCC00"/>
<path d="M1492.69 1059.25L1424.9 1108.5L1400.28 1074.6L1492.69 1059.25Z" fill="#FFCC00"/>
<path d="M1462.25 1152.93L1436.36 1073.24L1396.51 1086.18L1462.25 1152.93Z" fill="#FFCC00"/>
<path d="M1462.25 1152.93L1394.46 1103.68L1419.09 1069.78L1462.25 1152.93Z" fill="#FFCC00"/>
<path d="M1333.31 1059.25H1417.1V1101.14L1333.31 1059.25Z" fill="#FFCC00"/>
<path d="M1333.31 1059.25L1401.1 1108.5L1425.72 1074.6L1333.31 1059.25Z" fill="#FFCC00"/>
<path d="M1363.75 1152.93L1389.64 1073.24L1429.49 1086.18L1363.75 1152.93Z" fill="#FFCC00"/>
<path d="M1363.75 1152.93L1431.54 1103.68L1406.91 1069.78L1363.75 1152.93Z" fill="#FFCC00"/>
<path d="M1586 828.351L1560.11 908.039L1599.95 920.985L1586 828.351Z" fill="#FFCC00"/>
<path d="M1586 828.351L1611.89 908.039L1572.05 920.985L1586 828.351Z" fill="#FFCC00"/>
<path d="M1665.69 886.247H1581.9V928.141L1665.69 886.247Z" fill="#FFCC00"/>
<path d="M1665.69 886.247L1597.9 935.497L1573.28 901.604L1665.69 886.247Z" fill="#FFCC00"/>
<path d="M1635.25 979.926L1609.36 900.238L1569.51 913.184L1635.25 979.926Z" fill="#FFCC00"/>
<path d="M1635.25 979.926L1567.46 930.676L1592.09 896.783L1635.25 979.926Z" fill="#FFCC00"/>
<path d="M1506.31 886.247H1590.1V928.141L1506.31 886.247Z" fill="#FFCC00"/>
<path d="M1506.31 886.247L1574.1 935.497L1598.72 901.603L1506.31 886.247Z" fill="#FFCC00"/>
<path d="M1536.75 979.925L1562.64 900.238L1602.49 913.184L1536.75 979.925Z" fill="#FFCC00"/>
<path d="M1536.75 979.925L1604.54 930.676L1579.91 896.783L1536.75 979.925Z" fill="#FFCC00"/>
<path d="M1824 764.351L1798.11 844.039L1837.95 856.985L1824 764.351Z" fill="#FFCC00"/>
<path d="M1824 764.351L1849.89 844.039L1810.05 856.985L1824 764.351Z" fill="#FFCC00"/>
<path d="M1903.69 822.247H1819.9V864.141L1903.69 822.247Z" fill="#FFCC00"/>
<path d="M1903.69 822.247L1835.9 871.497L1811.28 837.604L1903.69 822.247Z" fill="#FFCC00"/>
<path d="M1873.25 915.926L1847.36 836.238L1807.51 849.184L1873.25 915.926Z" fill="#FFCC00"/>
<path d="M1873.25 915.926L1805.46 866.676L1830.09 832.783L1873.25 915.926Z" fill="#FFCC00"/>
<path d="M1744.31 822.247H1828.1V864.141L1744.31 822.247Z" fill="#FFCC00"/>
<path d="M1744.31 822.247L1812.1 871.497L1836.72 837.603L1744.31 822.247Z" fill="#FFCC00"/>
<path d="M1774.75 915.925L1800.64 836.238L1840.49 849.184L1774.75 915.925Z" fill="#FFCC00"/>
<path d="M1774.75 915.925L1842.54 866.676L1817.91 832.783L1774.75 915.925Z" fill="#FFCC00"/>
<path d="M2062 828.351L2036.11 908.039L2075.95 920.985L2062 828.351Z" fill="#FFCC00"/>
<path d="M2062 828.351L2087.89 908.039L2048.05 920.985L2062 828.351Z" fill="#FFCC00"/>
<path d="M2141.69 886.247H2057.9V928.141L2141.69 886.247Z" fill="#FFCC00"/>
<path d="M2141.69 886.247L2073.9 935.497L2049.28 901.604L2141.69 886.247Z" fill="#FFCC00"/>
<path d="M2111.25 979.926L2085.36 900.238L2045.51 913.184L2111.25 979.926Z" fill="#FFCC00"/>
<path d="M2111.25 979.926L2043.46 930.676L2068.09 896.783L2111.25 979.926Z" fill="#FFCC00"/>
<path d="M1982.31 886.247H2066.1V928.141L1982.31 886.247Z" fill="#FFCC00"/>
<path d="M1982.31 886.247L2050.1 935.497L2074.72 901.603L1982.31 886.247Z" fill="#FFCC00"/>
<path d="M2012.75 979.925L2038.64 900.238L2078.49 913.184L2012.75 979.925Z" fill="#FFCC00"/>
<path d="M2012.75 979.925L2080.54 930.676L2055.91 896.783L2012.75 979.925Z" fill="#FFCC00"/>
<path d="M2235 1001.35L2209.11 1081.04L2248.95 1093.99L2235 1001.35Z" fill="#FFCC00"/>
<path d="M2235 1001.35L2260.89 1081.04L2221.05 1093.99L2235 1001.35Z" fill="#FFCC00"/>
<path d="M2314.69 1059.25H2230.9V1101.14L2314.69 1059.25Z" fill="#FFCC00"/>
<path d="M2314.69 1059.25L2246.9 1108.5L2222.28 1074.6L2314.69 1059.25Z" fill="#FFCC00"/>
<path d="M2284.25 1152.93L2258.36 1073.24L2218.51 1086.18L2284.25 1152.93Z" fill="#FFCC00"/>
<path d="M2284.25 1152.93L2216.46 1103.68L2241.09 1069.78L2284.25 1152.93Z" fill="#FFCC00"/>
<path d="M2155.31 1059.25H2239.1V1101.14L2155.31 1059.25Z" fill="#FFCC00"/>
<path d="M2155.31 1059.25L2223.1 1108.5L2247.72 1074.6L2155.31 1059.25Z" fill="#FFCC00"/>
<path d="M2185.75 1152.93L2211.64 1073.24L2251.49 1086.18L2185.75 1152.93Z" fill="#FFCC00"/>
<path d="M2185.75 1152.93L2253.54 1103.68L2228.91 1069.78L2185.75 1152.93Z" fill="#FFCC00"/>
<path d="M2299 1239.35L2273.11 1319.04L2312.95 1331.99L2299 1239.35Z" fill="#FFCC00"/>
<path d="M2299 1239.35L2324.89 1319.04L2285.05 1331.99L2299 1239.35Z" fill="#FFCC00"/>
<path d="M2378.69 1297.25H2294.9V1339.14L2378.69 1297.25Z" fill="#FFCC00"/>
<path d="M2378.69 1297.25L2310.9 1346.5L2286.28 1312.6L2378.69 1297.25Z" fill="#FFCC00"/>
<path d="M2348.25 1390.93L2322.36 1311.24L2282.51 1324.18L2348.25 1390.93Z" fill="#FFCC00"/>
<path d="M2348.25 1390.93L2280.46 1341.68L2305.09 1307.78L2348.25 1390.93Z" fill="#FFCC00"/>
<path d="M2219.31 1297.25H2303.1V1339.14L2219.31 1297.25Z" fill="#FFCC00"/>
<path d="M2219.31 1297.25L2287.1 1346.5L2311.72 1312.6L2219.31 1297.25Z" fill="#FFCC00"/>
<path d="M2249.75 1390.93L2275.64 1311.24L2315.49 1324.18L2249.75 1390.93Z" fill="#FFCC00"/>
<path d="M2249.75 1390.93L2317.54 1341.68L2292.91 1307.78L2249.75 1390.93Z" fill="#FFCC00"/>
<path d="M2236 1476.35L2210.11 1556.04L2249.95 1568.99L2236 1476.35Z" fill="#FFCC00"/>
<path d="M2236 1476.35L2261.89 1556.04L2222.05 1568.99L2236 1476.35Z" fill="#FFCC00"/>
<path d="M2315.69 1534.25H2231.9V1576.14L2315.69 1534.25Z" fill="#FFCC00"/>
<path d="M2315.69 1534.25L2247.9 1583.5L2223.28 1549.6L2315.69 1534.25Z" fill="#FFCC00"/>
<path d="M2285.25 1627.93L2259.36 1548.24L2219.51 1561.18L2285.25 1627.93Z" fill="#FFCC00"/>
<path d="M2285.25 1627.93L2217.46 1578.68L2242.09 1544.78L2285.25 1627.93Z" fill="#FFCC00"/>
<path d="M2156.31 1534.25H2240.1V1576.14L2156.31 1534.25Z" fill="#FFCC00"/>
<path d="M2156.31 1534.25L2224.1 1583.5L2248.72 1549.6L2156.31 1534.25Z" fill="#FFCC00"/>
<path d="M2186.75 1627.93L2212.64 1548.24L2252.49 1561.18L2186.75 1627.93Z" fill="#FFCC00"/>
<path d="M2186.75 1627.93L2254.54 1578.68L2229.91 1544.78L2186.75 1627.93Z" fill="#FFCC00"/>
<path d="M2061 1650.35L2035.11 1730.04L2074.95 1742.99L2061 1650.35Z" fill="#FFCC00"/>
<path d="M2061 1650.35L2086.89 1730.04L2047.05 1742.99L2061 1650.35Z" fill="#FFCC00"/>
<path d="M2140.69 1708.25H2056.9V1750.14L2140.69 1708.25Z" fill="#FFCC00"/>
<path d="M2140.69 1708.25L2072.9 1757.5L2048.28 1723.6L2140.69 1708.25Z" fill="#FFCC00"/>
<path d="M2110.25 1801.93L2084.36 1722.24L2044.51 1735.18L2110.25 1801.93Z" fill="#FFCC00"/>
<path d="M2110.25 1801.93L2042.46 1752.68L2067.09 1718.78L2110.25 1801.93Z" fill="#FFCC00"/>
<path d="M1981.31 1708.25H2065.1V1750.14L1981.31 1708.25Z" fill="#FFCC00"/>
<path d="M1981.31 1708.25L2049.1 1757.5L2073.72 1723.6L1981.31 1708.25Z" fill="#FFCC00"/>
<path d="M2011.75 1801.93L2037.64 1722.24L2077.49 1735.18L2011.75 1801.93Z" fill="#FFCC00"/>
<path d="M2011.75 1801.93L2079.54 1752.68L2054.91 1718.78L2011.75 1801.93Z" fill="#FFCC00"/>
<path d="M1824 1714.35L1798.11 1794.04L1837.95 1806.98L1824 1714.35Z" fill="#FFCC00"/>
<path d="M1824 1714.35L1849.89 1794.04L1810.05 1806.99L1824 1714.35Z" fill="#FFCC00"/>
<path d="M1903.69 1772.25H1819.9V1814.14L1903.69 1772.25Z" fill="#FFCC00"/>
<path d="M1903.69 1772.25L1835.9 1821.5L1811.28 1787.6L1903.69 1772.25Z" fill="#FFCC00"/>
<path d="M1873.25 1865.93L1847.36 1786.24L1807.51 1799.18L1873.25 1865.93Z" fill="#FFCC00"/>
<path d="M1873.25 1865.93L1805.46 1816.68L1830.09 1782.78L1873.25 1865.93Z" fill="#FFCC00"/>
<path d="M1744.31 1772.25H1828.1V1814.14L1744.31 1772.25Z" fill="#FFCC00"/>
<path d="M1744.31 1772.25L1812.1 1821.5L1836.72 1787.6L1744.31 1772.25Z" fill="#FFCC00"/>
<path d="M1774.75 1865.93L1800.64 1786.24L1840.49 1799.18L1774.75 1865.93Z" fill="#FFCC00"/>
<path d="M1774.75 1865.93L1842.54 1816.68L1817.91 1782.78L1774.75 1865.93Z" fill="#FFCC00"/>
<path d="M1587 1650.35L1561.11 1730.04L1600.95 1742.99L1587 1650.35Z" fill="#FFCC00"/>
<path d="M1587 1650.35L1612.89 1730.04L1573.05 1742.99L1587 1650.35Z" fill="#FFCC00"/>
<path d="M1666.69 1708.25H1582.9V1750.14L1666.69 1708.25Z" fill="#FFCC00"/>
<path d="M1666.69 1708.25L1598.9 1757.5L1574.28 1723.6L1666.69 1708.25Z" fill="#FFCC00"/>
<path d="M1636.25 1801.93L1610.36 1722.24L1570.51 1735.18L1636.25 1801.93Z" fill="#FFCC00"/>
<path d="M1636.25 1801.93L1568.46 1752.68L1593.09 1718.78L1636.25 1801.93Z" fill="#FFCC00"/>
<path d="M1507.31 1708.25H1591.1V1750.14L1507.31 1708.25Z" fill="#FFCC00"/>
<path d="M1507.31 1708.25L1575.1 1757.5L1599.72 1723.6L1507.31 1708.25Z" fill="#FFCC00"/>
<path d="M1537.75 1801.93L1563.64 1722.24L1603.49 1735.18L1537.75 1801.93Z" fill="#FFCC00"/>
<path d="M1537.75 1801.93L1605.54 1752.68L1580.91 1718.78L1537.75 1801.93Z" fill="#FFCC00"/>
<path d="M1413 1476.35L1387.11 1556.04L1426.95 1568.99L1413 1476.35Z" fill="#FFCC00"/>
<path d="M1413 1476.35L1438.89 1556.04L1399.05 1568.99L1413 1476.35Z" fill="#FFCC00"/>
<path d="M1492.69 1534.25H1408.9V1576.14L1492.69 1534.25Z" fill="#FFCC00"/>
<path d="M1492.69 1534.25L1424.9 1583.5L1400.28 1549.6L1492.69 1534.25Z" fill="#FFCC00"/>
<path d="M1462.25 1627.93L1436.36 1548.24L1396.51 1561.18L1462.25 1627.93Z" fill="#FFCC00"/>
<path d="M1462.25 1627.93L1394.46 1578.68L1419.09 1544.78L1462.25 1627.93Z" fill="#FFCC00"/>
<path d="M1333.31 1534.25H1417.1V1576.14L1333.31 1534.25Z" fill="#FFCC00"/>
<path d="M1333.31 1534.25L1401.1 1583.5L1425.72 1549.6L1333.31 1534.25Z" fill="#FFCC00"/>
<path d="M1363.75 1627.93L1389.64 1548.24L1429.49 1561.18L1363.75 1627.93Z" fill="#FFCC00"/>
<path d="M1363.75 1627.93L1431.54 1578.68L1406.91 1544.78L1363.75 1627.93Z" fill="#FFCC00"/>
</svg>
