<svg width="3000" height="2000" viewBox="0 0 3000 2000" fill="none" xmlns="http://www.w3.org/2000/svg">
<rect width="3000" height="2000" fill="white"/>
<path d="M1582 382.351L1556.11 462.039L1595.95 474.985L1582 382.351Z" fill="#FFCC00"/>
<path d="M1582 382.351L1607.89 462.039L1568.05 474.985L1582 382.351Z" fill="#FFCC00"/>
<path d="M1661.69 440.247H1577.9V482.141L1661.69 440.247Z" fill="#FFCC00"/>
<path d="M1661.69 440.247L1593.9 489.497L1569.28 455.603L1661.69 440.247Z" fill="#FFCC00"/>
<path d="M1631.25 533.926L1605.36 454.238L1565.51 467.184L1631.25 533.926Z" fill="#FFCC00"/>
<path d="M1631.25 533.926L1563.46 484.676L1588.09 450.783L1631.25 533.926Z" fill="#FFCC00"/>
<path d="M1502.31 440.247H1586.1V482.141L1502.31 440.247Z" fill="#FFCC00"/>
<path d="M1502.31 440.247L1570.1 489.496L1594.72 455.603L1502.31 440.247Z" fill="#FFCC00"/>
<path d="M1532.75 533.925L1558.64 454.238L1598.49 467.184L1532.75 533.925Z" fill="#FFCC00"/>
<path d="M1532.75 533.925L1600.54 484.676L1575.91 450.783L1532.75 533.925Z" fill="#FFCC00"/>
<path d="M1417 217.351L1391.11 297.039L1430.95 309.985L1417 217.351Z" fill="#FFCC00"/>
<path d="M1417 217.351L1442.89 297.039L1403.05 309.985L1417 217.351Z" fill="#FFCC00"/>
<path d="M1496.69 275.247H1412.9V317.141L1496.69 275.247Z" fill="#FFCC00"/>
<path d="M1496.69 275.247L1428.9 324.497L1404.28 290.603L1496.69 275.247Z" fill="#FFCC00"/>
<path d="M1466.25 368.926L1440.36 289.238L1400.51 302.184L1466.25 368.926Z" fill="#FFCC00"/>
<path d="M1466.25 368.926L1398.46 319.676L1423.09 285.783L1466.25 368.926Z" fill="#FFCC00"/>
<path d="M1337.31 275.247H1421.1V317.141L1337.31 275.247Z" fill="#FFCC00"/>
<path d="M1337.31 275.247L1405.1 324.496L1429.72 290.603L1337.31 275.247Z" fill="#FFCC00"/>
<path d="M1367.75 368.925L1393.64 289.238L1433.49 302.184L1367.75 368.925Z" fill="#FFCC00"/>
<path d="M1367.75 368.925L1435.54 319.676L1410.91 285.783L1367.75 368.925Z" fill="#FFCC00"/>
<path d="M1192 157.351L1166.11 237.039L1205.95 249.985L1192 157.351Z" fill="#FFCC00"/>
<path d="M1192 157.351L1217.89 237.039L1178.05 249.985L1192 157.351Z" fill="#FFCC00"/>
<path d="M1271.69 215.247H1187.9V257.141L1271.69 215.247Z" fill="#FFCC00"/>
<path d="M1271.69 215.247L1203.9 264.497L1179.28 230.603L1271.69 215.247Z" fill="#FFCC00"/>
<path d="M1241.25 308.926L1215.36 229.238L1175.51 242.184L1241.25 308.926Z" fill="#FFCC00"/>
<path d="M1241.25 308.926L1173.46 259.676L1198.09 225.783L1241.25 308.926Z" fill="#FFCC00"/>
<path d="M1112.31 215.247H1196.1V257.141L1112.31 215.247Z" fill="#FFCC00"/>
<path d="M1112.31 215.247L1180.1 264.496L1204.72 230.603L1112.31 215.247Z" fill="#FFCC00"/>
<path d="M1142.75 308.925L1168.64 229.238L1208.49 242.184L1142.75 308.925Z" fill="#FFCC00"/>
<path d="M1142.75 308.925L1210.54 259.676L1185.91 225.783L1142.75 308.925Z" fill="#FFCC00"/>
<path d="M967 217.351L941.108 297.039L980.951 309.985L967 217.351Z" fill="#FFCC00"/>
<path d="M967 217.351L992.892 297.039L953.048 309.985L967 217.351Z" fill="#FFCC00"/>
<path d="M1046.69 275.247H962.899V317.141L1046.69 275.247Z" fill="#FFCC00"/>
<path d="M1046.69 275.247L978.901 324.497L954.277 290.603L1046.69 275.247Z" fill="#FFCC00"/>
<path d="M1016.25 368.926L990.358 289.238L950.514 302.184L1016.25 368.926Z" fill="#FFCC00"/>
<path d="M1016.25 368.926L948.463 319.676L973.088 285.783L1016.25 368.926Z" fill="#FFCC00"/>
<path d="M887.312 275.247H971.101V317.141L887.312 275.247Z" fill="#FFCC00"/>
<path d="M887.312 275.247L955.099 324.496L979.724 290.603L887.312 275.247Z" fill="#FFCC00"/>
<path d="M917.75 368.925L943.642 289.238L983.486 302.184L917.75 368.925Z" fill="#FFCC00"/>
<path d="M917.75 368.925L985.537 319.676L960.912 285.783L917.75 368.925Z" fill="#FFCC00"/>
<path d="M803 382.351L777.108 462.039L816.951 474.985L803 382.351Z" fill="#FFCC00"/>
<path d="M803 382.351L828.892 462.039L789.048 474.985L803 382.351Z" fill="#FFCC00"/>
<path d="M882.688 440.247H798.899V482.141L882.688 440.247Z" fill="#FFCC00"/>
<path d="M882.688 440.247L814.901 489.497L790.277 455.603L882.688 440.247Z" fill="#FFCC00"/>
<path d="M852.25 533.926L826.358 454.238L786.514 467.184L852.25 533.926Z" fill="#FFCC00"/>
<path d="M852.25 533.926L784.463 484.676L809.088 450.783L852.25 533.926Z" fill="#FFCC00"/>
<path d="M723.312 440.247H807.101V482.141L723.312 440.247Z" fill="#FFCC00"/>
<path d="M723.312 440.247L791.099 489.496L815.724 455.603L723.312 440.247Z" fill="#FFCC00"/>
<path d="M753.75 533.925L779.642 454.238L819.486 467.184L753.75 533.925Z" fill="#FFCC00"/>
<path d="M753.75 533.925L821.537 484.676L796.912 450.783L753.75 533.925Z" fill="#FFCC00"/>
<path d="M742 607.351L716.108 687.039L755.951 699.985L742 607.351Z" fill="#FFCC00"/>
<path d="M742 607.351L767.892 687.039L728.048 699.985L742 607.351Z" fill="#FFCC00"/>
<path d="M821.688 665.247H737.899V707.141L821.688 665.247Z" fill="#FFCC00"/>
<path d="M821.688 665.247L753.901 714.497L729.277 680.603L821.688 665.247Z" fill="#FFCC00"/>
<path d="M791.25 758.926L765.358 679.238L725.514 692.184L791.25 758.926Z" fill="#FFCC00"/>
<path d="M791.25 758.926L723.463 709.676L748.088 675.783L791.25 758.926Z" fill="#FFCC00"/>
<path d="M662.312 665.247H746.101V707.141L662.312 665.247Z" fill="#FFCC00"/>
<path d="M662.312 665.247L730.099 714.496L754.724 680.603L662.312 665.247Z" fill="#FFCC00"/>
<path d="M692.75 758.925L718.642 679.238L758.486 692.184L692.75 758.925Z" fill="#FFCC00"/>
<path d="M692.75 758.925L760.537 709.676L735.912 675.783L692.75 758.925Z" fill="#FFCC00"/>
<path d="M802 832.351L776.108 912.039L815.951 924.985L802 832.351Z" fill="#FFCC00"/>
<path d="M802 832.351L827.892 912.039L788.048 924.985L802 832.351Z" fill="#FFCC00"/>
<path d="M881.688 890.247H797.899V932.141L881.688 890.247Z" fill="#FFCC00"/>
<path d="M881.688 890.247L813.901 939.497L789.277 905.604L881.688 890.247Z" fill="#FFCC00"/>
<path d="M851.25 983.926L825.358 904.238L785.514 917.184L851.25 983.926Z" fill="#FFCC00"/>
<path d="M851.25 983.926L783.463 934.676L808.088 900.783L851.25 983.926Z" fill="#FFCC00"/>
<path d="M722.312 890.247H806.101V932.141L722.312 890.247Z" fill="#FFCC00"/>
<path d="M722.312 890.247L790.099 939.497L814.724 905.603L722.312 890.247Z" fill="#FFCC00"/>
<path d="M752.75 983.925L778.642 904.238L818.486 917.184L752.75 983.925Z" fill="#FFCC00"/>
<path d="M752.75 983.925L820.537 934.676L795.912 900.783L752.75 983.925Z" fill="#FFCC00"/>
<path d="M967 997.351L941.108 1077.04L980.951 1089.99L967 997.351Z" fill="#FFCC00"/>
<path d="M967 997.351L992.892 1077.04L953.048 1089.99L967 997.351Z" fill="#FFCC00"/>
<path d="M1046.69 1055.25H962.899V1097.14L1046.69 1055.25Z" fill="#FFCC00"/>
<path d="M1046.69 1055.25L978.901 1104.5L954.277 1070.6L1046.69 1055.25Z" fill="#FFCC00"/>
<path d="M1016.25 1148.93L990.358 1069.24L950.514 1082.18L1016.25 1148.93Z" fill="#FFCC00"/>
<path d="M1016.25 1148.93L948.463 1099.68L973.088 1065.78L1016.25 1148.93Z" fill="#FFCC00"/>
<path d="M887.312 1055.25H971.101V1097.14L887.312 1055.25Z" fill="#FFCC00"/>
<path d="M887.312 1055.25L955.099 1104.5L979.724 1070.6L887.312 1055.25Z" fill="#FFCC00"/>
<path d="M917.75 1148.93L943.642 1069.24L983.486 1082.18L917.75 1148.93Z" fill="#FFCC00"/>
<path d="M917.75 1148.93L985.537 1099.68L960.912 1065.78L917.75 1148.93Z" fill="#FFCC00"/>
<path d="M1192 1057.35L1166.11 1137.04L1205.95 1149.99L1192 1057.35Z" fill="#FFCC00"/>
<path d="M1192 1057.35L1217.89 1137.04L1178.05 1149.99L1192 1057.35Z" fill="#FFCC00"/>
<path d="M1271.69 1115.25H1187.9V1157.14L1271.69 1115.25Z" fill="#FFCC00"/>
<path d="M1271.69 1115.25L1203.9 1164.5L1179.28 1130.6L1271.69 1115.25Z" fill="#FFCC00"/>
<path d="M1241.25 1208.93L1215.36 1129.24L1175.51 1142.18L1241.25 1208.93Z" fill="#FFCC00"/>
<path d="M1241.25 1208.93L1173.46 1159.68L1198.09 1125.78L1241.25 1208.93Z" fill="#FFCC00"/>
<path d="M1112.31 1115.25H1196.1V1157.14L1112.31 1115.25Z" fill="#FFCC00"/>
<path d="M1112.31 1115.25L1180.1 1164.5L1204.72 1130.6L1112.31 1115.25Z" fill="#FFCC00"/>
<path d="M1142.75 1208.93L1168.64 1129.24L1208.49 1142.18L1142.75 1208.93Z" fill="#FFCC00"/>
<path d="M1142.75 1208.93L1210.54 1159.68L1185.91 1125.78L1142.75 1208.93Z" fill="#FFCC00"/>
<path d="M1418 996.351L1392.11 1076.04L1431.95 1088.99L1418 996.351Z" fill="#FFCC00"/>
<path d="M1418 996.351L1443.89 1076.04L1404.05 1088.99L1418 996.351Z" fill="#FFCC00"/>
<path d="M1497.69 1054.25H1413.9V1096.14L1497.69 1054.25Z" fill="#FFCC00"/>
<path d="M1497.69 1054.25L1429.9 1103.5L1405.28 1069.6L1497.69 1054.25Z" fill="#FFCC00"/>
<path d="M1467.25 1147.93L1441.36 1068.24L1401.51 1081.18L1467.25 1147.93Z" fill="#FFCC00"/>
<path d="M1467.25 1147.93L1399.46 1098.68L1424.09 1064.78L1467.25 1147.93Z" fill="#FFCC00"/>
<path d="M1338.31 1054.25H1422.1V1096.14L1338.31 1054.25Z" fill="#FFCC00"/>
<path d="M1338.31 1054.25L1406.1 1103.5L1430.72 1069.6L1338.31 1054.25Z" fill="#FFCC00"/>
<path d="M1368.75 1147.93L1394.64 1068.24L1434.49 1081.18L1368.75 1147.93Z" fill="#FFCC00"/>
<path d="M1368.75 1147.93L1436.54 1098.68L1411.91 1064.78L1368.75 1147.93Z" fill="#FFCC00"/>
<path d="M1582 831.351L1556.11 911.039L1595.95 923.985L1582 831.351Z" fill="#FFCC00"/>
<path d="M1582 831.351L1607.89 911.039L1568.05 923.985L1582 831.351Z" fill="#FFCC00"/>
<path d="M1661.69 889.247H1577.9V931.141L1661.69 889.247Z" fill="#FFCC00"/>
<path d="M1661.69 889.247L1593.9 938.497L1569.28 904.604L1661.69 889.247Z" fill="#FFCC00"/>
<path d="M1631.25 982.926L1605.36 903.238L1565.51 916.184L1631.25 982.926Z" fill="#FFCC00"/>
<path d="M1631.25 982.926L1563.46 933.676L1588.09 899.783L1631.25 982.926Z" fill="#FFCC00"/>
<path d="M1502.31 889.247H1586.1V931.141L1502.31 889.247Z" fill="#FFCC00"/>
<path d="M1502.31 889.247L1570.1 938.497L1594.72 904.603L1502.31 889.247Z" fill="#FFCC00"/>
<path d="M1532.75 982.925L1558.64 903.238L1598.49 916.184L1532.75 982.925Z" fill="#FFCC00"/>
<path d="M1532.75 982.925L1600.54 933.676L1575.91 899.783L1532.75 982.925Z" fill="#FFCC00"/>
<path d="M1807 771.351L1781.11 851.039L1820.95 863.985L1807 771.351Z" fill="#FFCC00"/>
<path d="M1807 771.351L1832.89 851.039L1793.05 863.985L1807 771.351Z" fill="#FFCC00"/>
<path d="M1886.69 829.247H1802.9V871.141L1886.69 829.247Z" fill="#FFCC00"/>
<path d="M1886.69 829.247L1818.9 878.497L1794.28 844.604L1886.69 829.247Z" fill="#FFCC00"/>
<path d="M1856.25 922.926L1830.36 843.238L1790.51 856.184L1856.25 922.926Z" fill="#FFCC00"/>
<path d="M1856.25 922.926L1788.46 873.676L1813.09 839.783L1856.25 922.926Z" fill="#FFCC00"/>
<path d="M1727.31 829.247H1811.1V871.141L1727.31 829.247Z" fill="#FFCC00"/>
<path d="M1727.31 829.247L1795.1 878.497L1819.72 844.603L1727.31 829.247Z" fill="#FFCC00"/>
<path d="M1757.75 922.925L1783.64 843.238L1823.49 856.184L1757.75 922.925Z" fill="#FFCC00"/>
<path d="M1757.75 922.925L1825.54 873.676L1800.91 839.783L1757.75 922.925Z" fill="#FFCC00"/>
<path d="M2032 831.351L2006.11 911.039L2045.95 923.985L2032 831.351Z" fill="#FFCC00"/>
<path d="M2032 831.351L2057.89 911.039L2018.05 923.985L2032 831.351Z" fill="#FFCC00"/>
<path d="M2111.69 889.247H2027.9V931.141L2111.69 889.247Z" fill="#FFCC00"/>
<path d="M2111.69 889.247L2043.9 938.497L2019.28 904.604L2111.69 889.247Z" fill="#FFCC00"/>
<path d="M2081.25 982.926L2055.36 903.238L2015.51 916.184L2081.25 982.926Z" fill="#FFCC00"/>
<path d="M2081.25 982.926L2013.46 933.676L2038.09 899.783L2081.25 982.926Z" fill="#FFCC00"/>
<path d="M1952.31 889.247H2036.1V931.141L1952.31 889.247Z" fill="#FFCC00"/>
<path d="M1952.31 889.247L2020.1 938.497L2044.72 904.603L1952.31 889.247Z" fill="#FFCC00"/>
<path d="M1982.75 982.925L2008.64 903.238L2048.49 916.184L1982.75 982.925Z" fill="#FFCC00"/>
<path d="M1982.75 982.925L2050.54 933.676L2025.91 899.783L1982.75 982.925Z" fill="#FFCC00"/>
<path d="M2197 996.351L2171.11 1076.04L2210.95 1088.99L2197 996.351Z" fill="#FFCC00"/>
<path d="M2197 996.351L2222.89 1076.04L2183.05 1088.99L2197 996.351Z" fill="#FFCC00"/>
<path d="M2276.69 1054.25H2192.9V1096.14L2276.69 1054.25Z" fill="#FFCC00"/>
<path d="M2276.69 1054.25L2208.9 1103.5L2184.28 1069.6L2276.69 1054.25Z" fill="#FFCC00"/>
<path d="M2246.25 1147.93L2220.36 1068.24L2180.51 1081.18L2246.25 1147.93Z" fill="#FFCC00"/>
<path d="M2246.25 1147.93L2178.46 1098.68L2203.09 1064.78L2246.25 1147.93Z" fill="#FFCC00"/>
<path d="M2117.31 1054.25H2201.1V1096.14L2117.31 1054.25Z" fill="#FFCC00"/>
<path d="M2117.31 1054.25L2185.1 1103.5L2209.72 1069.6L2117.31 1054.25Z" fill="#FFCC00"/>
<path d="M2147.75 1147.93L2173.64 1068.24L2213.49 1081.18L2147.75 1147.93Z" fill="#FFCC00"/>
<path d="M2147.75 1147.93L2215.54 1098.68L2190.91 1064.78L2147.75 1147.93Z" fill="#FFCC00"/>
<path d="M2257 1221.35L2231.11 1301.04L2270.95 1313.99L2257 1221.35Z" fill="#FFCC00"/>
<path d="M2257 1221.35L2282.89 1301.04L2243.05 1313.99L2257 1221.35Z" fill="#FFCC00"/>
<path d="M2336.69 1279.25H2252.9V1321.14L2336.69 1279.25Z" fill="#FFCC00"/>
<path d="M2336.69 1279.25L2268.9 1328.5L2244.28 1294.6L2336.69 1279.25Z" fill="#FFCC00"/>
<path d="M2306.25 1372.93L2280.36 1293.24L2240.51 1306.18L2306.25 1372.93Z" fill="#FFCC00"/>
<path d="M2306.25 1372.93L2238.46 1323.68L2263.09 1289.78L2306.25 1372.93Z" fill="#FFCC00"/>
<path d="M2177.31 1279.25H2261.1V1321.14L2177.31 1279.25Z" fill="#FFCC00"/>
<path d="M2177.31 1279.25L2245.1 1328.5L2269.72 1294.6L2177.31 1279.25Z" fill="#FFCC00"/>
<path d="M2207.75 1372.93L2233.64 1293.24L2273.49 1306.18L2207.75 1372.93Z" fill="#FFCC00"/>
<path d="M2207.75 1372.93L2275.54 1323.68L2250.91 1289.78L2207.75 1372.93Z" fill="#FFCC00"/>
<path d="M2197 1446.35L2171.11 1526.04L2210.95 1538.99L2197 1446.35Z" fill="#FFCC00"/>
<path d="M2197 1446.35L2222.89 1526.04L2183.05 1538.99L2197 1446.35Z" fill="#FFCC00"/>
<path d="M2276.69 1504.25H2192.9V1546.14L2276.69 1504.25Z" fill="#FFCC00"/>
<path d="M2276.69 1504.25L2208.9 1553.5L2184.28 1519.6L2276.69 1504.25Z" fill="#FFCC00"/>
<path d="M2246.25 1597.93L2220.36 1518.24L2180.51 1531.18L2246.25 1597.93Z" fill="#FFCC00"/>
<path d="M2246.25 1597.93L2178.46 1548.68L2203.09 1514.78L2246.25 1597.93Z" fill="#FFCC00"/>
<path d="M2117.31 1504.25H2201.1V1546.14L2117.31 1504.25Z" fill="#FFCC00"/>
<path d="M2117.31 1504.25L2185.1 1553.5L2209.72 1519.6L2117.31 1504.25Z" fill="#FFCC00"/>
<path d="M2147.75 1597.93L2173.64 1518.24L2213.49 1531.18L2147.75 1597.93Z" fill="#FFCC00"/>
<path d="M2147.75 1597.93L2215.54 1548.68L2190.91 1514.78L2147.75 1597.93Z" fill="#FFCC00"/>
<path d="M2032 1610.35L2006.11 1690.04L2045.95 1702.99L2032 1610.35Z" fill="#FFCC00"/>
<path d="M2032 1610.35L2057.89 1690.04L2018.05 1702.99L2032 1610.35Z" fill="#FFCC00"/>
<path d="M2111.69 1668.25H2027.9V1710.14L2111.69 1668.25Z" fill="#FFCC00"/>
<path d="M2111.69 1668.25L2043.9 1717.5L2019.28 1683.6L2111.69 1668.25Z" fill="#FFCC00"/>
<path d="M2081.25 1761.93L2055.36 1682.24L2015.51 1695.18L2081.25 1761.93Z" fill="#FFCC00"/>
<path d="M2081.25 1761.93L2013.46 1712.68L2038.09 1678.78L2081.25 1761.93Z" fill="#FFCC00"/>
<path d="M1952.31 1668.25H2036.1V1710.14L1952.31 1668.25Z" fill="#FFCC00"/>
<path d="M1952.31 1668.25L2020.1 1717.5L2044.72 1683.6L1952.31 1668.25Z" fill="#FFCC00"/>
<path d="M1982.75 1761.93L2008.64 1682.24L2048.49 1695.18L1982.75 1761.93Z" fill="#FFCC00"/>
<path d="M1982.75 1761.93L2050.54 1712.68L2025.91 1678.78L1982.75 1761.93Z" fill="#FFCC00"/>
<path d="M1807 1671.35L1781.11 1751.04L1820.95 1763.99L1807 1671.35Z" fill="#FFCC00"/>
<path d="M1807 1671.35L1832.89 1751.04L1793.05 1763.99L1807 1671.35Z" fill="#FFCC00"/>
<path d="M1886.69 1729.25H1802.9V1771.14L1886.69 1729.25Z" fill="#FFCC00"/>
<path d="M1886.69 1729.25L1818.9 1778.5L1794.28 1744.6L1886.69 1729.25Z" fill="#FFCC00"/>
<path d="M1856.25 1822.93L1830.36 1743.24L1790.51 1756.18L1856.25 1822.93Z" fill="#FFCC00"/>
<path d="M1856.25 1822.93L1788.46 1773.68L1813.09 1739.78L1856.25 1822.93Z" fill="#FFCC00"/>
<path d="M1727.31 1729.25H1811.1V1771.14L1727.31 1729.25Z" fill="#FFCC00"/>
<path d="M1727.31 1729.25L1795.1 1778.5L1819.72 1744.6L1727.31 1729.25Z" fill="#FFCC00"/>
<path d="M1757.75 1822.93L1783.64 1743.24L1823.49 1756.18L1757.75 1822.93Z" fill="#FFCC00"/>
<path d="M1757.75 1822.93L1825.54 1773.68L1800.91 1739.78L1757.75 1822.93Z" fill="#FFCC00"/>
<path d="M1582 1611.35L1556.11 1691.04L1595.95 1703.99L1582 1611.35Z" fill="#FFCC00"/>
<path d="M1582 1611.35L1607.89 1691.04L1568.05 1703.99L1582 1611.35Z" fill="#FFCC00"/>
<path d="M1661.69 1669.25H1577.9V1711.14L1661.69 1669.25Z" fill="#FFCC00"/>
<path d="M1661.69 1669.25L1593.9 1718.5L1569.28 1684.6L1661.69 1669.25Z" fill="#FFCC00"/>
<path d="M1631.25 1762.93L1605.36 1683.24L1565.51 1696.18L1631.25 1762.93Z" fill="#FFCC00"/>
<path d="M1631.25 1762.93L1563.46 1713.68L1588.09 1679.78L1631.25 1762.93Z" fill="#FFCC00"/>
<path d="M1502.31 1669.25H1586.1V1711.14L1502.31 1669.25Z" fill="#FFCC00"/>
<path d="M1502.31 1669.25L1570.1 1718.5L1594.72 1684.6L1502.31 1669.25Z" fill="#FFCC00"/>
<path d="M1532.75 1762.93L1558.64 1683.24L1598.49 1696.18L1532.75 1762.93Z" fill="#FFCC00"/>
<path d="M1532.75 1762.93L1600.54 1713.68L1575.91 1679.78L1532.75 1762.93Z" fill="#FFCC00"/>
<path d="M1417 1446.35L1391.11 1526.04L1430.95 1538.99L1417 1446.35Z" fill="#FFCC00"/>
<path d="M1417 1446.35L1442.89 1526.04L1403.05 1538.99L1417 1446.35Z" fill="#FFCC00"/>
<path d="M1496.69 1504.25H1412.9V1546.14L1496.69 1504.25Z" fill="#FFCC00"/>
<path d="M1496.69 1504.25L1428.9 1553.5L1404.28 1519.6L1496.69 1504.25Z" fill="#FFCC00"/>
<path d="M1466.25 1597.93L1440.36 1518.24L1400.51 1531.18L1466.25 1597.93Z" fill="#FFCC00"/>
<path d="M1466.25 1597.93L1398.46 1548.68L1423.09 1514.78L1466.25 1597.93Z" fill="#FFCC00"/>
<path d="M1337.31 1504.25H1421.1V1546.14L1337.31 1504.25Z" fill="#FFCC00"/>
<path d="M1337.31 1504.25L1405.1 1553.5L1429.72 1519.6L1337.31 1504.25Z" fill="#FFCC00"/>
<path d="M1367.75 1597.93L1393.64 1518.24L1433.49 1531.18L1367.75 1597.93Z" fill="#FFCC00"/>
<path d="M1367.75 1597.93L1435.54 1548.68L1410.91 1514.78L1367.75 1597.93Z" fill="#FFCC00"/>
</svg>
