<svg width="1699" height="1693" viewBox="0 0 1699 1693" fill="none" xmlns="http://www.w3.org/2000/svg">
<path d="M932 228.351L906.108 308.039L945.951 320.985L932 228.351Z" fill="#FFBA00"/>
<path d="M932 228.351L957.892 308.039L918.048 320.985L932 228.351Z" fill="#FFBA00"/>
<path d="M1011.69 286.247H927.899V328.141L1011.69 286.247Z" fill="#FFBA00"/>
<path d="M1011.69 286.247L943.901 335.497L919.277 301.603L1011.69 286.247Z" fill="#FFBA00"/>
<path d="M981.25 379.925L955.358 300.238L915.514 313.184L981.25 379.925Z" fill="#FFBA00"/>
<path d="M981.25 379.925L913.463 330.676L938.088 296.783L981.25 379.925Z" fill="#FFBA00"/>
<path d="M852.312 286.247H936.101V328.141L852.312 286.247Z" fill="#FFBA00"/>
<path d="M852.312 286.247L920.099 335.496L944.724 301.603L852.312 286.247Z" fill="#FFBA00"/>
<path d="M882.75 379.925L908.642 300.238L948.486 313.184L882.75 379.925Z" fill="#FFBA00"/>
<path d="M882.75 379.925L950.537 330.676L925.912 296.783L882.75 379.925Z" fill="#FFBA00"/>
<path d="M767 63.3513L741.108 143.039L780.951 155.985L767 63.3513Z" fill="#FFBA00"/>
<path d="M767 63.3513L792.892 143.039L753.048 155.985L767 63.3513Z" fill="#FFBA00"/>
<path d="M846.688 121.247H762.899V163.141L846.688 121.247Z" fill="#FFBA00"/>
<path d="M846.688 121.247L778.901 170.497L754.277 136.603L846.688 121.247Z" fill="#FFBA00"/>
<path d="M816.25 214.925L790.358 135.238L750.514 148.184L816.25 214.925Z" fill="#FFBA00"/>
<path d="M816.25 214.925L748.463 165.676L773.088 131.783L816.25 214.925Z" fill="#FFBA00"/>
<path d="M687.312 121.247H771.101V163.141L687.312 121.247Z" fill="#FFBA00"/>
<path d="M687.312 121.247L755.099 170.496L779.724 136.603L687.312 121.247Z" fill="#FFBA00"/>
<path d="M717.75 214.925L743.642 135.238L783.486 148.184L717.75 214.925Z" fill="#FFBA00"/>
<path d="M717.75 214.925L785.537 165.676L760.912 131.783L717.75 214.925Z" fill="#FFBA00"/>
<path d="M542 3.35132L516.108 83.0389L555.951 95.985L542 3.35132Z" fill="#FFBA00"/>
<path d="M542 3.35132L567.892 83.039L528.048 95.985L542 3.35132Z" fill="#FFBA00"/>
<path d="M621.688 61.2469H537.899V103.141L621.688 61.2469Z" fill="#FFBA00"/>
<path d="M621.688 61.2469L553.901 110.497L529.277 76.6034L621.688 61.2469Z" fill="#FFBA00"/>
<path d="M591.25 154.925L565.358 75.2379L525.514 88.1839L591.25 154.925Z" fill="#FFBA00"/>
<path d="M591.25 154.925L523.463 105.676L548.088 71.7826L591.25 154.925Z" fill="#FFBA00"/>
<path d="M462.312 61.2467H546.101V103.141L462.312 61.2467Z" fill="#FFBA00"/>
<path d="M462.312 61.2467L530.099 110.496L554.724 76.6032L462.312 61.2467Z" fill="#FFBA00"/>
<path d="M492.75 154.925L518.642 75.2377L558.486 88.1838L492.75 154.925Z" fill="#FFBA00"/>
<path d="M492.75 154.925L560.537 105.676L535.912 71.7825L492.75 154.925Z" fill="#FFBA00"/>
<path d="M317 63.3513L291.108 143.039L330.951 155.985L317 63.3513Z" fill="#FFBA00"/>
<path d="M317 63.3513L342.892 143.039L303.048 155.985L317 63.3513Z" fill="#FFBA00"/>
<path d="M396.688 121.247H312.899V163.141L396.688 121.247Z" fill="#FFBA00"/>
<path d="M396.688 121.247L328.901 170.497L304.277 136.603L396.688 121.247Z" fill="#FFBA00"/>
<path d="M366.25 214.925L340.358 135.238L300.514 148.184L366.25 214.925Z" fill="#FFBA00"/>
<path d="M366.25 214.925L298.463 165.676L323.088 131.783L366.25 214.925Z" fill="#FFBA00"/>
<path d="M237.312 121.247H321.101V163.141L237.312 121.247Z" fill="#FFBA00"/>
<path d="M237.312 121.247L305.099 170.496L329.724 136.603L237.312 121.247Z" fill="#FFBA00"/>
<path d="M267.75 214.925L293.642 135.238L333.486 148.184L267.75 214.925Z" fill="#FFBA00"/>
<path d="M267.75 214.925L335.537 165.676L310.912 131.783L267.75 214.925Z" fill="#FFBA00"/>
<path d="M153 228.351L127.108 308.039L166.951 320.985L153 228.351Z" fill="#FFBA00"/>
<path d="M153 228.351L178.892 308.039L139.048 320.985L153 228.351Z" fill="#FFBA00"/>
<path d="M232.688 286.247H148.899V328.141L232.688 286.247Z" fill="#FFBA00"/>
<path d="M232.688 286.247L164.901 335.497L140.277 301.603L232.688 286.247Z" fill="#FFBA00"/>
<path d="M202.25 379.925L176.358 300.238L136.514 313.184L202.25 379.925Z" fill="#FFBA00"/>
<path d="M202.25 379.925L134.463 330.676L159.088 296.783L202.25 379.925Z" fill="#FFBA00"/>
<path d="M73.3125 286.247H157.101V328.141L73.3125 286.247Z" fill="#FFBA00"/>
<path d="M73.3125 286.247L141.099 335.496L165.724 301.603L73.3125 286.247Z" fill="#FFBA00"/>
<path d="M103.75 379.925L129.642 300.238L169.486 313.184L103.75 379.925Z" fill="#FFBA00"/>
<path d="M103.75 379.925L171.537 330.676L146.912 296.783L103.75 379.925Z" fill="#FFBA00"/>
<path d="M91.9997 453.351L66.1076 533.039L105.951 545.985L91.9997 453.351Z" fill="#FFBA00"/>
<path d="M91.9997 453.351L117.892 533.039L78.048 545.985L91.9997 453.351Z" fill="#FFBA00"/>
<path d="M171.688 511.247H87.8994V553.141L171.688 511.247Z" fill="#FFBA00"/>
<path d="M171.688 511.247L103.901 560.497L79.2766 526.603L171.688 511.247Z" fill="#FFBA00"/>
<path d="M141.25 604.925L115.358 525.238L75.5137 538.184L141.25 604.925Z" fill="#FFBA00"/>
<path d="M141.25 604.925L73.4633 555.676L98.0881 521.783L141.25 604.925Z" fill="#FFBA00"/>
<path d="M12.3125 511.247H96.101V553.141L12.3125 511.247Z" fill="#FFBA00"/>
<path d="M12.3125 511.247L80.0988 560.496L104.724 526.603L12.3125 511.247Z" fill="#FFBA00"/>
<path d="M42.7504 604.925L68.6425 525.238L108.486 538.184L42.7504 604.925Z" fill="#FFBA00"/>
<path d="M42.7504 604.925L110.537 555.676L85.9119 521.783L42.7504 604.925Z" fill="#FFBA00"/>
<path d="M152 678.351L126.108 758.039L165.951 770.985L152 678.351Z" fill="#FFBA00"/>
<path d="M152 678.351L177.892 758.039L138.048 770.985L152 678.351Z" fill="#FFBA00"/>
<path d="M231.688 736.247H147.899V778.141L231.688 736.247Z" fill="#FFBA00"/>
<path d="M231.688 736.247L163.901 785.497L139.277 751.603L231.688 736.247Z" fill="#FFBA00"/>
<path d="M201.25 829.925L175.358 750.238L135.514 763.184L201.25 829.925Z" fill="#FFBA00"/>
<path d="M201.25 829.925L133.463 780.676L158.088 746.783L201.25 829.925Z" fill="#FFBA00"/>
<path d="M72.3125 736.247H156.101V778.141L72.3125 736.247Z" fill="#FFBA00"/>
<path d="M72.3125 736.247L140.099 785.496L164.724 751.603L72.3125 736.247Z" fill="#FFBA00"/>
<path d="M102.75 829.925L128.642 750.238L168.486 763.184L102.75 829.925Z" fill="#FFBA00"/>
<path d="M102.75 829.925L170.537 780.676L145.912 746.783L102.75 829.925Z" fill="#FFBA00"/>
<path d="M317 843.351L291.108 923.039L330.951 935.985L317 843.351Z" fill="#FFBA00"/>
<path d="M317 843.351L342.892 923.039L303.048 935.985L317 843.351Z" fill="#FFBA00"/>
<path d="M396.688 901.247H312.899V943.141L396.688 901.247Z" fill="#FFBA00"/>
<path d="M396.688 901.247L328.901 950.497L304.277 916.603L396.688 901.247Z" fill="#FFBA00"/>
<path d="M366.25 994.925L340.358 915.238L300.514 928.184L366.25 994.925Z" fill="#FFBA00"/>
<path d="M366.25 994.925L298.463 945.676L323.088 911.783L366.25 994.925Z" fill="#FFBA00"/>
<path d="M237.312 901.247H321.101V943.141L237.312 901.247Z" fill="#FFBA00"/>
<path d="M237.312 901.247L305.099 950.496L329.724 916.603L237.312 901.247Z" fill="#FFBA00"/>
<path d="M267.75 994.925L293.642 915.238L333.486 928.184L267.75 994.925Z" fill="#FFBA00"/>
<path d="M267.75 994.925L335.537 945.676L310.912 911.783L267.75 994.925Z" fill="#FFBA00"/>
<path d="M542 903.351L516.108 983.039L555.951 995.985L542 903.351Z" fill="#FFBA00"/>
<path d="M542 903.351L567.892 983.039L528.048 995.985L542 903.351Z" fill="#FFBA00"/>
<path d="M621.688 961.247H537.899V1003.14L621.688 961.247Z" fill="#FFBA00"/>
<path d="M621.688 961.247L553.901 1010.5L529.277 976.603L621.688 961.247Z" fill="#FFBA00"/>
<path d="M591.25 1054.93L565.358 975.238L525.514 988.184L591.25 1054.93Z" fill="#FFBA00"/>
<path d="M591.25 1054.93L523.463 1005.68L548.088 971.783L591.25 1054.93Z" fill="#FFBA00"/>
<path d="M462.312 961.247H546.101V1003.14L462.312 961.247Z" fill="#FFBA00"/>
<path d="M462.312 961.247L530.099 1010.5L554.724 976.603L462.312 961.247Z" fill="#FFBA00"/>
<path d="M492.75 1054.93L518.642 975.238L558.486 988.184L492.75 1054.93Z" fill="#FFBA00"/>
<path d="M492.75 1054.93L560.537 1005.68L535.912 971.783L492.75 1054.93Z" fill="#FFBA00"/>
<path d="M768 842.351L742.108 922.039L781.951 934.985L768 842.351Z" fill="#FFBA00"/>
<path d="M768 842.351L793.892 922.039L754.048 934.985L768 842.351Z" fill="#FFBA00"/>
<path d="M847.688 900.247H763.899V942.141L847.688 900.247Z" fill="#FFBA00"/>
<path d="M847.688 900.247L779.901 949.497L755.277 915.603L847.688 900.247Z" fill="#FFBA00"/>
<path d="M817.25 993.925L791.358 914.238L751.514 927.184L817.25 993.925Z" fill="#FFBA00"/>
<path d="M817.25 993.925L749.463 944.676L774.088 910.783L817.25 993.925Z" fill="#FFBA00"/>
<path d="M688.312 900.247H772.101V942.141L688.312 900.247Z" fill="#FFBA00"/>
<path d="M688.312 900.247L756.099 949.496L780.724 915.603L688.312 900.247Z" fill="#FFBA00"/>
<path d="M718.75 993.925L744.642 914.238L784.486 927.184L718.75 993.925Z" fill="#FFBA00"/>
<path d="M718.75 993.925L786.537 944.676L761.912 910.783L718.75 993.925Z" fill="#FFBA00"/>
<path d="M932 677.351L906.108 757.039L945.951 769.985L932 677.351Z" fill="#FFBA00"/>
<path d="M932 677.351L957.892 757.039L918.048 769.985L932 677.351Z" fill="#FFBA00"/>
<path d="M1011.69 735.247H927.899V777.141L1011.69 735.247Z" fill="#FFBA00"/>
<path d="M1011.69 735.247L943.901 784.497L919.277 750.603L1011.69 735.247Z" fill="#FFBA00"/>
<path d="M981.25 828.925L955.358 749.238L915.514 762.184L981.25 828.925Z" fill="#FFBA00"/>
<path d="M981.25 828.925L913.463 779.676L938.088 745.783L981.25 828.925Z" fill="#FFBA00"/>
<path d="M852.312 735.247H936.101V777.141L852.312 735.247Z" fill="#FFBA00"/>
<path d="M852.312 735.247L920.099 784.496L944.724 750.603L852.312 735.247Z" fill="#FFBA00"/>
<path d="M882.75 828.925L908.642 749.238L948.486 762.184L882.75 828.925Z" fill="#FFBA00"/>
<path d="M882.75 828.925L950.537 779.676L925.912 745.783L882.75 828.925Z" fill="#FFBA00"/>
<path d="M1157 617.351L1131.11 697.039L1170.95 709.985L1157 617.351Z" fill="#FFBA00"/>
<path d="M1157 617.351L1182.89 697.039L1143.05 709.985L1157 617.351Z" fill="#FFBA00"/>
<path d="M1236.69 675.247H1152.9V717.141L1236.69 675.247Z" fill="#FFBA00"/>
<path d="M1236.69 675.247L1168.9 724.497L1144.28 690.603L1236.69 675.247Z" fill="#FFBA00"/>
<path d="M1206.25 768.925L1180.36 689.238L1140.51 702.184L1206.25 768.925Z" fill="#FFBA00"/>
<path d="M1206.25 768.925L1138.46 719.676L1163.09 685.783L1206.25 768.925Z" fill="#FFBA00"/>
<path d="M1077.31 675.247H1161.1V717.141L1077.31 675.247Z" fill="#FFBA00"/>
<path d="M1077.31 675.247L1145.1 724.496L1169.72 690.603L1077.31 675.247Z" fill="#FFBA00"/>
<path d="M1107.75 768.925L1133.64 689.238L1173.49 702.184L1107.75 768.925Z" fill="#FFBA00"/>
<path d="M1107.75 768.925L1175.54 719.676L1150.91 685.783L1107.75 768.925Z" fill="#FFBA00"/>
<path d="M1382 677.351L1356.11 757.039L1395.95 769.985L1382 677.351Z" fill="#FFBA00"/>
<path d="M1382 677.351L1407.89 757.039L1368.05 769.985L1382 677.351Z" fill="#FFBA00"/>
<path d="M1461.69 735.247H1377.9V777.141L1461.69 735.247Z" fill="#FFBA00"/>
<path d="M1461.69 735.247L1393.9 784.497L1369.28 750.603L1461.69 735.247Z" fill="#FFBA00"/>
<path d="M1431.25 828.925L1405.36 749.238L1365.51 762.184L1431.25 828.925Z" fill="#FFBA00"/>
<path d="M1431.25 828.925L1363.46 779.676L1388.09 745.783L1431.25 828.925Z" fill="#FFBA00"/>
<path d="M1302.31 735.247H1386.1V777.141L1302.31 735.247Z" fill="#FFBA00"/>
<path d="M1302.31 735.247L1370.1 784.496L1394.72 750.603L1302.31 735.247Z" fill="#FFBA00"/>
<path d="M1332.75 828.925L1358.64 749.238L1398.49 762.184L1332.75 828.925Z" fill="#FFBA00"/>
<path d="M1332.75 828.925L1400.54 779.676L1375.91 745.783L1332.75 828.925Z" fill="#FFBA00"/>
<path d="M1547 842.351L1521.11 922.039L1560.95 934.985L1547 842.351Z" fill="#FFBA00"/>
<path d="M1547 842.351L1572.89 922.039L1533.05 934.985L1547 842.351Z" fill="#FFBA00"/>
<path d="M1626.69 900.247H1542.9V942.141L1626.69 900.247Z" fill="#FFBA00"/>
<path d="M1626.69 900.247L1558.9 949.497L1534.28 915.603L1626.69 900.247Z" fill="#FFBA00"/>
<path d="M1596.25 993.925L1570.36 914.238L1530.51 927.184L1596.25 993.925Z" fill="#FFBA00"/>
<path d="M1596.25 993.925L1528.46 944.676L1553.09 910.783L1596.25 993.925Z" fill="#FFBA00"/>
<path d="M1467.31 900.247H1551.1V942.141L1467.31 900.247Z" fill="#FFBA00"/>
<path d="M1467.31 900.247L1535.1 949.496L1559.72 915.603L1467.31 900.247Z" fill="#FFBA00"/>
<path d="M1497.75 993.925L1523.64 914.238L1563.49 927.184L1497.75 993.925Z" fill="#FFBA00"/>
<path d="M1497.75 993.925L1565.54 944.676L1540.91 910.783L1497.75 993.925Z" fill="#FFBA00"/>
<path d="M1607 1067.35L1581.11 1147.04L1620.95 1159.98L1607 1067.35Z" fill="#FFBA00"/>
<path d="M1607 1067.35L1632.89 1147.04L1593.05 1159.99L1607 1067.35Z" fill="#FFBA00"/>
<path d="M1686.69 1125.25H1602.9V1167.14L1686.69 1125.25Z" fill="#FFBA00"/>
<path d="M1686.69 1125.25L1618.9 1174.5L1594.28 1140.6L1686.69 1125.25Z" fill="#FFBA00"/>
<path d="M1656.25 1218.93L1630.36 1139.24L1590.51 1152.18L1656.25 1218.93Z" fill="#FFBA00"/>
<path d="M1656.25 1218.93L1588.46 1169.68L1613.09 1135.78L1656.25 1218.93Z" fill="#FFBA00"/>
<path d="M1527.31 1125.25H1611.1V1167.14L1527.31 1125.25Z" fill="#FFBA00"/>
<path d="M1527.31 1125.25L1595.1 1174.5L1619.72 1140.6L1527.31 1125.25Z" fill="#FFBA00"/>
<path d="M1557.75 1218.93L1583.64 1139.24L1623.49 1152.18L1557.75 1218.93Z" fill="#FFBA00"/>
<path d="M1557.75 1218.93L1625.54 1169.68L1600.91 1135.78L1557.75 1218.93Z" fill="#FFBA00"/>
<path d="M1547 1292.35L1521.11 1372.04L1560.95 1384.98L1547 1292.35Z" fill="#FFBA00"/>
<path d="M1547 1292.35L1572.89 1372.04L1533.05 1384.99L1547 1292.35Z" fill="#FFBA00"/>
<path d="M1626.69 1350.25H1542.9V1392.14L1626.69 1350.25Z" fill="#FFBA00"/>
<path d="M1626.69 1350.25L1558.9 1399.5L1534.28 1365.6L1626.69 1350.25Z" fill="#FFBA00"/>
<path d="M1596.25 1443.93L1570.36 1364.24L1530.51 1377.18L1596.25 1443.93Z" fill="#FFBA00"/>
<path d="M1596.25 1443.93L1528.46 1394.68L1553.09 1360.78L1596.25 1443.93Z" fill="#FFBA00"/>
<path d="M1467.31 1350.25H1551.1V1392.14L1467.31 1350.25Z" fill="#FFBA00"/>
<path d="M1467.31 1350.25L1535.1 1399.5L1559.72 1365.6L1467.31 1350.25Z" fill="#FFBA00"/>
<path d="M1497.75 1443.93L1523.64 1364.24L1563.49 1377.18L1497.75 1443.93Z" fill="#FFBA00"/>
<path d="M1497.75 1443.93L1565.54 1394.68L1540.91 1360.78L1497.75 1443.93Z" fill="#FFBA00"/>
<path d="M1382 1456.35L1356.11 1536.04L1395.95 1548.99L1382 1456.35Z" fill="#FFBA00"/>
<path d="M1382 1456.35L1407.89 1536.04L1368.05 1548.99L1382 1456.35Z" fill="#FFBA00"/>
<path d="M1461.69 1514.25H1377.9V1556.14L1461.69 1514.25Z" fill="#FFBA00"/>
<path d="M1461.69 1514.25L1393.9 1563.5L1369.28 1529.6L1461.69 1514.25Z" fill="#FFBA00"/>
<path d="M1431.25 1607.93L1405.36 1528.24L1365.51 1541.18L1431.25 1607.93Z" fill="#FFBA00"/>
<path d="M1431.25 1607.93L1363.46 1558.68L1388.09 1524.78L1431.25 1607.93Z" fill="#FFBA00"/>
<path d="M1302.31 1514.25H1386.1V1556.14L1302.31 1514.25Z" fill="#FFBA00"/>
<path d="M1302.31 1514.25L1370.1 1563.5L1394.72 1529.6L1302.31 1514.25Z" fill="#FFBA00"/>
<path d="M1332.75 1607.93L1358.64 1528.24L1398.49 1541.18L1332.75 1607.93Z" fill="#FFBA00"/>
<path d="M1332.75 1607.93L1400.54 1558.68L1375.91 1524.78L1332.75 1607.93Z" fill="#FFBA00"/>
<path d="M1157 1517.35L1131.11 1597.04L1170.95 1609.99L1157 1517.35Z" fill="#FFBA00"/>
<path d="M1157 1517.35L1182.89 1597.04L1143.05 1609.99L1157 1517.35Z" fill="#FFBA00"/>
<path d="M1236.69 1575.25H1152.9V1617.14L1236.69 1575.25Z" fill="#FFBA00"/>
<path d="M1236.69 1575.25L1168.9 1624.5L1144.28 1590.6L1236.69 1575.25Z" fill="#FFBA00"/>
<path d="M1206.25 1668.93L1180.36 1589.24L1140.51 1602.18L1206.25 1668.93Z" fill="#FFBA00"/>
<path d="M1206.25 1668.93L1138.46 1619.68L1163.09 1585.78L1206.25 1668.93Z" fill="#FFBA00"/>
<path d="M1077.31 1575.25H1161.1V1617.14L1077.31 1575.25Z" fill="#FFBA00"/>
<path d="M1077.31 1575.25L1145.1 1624.5L1169.72 1590.6L1077.31 1575.25Z" fill="#FFBA00"/>
<path d="M1107.75 1668.93L1133.64 1589.24L1173.49 1602.18L1107.75 1668.93Z" fill="#FFBA00"/>
<path d="M1107.75 1668.93L1175.54 1619.68L1150.91 1585.78L1107.75 1668.93Z" fill="#FFBA00"/>
<path d="M932 1457.35L906.108 1537.04L945.951 1549.99L932 1457.35Z" fill="#FFBA00"/>
<path d="M932 1457.35L957.892 1537.04L918.048 1549.99L932 1457.35Z" fill="#FFBA00"/>
<path d="M1011.69 1515.25H927.899V1557.14L1011.69 1515.25Z" fill="#FFBA00"/>
<path d="M1011.69 1515.25L943.901 1564.5L919.277 1530.6L1011.69 1515.25Z" fill="#FFBA00"/>
<path d="M981.25 1608.93L955.358 1529.24L915.514 1542.18L981.25 1608.93Z" fill="#FFBA00"/>
<path d="M981.25 1608.93L913.463 1559.68L938.088 1525.78L981.25 1608.93Z" fill="#FFBA00"/>
<path d="M852.312 1515.25H936.101V1557.14L852.312 1515.25Z" fill="#FFBA00"/>
<path d="M852.312 1515.25L920.099 1564.5L944.724 1530.6L852.312 1515.25Z" fill="#FFBA00"/>
<path d="M882.75 1608.93L908.642 1529.24L948.486 1542.18L882.75 1608.93Z" fill="#FFBA00"/>
<path d="M882.75 1608.93L950.537 1559.68L925.912 1525.78L882.75 1608.93Z" fill="#FFBA00"/>
<path d="M767 1292.35L741.108 1372.04L780.951 1384.98L767 1292.35Z" fill="#FFBA00"/>
<path d="M767 1292.35L792.892 1372.04L753.048 1384.99L767 1292.35Z" fill="#FFBA00"/>
<path d="M846.688 1350.25H762.899V1392.14L846.688 1350.25Z" fill="#FFBA00"/>
<path d="M846.688 1350.25L778.901 1399.5L754.277 1365.6L846.688 1350.25Z" fill="#FFBA00"/>
<path d="M816.25 1443.93L790.358 1364.24L750.514 1377.18L816.25 1443.93Z" fill="#FFBA00"/>
<path d="M816.25 1443.93L748.463 1394.68L773.088 1360.78L816.25 1443.93Z" fill="#FFBA00"/>
<path d="M687.312 1350.25H771.101V1392.14L687.312 1350.25Z" fill="#FFBA00"/>
<path d="M687.312 1350.25L755.099 1399.5L779.724 1365.6L687.312 1350.25Z" fill="#FFBA00"/>
<path d="M717.75 1443.93L743.642 1364.24L783.486 1377.18L717.75 1443.93Z" fill="#FFBA00"/>
<path d="M717.75 1443.93L785.537 1394.68L760.912 1360.78L717.75 1443.93Z" fill="#FFBA00"/>
</svg>
