<svg width="1783" height="1779" viewBox="0 0 1783 1779" fill="none" xmlns="http://www.w3.org/2000/svg">
<path d="M978 240.351L952.108 320.039L991.951 332.985L978 240.351Z" fill="#FFCC00"/>
<path d="M978 240.351L1003.89 320.039L964.048 332.985L978 240.351Z" fill="#FFCC00"/>
<path d="M1057.69 298.247H973.899V340.141L1057.69 298.247Z" fill="#FFCC00"/>
<path d="M1057.69 298.247L989.901 347.497L965.277 313.603L1057.69 298.247Z" fill="#FFCC00"/>
<path d="M1027.25 391.925L1001.36 312.238L961.514 325.184L1027.25 391.925Z" fill="#FFCC00"/>
<path d="M1027.25 391.925L959.463 342.676L984.088 308.783L1027.25 391.925Z" fill="#FFCC00"/>
<path d="M898.312 298.247H982.101V340.141L898.312 298.247Z" fill="#FFCC00"/>
<path d="M898.312 298.247L966.099 347.496L990.724 313.603L898.312 298.247Z" fill="#FFCC00"/>
<path d="M928.75 391.925L954.642 312.238L994.486 325.184L928.75 391.925Z" fill="#FFCC00"/>
<path d="M928.75 391.925L996.537 342.676L971.912 308.783L928.75 391.925Z" fill="#FFCC00"/>
<path d="M805 67.3513L779.108 147.039L818.951 159.985L805 67.3513Z" fill="#FFCC00"/>
<path d="M805 67.3513L830.892 147.039L791.048 159.985L805 67.3513Z" fill="#FFCC00"/>
<path d="M884.688 125.247H800.899V167.141L884.688 125.247Z" fill="#FFCC00"/>
<path d="M884.688 125.247L816.901 174.497L792.277 140.603L884.688 125.247Z" fill="#FFCC00"/>
<path d="M854.25 218.925L828.358 139.238L788.514 152.184L854.25 218.925Z" fill="#FFCC00"/>
<path d="M854.25 218.925L786.463 169.676L811.088 135.783L854.25 218.925Z" fill="#FFCC00"/>
<path d="M725.312 125.247H809.101V167.141L725.312 125.247Z" fill="#FFCC00"/>
<path d="M725.312 125.247L793.099 174.496L817.724 140.603L725.312 125.247Z" fill="#FFCC00"/>
<path d="M755.75 218.925L781.642 139.238L821.486 152.184L755.75 218.925Z" fill="#FFCC00"/>
<path d="M755.75 218.925L823.537 169.676L798.912 135.783L755.75 218.925Z" fill="#FFCC00"/>
<path d="M567 3.35132L541.108 83.0389L580.951 95.985L567 3.35132Z" fill="#FFCC00"/>
<path d="M567 3.35132L592.892 83.039L553.048 95.985L567 3.35132Z" fill="#FFCC00"/>
<path d="M646.688 61.2469H562.899V103.141L646.688 61.2469Z" fill="#FFCC00"/>
<path d="M646.688 61.2469L578.901 110.497L554.277 76.6034L646.688 61.2469Z" fill="#FFCC00"/>
<path d="M616.25 154.925L590.358 75.2379L550.514 88.1839L616.25 154.925Z" fill="#FFCC00"/>
<path d="M616.25 154.925L548.463 105.676L573.088 71.7826L616.25 154.925Z" fill="#FFCC00"/>
<path d="M487.312 61.2467H571.101V103.141L487.312 61.2467Z" fill="#FFCC00"/>
<path d="M487.312 61.2467L555.099 110.496L579.724 76.6032L487.312 61.2467Z" fill="#FFCC00"/>
<path d="M517.75 154.925L543.642 75.2377L583.486 88.1838L517.75 154.925Z" fill="#FFCC00"/>
<path d="M517.75 154.925L585.537 105.676L560.912 71.7825L517.75 154.925Z" fill="#FFCC00"/>
<path d="M329 67.3513L303.108 147.039L342.951 159.985L329 67.3513Z" fill="#FFCC00"/>
<path d="M329 67.3513L354.892 147.039L315.048 159.985L329 67.3513Z" fill="#FFCC00"/>
<path d="M408.688 125.247H324.899V167.141L408.688 125.247Z" fill="#FFCC00"/>
<path d="M408.688 125.247L340.901 174.497L316.277 140.603L408.688 125.247Z" fill="#FFCC00"/>
<path d="M378.25 218.925L352.358 139.238L312.514 152.184L378.25 218.925Z" fill="#FFCC00"/>
<path d="M378.25 218.925L310.463 169.676L335.088 135.783L378.25 218.925Z" fill="#FFCC00"/>
<path d="M249.312 125.247H333.101V167.141L249.312 125.247Z" fill="#FFCC00"/>
<path d="M249.312 125.247L317.099 174.496L341.724 140.603L249.312 125.247Z" fill="#FFCC00"/>
<path d="M279.75 218.925L305.642 139.238L345.486 152.184L279.75 218.925Z" fill="#FFCC00"/>
<path d="M279.75 218.925L347.537 169.676L322.912 135.783L279.75 218.925Z" fill="#FFCC00"/>
<path d="M156 240.351L130.108 320.039L169.951 332.985L156 240.351Z" fill="#FFCC00"/>
<path d="M156 240.351L181.892 320.039L142.048 332.985L156 240.351Z" fill="#FFCC00"/>
<path d="M235.688 298.247H151.899V340.141L235.688 298.247Z" fill="#FFCC00"/>
<path d="M235.688 298.247L167.901 347.497L143.277 313.603L235.688 298.247Z" fill="#FFCC00"/>
<path d="M205.25 391.925L179.358 312.238L139.514 325.184L205.25 391.925Z" fill="#FFCC00"/>
<path d="M205.25 391.925L137.463 342.676L162.088 308.783L205.25 391.925Z" fill="#FFCC00"/>
<path d="M76.3125 298.247H160.101V340.141L76.3125 298.247Z" fill="#FFCC00"/>
<path d="M76.3125 298.247L144.099 347.496L168.724 313.603L76.3125 298.247Z" fill="#FFCC00"/>
<path d="M106.75 391.925L132.642 312.238L172.486 325.184L106.75 391.925Z" fill="#FFCC00"/>
<path d="M106.75 391.925L174.537 342.676L149.912 308.783L106.75 391.925Z" fill="#FFCC00"/>
<path d="M91.9997 478.351L66.1076 558.039L105.951 570.985L91.9997 478.351Z" fill="#FFCC00"/>
<path d="M91.9997 478.351L117.892 558.039L78.048 570.985L91.9997 478.351Z" fill="#FFCC00"/>
<path d="M171.688 536.247H87.8994V578.141L171.688 536.247Z" fill="#FFCC00"/>
<path d="M171.688 536.247L103.901 585.497L79.2766 551.603L171.688 536.247Z" fill="#FFCC00"/>
<path d="M141.25 629.925L115.358 550.238L75.5137 563.184L141.25 629.925Z" fill="#FFCC00"/>
<path d="M141.25 629.925L73.4633 580.676L98.0881 546.783L141.25 629.925Z" fill="#FFCC00"/>
<path d="M12.3125 536.247H96.101V578.141L12.3125 536.247Z" fill="#FFCC00"/>
<path d="M12.3125 536.247L80.0988 585.496L104.724 551.603L12.3125 536.247Z" fill="#FFCC00"/>
<path d="M42.7504 629.925L68.6425 550.238L108.486 563.184L42.7504 629.925Z" fill="#FFCC00"/>
<path d="M42.7504 629.925L110.537 580.676L85.9119 546.783L42.7504 629.925Z" fill="#FFCC00"/>
<path d="M156 715.351L130.108 795.039L169.951 807.985L156 715.351Z" fill="#FFCC00"/>
<path d="M156 715.351L181.892 795.039L142.048 807.985L156 715.351Z" fill="#FFCC00"/>
<path d="M235.688 773.247H151.899V815.141L235.688 773.247Z" fill="#FFCC00"/>
<path d="M235.688 773.247L167.901 822.497L143.277 788.603L235.688 773.247Z" fill="#FFCC00"/>
<path d="M205.25 866.925L179.358 787.238L139.514 800.184L205.25 866.925Z" fill="#FFCC00"/>
<path d="M205.25 866.925L137.463 817.676L162.088 783.783L205.25 866.925Z" fill="#FFCC00"/>
<path d="M76.3125 773.247H160.101V815.141L76.3125 773.247Z" fill="#FFCC00"/>
<path d="M76.3125 773.247L144.099 822.496L168.724 788.603L76.3125 773.247Z" fill="#FFCC00"/>
<path d="M106.75 866.925L132.642 787.238L172.486 800.184L106.75 866.925Z" fill="#FFCC00"/>
<path d="M106.75 866.925L174.537 817.676L149.912 783.783L106.75 866.925Z" fill="#FFCC00"/>
<path d="M330 889.351L304.108 969.039L343.951 981.985L330 889.351Z" fill="#FFCC00"/>
<path d="M330 889.351L355.892 969.039L316.048 981.985L330 889.351Z" fill="#FFCC00"/>
<path d="M409.688 947.247H325.899V989.141L409.688 947.247Z" fill="#FFCC00"/>
<path d="M409.688 947.247L341.901 996.497L317.277 962.603L409.688 947.247Z" fill="#FFCC00"/>
<path d="M379.25 1040.93L353.358 961.238L313.514 974.184L379.25 1040.93Z" fill="#FFCC00"/>
<path d="M379.25 1040.93L311.463 991.676L336.088 957.783L379.25 1040.93Z" fill="#FFCC00"/>
<path d="M250.312 947.247H334.101V989.141L250.312 947.247Z" fill="#FFCC00"/>
<path d="M250.312 947.247L318.099 996.496L342.724 962.603L250.312 947.247Z" fill="#FFCC00"/>
<path d="M280.75 1040.93L306.642 961.238L346.486 974.184L280.75 1040.93Z" fill="#FFCC00"/>
<path d="M280.75 1040.93L348.537 991.676L323.912 957.783L280.75 1040.93Z" fill="#FFCC00"/>
<path d="M567 953.351L541.108 1033.04L580.951 1045.98L567 953.351Z" fill="#FFCC00"/>
<path d="M567 953.351L592.892 1033.04L553.048 1045.99L567 953.351Z" fill="#FFCC00"/>
<path d="M646.688 1011.25H562.899V1053.14L646.688 1011.25Z" fill="#FFCC00"/>
<path d="M646.688 1011.25L578.901 1060.5L554.277 1026.6L646.688 1011.25Z" fill="#FFCC00"/>
<path d="M616.25 1104.93L590.358 1025.24L550.514 1038.18L616.25 1104.93Z" fill="#FFCC00"/>
<path d="M616.25 1104.93L548.463 1055.68L573.088 1021.78L616.25 1104.93Z" fill="#FFCC00"/>
<path d="M487.312 1011.25H571.101V1053.14L487.312 1011.25Z" fill="#FFCC00"/>
<path d="M487.312 1011.25L555.099 1060.5L579.724 1026.6L487.312 1011.25Z" fill="#FFCC00"/>
<path d="M517.75 1104.93L543.642 1025.24L583.486 1038.18L517.75 1104.93Z" fill="#FFCC00"/>
<path d="M517.75 1104.93L585.537 1055.68L560.912 1021.78L517.75 1104.93Z" fill="#FFCC00"/>
<path d="M805 890.351L779.108 970.039L818.951 982.985L805 890.351Z" fill="#FFCC00"/>
<path d="M805 890.351L830.892 970.039L791.048 982.985L805 890.351Z" fill="#FFCC00"/>
<path d="M884.688 948.247H800.899V990.141L884.688 948.247Z" fill="#FFCC00"/>
<path d="M884.688 948.247L816.901 997.497L792.277 963.603L884.688 948.247Z" fill="#FFCC00"/>
<path d="M854.25 1041.93L828.358 962.238L788.514 975.184L854.25 1041.93Z" fill="#FFCC00"/>
<path d="M854.25 1041.93L786.463 992.676L811.088 958.783L854.25 1041.93Z" fill="#FFCC00"/>
<path d="M725.312 948.247H809.101V990.141L725.312 948.247Z" fill="#FFCC00"/>
<path d="M725.312 948.247L793.099 997.496L817.724 963.603L725.312 948.247Z" fill="#FFCC00"/>
<path d="M755.75 1041.93L781.642 962.238L821.486 975.184L755.75 1041.93Z" fill="#FFCC00"/>
<path d="M755.75 1041.93L823.537 992.676L798.912 958.783L755.75 1041.93Z" fill="#FFCC00"/>
<path d="M978 717.351L952.108 797.039L991.951 809.985L978 717.351Z" fill="#FFCC00"/>
<path d="M978 717.351L1003.89 797.039L964.048 809.985L978 717.351Z" fill="#FFCC00"/>
<path d="M1057.69 775.247H973.899V817.141L1057.69 775.247Z" fill="#FFCC00"/>
<path d="M1057.69 775.247L989.901 824.497L965.277 790.603L1057.69 775.247Z" fill="#FFCC00"/>
<path d="M1027.25 868.925L1001.36 789.238L961.514 802.184L1027.25 868.925Z" fill="#FFCC00"/>
<path d="M1027.25 868.925L959.463 819.676L984.088 785.783L1027.25 868.925Z" fill="#FFCC00"/>
<path d="M898.312 775.247H982.101V817.141L898.312 775.247Z" fill="#FFCC00"/>
<path d="M898.312 775.247L966.099 824.496L990.724 790.603L898.312 775.247Z" fill="#FFCC00"/>
<path d="M928.75 868.925L954.642 789.238L994.486 802.184L928.75 868.925Z" fill="#FFCC00"/>
<path d="M928.75 868.925L996.537 819.676L971.912 785.783L928.75 868.925Z" fill="#FFCC00"/>
<path d="M1216 653.351L1190.11 733.039L1229.95 745.985L1216 653.351Z" fill="#FFCC00"/>
<path d="M1216 653.351L1241.89 733.039L1202.05 745.985L1216 653.351Z" fill="#FFCC00"/>
<path d="M1295.69 711.247H1211.9V753.141L1295.69 711.247Z" fill="#FFCC00"/>
<path d="M1295.69 711.247L1227.9 760.497L1203.28 726.603L1295.69 711.247Z" fill="#FFCC00"/>
<path d="M1265.25 804.925L1239.36 725.238L1199.51 738.184L1265.25 804.925Z" fill="#FFCC00"/>
<path d="M1265.25 804.925L1197.46 755.676L1222.09 721.783L1265.25 804.925Z" fill="#FFCC00"/>
<path d="M1136.31 711.247H1220.1V753.141L1136.31 711.247Z" fill="#FFCC00"/>
<path d="M1136.31 711.247L1204.1 760.496L1228.72 726.603L1136.31 711.247Z" fill="#FFCC00"/>
<path d="M1166.75 804.925L1192.64 725.238L1232.49 738.184L1166.75 804.925Z" fill="#FFCC00"/>
<path d="M1166.75 804.925L1234.54 755.676L1209.91 721.783L1166.75 804.925Z" fill="#FFCC00"/>
<path d="M1454 717.351L1428.11 797.039L1467.95 809.985L1454 717.351Z" fill="#FFCC00"/>
<path d="M1454 717.351L1479.89 797.039L1440.05 809.985L1454 717.351Z" fill="#FFCC00"/>
<path d="M1533.69 775.247H1449.9V817.141L1533.69 775.247Z" fill="#FFCC00"/>
<path d="M1533.69 775.247L1465.9 824.497L1441.28 790.603L1533.69 775.247Z" fill="#FFCC00"/>
<path d="M1503.25 868.925L1477.36 789.238L1437.51 802.184L1503.25 868.925Z" fill="#FFCC00"/>
<path d="M1503.25 868.925L1435.46 819.676L1460.09 785.783L1503.25 868.925Z" fill="#FFCC00"/>
<path d="M1374.31 775.247H1458.1V817.141L1374.31 775.247Z" fill="#FFCC00"/>
<path d="M1374.31 775.247L1442.1 824.496L1466.72 790.603L1374.31 775.247Z" fill="#FFCC00"/>
<path d="M1404.75 868.925L1430.64 789.238L1470.49 802.184L1404.75 868.925Z" fill="#FFCC00"/>
<path d="M1404.75 868.925L1472.54 819.676L1447.91 785.783L1404.75 868.925Z" fill="#FFCC00"/>
<path d="M1627 890.351L1601.11 970.039L1640.95 982.985L1627 890.351Z" fill="#FFCC00"/>
<path d="M1627 890.351L1652.89 970.039L1613.05 982.985L1627 890.351Z" fill="#FFCC00"/>
<path d="M1706.69 948.247H1622.9V990.141L1706.69 948.247Z" fill="#FFCC00"/>
<path d="M1706.69 948.247L1638.9 997.497L1614.28 963.603L1706.69 948.247Z" fill="#FFCC00"/>
<path d="M1676.25 1041.93L1650.36 962.238L1610.51 975.184L1676.25 1041.93Z" fill="#FFCC00"/>
<path d="M1676.25 1041.93L1608.46 992.676L1633.09 958.783L1676.25 1041.93Z" fill="#FFCC00"/>
<path d="M1547.31 948.247H1631.1V990.141L1547.31 948.247Z" fill="#FFCC00"/>
<path d="M1547.31 948.247L1615.1 997.496L1639.72 963.603L1547.31 948.247Z" fill="#FFCC00"/>
<path d="M1577.75 1041.93L1603.64 962.238L1643.49 975.184L1577.75 1041.93Z" fill="#FFCC00"/>
<path d="M1577.75 1041.93L1645.54 992.676L1620.91 958.783L1577.75 1041.93Z" fill="#FFCC00"/>
<path d="M1691 1128.35L1665.11 1208.04L1704.95 1220.98L1691 1128.35Z" fill="#FFCC00"/>
<path d="M1691 1128.35L1716.89 1208.04L1677.05 1220.99L1691 1128.35Z" fill="#FFCC00"/>
<path d="M1770.69 1186.25H1686.9V1228.14L1770.69 1186.25Z" fill="#FFCC00"/>
<path d="M1770.69 1186.25L1702.9 1235.5L1678.28 1201.6L1770.69 1186.25Z" fill="#FFCC00"/>
<path d="M1740.25 1279.93L1714.36 1200.24L1674.51 1213.18L1740.25 1279.93Z" fill="#FFCC00"/>
<path d="M1740.25 1279.93L1672.46 1230.68L1697.09 1196.78L1740.25 1279.93Z" fill="#FFCC00"/>
<path d="M1611.31 1186.25H1695.1V1228.14L1611.31 1186.25Z" fill="#FFCC00"/>
<path d="M1611.31 1186.25L1679.1 1235.5L1703.72 1201.6L1611.31 1186.25Z" fill="#FFCC00"/>
<path d="M1641.75 1279.93L1667.64 1200.24L1707.49 1213.18L1641.75 1279.93Z" fill="#FFCC00"/>
<path d="M1641.75 1279.93L1709.54 1230.68L1684.91 1196.78L1641.75 1279.93Z" fill="#FFCC00"/>
<path d="M1628 1365.35L1602.11 1445.04L1641.95 1457.99L1628 1365.35Z" fill="#FFCC00"/>
<path d="M1628 1365.35L1653.89 1445.04L1614.05 1457.99L1628 1365.35Z" fill="#FFCC00"/>
<path d="M1707.69 1423.25H1623.9V1465.14L1707.69 1423.25Z" fill="#FFCC00"/>
<path d="M1707.69 1423.25L1639.9 1472.5L1615.28 1438.6L1707.69 1423.25Z" fill="#FFCC00"/>
<path d="M1677.25 1516.93L1651.36 1437.24L1611.51 1450.18L1677.25 1516.93Z" fill="#FFCC00"/>
<path d="M1677.25 1516.93L1609.46 1467.68L1634.09 1433.78L1677.25 1516.93Z" fill="#FFCC00"/>
<path d="M1548.31 1423.25H1632.1V1465.14L1548.31 1423.25Z" fill="#FFCC00"/>
<path d="M1548.31 1423.25L1616.1 1472.5L1640.72 1438.6L1548.31 1423.25Z" fill="#FFCC00"/>
<path d="M1578.75 1516.93L1604.64 1437.24L1644.49 1450.18L1578.75 1516.93Z" fill="#FFCC00"/>
<path d="M1578.75 1516.93L1646.54 1467.68L1621.91 1433.78L1578.75 1516.93Z" fill="#FFCC00"/>
<path d="M1453 1539.35L1427.11 1619.04L1466.95 1631.99L1453 1539.35Z" fill="#FFCC00"/>
<path d="M1453 1539.35L1478.89 1619.04L1439.05 1631.99L1453 1539.35Z" fill="#FFCC00"/>
<path d="M1532.69 1597.25H1448.9V1639.14L1532.69 1597.25Z" fill="#FFCC00"/>
<path d="M1532.69 1597.25L1464.9 1646.5L1440.28 1612.6L1532.69 1597.25Z" fill="#FFCC00"/>
<path d="M1502.25 1690.93L1476.36 1611.24L1436.51 1624.18L1502.25 1690.93Z" fill="#FFCC00"/>
<path d="M1502.25 1690.93L1434.46 1641.68L1459.09 1607.78L1502.25 1690.93Z" fill="#FFCC00"/>
<path d="M1373.31 1597.25H1457.1V1639.14L1373.31 1597.25Z" fill="#FFCC00"/>
<path d="M1373.31 1597.25L1441.1 1646.5L1465.72 1612.6L1373.31 1597.25Z" fill="#FFCC00"/>
<path d="M1403.75 1690.93L1429.64 1611.24L1469.49 1624.18L1403.75 1690.93Z" fill="#FFCC00"/>
<path d="M1403.75 1690.93L1471.54 1641.68L1446.91 1607.78L1403.75 1690.93Z" fill="#FFCC00"/>
<path d="M1216 1603.35L1190.11 1683.04L1229.95 1695.99L1216 1603.35Z" fill="#FFCC00"/>
<path d="M1216 1603.35L1241.89 1683.04L1202.05 1695.99L1216 1603.35Z" fill="#FFCC00"/>
<path d="M1295.69 1661.25H1211.9V1703.14L1295.69 1661.25Z" fill="#FFCC00"/>
<path d="M1295.69 1661.25L1227.9 1710.5L1203.28 1676.6L1295.69 1661.25Z" fill="#FFCC00"/>
<path d="M1265.25 1754.93L1239.36 1675.24L1199.51 1688.18L1265.25 1754.93Z" fill="#FFCC00"/>
<path d="M1265.25 1754.93L1197.46 1705.68L1222.09 1671.78L1265.25 1754.93Z" fill="#FFCC00"/>
<path d="M1136.31 1661.25H1220.1V1703.14L1136.31 1661.25Z" fill="#FFCC00"/>
<path d="M1136.31 1661.25L1204.1 1710.5L1228.72 1676.6L1136.31 1661.25Z" fill="#FFCC00"/>
<path d="M1166.75 1754.93L1192.64 1675.24L1232.49 1688.18L1166.75 1754.93Z" fill="#FFCC00"/>
<path d="M1166.75 1754.93L1234.54 1705.68L1209.91 1671.78L1166.75 1754.93Z" fill="#FFCC00"/>
<path d="M979 1539.35L953.108 1619.04L992.951 1631.99L979 1539.35Z" fill="#FFCC00"/>
<path d="M979 1539.35L1004.89 1619.04L965.048 1631.99L979 1539.35Z" fill="#FFCC00"/>
<path d="M1058.69 1597.25H974.899V1639.14L1058.69 1597.25Z" fill="#FFCC00"/>
<path d="M1058.69 1597.25L990.901 1646.5L966.277 1612.6L1058.69 1597.25Z" fill="#FFCC00"/>
<path d="M1028.25 1690.93L1002.36 1611.24L962.514 1624.18L1028.25 1690.93Z" fill="#FFCC00"/>
<path d="M1028.25 1690.93L960.463 1641.68L985.088 1607.78L1028.25 1690.93Z" fill="#FFCC00"/>
<path d="M899.312 1597.25H983.101V1639.14L899.312 1597.25Z" fill="#FFCC00"/>
<path d="M899.312 1597.25L967.099 1646.5L991.724 1612.6L899.312 1597.25Z" fill="#FFCC00"/>
<path d="M929.75 1690.93L955.642 1611.24L995.486 1624.18L929.75 1690.93Z" fill="#FFCC00"/>
<path d="M929.75 1690.93L997.537 1641.68L972.912 1607.78L929.75 1690.93Z" fill="#FFCC00"/>
<path d="M805 1365.35L779.108 1445.04L818.951 1457.99L805 1365.35Z" fill="#FFCC00"/>
<path d="M805 1365.35L830.892 1445.04L791.048 1457.99L805 1365.35Z" fill="#FFCC00"/>
<path d="M884.688 1423.25H800.899V1465.14L884.688 1423.25Z" fill="#FFCC00"/>
<path d="M884.688 1423.25L816.901 1472.5L792.277 1438.6L884.688 1423.25Z" fill="#FFCC00"/>
<path d="M854.25 1516.93L828.358 1437.24L788.514 1450.18L854.25 1516.93Z" fill="#FFCC00"/>
<path d="M854.25 1516.93L786.463 1467.68L811.088 1433.78L854.25 1516.93Z" fill="#FFCC00"/>
<path d="M725.312 1423.25H809.101V1465.14L725.312 1423.25Z" fill="#FFCC00"/>
<path d="M725.312 1423.25L793.099 1472.5L817.724 1438.6L725.312 1423.25Z" fill="#FFCC00"/>
<path d="M755.75 1516.93L781.642 1437.24L821.486 1450.18L755.75 1516.93Z" fill="#FFCC00"/>
<path d="M755.75 1516.93L823.537 1467.68L798.912 1433.78L755.75 1516.93Z" fill="#FFCC00"/>
</svg>
