<svg width="1735" height="1728" viewBox="0 0 1735 1728" fill="none" xmlns="http://www.w3.org/2000/svg">
<g clip-path="url(#clip0_2475_400)">
<path d="M1174.8 619L1143.9 714.11L1191.46 729.561L1174.8 619Z" fill="#FBD324"/>
<path d="M1174.8 619L1205.71 714.11L1158.15 729.561L1174.8 619Z" fill="#FBD324"/>
<path d="M1269.91 688.1H1169.91V738.102L1269.91 688.1Z" fill="#FBD324"/>
<path d="M1269.91 688.1L1189.01 746.881L1159.62 706.429L1269.91 688.1Z" fill="#FBD324"/>
<path d="M1233.59 799.909L1202.68 704.799L1155.13 720.25L1233.59 799.909Z" fill="#FBD324"/>
<path d="M1233.59 799.909L1152.68 741.128L1182.07 700.675L1233.59 799.909Z" fill="#FBD324"/>
<path d="M1079.7 688.1H1179.7V738.102L1079.7 688.1Z" fill="#FBD324"/>
<path d="M1079.7 688.1L1160.6 746.881L1189.99 706.429L1079.7 688.1Z" fill="#FBD324"/>
<path d="M1116.02 799.909L1146.93 704.799L1194.48 720.25L1116.02 799.909Z" fill="#FBD324"/>
<path d="M1116.02 799.909L1196.93 741.127L1167.54 700.675L1116.02 799.909Z" fill="#FBD324"/>
<path d="M1399.8 679L1368.9 774.11L1416.46 789.561L1399.8 679Z" fill="#FBD324"/>
<path d="M1399.8 679L1430.71 774.11L1383.15 789.561L1399.8 679Z" fill="#FBD324"/>
<path d="M1494.91 748.1H1394.91V798.102L1494.91 748.1Z" fill="#FBD324"/>
<path d="M1494.91 748.1L1414.01 806.881L1384.62 766.429L1494.91 748.1Z" fill="#FBD324"/>
<path d="M1458.59 859.909L1427.68 764.799L1380.13 780.25L1458.59 859.909Z" fill="#FBD324"/>
<path d="M1458.59 859.909L1377.68 801.128L1407.07 760.675L1458.59 859.909Z" fill="#FBD324"/>
<path d="M1304.7 748.1H1404.7V798.102L1304.7 748.1Z" fill="#FBD324"/>
<path d="M1304.7 748.1L1385.6 806.881L1414.99 766.429L1304.7 748.1Z" fill="#FBD324"/>
<path d="M1341.02 859.909L1371.93 764.799L1419.48 780.25L1341.02 859.909Z" fill="#FBD324"/>
<path d="M1341.02 859.909L1421.93 801.127L1392.54 760.675L1341.02 859.909Z" fill="#FBD324"/>
<path d="M1564.8 844L1533.9 939.11L1581.46 954.561L1564.8 844Z" fill="#FBD324"/>
<path d="M1564.8 844L1595.71 939.11L1548.15 954.561L1564.8 844Z" fill="#FBD324"/>
<path d="M1659.91 913.1H1559.91V963.102L1659.91 913.1Z" fill="#FBD324"/>
<path d="M1659.91 913.1L1579.01 971.881L1549.62 931.429L1659.91 913.1Z" fill="#FBD324"/>
<path d="M1623.59 1024.91L1592.68 929.799L1545.13 945.25L1623.59 1024.91Z" fill="#FBD324"/>
<path d="M1623.59 1024.91L1542.68 966.128L1572.07 925.675L1623.59 1024.91Z" fill="#FBD324"/>
<path d="M1469.7 913.1H1569.7V963.102L1469.7 913.1Z" fill="#FBD324"/>
<path d="M1469.7 913.1L1550.6 971.881L1579.99 931.429L1469.7 913.1Z" fill="#FBD324"/>
<path d="M1506.02 1024.91L1536.93 929.799L1584.48 945.25L1506.02 1024.91Z" fill="#FBD324"/>
<path d="M1506.02 1024.91L1586.93 966.127L1557.54 925.675L1506.02 1024.91Z" fill="#FBD324"/>
<path d="M1624.8 1069L1593.9 1164.11L1641.46 1179.56L1624.8 1069Z" fill="#FBD324"/>
<path d="M1624.8 1069L1655.71 1164.11L1608.15 1179.56L1624.8 1069Z" fill="#FBD324"/>
<path d="M1719.91 1138.1H1619.91V1188.1L1719.91 1138.1Z" fill="#FBD324"/>
<path d="M1719.91 1138.1L1639.01 1196.88L1609.62 1156.43L1719.91 1138.1Z" fill="#FBD324"/>
<path d="M1683.59 1249.91L1652.68 1154.8L1605.13 1170.25L1683.59 1249.91Z" fill="#FBD324"/>
<path d="M1683.59 1249.91L1602.68 1191.13L1632.07 1150.68L1683.59 1249.91Z" fill="#FBD324"/>
<path d="M1529.7 1138.1H1629.7V1188.1L1529.7 1138.1Z" fill="#FBD324"/>
<path d="M1529.7 1138.1L1610.6 1196.88L1639.99 1156.43L1529.7 1138.1Z" fill="#FBD324"/>
<path d="M1566.02 1249.91L1596.93 1154.8L1644.48 1170.25L1566.02 1249.91Z" fill="#FBD324"/>
<path d="M1566.02 1249.91L1646.93 1191.13L1617.54 1150.67L1566.02 1249.91Z" fill="#FBD324"/>
<path d="M1564.8 1294L1533.9 1389.11L1581.46 1404.56L1564.8 1294Z" fill="#FBD324"/>
<path d="M1564.8 1294L1595.71 1389.11L1548.15 1404.56L1564.8 1294Z" fill="#FBD324"/>
<path d="M1659.91 1363.1H1559.91V1413.1L1659.91 1363.1Z" fill="#FBD324"/>
<path d="M1659.91 1363.1L1579.01 1421.88L1549.62 1381.43L1659.91 1363.1Z" fill="#FBD324"/>
<path d="M1623.59 1474.91L1592.68 1379.8L1545.13 1395.25L1623.59 1474.91Z" fill="#FBD324"/>
<path d="M1623.59 1474.91L1542.68 1416.13L1572.07 1375.68L1623.59 1474.91Z" fill="#FBD324"/>
<path d="M1469.7 1363.1H1569.7V1413.1L1469.7 1363.1Z" fill="#FBD324"/>
<path d="M1469.7 1363.1L1550.6 1421.88L1579.99 1381.43L1469.7 1363.1Z" fill="#FBD324"/>
<path d="M1506.02 1474.91L1536.93 1379.8L1584.48 1395.25L1506.02 1474.91Z" fill="#FBD324"/>
<path d="M1506.02 1474.91L1586.93 1416.13L1557.54 1375.67L1506.02 1474.91Z" fill="#FBD324"/>
<path d="M1399.8 1458L1368.9 1553.11L1416.46 1568.56L1399.8 1458Z" fill="#FBD324"/>
<path d="M1399.8 1458L1430.71 1553.11L1383.15 1568.56L1399.8 1458Z" fill="#FBD324"/>
<path d="M1494.91 1527.1H1394.91V1577.1L1494.91 1527.1Z" fill="#FBD324"/>
<path d="M1494.91 1527.1L1414.01 1585.88L1384.62 1545.43L1494.91 1527.1Z" fill="#FBD324"/>
<path d="M1458.59 1638.91L1427.68 1543.8L1380.13 1559.25L1458.59 1638.91Z" fill="#FBD324"/>
<path d="M1458.59 1638.91L1377.68 1580.13L1407.07 1539.68L1458.59 1638.91Z" fill="#FBD324"/>
<path d="M1304.7 1527.1H1404.7V1577.1L1304.7 1527.1Z" fill="#FBD324"/>
<path d="M1304.7 1527.1L1385.6 1585.88L1414.99 1545.43L1304.7 1527.1Z" fill="#FBD324"/>
<path d="M1341.02 1638.91L1371.93 1543.8L1419.48 1559.25L1341.02 1638.91Z" fill="#FBD324"/>
<path d="M1341.02 1638.91L1421.93 1580.13L1392.54 1539.67L1341.02 1638.91Z" fill="#FBD324"/>
<path d="M1174.8 1519L1143.9 1614.11L1191.46 1629.56L1174.8 1519Z" fill="#FBD324"/>
<path d="M1174.8 1519L1205.71 1614.11L1158.15 1629.56L1174.8 1519Z" fill="#FBD324"/>
<path d="M1269.91 1588.1H1169.91V1638.1L1269.91 1588.1Z" fill="#FBD324"/>
<path d="M1269.91 1588.1L1189.01 1646.88L1159.62 1606.43L1269.91 1588.1Z" fill="#FBD324"/>
<path d="M1233.59 1699.91L1202.68 1604.8L1155.13 1620.25L1233.59 1699.91Z" fill="#FBD324"/>
<path d="M1233.59 1699.91L1152.68 1641.13L1182.07 1600.68L1233.59 1699.91Z" fill="#FBD324"/>
<path d="M1079.7 1588.1H1179.7V1638.1L1079.7 1588.1Z" fill="#FBD324"/>
<path d="M1079.7 1588.1L1160.6 1646.88L1189.99 1606.43L1079.7 1588.1Z" fill="#FBD324"/>
<path d="M1116.02 1699.91L1146.93 1604.8L1194.48 1620.25L1116.02 1699.91Z" fill="#FBD324"/>
<path d="M1116.02 1699.91L1196.93 1641.13L1167.54 1600.67L1116.02 1699.91Z" fill="#FBD324"/>
<path d="M949.805 1459L918.902 1554.11L966.456 1569.56L949.805 1459Z" fill="#FBD324"/>
<path d="M949.805 1459L980.708 1554.11L933.153 1569.56L949.805 1459Z" fill="#FBD324"/>
<path d="M1044.91 1528.1H944.911V1578.1L1044.91 1528.1Z" fill="#FBD324"/>
<path d="M1044.91 1528.1L964.01 1586.88L934.619 1546.43L1044.91 1528.1Z" fill="#FBD324"/>
<path d="M1008.59 1639.91L977.683 1544.8L930.128 1560.25L1008.59 1639.91Z" fill="#FBD324"/>
<path d="M1008.59 1639.91L927.681 1581.13L957.071 1540.68L1008.59 1639.91Z" fill="#FBD324"/>
<path d="M854.695 1528.1H954.7V1578.1L854.695 1528.1Z" fill="#FBD324"/>
<path d="M854.695 1528.1L935.601 1586.88L964.991 1546.43L854.695 1528.1Z" fill="#FBD324"/>
<path d="M891.024 1639.91L921.927 1544.8L969.482 1560.25L891.024 1639.91Z" fill="#FBD324"/>
<path d="M891.024 1639.91L971.929 1581.13L942.539 1540.67L891.024 1639.91Z" fill="#FBD324"/>
<path d="M784.805 1294L753.902 1389.11L801.456 1404.56L784.805 1294Z" fill="#FBD324"/>
<path d="M784.805 1294L815.708 1389.11L768.153 1404.56L784.805 1294Z" fill="#FBD324"/>
<path d="M879.915 1363.1H779.911V1413.1L879.915 1363.1Z" fill="#FBD324"/>
<path d="M879.915 1363.1L799.01 1421.88L769.619 1381.43L879.915 1363.1Z" fill="#FBD324"/>
<path d="M843.586 1474.91L812.683 1379.8L765.128 1395.25L843.586 1474.91Z" fill="#FBD324"/>
<path d="M843.586 1474.91L762.681 1416.13L792.071 1375.68L843.586 1474.91Z" fill="#FBD324"/>
<path d="M689.695 1363.1H789.7V1413.1L689.695 1363.1Z" fill="#FBD324"/>
<path d="M689.695 1363.1L770.601 1421.88L799.991 1381.43L689.695 1363.1Z" fill="#FBD324"/>
<path d="M726.024 1474.91L756.927 1379.8L804.482 1395.25L726.024 1474.91Z" fill="#FBD324"/>
<path d="M726.024 1474.91L806.929 1416.13L777.539 1375.67L726.024 1474.91Z" fill="#FBD324"/>
<path d="M949.805 679L918.902 774.11L966.456 789.561L949.805 679Z" fill="#FBD324"/>
<path d="M949.805 679L980.708 774.11L933.153 789.561L949.805 679Z" fill="#FBD324"/>
<path d="M1044.91 748.1H944.911V798.102L1044.91 748.1Z" fill="#FBD324"/>
<path d="M1044.91 748.1L964.01 806.881L934.619 766.429L1044.91 748.1Z" fill="#FBD324"/>
<path d="M1008.59 859.909L977.683 764.799L930.128 780.25L1008.59 859.909Z" fill="#FBD324"/>
<path d="M1008.59 859.909L927.681 801.128L957.071 760.675L1008.59 859.909Z" fill="#FBD324"/>
<path d="M854.695 748.1H954.7V798.102L854.695 748.1Z" fill="#FBD324"/>
<path d="M854.695 748.1L935.601 806.881L964.991 766.429L854.695 748.1Z" fill="#FBD324"/>
<path d="M891.024 859.909L921.927 764.799L969.482 780.25L891.024 859.909Z" fill="#FBD324"/>
<path d="M891.024 859.909L971.929 801.127L942.539 760.675L891.024 859.909Z" fill="#FBD324"/>
<path d="M784.805 843L753.902 938.11L801.456 953.561L784.805 843Z" fill="#FBD324"/>
<path d="M784.805 843L815.708 938.11L768.153 953.561L784.805 843Z" fill="#FBD324"/>
<path d="M879.915 912.1H779.911V962.102L879.915 912.1Z" fill="#FBD324"/>
<path d="M879.915 912.1L799.01 970.881L769.619 930.429L879.915 912.1Z" fill="#FBD324"/>
<path d="M843.586 1023.91L812.683 928.799L765.128 944.25L843.586 1023.91Z" fill="#FBD324"/>
<path d="M843.586 1023.91L762.681 965.128L792.071 924.675L843.586 1023.91Z" fill="#FBD324"/>
<path d="M689.695 912.1H789.7V962.102L689.695 912.1Z" fill="#FBD324"/>
<path d="M689.695 912.1L770.601 970.881L799.991 930.429L689.695 912.1Z" fill="#FBD324"/>
<path d="M726.024 1023.91L756.927 928.799L804.482 944.25L726.024 1023.91Z" fill="#FBD324"/>
<path d="M726.024 1023.91L806.929 965.127L777.539 924.675L726.024 1023.91Z" fill="#FBD324"/>
<path d="M559.805 904L528.902 999.11L576.456 1014.56L559.805 904Z" fill="#FBD324"/>
<path d="M559.805 904L590.708 999.11L543.153 1014.56L559.805 904Z" fill="#FBD324"/>
<path d="M654.915 973.1H554.911V1023.1L654.915 973.1Z" fill="#FBD324"/>
<path d="M654.915 973.1L574.01 1031.88L544.619 991.429L654.915 973.1Z" fill="#FBD324"/>
<path d="M618.586 1084.91L587.683 989.799L540.128 1005.25L618.586 1084.91Z" fill="#FBD324"/>
<path d="M618.586 1084.91L537.681 1026.13L567.071 985.675L618.586 1084.91Z" fill="#FBD324"/>
<path d="M464.695 973.1H564.7V1023.1L464.695 973.1Z" fill="#FBD324"/>
<path d="M464.695 973.1L545.601 1031.88L574.991 991.429L464.695 973.1Z" fill="#FBD324"/>
<path d="M501.024 1084.91L531.927 989.799L579.482 1005.25L501.024 1084.91Z" fill="#FBD324"/>
<path d="M501.024 1084.91L581.929 1026.13L552.539 985.675L501.024 1084.91Z" fill="#FBD324"/>
<path d="M334.805 844L303.902 939.11L351.456 954.561L334.805 844Z" fill="#FBD324"/>
<path d="M334.805 844L365.708 939.11L318.153 954.561L334.805 844Z" fill="#FBD324"/>
<path d="M429.915 913.1H329.911V963.102L429.915 913.1Z" fill="#FBD324"/>
<path d="M429.915 913.1L349.01 971.881L319.619 931.429L429.915 913.1Z" fill="#FBD324"/>
<path d="M393.586 1024.91L362.683 929.799L315.128 945.25L393.586 1024.91Z" fill="#FBD324"/>
<path d="M393.586 1024.91L312.681 966.128L342.071 925.675L393.586 1024.91Z" fill="#FBD324"/>
<path d="M239.695 913.1H339.7V963.102L239.695 913.1Z" fill="#FBD324"/>
<path d="M239.695 913.1L320.601 971.881L349.991 931.429L239.695 913.1Z" fill="#FBD324"/>
<path d="M276.024 1024.91L306.927 929.799L354.482 945.25L276.024 1024.91Z" fill="#FBD324"/>
<path d="M276.024 1024.91L356.929 966.127L327.539 925.675L276.024 1024.91Z" fill="#FBD324"/>
<path d="M170.805 679L139.902 774.11L187.456 789.561L170.805 679Z" fill="#FBD324"/>
<path d="M170.805 679L201.708 774.11L154.153 789.561L170.805 679Z" fill="#FBD324"/>
<path d="M265.915 748.1H165.911V798.102L265.915 748.1Z" fill="#FBD324"/>
<path d="M265.915 748.1L185.01 806.881L155.619 766.429L265.915 748.1Z" fill="#FBD324"/>
<path d="M229.586 859.909L198.683 764.799L151.128 780.25L229.586 859.909Z" fill="#FBD324"/>
<path d="M229.586 859.909L148.681 801.128L178.071 760.675L229.586 859.909Z" fill="#FBD324"/>
<path d="M75.6953 748.1H175.7V798.102L75.6953 748.1Z" fill="#FBD324"/>
<path d="M75.6953 748.1L156.601 806.881L185.991 766.429L75.6953 748.1Z" fill="#FBD324"/>
<path d="M112.024 859.909L142.927 764.799L190.482 780.25L112.024 859.909Z" fill="#FBD324"/>
<path d="M112.024 859.909L192.929 801.127L163.539 760.675L112.024 859.909Z" fill="#FBD324"/>
<path d="M109.805 454L78.9016 549.11L126.456 564.561L109.805 454Z" fill="#FBD324"/>
<path d="M109.805 454L140.708 549.11L93.1527 564.561L109.805 454Z" fill="#FBD324"/>
<path d="M204.915 523.1H104.911V573.102L204.915 523.1Z" fill="#FBD324"/>
<path d="M204.915 523.1L124.01 581.881L94.6192 541.429L204.915 523.1Z" fill="#FBD324"/>
<path d="M168.586 634.909L137.683 539.799L90.128 555.25L168.586 634.909Z" fill="#FBD324"/>
<path d="M168.586 634.909L87.6807 576.128L117.071 535.675L168.586 634.909Z" fill="#FBD324"/>
<path d="M14.6953 523.1H114.7V573.102L14.6953 523.1Z" fill="#FBD324"/>
<path d="M14.6953 523.1L95.6005 581.881L124.991 541.429L14.6953 523.1Z" fill="#FBD324"/>
<path d="M51.024 634.909L81.927 539.799L129.482 555.25L51.024 634.909Z" fill="#FBD324"/>
<path d="M51.024 634.909L131.929 576.127L102.539 535.675L51.024 634.909Z" fill="#FBD324"/>
<path d="M170.805 229L139.902 324.11L187.456 339.561L170.805 229Z" fill="#FBD324"/>
<path d="M170.805 229L201.708 324.11L154.153 339.561L170.805 229Z" fill="#FBD324"/>
<path d="M265.915 298.1H165.911V348.102L265.915 298.1Z" fill="#FBD324"/>
<path d="M265.915 298.1L185.01 356.881L155.619 316.429L265.915 298.1Z" fill="#FBD324"/>
<path d="M229.586 409.909L198.683 314.799L151.128 330.25L229.586 409.909Z" fill="#FBD324"/>
<path d="M229.586 409.909L148.681 351.128L178.071 310.675L229.586 409.909Z" fill="#FBD324"/>
<path d="M75.6953 298.1H175.7V348.102L75.6953 298.1Z" fill="#FBD324"/>
<path d="M75.6953 298.1L156.601 356.881L185.991 316.429L75.6953 298.1Z" fill="#FBD324"/>
<path d="M112.024 409.909L142.927 314.799L190.482 330.25L112.024 409.909Z" fill="#FBD324"/>
<path d="M112.024 409.909L192.929 351.127L163.539 310.675L112.024 409.909Z" fill="#FBD324"/>
<path d="M334.805 64L303.902 159.11L351.456 174.561L334.805 64Z" fill="#FBD324"/>
<path d="M334.805 64L365.708 159.11L318.153 174.561L334.805 64Z" fill="#FBD324"/>
<path d="M429.915 133.1H329.911V183.102L429.915 133.1Z" fill="#FBD324"/>
<path d="M429.915 133.1L349.01 191.881L319.619 151.429L429.915 133.1Z" fill="#FBD324"/>
<path d="M393.586 244.909L362.683 149.799L315.128 165.25L393.586 244.909Z" fill="#FBD324"/>
<path d="M393.586 244.909L312.681 186.128L342.071 145.675L393.586 244.909Z" fill="#FBD324"/>
<path d="M239.695 133.1H339.7V183.102L239.695 133.1Z" fill="#FBD324"/>
<path d="M239.695 133.1L320.601 191.881L349.991 151.429L239.695 133.1Z" fill="#FBD324"/>
<path d="M276.024 244.909L306.927 149.799L354.482 165.25L276.024 244.909Z" fill="#FBD324"/>
<path d="M276.024 244.909L356.929 186.127L327.539 145.675L276.024 244.909Z" fill="#FBD324"/>
<path d="M559.805 4L528.902 99.1098L576.456 114.561L559.805 4Z" fill="#FBD324"/>
<path d="M559.805 4L590.708 99.1098L543.153 114.561L559.805 4Z" fill="#FBD324"/>
<path d="M654.915 73.1003H554.911V123.102L654.915 73.1003Z" fill="#FBD324"/>
<path d="M654.915 73.1003L574.01 131.881L544.619 91.4287L654.915 73.1003Z" fill="#FBD324"/>
<path d="M618.586 184.909L587.683 89.7989L540.128 105.25L618.586 184.909Z" fill="#FBD324"/>
<path d="M618.586 184.909L537.681 126.128L567.071 85.675L618.586 184.909Z" fill="#FBD324"/>
<path d="M464.695 73.1H564.7V123.102L464.695 73.1Z" fill="#FBD324"/>
<path d="M464.695 73.1L545.601 131.881L574.991 91.4285L464.695 73.1Z" fill="#FBD324"/>
<path d="M501.024 184.909L531.927 89.7988L579.482 105.25L501.024 184.909Z" fill="#FBD324"/>
<path d="M501.024 184.909L581.929 126.127L552.539 85.6749L501.024 184.909Z" fill="#FBD324"/>
<path d="M784.805 64L753.902 159.11L801.456 174.561L784.805 64Z" fill="#FBD324"/>
<path d="M784.805 64L815.708 159.11L768.153 174.561L784.805 64Z" fill="#FBD324"/>
<path d="M879.915 133.1H779.911V183.102L879.915 133.1Z" fill="#FBD324"/>
<path d="M879.915 133.1L799.01 191.881L769.619 151.429L879.915 133.1Z" fill="#FBD324"/>
<path d="M843.586 244.909L812.683 149.799L765.128 165.25L843.586 244.909Z" fill="#FBD324"/>
<path d="M843.586 244.909L762.681 186.128L792.071 145.675L843.586 244.909Z" fill="#FBD324"/>
<path d="M689.695 133.1H789.7V183.102L689.695 133.1Z" fill="#FBD324"/>
<path d="M689.695 133.1L770.601 191.881L799.991 151.429L689.695 133.1Z" fill="#FBD324"/>
<path d="M726.024 244.909L756.927 149.799L804.482 165.25L726.024 244.909Z" fill="#FBD324"/>
<path d="M726.024 244.909L806.929 186.127L777.539 145.675L726.024 244.909Z" fill="#FBD324"/>
<path d="M949.805 229L918.902 324.11L966.456 339.561L949.805 229Z" fill="#FBD324"/>
<path d="M949.805 229L980.708 324.11L933.153 339.561L949.805 229Z" fill="#FBD324"/>
<path d="M1044.91 298.1H944.911V348.102L1044.91 298.1Z" fill="#FBD324"/>
<path d="M1044.91 298.1L964.01 356.881L934.619 316.429L1044.91 298.1Z" fill="#FBD324"/>
<path d="M1008.59 409.909L977.683 314.799L930.128 330.25L1008.59 409.909Z" fill="#FBD324"/>
<path d="M1008.59 409.909L927.681 351.128L957.071 310.675L1008.59 409.909Z" fill="#FBD324"/>
<path d="M854.695 298.1H954.7V348.102L854.695 298.1Z" fill="#FBD324"/>
<path d="M854.695 298.1L935.601 356.881L964.991 316.429L854.695 298.1Z" fill="#FBD324"/>
<path d="M891.024 409.909L921.927 314.799L969.482 330.25L891.024 409.909Z" fill="#FBD324"/>
<path d="M891.024 409.909L971.929 351.127L942.539 310.675L891.024 409.909Z" fill="#FBD324"/>
</g>
<defs>
<clipPath id="clip0_2475_400">
<rect width="1735" height="1728" fill="white"/>
</clipPath>
</defs>
</svg>
