<svg width="3202" height="2202" viewBox="0 0 3202 2202" fill="none" xmlns="http://www.w3.org/2000/svg">
<g clip-path="url(#clip0_14_289)">
<rect width="3202" height="2202" fill="#F5F5F5"/>
<path d="M50 50H3050V2050H50V50Z" fill="white"/>
<path d="M1634 401.351L1608.11 481.039L1647.95 493.985L1634 401.351Z" fill="#FFD000"/>
<path d="M1634 401.351L1659.89 481.039L1620.05 493.985L1634 401.351Z" fill="#FFD000"/>
<path d="M1713.69 459.247H1629.9V501.141L1713.69 459.247Z" fill="#FFD000"/>
<path d="M1713.69 459.247L1645.9 508.497L1621.28 474.603L1713.69 459.247Z" fill="#FFD000"/>
<path d="M1683.25 552.926L1657.36 473.238L1617.51 486.184L1683.25 552.926Z" fill="#FFD000"/>
<path d="M1683.25 552.926L1615.46 503.676L1640.09 469.783L1683.25 552.926Z" fill="#FFD000"/>
<path d="M1554.31 459.247H1638.1V501.141L1554.31 459.247Z" fill="#FFD000"/>
<path d="M1554.31 459.247L1622.1 508.496L1646.72 474.603L1554.31 459.247Z" fill="#FFD000"/>
<path d="M1584.75 552.925L1610.64 473.238L1650.49 486.184L1584.75 552.925Z" fill="#FFD000"/>
<path d="M1584.75 552.925L1652.54 503.676L1627.91 469.783L1584.75 552.925Z" fill="#FFD000"/>
<circle cx="1634" cy="485.136" r="85.7849" stroke="black" stroke-width="4"/>
<path d="M1461 228.351L1435.11 308.039L1474.95 320.985L1461 228.351Z" fill="#FFD000"/>
<path d="M1461 228.351L1486.89 308.039L1447.05 320.985L1461 228.351Z" fill="#FFD000"/>
<path d="M1540.69 286.247H1456.9V328.141L1540.69 286.247Z" fill="#FFD000"/>
<path d="M1540.69 286.247L1472.9 335.497L1448.28 301.603L1540.69 286.247Z" fill="#FFD000"/>
<path d="M1510.25 379.926L1484.36 300.238L1444.51 313.184L1510.25 379.926Z" fill="#FFD000"/>
<path d="M1510.25 379.926L1442.46 330.676L1467.09 296.783L1510.25 379.926Z" fill="#FFD000"/>
<path d="M1381.31 286.247H1465.1V328.141L1381.31 286.247Z" fill="#FFD000"/>
<path d="M1381.31 286.247L1449.1 335.496L1473.72 301.603L1381.31 286.247Z" fill="#FFD000"/>
<path d="M1411.75 379.925L1437.64 300.238L1477.49 313.184L1411.75 379.925Z" fill="#FFD000"/>
<path d="M1411.75 379.925L1479.54 330.676L1454.91 296.783L1411.75 379.925Z" fill="#FFD000"/>
<circle cx="1461" cy="312.136" r="85.7849" stroke="black" stroke-width="4"/>
<path d="M1223 164.351L1197.11 244.039L1236.95 256.985L1223 164.351Z" fill="#FFD000"/>
<path d="M1223 164.351L1248.89 244.039L1209.05 256.985L1223 164.351Z" fill="#FFD000"/>
<path d="M1302.69 222.247H1218.9V264.141L1302.69 222.247Z" fill="#FFD000"/>
<path d="M1302.69 222.247L1234.9 271.497L1210.28 237.603L1302.69 222.247Z" fill="#FFD000"/>
<path d="M1272.25 315.926L1246.36 236.238L1206.51 249.184L1272.25 315.926Z" fill="#FFD000"/>
<path d="M1272.25 315.926L1204.46 266.676L1229.09 232.783L1272.25 315.926Z" fill="#FFD000"/>
<path d="M1143.31 222.247H1227.1V264.141L1143.31 222.247Z" fill="#FFD000"/>
<path d="M1143.31 222.247L1211.1 271.496L1235.72 237.603L1143.31 222.247Z" fill="#FFD000"/>
<path d="M1173.75 315.925L1199.64 236.238L1239.49 249.184L1173.75 315.925Z" fill="#FFD000"/>
<path d="M1173.75 315.925L1241.54 266.676L1216.91 232.783L1173.75 315.925Z" fill="#FFD000"/>
<circle cx="1223" cy="248.136" r="85.7849" stroke="black" stroke-width="4"/>
<path d="M985 228.351L959.108 308.039L998.951 320.985L985 228.351Z" fill="#FFD000"/>
<path d="M985 228.351L1010.89 308.039L971.048 320.985L985 228.351Z" fill="#FFD000"/>
<path d="M1064.69 286.247H980.899V328.141L1064.69 286.247Z" fill="#FFD000"/>
<path d="M1064.69 286.247L996.901 335.497L972.277 301.603L1064.69 286.247Z" fill="#FFD000"/>
<path d="M1034.25 379.926L1008.36 300.238L968.514 313.184L1034.25 379.926Z" fill="#FFD000"/>
<path d="M1034.25 379.926L966.463 330.676L991.088 296.783L1034.25 379.926Z" fill="#FFD000"/>
<path d="M905.312 286.247H989.101V328.141L905.312 286.247Z" fill="#FFD000"/>
<path d="M905.312 286.247L973.099 335.496L997.724 301.603L905.312 286.247Z" fill="#FFD000"/>
<path d="M935.75 379.925L961.642 300.238L1001.49 313.184L935.75 379.925Z" fill="#FFD000"/>
<path d="M935.75 379.925L1003.54 330.676L978.912 296.783L935.75 379.925Z" fill="#FFD000"/>
<circle cx="984.996" cy="312.136" r="85.7849" stroke="black" stroke-width="4"/>
<path d="M812 401.351L786.108 481.039L825.951 493.985L812 401.351Z" fill="#FFD000"/>
<path d="M812 401.351L837.892 481.039L798.048 493.985L812 401.351Z" fill="#FFD000"/>
<path d="M891.688 459.247H807.899V501.141L891.688 459.247Z" fill="#FFD000"/>
<path d="M891.688 459.247L823.901 508.497L799.277 474.603L891.688 459.247Z" fill="#FFD000"/>
<path d="M861.25 552.926L835.358 473.238L795.514 486.184L861.25 552.926Z" fill="#FFD000"/>
<path d="M861.25 552.926L793.463 503.676L818.088 469.783L861.25 552.926Z" fill="#FFD000"/>
<path d="M732.312 459.247H816.101V501.141L732.312 459.247Z" fill="#FFD000"/>
<path d="M732.312 459.247L800.099 508.496L824.724 474.603L732.312 459.247Z" fill="#FFD000"/>
<path d="M762.75 552.925L788.642 473.238L828.486 486.184L762.75 552.925Z" fill="#FFD000"/>
<path d="M762.75 552.925L830.537 503.676L805.912 469.783L762.75 552.925Z" fill="#FFD000"/>
<circle cx="811.996" cy="485.136" r="85.7849" stroke="black" stroke-width="4"/>
<path d="M748 639.351L722.108 719.039L761.951 731.985L748 639.351Z" fill="#FFD000"/>
<path d="M748 639.351L773.892 719.039L734.048 731.985L748 639.351Z" fill="#FFD000"/>
<path d="M827.688 697.247H743.899V739.141L827.688 697.247Z" fill="#FFD000"/>
<path d="M827.688 697.247L759.901 746.497L735.277 712.603L827.688 697.247Z" fill="#FFD000"/>
<path d="M797.25 790.926L771.358 711.238L731.514 724.184L797.25 790.926Z" fill="#FFD000"/>
<path d="M797.25 790.926L729.463 741.676L754.088 707.783L797.25 790.926Z" fill="#FFD000"/>
<path d="M668.312 697.247H752.101V739.141L668.312 697.247Z" fill="#FFD000"/>
<path d="M668.312 697.247L736.099 746.496L760.724 712.603L668.312 697.247Z" fill="#FFD000"/>
<path d="M698.75 790.925L724.642 711.238L764.486 724.184L698.75 790.925Z" fill="#FFD000"/>
<path d="M698.75 790.925L766.537 741.676L741.912 707.783L698.75 790.925Z" fill="#FFD000"/>
<circle cx="747.996" cy="723.136" r="85.7849" stroke="black" stroke-width="4"/>
<path d="M812 876.351L786.108 956.039L825.951 968.985L812 876.351Z" fill="#FFD000"/>
<path d="M812 876.351L837.892 956.039L798.048 968.985L812 876.351Z" fill="#FFD000"/>
<path d="M891.688 934.247H807.899V976.141L891.688 934.247Z" fill="#FFD000"/>
<path d="M891.688 934.247L823.901 983.497L799.277 949.604L891.688 934.247Z" fill="#FFD000"/>
<path d="M861.25 1027.93L835.358 948.238L795.514 961.184L861.25 1027.93Z" fill="#FFD000"/>
<path d="M861.25 1027.93L793.463 978.676L818.088 944.783L861.25 1027.93Z" fill="#FFD000"/>
<path d="M732.312 934.247H816.101V976.141L732.312 934.247Z" fill="#FFD000"/>
<path d="M732.312 934.247L800.099 983.497L824.724 949.603L732.312 934.247Z" fill="#FFD000"/>
<path d="M762.75 1027.93L788.642 948.238L828.486 961.184L762.75 1027.93Z" fill="#FFD000"/>
<path d="M762.75 1027.93L830.537 978.676L805.912 944.783L762.75 1027.93Z" fill="#FFD000"/>
<circle cx="811.996" cy="960.136" r="85.7849" stroke="black" stroke-width="4"/>
<path d="M986 1050.35L960.108 1130.04L999.951 1142.99L986 1050.35Z" fill="#FFD000"/>
<path d="M986 1050.35L1011.89 1130.04L972.048 1142.99L986 1050.35Z" fill="#FFD000"/>
<path d="M1065.69 1108.25H981.899V1150.14L1065.69 1108.25Z" fill="#FFD000"/>
<path d="M1065.69 1108.25L997.901 1157.5L973.277 1123.6L1065.69 1108.25Z" fill="#FFD000"/>
<path d="M1035.25 1201.93L1009.36 1122.24L969.514 1135.18L1035.25 1201.93Z" fill="#FFD000"/>
<path d="M1035.25 1201.93L967.463 1152.68L992.088 1118.78L1035.25 1201.93Z" fill="#FFD000"/>
<path d="M906.312 1108.25H990.101V1150.14L906.312 1108.25Z" fill="#FFD000"/>
<path d="M906.312 1108.25L974.099 1157.5L998.724 1123.6L906.312 1108.25Z" fill="#FFD000"/>
<path d="M936.75 1201.93L962.642 1122.24L1002.49 1135.18L936.75 1201.93Z" fill="#FFD000"/>
<path d="M936.75 1201.93L1004.54 1152.68L979.912 1118.78L936.75 1201.93Z" fill="#FFD000"/>
<circle cx="985.996" cy="1134.14" r="85.7849" stroke="black" stroke-width="4"/>
<path d="M1223 1114.35L1197.11 1194.04L1236.95 1206.99L1223 1114.35Z" fill="#FFD000"/>
<path d="M1223 1114.35L1248.89 1194.04L1209.05 1206.99L1223 1114.35Z" fill="#FFD000"/>
<path d="M1302.69 1172.25H1218.9V1214.14L1302.69 1172.25Z" fill="#FFD000"/>
<path d="M1302.69 1172.25L1234.9 1221.5L1210.28 1187.6L1302.69 1172.25Z" fill="#FFD000"/>
<path d="M1272.25 1265.93L1246.36 1186.24L1206.51 1199.18L1272.25 1265.93Z" fill="#FFD000"/>
<path d="M1272.25 1265.93L1204.46 1216.68L1229.09 1182.78L1272.25 1265.93Z" fill="#FFD000"/>
<path d="M1143.31 1172.25H1227.1V1214.14L1143.31 1172.25Z" fill="#FFD000"/>
<path d="M1143.31 1172.25L1211.1 1221.5L1235.72 1187.6L1143.31 1172.25Z" fill="#FFD000"/>
<path d="M1173.75 1265.93L1199.64 1186.24L1239.49 1199.18L1173.75 1265.93Z" fill="#FFD000"/>
<path d="M1173.75 1265.93L1241.54 1216.68L1216.91 1182.78L1173.75 1265.93Z" fill="#FFD000"/>
<circle cx="1223" cy="1198.14" r="85.7849" stroke="black" stroke-width="4"/>
<path d="M1461 1051.35L1435.11 1131.04L1474.95 1143.99L1461 1051.35Z" fill="#FFD000"/>
<path d="M1461 1051.35L1486.89 1131.04L1447.05 1143.99L1461 1051.35Z" fill="#FFD000"/>
<path d="M1540.69 1109.25H1456.9V1151.14L1540.69 1109.25Z" fill="#FFD000"/>
<path d="M1540.69 1109.25L1472.9 1158.5L1448.28 1124.6L1540.69 1109.25Z" fill="#FFD000"/>
<path d="M1510.25 1202.93L1484.36 1123.24L1444.51 1136.18L1510.25 1202.93Z" fill="#FFD000"/>
<path d="M1510.25 1202.93L1442.46 1153.68L1467.09 1119.78L1510.25 1202.93Z" fill="#FFD000"/>
<path d="M1381.31 1109.25H1465.1V1151.14L1381.31 1109.25Z" fill="#FFD000"/>
<path d="M1381.31 1109.25L1449.1 1158.5L1473.72 1124.6L1381.31 1109.25Z" fill="#FFD000"/>
<path d="M1411.75 1202.93L1437.64 1123.24L1477.49 1136.18L1411.75 1202.93Z" fill="#FFD000"/>
<path d="M1411.75 1202.93L1479.54 1153.68L1454.91 1119.78L1411.75 1202.93Z" fill="#FFD000"/>
<circle cx="1461" cy="1135.14" r="85.7849" stroke="black" stroke-width="4"/>
<path d="M1634 878.351L1608.11 958.039L1647.95 970.985L1634 878.351Z" fill="#FFD000"/>
<path d="M1634 878.351L1659.89 958.039L1620.05 970.985L1634 878.351Z" fill="#FFD000"/>
<path d="M1713.69 936.247H1629.9V978.141L1713.69 936.247Z" fill="#FFD000"/>
<path d="M1713.69 936.247L1645.9 985.497L1621.28 951.604L1713.69 936.247Z" fill="#FFD000"/>
<path d="M1683.25 1029.93L1657.36 950.238L1617.51 963.184L1683.25 1029.93Z" fill="#FFD000"/>
<path d="M1683.25 1029.93L1615.46 980.676L1640.09 946.783L1683.25 1029.93Z" fill="#FFD000"/>
<path d="M1554.31 936.247H1638.1V978.141L1554.31 936.247Z" fill="#FFD000"/>
<path d="M1554.31 936.247L1622.1 985.497L1646.72 951.603L1554.31 936.247Z" fill="#FFD000"/>
<path d="M1584.75 1029.93L1610.64 950.238L1650.49 963.184L1584.75 1029.93Z" fill="#FFD000"/>
<path d="M1584.75 1029.93L1652.54 980.676L1627.91 946.783L1584.75 1029.93Z" fill="#FFD000"/>
<circle cx="1634" cy="962.136" r="85.7849" stroke="black" stroke-width="4"/>
<path d="M1872 814.351L1846.11 894.039L1885.95 906.985L1872 814.351Z" fill="#FFD000"/>
<path d="M1872 814.351L1897.89 894.039L1858.05 906.985L1872 814.351Z" fill="#FFD000"/>
<path d="M1951.69 872.247H1867.9V914.141L1951.69 872.247Z" fill="#FFD000"/>
<path d="M1951.69 872.247L1883.9 921.497L1859.28 887.604L1951.69 872.247Z" fill="#FFD000"/>
<path d="M1921.25 965.926L1895.36 886.238L1855.51 899.184L1921.25 965.926Z" fill="#FFD000"/>
<path d="M1921.25 965.926L1853.46 916.676L1878.09 882.783L1921.25 965.926Z" fill="#FFD000"/>
<path d="M1792.31 872.247H1876.1V914.141L1792.31 872.247Z" fill="#FFD000"/>
<path d="M1792.31 872.247L1860.1 921.497L1884.72 887.603L1792.31 872.247Z" fill="#FFD000"/>
<path d="M1822.75 965.925L1848.64 886.238L1888.49 899.184L1822.75 965.925Z" fill="#FFD000"/>
<path d="M1822.75 965.925L1890.54 916.676L1865.91 882.783L1822.75 965.925Z" fill="#FFD000"/>
<circle cx="1872" cy="898.136" r="85.7849" stroke="black" stroke-width="4"/>
<path d="M2110 878.351L2084.11 958.039L2123.95 970.985L2110 878.351Z" fill="#FFD000"/>
<path d="M2110 878.351L2135.89 958.039L2096.05 970.985L2110 878.351Z" fill="#FFD000"/>
<path d="M2189.69 936.247H2105.9V978.141L2189.69 936.247Z" fill="#FFD000"/>
<path d="M2189.69 936.247L2121.9 985.497L2097.28 951.604L2189.69 936.247Z" fill="#FFD000"/>
<path d="M2159.25 1029.93L2133.36 950.238L2093.51 963.184L2159.25 1029.93Z" fill="#FFD000"/>
<path d="M2159.25 1029.93L2091.46 980.676L2116.09 946.783L2159.25 1029.93Z" fill="#FFD000"/>
<path d="M2030.31 936.247H2114.1V978.141L2030.31 936.247Z" fill="#FFD000"/>
<path d="M2030.31 936.247L2098.1 985.497L2122.72 951.603L2030.31 936.247Z" fill="#FFD000"/>
<path d="M2060.75 1029.93L2086.64 950.238L2126.49 963.184L2060.75 1029.93Z" fill="#FFD000"/>
<path d="M2060.75 1029.93L2128.54 980.676L2103.91 946.783L2060.75 1029.93Z" fill="#FFD000"/>
<circle cx="2110" cy="962.136" r="85.7849" stroke="black" stroke-width="4"/>
<path d="M2283 1051.35L2257.11 1131.04L2296.95 1143.99L2283 1051.35Z" fill="#FFD000"/>
<path d="M2283 1051.35L2308.89 1131.04L2269.05 1143.99L2283 1051.35Z" fill="#FFD000"/>
<path d="M2362.69 1109.25H2278.9V1151.14L2362.69 1109.25Z" fill="#FFD000"/>
<path d="M2362.69 1109.25L2294.9 1158.5L2270.28 1124.6L2362.69 1109.25Z" fill="#FFD000"/>
<path d="M2332.25 1202.93L2306.36 1123.24L2266.51 1136.18L2332.25 1202.93Z" fill="#FFD000"/>
<path d="M2332.25 1202.93L2264.46 1153.68L2289.09 1119.78L2332.25 1202.93Z" fill="#FFD000"/>
<path d="M2203.31 1109.25H2287.1V1151.14L2203.31 1109.25Z" fill="#FFD000"/>
<path d="M2203.31 1109.25L2271.1 1158.5L2295.72 1124.6L2203.31 1109.25Z" fill="#FFD000"/>
<path d="M2233.75 1202.93L2259.64 1123.24L2299.49 1136.18L2233.75 1202.93Z" fill="#FFD000"/>
<path d="M2233.75 1202.93L2301.54 1153.68L2276.91 1119.78L2233.75 1202.93Z" fill="#FFD000"/>
<circle cx="2283" cy="1135.14" r="85.7849" stroke="black" stroke-width="4"/>
<path d="M2347 1289.35L2321.11 1369.04L2360.95 1381.99L2347 1289.35Z" fill="#FFD000"/>
<path d="M2347 1289.35L2372.89 1369.04L2333.05 1381.99L2347 1289.35Z" fill="#FFD000"/>
<path d="M2426.69 1347.25H2342.9V1389.14L2426.69 1347.25Z" fill="#FFD000"/>
<path d="M2426.69 1347.25L2358.9 1396.5L2334.28 1362.6L2426.69 1347.25Z" fill="#FFD000"/>
<path d="M2396.25 1440.93L2370.36 1361.24L2330.51 1374.18L2396.25 1440.93Z" fill="#FFD000"/>
<path d="M2396.25 1440.93L2328.46 1391.68L2353.09 1357.78L2396.25 1440.93Z" fill="#FFD000"/>
<path d="M2267.31 1347.25H2351.1V1389.14L2267.31 1347.25Z" fill="#FFD000"/>
<path d="M2267.31 1347.25L2335.1 1396.5L2359.72 1362.6L2267.31 1347.25Z" fill="#FFD000"/>
<path d="M2297.75 1440.93L2323.64 1361.24L2363.49 1374.18L2297.75 1440.93Z" fill="#FFD000"/>
<path d="M2297.75 1440.93L2365.54 1391.68L2340.91 1357.78L2297.75 1440.93Z" fill="#FFD000"/>
<circle cx="2347" cy="1373.14" r="85.7849" stroke="black" stroke-width="4"/>
<path d="M2284 1526.35L2258.11 1606.04L2297.95 1618.99L2284 1526.35Z" fill="#FFD000"/>
<path d="M2284 1526.35L2309.89 1606.04L2270.05 1618.99L2284 1526.35Z" fill="#FFD000"/>
<path d="M2363.69 1584.25H2279.9V1626.14L2363.69 1584.25Z" fill="#FFD000"/>
<path d="M2363.69 1584.25L2295.9 1633.5L2271.28 1599.6L2363.69 1584.25Z" fill="#FFD000"/>
<path d="M2333.25 1677.93L2307.36 1598.24L2267.51 1611.18L2333.25 1677.93Z" fill="#FFD000"/>
<path d="M2333.25 1677.93L2265.46 1628.68L2290.09 1594.78L2333.25 1677.93Z" fill="#FFD000"/>
<path d="M2204.31 1584.25H2288.1V1626.14L2204.31 1584.25Z" fill="#FFD000"/>
<path d="M2204.31 1584.25L2272.1 1633.5L2296.72 1599.6L2204.31 1584.25Z" fill="#FFD000"/>
<path d="M2234.75 1677.93L2260.64 1598.24L2300.49 1611.18L2234.75 1677.93Z" fill="#FFD000"/>
<path d="M2234.75 1677.93L2302.54 1628.68L2277.91 1594.78L2234.75 1677.93Z" fill="#FFD000"/>
<circle cx="2284" cy="1610.14" r="85.7849" stroke="black" stroke-width="4"/>
<path d="M2109 1700.35L2083.11 1780.04L2122.95 1792.98L2109 1700.35Z" fill="#FFD000"/>
<path d="M2109 1700.35L2134.89 1780.04L2095.05 1792.99L2109 1700.35Z" fill="#FFD000"/>
<path d="M2188.69 1758.25H2104.9V1800.14L2188.69 1758.25Z" fill="#FFD000"/>
<path d="M2188.69 1758.25L2120.9 1807.5L2096.28 1773.6L2188.69 1758.25Z" fill="#FFD000"/>
<path d="M2158.25 1851.93L2132.36 1772.24L2092.51 1785.18L2158.25 1851.93Z" fill="#FFD000"/>
<path d="M2158.25 1851.93L2090.46 1802.68L2115.09 1768.78L2158.25 1851.93Z" fill="#FFD000"/>
<path d="M2029.31 1758.25H2113.1V1800.14L2029.31 1758.25Z" fill="#FFD000"/>
<path d="M2029.31 1758.25L2097.1 1807.5L2121.72 1773.6L2029.31 1758.25Z" fill="#FFD000"/>
<path d="M2059.75 1851.93L2085.64 1772.24L2125.49 1785.18L2059.75 1851.93Z" fill="#FFD000"/>
<path d="M2059.75 1851.93L2127.54 1802.68L2102.91 1768.78L2059.75 1851.93Z" fill="#FFD000"/>
<circle cx="2109" cy="1784.14" r="85.7849" stroke="black" stroke-width="4"/>
<path d="M1872 1764.35L1846.11 1844.04L1885.95 1856.98L1872 1764.35Z" fill="#FFD000"/>
<path d="M1872 1764.35L1897.89 1844.04L1858.05 1856.99L1872 1764.35Z" fill="#FFD000"/>
<path d="M1951.69 1822.25H1867.9V1864.14L1951.69 1822.25Z" fill="#FFD000"/>
<path d="M1951.69 1822.25L1883.9 1871.5L1859.28 1837.6L1951.69 1822.25Z" fill="#FFD000"/>
<path d="M1921.25 1915.93L1895.36 1836.24L1855.51 1849.18L1921.25 1915.93Z" fill="#FFD000"/>
<path d="M1921.25 1915.93L1853.46 1866.68L1878.09 1832.78L1921.25 1915.93Z" fill="#FFD000"/>
<path d="M1792.31 1822.25H1876.1V1864.14L1792.31 1822.25Z" fill="#FFD000"/>
<path d="M1792.31 1822.25L1860.1 1871.5L1884.72 1837.6L1792.31 1822.25Z" fill="#FFD000"/>
<path d="M1822.75 1915.93L1848.64 1836.24L1888.49 1849.18L1822.75 1915.93Z" fill="#FFD000"/>
<path d="M1822.75 1915.93L1890.54 1866.68L1865.91 1832.78L1822.75 1915.93Z" fill="#FFD000"/>
<circle cx="1872" cy="1848.14" r="85.7849" stroke="black" stroke-width="4"/>
<path d="M1635 1700.35L1609.11 1780.04L1648.95 1792.98L1635 1700.35Z" fill="#FFD000"/>
<path d="M1635 1700.35L1660.89 1780.04L1621.05 1792.99L1635 1700.35Z" fill="#FFD000"/>
<path d="M1714.69 1758.25H1630.9V1800.14L1714.69 1758.25Z" fill="#FFD000"/>
<path d="M1714.69 1758.25L1646.9 1807.5L1622.28 1773.6L1714.69 1758.25Z" fill="#FFD000"/>
<path d="M1684.25 1851.93L1658.36 1772.24L1618.51 1785.18L1684.25 1851.93Z" fill="#FFD000"/>
<path d="M1684.25 1851.93L1616.46 1802.68L1641.09 1768.78L1684.25 1851.93Z" fill="#FFD000"/>
<path d="M1555.31 1758.25H1639.1V1800.14L1555.31 1758.25Z" fill="#FFD000"/>
<path d="M1555.31 1758.25L1623.1 1807.5L1647.72 1773.6L1555.31 1758.25Z" fill="#FFD000"/>
<path d="M1585.75 1851.93L1611.64 1772.24L1651.49 1785.18L1585.75 1851.93Z" fill="#FFD000"/>
<path d="M1585.75 1851.93L1653.54 1802.68L1628.91 1768.78L1585.75 1851.93Z" fill="#FFD000"/>
<circle cx="1635" cy="1784.14" r="85.7849" stroke="black" stroke-width="4"/>
<path d="M1461 1526.35L1435.11 1606.04L1474.95 1618.99L1461 1526.35Z" fill="#FFD000"/>
<path d="M1461 1526.35L1486.89 1606.04L1447.05 1618.99L1461 1526.35Z" fill="#FFD000"/>
<path d="M1540.69 1584.25H1456.9V1626.14L1540.69 1584.25Z" fill="#FFD000"/>
<path d="M1540.69 1584.25L1472.9 1633.5L1448.28 1599.6L1540.69 1584.25Z" fill="#FFD000"/>
<path d="M1510.25 1677.93L1484.36 1598.24L1444.51 1611.18L1510.25 1677.93Z" fill="#FFD000"/>
<path d="M1510.25 1677.93L1442.46 1628.68L1467.09 1594.78L1510.25 1677.93Z" fill="#FFD000"/>
<path d="M1381.31 1584.25H1465.1V1626.14L1381.31 1584.25Z" fill="#FFD000"/>
<path d="M1381.31 1584.25L1449.1 1633.5L1473.72 1599.6L1381.31 1584.25Z" fill="#FFD000"/>
<path d="M1411.75 1677.93L1437.64 1598.24L1477.49 1611.18L1411.75 1677.93Z" fill="#FFD000"/>
<path d="M1411.75 1677.93L1479.54 1628.68L1454.91 1594.78L1411.75 1677.93Z" fill="#FFD000"/>
<circle cx="1461" cy="1610.14" r="85.7849" stroke="black" stroke-width="4"/>
<circle cx="1222.91" cy="724.907" r="474.908" stroke="black" stroke-width="4.22222"/>
<path d="M1634.72 962.211L812.156 487.303" stroke="black" stroke-width="4.22222"/>
<path d="M1460.21 1136.09L985.303 313.524" stroke="black" stroke-width="4.22222"/>
<path d="M1223.39 1200L1223.39 250.185" stroke="black" stroke-width="4.22222"/>
<path d="M985.937 1136.37L1460.84 313.811" stroke="black" stroke-width="4.22222"/>
<path d="M811.81 962.211L1634.37 487.303" stroke="black" stroke-width="4.22222"/>
<path d="M1698 724.757L748.185 724.757" stroke="black" stroke-width="4.22222"/>
<circle cx="1871.91" cy="1374.91" r="474.908" stroke="black" stroke-width="4.22223"/>
<path d="M2283.72 1612.21L1461.15 1137.3" stroke="black" stroke-width="4.22223"/>
<path d="M2109.21 1786.09L1634.3 963.523" stroke="black" stroke-width="4.22223"/>
<path d="M1872.39 1850L1872.39 900.185" stroke="black" stroke-width="4.22223"/>
<path d="M1634.93 1786.38L2109.84 963.81" stroke="black" stroke-width="4.22223"/>
<path d="M1460.81 1612.21L2283.37 1137.3" stroke="black" stroke-width="4.22223"/>
<path d="M2347 1374.76L1397.18 1374.76" stroke="black" stroke-width="4.22223"/>
<path d="M2064.22 1315.84C2067.24 1316.49 2069.59 1317.83 2071.28 1319.88C2072.99 1321.92 2073.84 1324.44 2073.84 1327.44C2073.84 1332.04 2072.26 1335.6 2069.09 1338.12C2065.93 1340.65 2061.43 1341.91 2055.59 1341.91C2053.64 1341.91 2051.61 1341.71 2049.53 1341.31C2047.47 1340.94 2045.33 1340.36 2043.12 1339.59V1333.5C2044.88 1334.52 2046.79 1335.29 2048.88 1335.81C2050.96 1336.33 2053.14 1336.59 2055.41 1336.59C2059.36 1336.59 2062.38 1335.81 2064.44 1334.25C2066.52 1332.69 2067.56 1330.42 2067.56 1327.44C2067.56 1324.69 2066.59 1322.54 2064.66 1321C2062.74 1319.44 2060.06 1318.66 2056.62 1318.66H2051.19V1313.47H2056.88C2059.98 1313.47 2062.35 1312.85 2064 1311.62C2065.65 1310.38 2066.47 1308.58 2066.47 1306.25C2066.47 1303.85 2065.61 1302.02 2063.91 1300.75C2062.22 1299.46 2059.79 1298.81 2056.62 1298.81C2054.9 1298.81 2053.04 1299 2051.06 1299.38C2049.08 1299.75 2046.91 1300.33 2044.53 1301.12V1295.5C2046.93 1294.83 2049.17 1294.33 2051.25 1294C2053.35 1293.67 2055.33 1293.5 2057.19 1293.5C2061.98 1293.5 2065.77 1294.59 2068.56 1296.78C2071.35 1298.95 2072.75 1301.89 2072.75 1305.59C2072.75 1308.18 2072.01 1310.36 2070.53 1312.16C2069.05 1313.93 2066.95 1315.16 2064.22 1315.84ZM2099.34 1298.5C2096.09 1298.5 2093.65 1300.1 2092 1303.31C2090.38 1306.5 2089.56 1311.3 2089.56 1317.72C2089.56 1324.11 2090.38 1328.92 2092 1332.12C2093.65 1335.31 2096.09 1336.91 2099.34 1336.91C2102.61 1336.91 2105.06 1335.31 2106.69 1332.12C2108.33 1328.92 2109.16 1324.11 2109.16 1317.72C2109.16 1311.3 2108.33 1306.5 2106.69 1303.31C2105.06 1300.1 2102.61 1298.5 2099.34 1298.5ZM2099.34 1293.5C2104.57 1293.5 2108.56 1295.57 2111.31 1299.72C2114.08 1303.84 2115.47 1309.84 2115.47 1317.72C2115.47 1325.57 2114.08 1331.57 2111.31 1335.72C2108.56 1339.84 2104.57 1341.91 2099.34 1341.91C2094.11 1341.91 2090.11 1339.84 2087.34 1335.72C2084.59 1331.57 2083.22 1325.57 2083.22 1317.72C2083.22 1309.84 2084.59 1303.84 2087.34 1299.72C2090.11 1295.57 2094.11 1293.5 2099.34 1293.5ZM2135.75 1297.53C2134.08 1297.53 2132.68 1298.11 2131.53 1299.28C2130.39 1300.43 2129.81 1301.83 2129.81 1303.5C2129.81 1305.15 2130.39 1306.54 2131.53 1307.69C2132.68 1308.81 2134.08 1309.38 2135.75 1309.38C2137.42 1309.38 2138.82 1308.81 2139.97 1307.69C2141.11 1306.54 2141.69 1305.15 2141.69 1303.5C2141.69 1301.85 2141.1 1300.45 2139.94 1299.28C2138.79 1298.11 2137.4 1297.53 2135.75 1297.53ZM2135.75 1293.5C2137.08 1293.5 2138.36 1293.76 2139.59 1294.28C2140.82 1294.78 2141.89 1295.51 2142.78 1296.47C2143.74 1297.41 2144.46 1298.47 2144.94 1299.66C2145.42 1300.84 2145.66 1302.12 2145.66 1303.5C2145.66 1306.25 2144.69 1308.58 2142.75 1310.5C2140.83 1312.4 2138.48 1313.34 2135.69 1313.34C2132.88 1313.34 2130.53 1312.41 2128.66 1310.53C2126.78 1308.66 2125.84 1306.31 2125.84 1303.5C2125.84 1300.71 2126.8 1298.34 2128.72 1296.41C2130.64 1294.47 2132.98 1293.5 2135.75 1293.5Z" fill="black"/>
<path d="M3050 2150L50 2150" stroke="black" stroke-width="4"/>
<path d="M1549 2165V2135" stroke="black" stroke-width="4"/>
<path d="M2332.44 2096.84C2335.46 2097.49 2337.81 2098.83 2339.5 2100.87C2341.21 2102.92 2342.06 2105.44 2342.06 2108.44C2342.06 2113.04 2340.48 2116.6 2337.31 2119.12C2334.15 2121.64 2329.65 2122.91 2323.81 2122.91C2321.85 2122.91 2319.83 2122.71 2317.75 2122.31C2315.69 2121.94 2313.55 2121.36 2311.34 2120.59V2114.5C2313.09 2115.52 2315.01 2116.29 2317.09 2116.81C2319.18 2117.33 2321.35 2117.59 2323.62 2117.59C2327.58 2117.59 2330.59 2116.81 2332.66 2115.25C2334.74 2113.69 2335.78 2111.42 2335.78 2108.44C2335.78 2105.69 2334.81 2103.54 2332.88 2102C2330.96 2100.44 2328.28 2099.66 2324.84 2099.66H2319.41V2094.47H2325.09C2328.2 2094.47 2330.57 2093.85 2332.22 2092.62C2333.86 2091.37 2334.69 2089.58 2334.69 2087.25C2334.69 2084.85 2333.83 2083.02 2332.12 2081.75C2330.44 2080.46 2328.01 2079.81 2324.84 2079.81C2323.11 2079.81 2321.26 2080 2319.28 2080.37C2317.3 2080.75 2315.12 2081.33 2312.75 2082.12V2076.5C2315.15 2075.83 2317.39 2075.33 2319.47 2075C2321.57 2074.67 2323.55 2074.5 2325.41 2074.5C2330.2 2074.5 2333.99 2075.59 2336.78 2077.78C2339.57 2079.95 2340.97 2082.88 2340.97 2086.59C2340.97 2089.18 2340.23 2091.36 2338.75 2093.16C2337.27 2094.93 2335.17 2096.16 2332.44 2096.84ZM2363.47 2075.34H2368.78L2352.53 2127.94H2347.22L2363.47 2075.34ZM2381.06 2116.69H2403.09V2122H2373.47V2116.69C2375.86 2114.21 2379.12 2110.88 2383.25 2106.72C2387.4 2102.53 2390 2099.83 2391.06 2098.62C2393.08 2096.35 2394.49 2094.44 2395.28 2092.87C2396.09 2091.29 2396.5 2089.74 2396.5 2088.22C2396.5 2085.74 2395.62 2083.72 2393.88 2082.16C2392.15 2080.59 2389.89 2079.81 2387.09 2079.81C2385.11 2079.81 2383.02 2080.16 2380.81 2080.84C2378.62 2081.53 2376.28 2082.57 2373.78 2083.97V2077.59C2376.32 2076.57 2378.7 2075.8 2380.91 2075.28C2383.11 2074.76 2385.14 2074.5 2386.97 2074.5C2391.8 2074.5 2395.66 2075.71 2398.53 2078.12C2401.41 2080.54 2402.84 2083.77 2402.84 2087.81C2402.84 2089.73 2402.48 2091.55 2401.75 2093.28C2401.04 2094.99 2399.74 2097.01 2397.84 2099.34C2397.32 2099.95 2395.67 2101.7 2392.88 2104.59C2390.08 2107.47 2386.15 2111.5 2381.06 2116.69Z" fill="black"/>
<path d="M832.438 2096.84C835.458 2097.49 837.812 2098.83 839.5 2100.87C841.208 2102.92 842.062 2105.44 842.062 2108.44C842.062 2113.04 840.479 2116.6 837.312 2119.12C834.146 2121.64 829.646 2122.91 823.812 2122.91C821.854 2122.91 819.833 2122.71 817.75 2122.31C815.688 2121.94 813.552 2121.36 811.344 2120.59V2114.5C813.094 2115.52 815.01 2116.29 817.094 2116.81C819.177 2117.33 821.354 2117.59 823.625 2117.59C827.583 2117.59 830.594 2116.81 832.656 2115.25C834.74 2113.69 835.781 2111.42 835.781 2108.44C835.781 2105.69 834.812 2103.54 832.875 2102C830.958 2100.44 828.281 2099.66 824.844 2099.66H819.406V2094.47H825.094C828.198 2094.47 830.573 2093.85 832.219 2092.62C833.865 2091.37 834.688 2089.58 834.688 2087.25C834.688 2084.85 833.833 2083.02 832.125 2081.75C830.438 2080.46 828.01 2079.81 824.844 2079.81C823.115 2079.81 821.26 2080 819.281 2080.37C817.302 2080.75 815.125 2081.33 812.75 2082.12V2076.5C815.146 2075.83 817.385 2075.33 819.469 2075C821.573 2074.67 823.552 2074.5 825.406 2074.5C830.198 2074.5 833.99 2075.59 836.781 2077.78C839.573 2079.95 840.969 2082.88 840.969 2086.59C840.969 2089.18 840.229 2091.36 838.75 2093.16C837.271 2094.93 835.167 2096.16 832.438 2096.84ZM863.469 2075.34H868.781L852.531 2127.94H847.219L863.469 2075.34ZM881.062 2116.69H903.094V2122H873.469V2116.69C875.865 2114.21 879.125 2110.88 883.25 2106.72C887.396 2102.53 890 2099.83 891.062 2098.62C893.083 2096.35 894.49 2094.44 895.281 2092.87C896.094 2091.29 896.5 2089.74 896.5 2088.22C896.5 2085.74 895.625 2083.72 893.875 2082.16C892.146 2080.59 889.885 2079.81 887.094 2079.81C885.115 2079.81 883.021 2080.16 880.812 2080.84C878.625 2081.53 876.281 2082.57 873.781 2083.97V2077.59C876.323 2076.57 878.698 2075.8 880.906 2075.28C883.115 2074.76 885.135 2074.5 886.969 2074.5C891.802 2074.5 895.656 2075.71 898.531 2078.12C901.406 2080.54 902.844 2083.77 902.844 2087.81C902.844 2089.73 902.479 2091.55 901.75 2093.28C901.042 2094.99 899.74 2097.01 897.844 2099.34C897.323 2099.95 895.667 2101.7 892.875 2104.59C890.083 2107.47 886.146 2111.5 881.062 2116.69Z" fill="black"/>
<path d="M1653 2050V1950" stroke="black" stroke-width="4"/>
<path d="M1549 1952H1653" stroke="black" stroke-width="4"/>
<path d="M3150 2050L3150 50" stroke="black" stroke-width="4"/>
<path d="M3135 1050H3165" stroke="black" stroke-width="4"/>
<path d="M3090.06 1604.69H3100.38V1569.09L3089.16 1571.34V1565.59L3100.31 1563.34H3106.62V1604.69H3116.94V1610H3090.06V1604.69Z" fill="black"/>
<path d="M3090.06 604.688H3100.38V569.094L3089.16 571.344V565.594L3100.31 563.344H3106.62V604.688H3116.94V610H3090.06V604.688Z" fill="black"/>
<path d="M2948 1150V1050" stroke="black" stroke-width="4"/>
<path d="M2946 1150H3050" stroke="black" stroke-width="4"/>
<path d="M1549 2050L1546.98 49.9999" stroke="black" stroke-width="4"/>
<path d="M50 1050L3050 1050" stroke="black" stroke-width="4"/>
<path d="M2441 1202V244" stroke="black" stroke-width="4"/>
<path d="M1223.5 250C1699.94 250 1964.56 246 2441 246" stroke="black" stroke-width="4"/>
<path d="M1223 1200L2443 1200" stroke="black" stroke-width="4"/>
<path d="M2499.16 741.688H2509.47V706.094L2498.25 708.344V702.594L2509.41 700.344H2515.72V741.688H2526.03V747H2499.16V741.688ZM2539 746.031V740.281C2540.58 741.031 2542.19 741.604 2543.81 742C2545.44 742.396 2547.03 742.594 2548.59 742.594C2552.76 742.594 2555.94 741.198 2558.12 738.406C2560.33 735.594 2561.59 731.333 2561.91 725.625C2560.7 727.417 2559.17 728.792 2557.31 729.75C2555.46 730.708 2553.41 731.188 2551.16 731.188C2546.49 731.188 2542.79 729.781 2540.06 726.969C2537.35 724.135 2536 720.271 2536 715.375C2536 710.583 2537.42 706.74 2540.25 703.844C2543.08 700.948 2546.85 699.5 2551.56 699.5C2556.96 699.5 2561.07 701.573 2563.91 705.719C2566.76 709.844 2568.19 715.844 2568.19 723.719C2568.19 731.073 2566.44 736.948 2562.94 741.344C2559.46 745.719 2554.77 747.906 2548.88 747.906C2547.29 747.906 2545.69 747.75 2544.06 747.438C2542.44 747.125 2540.75 746.656 2539 746.031ZM2551.56 726.25C2554.4 726.25 2556.64 725.281 2558.28 723.344C2559.95 721.406 2560.78 718.75 2560.78 715.375C2560.78 712.021 2559.95 709.375 2558.28 707.438C2556.64 705.479 2554.4 704.5 2551.56 704.5C2548.73 704.5 2546.48 705.479 2544.81 707.438C2543.17 709.375 2542.34 712.021 2542.34 715.375C2542.34 718.75 2543.17 721.406 2544.81 723.344C2546.48 725.281 2548.73 726.25 2551.56 726.25ZM2588.97 700.344H2594.28L2578.03 752.938H2572.72L2588.97 700.344ZM2606.56 741.688H2628.59V747H2598.97V741.688C2601.36 739.208 2604.62 735.885 2608.75 731.719C2612.9 727.531 2615.5 724.833 2616.56 723.625C2618.58 721.354 2619.99 719.438 2620.78 717.875C2621.59 716.292 2622 714.74 2622 713.219C2622 710.74 2621.12 708.719 2619.38 707.156C2617.65 705.594 2615.39 704.812 2612.59 704.812C2610.61 704.812 2608.52 705.156 2606.31 705.844C2604.12 706.531 2601.78 707.573 2599.28 708.969V702.594C2601.82 701.573 2604.2 700.802 2606.41 700.281C2608.61 699.76 2610.64 699.5 2612.47 699.5C2617.3 699.5 2621.16 700.708 2624.03 703.125C2626.91 705.542 2628.34 708.771 2628.34 712.812C2628.34 714.729 2627.98 716.552 2627.25 718.281C2626.54 719.99 2625.24 722.01 2623.34 724.344C2622.82 724.948 2621.17 726.698 2618.38 729.594C2615.58 732.469 2611.65 736.5 2606.56 741.688ZM2655.38 704.5C2652.12 704.5 2649.68 706.104 2648.03 709.312C2646.41 712.5 2645.59 717.302 2645.59 723.719C2645.59 730.115 2646.41 734.917 2648.03 738.125C2649.68 741.312 2652.12 742.906 2655.38 742.906C2658.65 742.906 2661.09 741.312 2662.72 738.125C2664.36 734.917 2665.19 730.115 2665.19 723.719C2665.19 717.302 2664.36 712.5 2662.72 709.312C2661.09 706.104 2658.65 704.5 2655.38 704.5ZM2655.38 699.5C2660.6 699.5 2664.59 701.573 2667.34 705.719C2670.11 709.844 2671.5 715.844 2671.5 723.719C2671.5 731.573 2670.11 737.573 2667.34 741.719C2664.59 745.844 2660.6 747.906 2655.38 747.906C2650.15 747.906 2646.15 745.844 2643.38 741.719C2640.62 737.573 2639.25 731.573 2639.25 723.719C2639.25 715.844 2640.62 709.844 2643.38 705.719C2646.15 701.573 2650.15 699.5 2655.38 699.5Z" fill="black"/>
<path d="M2690 1852V898" stroke="black" stroke-width="4"/>
<path d="M1872 900L2692 900" stroke="black" stroke-width="4"/>
<path d="M1872 1850L2692 1850" stroke="black" stroke-width="4"/>
<path d="M2748.16 1391.69H2758.47V1356.09L2747.25 1358.34V1352.59L2758.41 1350.34H2764.72V1391.69H2775.03V1397H2748.16V1391.69ZM2788 1396.03V1390.28C2789.58 1391.03 2791.19 1391.6 2792.81 1392C2794.44 1392.4 2796.03 1392.59 2797.59 1392.59C2801.76 1392.59 2804.94 1391.2 2807.12 1388.41C2809.33 1385.59 2810.59 1381.33 2810.91 1375.62C2809.7 1377.42 2808.17 1378.79 2806.31 1379.75C2804.46 1380.71 2802.41 1381.19 2800.16 1381.19C2795.49 1381.19 2791.79 1379.78 2789.06 1376.97C2786.35 1374.14 2785 1370.27 2785 1365.38C2785 1360.58 2786.42 1356.74 2789.25 1353.84C2792.08 1350.95 2795.85 1349.5 2800.56 1349.5C2805.96 1349.5 2810.07 1351.57 2812.91 1355.72C2815.76 1359.84 2817.19 1365.84 2817.19 1373.72C2817.19 1381.07 2815.44 1386.95 2811.94 1391.34C2808.46 1395.72 2803.77 1397.91 2797.88 1397.91C2796.29 1397.91 2794.69 1397.75 2793.06 1397.44C2791.44 1397.12 2789.75 1396.66 2788 1396.03ZM2800.56 1376.25C2803.4 1376.25 2805.64 1375.28 2807.28 1373.34C2808.95 1371.41 2809.78 1368.75 2809.78 1365.38C2809.78 1362.02 2808.95 1359.38 2807.28 1357.44C2805.64 1355.48 2803.4 1354.5 2800.56 1354.5C2797.73 1354.5 2795.48 1355.48 2793.81 1357.44C2792.17 1359.38 2791.34 1362.02 2791.34 1365.38C2791.34 1368.75 2792.17 1371.41 2793.81 1373.34C2795.48 1375.28 2797.73 1376.25 2800.56 1376.25ZM2837.97 1350.34H2843.28L2827.03 1402.94H2821.72L2837.97 1350.34ZM2855.56 1391.69H2877.59V1397H2847.97V1391.69C2850.36 1389.21 2853.62 1385.89 2857.75 1381.72C2861.9 1377.53 2864.5 1374.83 2865.56 1373.62C2867.58 1371.35 2868.99 1369.44 2869.78 1367.88C2870.59 1366.29 2871 1364.74 2871 1363.22C2871 1360.74 2870.12 1358.72 2868.38 1357.16C2866.65 1355.59 2864.39 1354.81 2861.59 1354.81C2859.61 1354.81 2857.52 1355.16 2855.31 1355.84C2853.12 1356.53 2850.78 1357.57 2848.28 1358.97V1352.59C2850.82 1351.57 2853.2 1350.8 2855.41 1350.28C2857.61 1349.76 2859.64 1349.5 2861.47 1349.5C2866.3 1349.5 2870.16 1350.71 2873.03 1353.12C2875.91 1355.54 2877.34 1358.77 2877.34 1362.81C2877.34 1364.73 2876.98 1366.55 2876.25 1368.28C2875.54 1369.99 2874.24 1372.01 2872.34 1374.34C2871.82 1374.95 2870.17 1376.7 2867.38 1379.59C2864.58 1382.47 2860.65 1386.5 2855.56 1391.69ZM2904.38 1354.5C2901.12 1354.5 2898.68 1356.1 2897.03 1359.31C2895.41 1362.5 2894.59 1367.3 2894.59 1373.72C2894.59 1380.11 2895.41 1384.92 2897.03 1388.12C2898.68 1391.31 2901.12 1392.91 2904.38 1392.91C2907.65 1392.91 2910.09 1391.31 2911.72 1388.12C2913.36 1384.92 2914.19 1380.11 2914.19 1373.72C2914.19 1367.3 2913.36 1362.5 2911.72 1359.31C2910.09 1356.1 2907.65 1354.5 2904.38 1354.5ZM2904.38 1349.5C2909.6 1349.5 2913.59 1351.57 2916.34 1355.72C2919.11 1359.84 2920.5 1365.84 2920.5 1373.72C2920.5 1381.57 2919.11 1387.57 2916.34 1391.72C2913.59 1395.84 2909.6 1397.91 2904.38 1397.91C2899.15 1397.91 2895.15 1395.84 2892.38 1391.72C2889.62 1387.57 2888.25 1381.57 2888.25 1373.72C2888.25 1365.84 2889.62 1359.84 2892.38 1355.72C2895.15 1351.57 2899.15 1349.5 2904.38 1349.5Z" fill="black"/>
<path d="M1786 569V401" stroke="black" stroke-width="4"/>
<path d="M1634 399.35L1788 399.35" stroke="black" stroke-width="4"/>
<path d="M1634 570.925H1788" stroke="black" stroke-width="4"/>
<path d="M1844.41 504.037H1854.72V468.444L1843.5 470.694V464.944L1854.66 462.694H1860.97V504.037H1871.28V509.35H1844.41V504.037ZM1893.47 462.694H1898.78L1882.53 515.287H1877.22L1893.47 462.694ZM1919.91 483.506C1917.07 483.506 1914.82 484.475 1913.16 486.412C1911.51 488.35 1910.69 491.006 1910.69 494.381C1910.69 497.735 1911.51 500.392 1913.16 502.35C1914.82 504.287 1917.07 505.256 1919.91 505.256C1922.74 505.256 1924.98 504.287 1926.62 502.35C1928.29 500.392 1929.12 497.735 1929.12 494.381C1929.12 491.006 1928.29 488.35 1926.62 486.412C1924.98 484.475 1922.74 483.506 1919.91 483.506ZM1932.44 463.725V469.475C1930.85 468.725 1929.25 468.152 1927.62 467.756C1926.02 467.36 1924.43 467.162 1922.84 467.162C1918.68 467.162 1915.49 468.569 1913.28 471.381C1911.09 474.194 1909.84 478.444 1909.53 484.131C1910.76 482.319 1912.3 480.933 1914.16 479.975C1916.01 478.996 1918.05 478.506 1920.28 478.506C1924.97 478.506 1928.67 479.933 1931.38 482.787C1934.1 485.621 1935.47 489.485 1935.47 494.381C1935.47 499.173 1934.05 503.017 1931.22 505.912C1928.39 508.808 1924.61 510.256 1919.91 510.256C1914.51 510.256 1910.39 508.194 1907.53 504.069C1904.68 499.923 1903.25 493.923 1903.25 486.069C1903.25 478.694 1905 472.819 1908.5 468.444C1912 464.048 1916.7 461.85 1922.59 461.85C1924.18 461.85 1925.77 462.006 1927.38 462.319C1929 462.631 1930.69 463.1 1932.44 463.725Z" fill="black"/>
<rect width="3202" height="2202" fill="white" fill-opacity="0.3"/>
</g>
<defs>
<clipPath id="clip0_14_289">
<rect width="3202" height="2202" fill="white"/>
</clipPath>
</defs>
</svg>
