<svg width="3202" height="2202" viewBox="0 0 3202 2202" fill="none" xmlns="http://www.w3.org/2000/svg">
<g clip-path="url(#clip0_59_122)">
<rect width="3202" height="2202" fill="#F5F5F5"/>
<path d="M50 50H3050V2050H50V50Z" fill="white"/>
<path d="M1630 432.351L1604.11 512.039L1643.95 524.985L1630 432.351Z" fill="#FFCC00"/>
<path d="M1630 432.351L1655.89 512.039L1616.05 524.985L1630 432.351Z" fill="#FFCC00"/>
<path d="M1709.69 490.247H1625.9V532.141L1709.69 490.247Z" fill="#FFCC00"/>
<path d="M1709.69 490.247L1641.9 539.497L1617.28 505.603L1709.69 490.247Z" fill="#FFCC00"/>
<path d="M1679.25 583.926L1653.36 504.238L1613.51 517.184L1679.25 583.926Z" fill="#FFCC00"/>
<path d="M1679.25 583.926L1611.46 534.676L1636.09 500.783L1679.25 583.926Z" fill="#FFCC00"/>
<path d="M1550.31 490.247H1634.1V532.141L1550.31 490.247Z" fill="#FFCC00"/>
<path d="M1550.31 490.247L1618.1 539.496L1642.72 505.603L1550.31 490.247Z" fill="#FFCC00"/>
<path d="M1580.75 583.925L1606.64 504.238L1646.49 517.184L1580.75 583.925Z" fill="#FFCC00"/>
<path d="M1580.75 583.925L1648.54 534.676L1623.91 500.783L1580.75 583.925Z" fill="#FFCC00"/>
<circle cx="1630" cy="516.136" r="85.7849" stroke="black" stroke-width="4"/>
<path d="M1465 267.351L1439.11 347.039L1478.95 359.985L1465 267.351Z" fill="#FFCC00"/>
<path d="M1465 267.351L1490.89 347.039L1451.05 359.985L1465 267.351Z" fill="#FFCC00"/>
<path d="M1544.69 325.247H1460.9V367.141L1544.69 325.247Z" fill="#FFCC00"/>
<path d="M1544.69 325.247L1476.9 374.497L1452.28 340.603L1544.69 325.247Z" fill="#FFCC00"/>
<path d="M1514.25 418.926L1488.36 339.238L1448.51 352.184L1514.25 418.926Z" fill="#FFCC00"/>
<path d="M1514.25 418.926L1446.46 369.676L1471.09 335.783L1514.25 418.926Z" fill="#FFCC00"/>
<path d="M1385.31 325.247H1469.1V367.141L1385.31 325.247Z" fill="#FFCC00"/>
<path d="M1385.31 325.247L1453.1 374.496L1477.72 340.603L1385.31 325.247Z" fill="#FFCC00"/>
<path d="M1415.75 418.925L1441.64 339.238L1481.49 352.184L1415.75 418.925Z" fill="#FFCC00"/>
<path d="M1415.75 418.925L1483.54 369.676L1458.91 335.783L1415.75 418.925Z" fill="#FFCC00"/>
<circle cx="1465" cy="351.136" r="85.7849" stroke="black" stroke-width="4"/>
<path d="M1240 207.351L1214.11 287.039L1253.95 299.985L1240 207.351Z" fill="#FFCC00"/>
<path d="M1240 207.351L1265.89 287.039L1226.05 299.985L1240 207.351Z" fill="#FFCC00"/>
<path d="M1319.69 265.247H1235.9V307.141L1319.69 265.247Z" fill="#FFCC00"/>
<path d="M1319.69 265.247L1251.9 314.497L1227.28 280.603L1319.69 265.247Z" fill="#FFCC00"/>
<path d="M1289.25 358.926L1263.36 279.238L1223.51 292.184L1289.25 358.926Z" fill="#FFCC00"/>
<path d="M1289.25 358.926L1221.46 309.676L1246.09 275.783L1289.25 358.926Z" fill="#FFCC00"/>
<path d="M1160.31 265.247H1244.1V307.141L1160.31 265.247Z" fill="#FFCC00"/>
<path d="M1160.31 265.247L1228.1 314.496L1252.72 280.603L1160.31 265.247Z" fill="#FFCC00"/>
<path d="M1190.75 358.925L1216.64 279.238L1256.49 292.184L1190.75 358.925Z" fill="#FFCC00"/>
<path d="M1190.75 358.925L1258.54 309.676L1233.91 275.783L1190.75 358.925Z" fill="#FFCC00"/>
<circle cx="1240" cy="291.136" r="85.7849" stroke="black" stroke-width="4"/>
<path d="M1015 267.351L989.108 347.039L1028.95 359.985L1015 267.351Z" fill="#FFCC00"/>
<path d="M1015 267.351L1040.89 347.039L1001.05 359.985L1015 267.351Z" fill="#FFCC00"/>
<path d="M1094.69 325.247H1010.9V367.141L1094.69 325.247Z" fill="#FFCC00"/>
<path d="M1094.69 325.247L1026.9 374.497L1002.28 340.603L1094.69 325.247Z" fill="#FFCC00"/>
<path d="M1064.25 418.926L1038.36 339.238L998.514 352.184L1064.25 418.926Z" fill="#FFCC00"/>
<path d="M1064.25 418.926L996.463 369.676L1021.09 335.783L1064.25 418.926Z" fill="#FFCC00"/>
<path d="M935.312 325.247H1019.1V367.141L935.312 325.247Z" fill="#FFCC00"/>
<path d="M935.312 325.247L1003.1 374.496L1027.72 340.603L935.312 325.247Z" fill="#FFCC00"/>
<path d="M965.75 418.925L991.642 339.238L1031.49 352.184L965.75 418.925Z" fill="#FFCC00"/>
<path d="M965.75 418.925L1033.54 369.676L1008.91 335.783L965.75 418.925Z" fill="#FFCC00"/>
<circle cx="1015" cy="351.136" r="85.7849" stroke="black" stroke-width="4"/>
<path d="M851 432.351L825.108 512.039L864.951 524.985L851 432.351Z" fill="#FFCC00"/>
<path d="M851 432.351L876.892 512.039L837.048 524.985L851 432.351Z" fill="#FFCC00"/>
<path d="M930.688 490.247H846.899V532.141L930.688 490.247Z" fill="#FFCC00"/>
<path d="M930.688 490.247L862.901 539.497L838.277 505.603L930.688 490.247Z" fill="#FFCC00"/>
<path d="M900.25 583.926L874.358 504.238L834.514 517.184L900.25 583.926Z" fill="#FFCC00"/>
<path d="M900.25 583.926L832.463 534.676L857.088 500.783L900.25 583.926Z" fill="#FFCC00"/>
<path d="M771.312 490.247H855.101V532.141L771.312 490.247Z" fill="#FFCC00"/>
<path d="M771.312 490.247L839.099 539.496L863.724 505.603L771.312 490.247Z" fill="#FFCC00"/>
<path d="M801.75 583.925L827.642 504.238L867.486 517.184L801.75 583.925Z" fill="#FFCC00"/>
<path d="M801.75 583.925L869.537 534.676L844.912 500.783L801.75 583.925Z" fill="#FFCC00"/>
<circle cx="850.996" cy="516.136" r="85.7849" stroke="black" stroke-width="4"/>
<path d="M790 657.351L764.108 737.039L803.951 749.985L790 657.351Z" fill="#FFCC00"/>
<path d="M790 657.351L815.892 737.039L776.048 749.985L790 657.351Z" fill="#FFCC00"/>
<path d="M869.688 715.247H785.899V757.141L869.688 715.247Z" fill="#FFCC00"/>
<path d="M869.688 715.247L801.901 764.497L777.277 730.603L869.688 715.247Z" fill="#FFCC00"/>
<path d="M839.25 808.926L813.358 729.238L773.514 742.184L839.25 808.926Z" fill="#FFCC00"/>
<path d="M839.25 808.926L771.463 759.676L796.088 725.783L839.25 808.926Z" fill="#FFCC00"/>
<path d="M710.312 715.247H794.101V757.141L710.312 715.247Z" fill="#FFCC00"/>
<path d="M710.312 715.247L778.099 764.496L802.724 730.603L710.312 715.247Z" fill="#FFCC00"/>
<path d="M740.75 808.925L766.642 729.238L806.486 742.184L740.75 808.925Z" fill="#FFCC00"/>
<path d="M740.75 808.925L808.537 759.676L783.912 725.783L740.75 808.925Z" fill="#FFCC00"/>
<circle cx="789.996" cy="741.136" r="85.7849" stroke="black" stroke-width="4"/>
<path d="M850 882.351L824.108 962.039L863.951 974.985L850 882.351Z" fill="#FFCC00"/>
<path d="M850 882.351L875.892 962.039L836.048 974.985L850 882.351Z" fill="#FFCC00"/>
<path d="M929.688 940.247H845.899V982.141L929.688 940.247Z" fill="#FFCC00"/>
<path d="M929.688 940.247L861.901 989.497L837.277 955.604L929.688 940.247Z" fill="#FFCC00"/>
<path d="M899.25 1033.93L873.358 954.238L833.514 967.184L899.25 1033.93Z" fill="#FFCC00"/>
<path d="M899.25 1033.93L831.463 984.676L856.088 950.783L899.25 1033.93Z" fill="#FFCC00"/>
<path d="M770.312 940.247H854.101V982.141L770.312 940.247Z" fill="#FFCC00"/>
<path d="M770.312 940.247L838.099 989.497L862.724 955.603L770.312 940.247Z" fill="#FFCC00"/>
<path d="M800.75 1033.93L826.642 954.238L866.486 967.184L800.75 1033.93Z" fill="#FFCC00"/>
<path d="M800.75 1033.93L868.537 984.676L843.912 950.783L800.75 1033.93Z" fill="#FFCC00"/>
<circle cx="849.996" cy="966.136" r="85.7849" stroke="black" stroke-width="4"/>
<path d="M1015 1047.35L989.108 1127.04L1028.95 1139.99L1015 1047.35Z" fill="#FFCC00"/>
<path d="M1015 1047.35L1040.89 1127.04L1001.05 1139.99L1015 1047.35Z" fill="#FFCC00"/>
<path d="M1094.69 1105.25H1010.9V1147.14L1094.69 1105.25Z" fill="#FFCC00"/>
<path d="M1094.69 1105.25L1026.9 1154.5L1002.28 1120.6L1094.69 1105.25Z" fill="#FFCC00"/>
<path d="M1064.25 1198.93L1038.36 1119.24L998.514 1132.18L1064.25 1198.93Z" fill="#FFCC00"/>
<path d="M1064.25 1198.93L996.463 1149.68L1021.09 1115.78L1064.25 1198.93Z" fill="#FFCC00"/>
<path d="M935.312 1105.25H1019.1V1147.14L935.312 1105.25Z" fill="#FFCC00"/>
<path d="M935.312 1105.25L1003.1 1154.5L1027.72 1120.6L935.312 1105.25Z" fill="#FFCC00"/>
<path d="M965.75 1198.93L991.642 1119.24L1031.49 1132.18L965.75 1198.93Z" fill="#FFCC00"/>
<path d="M965.75 1198.93L1033.54 1149.68L1008.91 1115.78L965.75 1198.93Z" fill="#FFCC00"/>
<circle cx="1015" cy="1131.14" r="85.7849" stroke="black" stroke-width="4"/>
<path d="M1240 1107.35L1214.11 1187.04L1253.95 1199.99L1240 1107.35Z" fill="#FFCC00"/>
<path d="M1240 1107.35L1265.89 1187.04L1226.05 1199.99L1240 1107.35Z" fill="#FFCC00"/>
<path d="M1319.69 1165.25H1235.9V1207.14L1319.69 1165.25Z" fill="#FFCC00"/>
<path d="M1319.69 1165.25L1251.9 1214.5L1227.28 1180.6L1319.69 1165.25Z" fill="#FFCC00"/>
<path d="M1289.25 1258.93L1263.36 1179.24L1223.51 1192.18L1289.25 1258.93Z" fill="#FFCC00"/>
<path d="M1289.25 1258.93L1221.46 1209.68L1246.09 1175.78L1289.25 1258.93Z" fill="#FFCC00"/>
<path d="M1160.31 1165.25H1244.1V1207.14L1160.31 1165.25Z" fill="#FFCC00"/>
<path d="M1160.31 1165.25L1228.1 1214.5L1252.72 1180.6L1160.31 1165.25Z" fill="#FFCC00"/>
<path d="M1190.75 1258.93L1216.64 1179.24L1256.49 1192.18L1190.75 1258.93Z" fill="#FFCC00"/>
<path d="M1190.75 1258.93L1258.54 1209.68L1233.91 1175.78L1190.75 1258.93Z" fill="#FFCC00"/>
<circle cx="1240" cy="1191.14" r="85.7849" stroke="black" stroke-width="4"/>
<path d="M1466 1046.35L1440.11 1126.04L1479.95 1138.99L1466 1046.35Z" fill="#FFCC00"/>
<path d="M1466 1046.35L1491.89 1126.04L1452.05 1138.99L1466 1046.35Z" fill="#FFCC00"/>
<path d="M1545.69 1104.25H1461.9V1146.14L1545.69 1104.25Z" fill="#FFCC00"/>
<path d="M1545.69 1104.25L1477.9 1153.5L1453.28 1119.6L1545.69 1104.25Z" fill="#FFCC00"/>
<path d="M1515.25 1197.93L1489.36 1118.24L1449.51 1131.18L1515.25 1197.93Z" fill="#FFCC00"/>
<path d="M1515.25 1197.93L1447.46 1148.68L1472.09 1114.78L1515.25 1197.93Z" fill="#FFCC00"/>
<path d="M1386.31 1104.25H1470.1V1146.14L1386.31 1104.25Z" fill="#FFCC00"/>
<path d="M1386.31 1104.25L1454.1 1153.5L1478.72 1119.6L1386.31 1104.25Z" fill="#FFCC00"/>
<path d="M1416.75 1197.93L1442.64 1118.24L1482.49 1131.18L1416.75 1197.93Z" fill="#FFCC00"/>
<path d="M1416.75 1197.93L1484.54 1148.68L1459.91 1114.78L1416.75 1197.93Z" fill="#FFCC00"/>
<circle cx="1466" cy="1130.14" r="85.7849" stroke="black" stroke-width="4"/>
<path d="M1630 881.351L1604.11 961.039L1643.95 973.985L1630 881.351Z" fill="#FFCC00"/>
<path d="M1630 881.351L1655.89 961.039L1616.05 973.985L1630 881.351Z" fill="#FFCC00"/>
<path d="M1709.69 939.247H1625.9V981.141L1709.69 939.247Z" fill="#FFCC00"/>
<path d="M1709.69 939.247L1641.9 988.497L1617.28 954.604L1709.69 939.247Z" fill="#FFCC00"/>
<path d="M1679.25 1032.93L1653.36 953.238L1613.51 966.184L1679.25 1032.93Z" fill="#FFCC00"/>
<path d="M1679.25 1032.93L1611.46 983.676L1636.09 949.783L1679.25 1032.93Z" fill="#FFCC00"/>
<path d="M1550.31 939.247H1634.1V981.141L1550.31 939.247Z" fill="#FFCC00"/>
<path d="M1550.31 939.247L1618.1 988.497L1642.72 954.603L1550.31 939.247Z" fill="#FFCC00"/>
<path d="M1580.75 1032.93L1606.64 953.238L1646.49 966.184L1580.75 1032.93Z" fill="#FFCC00"/>
<path d="M1580.75 1032.93L1648.54 983.676L1623.91 949.783L1580.75 1032.93Z" fill="#FFCC00"/>
<circle cx="1630" cy="965.136" r="85.7849" stroke="black" stroke-width="4"/>
<path d="M1855 821.351L1829.11 901.039L1868.95 913.985L1855 821.351Z" fill="#FFCC00"/>
<path d="M1855 821.351L1880.89 901.039L1841.05 913.985L1855 821.351Z" fill="#FFCC00"/>
<path d="M1934.69 879.247H1850.9V921.141L1934.69 879.247Z" fill="#FFCC00"/>
<path d="M1934.69 879.247L1866.9 928.497L1842.28 894.604L1934.69 879.247Z" fill="#FFCC00"/>
<path d="M1904.25 972.926L1878.36 893.238L1838.51 906.184L1904.25 972.926Z" fill="#FFCC00"/>
<path d="M1904.25 972.926L1836.46 923.676L1861.09 889.783L1904.25 972.926Z" fill="#FFCC00"/>
<path d="M1775.31 879.247H1859.1V921.141L1775.31 879.247Z" fill="#FFCC00"/>
<path d="M1775.31 879.247L1843.1 928.497L1867.72 894.603L1775.31 879.247Z" fill="#FFCC00"/>
<path d="M1805.75 972.925L1831.64 893.238L1871.49 906.184L1805.75 972.925Z" fill="#FFCC00"/>
<path d="M1805.75 972.925L1873.54 923.676L1848.91 889.783L1805.75 972.925Z" fill="#FFCC00"/>
<circle cx="1855" cy="905.136" r="85.7849" stroke="black" stroke-width="4"/>
<path d="M2080 881.351L2054.11 961.039L2093.95 973.985L2080 881.351Z" fill="#FFCC00"/>
<path d="M2080 881.351L2105.89 961.039L2066.05 973.985L2080 881.351Z" fill="#FFCC00"/>
<path d="M2159.69 939.247H2075.9V981.141L2159.69 939.247Z" fill="#FFCC00"/>
<path d="M2159.69 939.247L2091.9 988.497L2067.28 954.604L2159.69 939.247Z" fill="#FFCC00"/>
<path d="M2129.25 1032.93L2103.36 953.238L2063.51 966.184L2129.25 1032.93Z" fill="#FFCC00"/>
<path d="M2129.25 1032.93L2061.46 983.676L2086.09 949.783L2129.25 1032.93Z" fill="#FFCC00"/>
<path d="M2000.31 939.247H2084.1V981.141L2000.31 939.247Z" fill="#FFCC00"/>
<path d="M2000.31 939.247L2068.1 988.497L2092.72 954.603L2000.31 939.247Z" fill="#FFCC00"/>
<path d="M2030.75 1032.93L2056.64 953.238L2096.49 966.184L2030.75 1032.93Z" fill="#FFCC00"/>
<path d="M2030.75 1032.93L2098.54 983.676L2073.91 949.783L2030.75 1032.93Z" fill="#FFCC00"/>
<circle cx="2080" cy="965.136" r="85.7849" stroke="black" stroke-width="4"/>
<path d="M2245 1046.35L2219.11 1126.04L2258.95 1138.99L2245 1046.35Z" fill="#FFCC00"/>
<path d="M2245 1046.35L2270.89 1126.04L2231.05 1138.99L2245 1046.35Z" fill="#FFCC00"/>
<path d="M2324.69 1104.25H2240.9V1146.14L2324.69 1104.25Z" fill="#FFCC00"/>
<path d="M2324.69 1104.25L2256.9 1153.5L2232.28 1119.6L2324.69 1104.25Z" fill="#FFCC00"/>
<path d="M2294.25 1197.93L2268.36 1118.24L2228.51 1131.18L2294.25 1197.93Z" fill="#FFCC00"/>
<path d="M2294.25 1197.93L2226.46 1148.68L2251.09 1114.78L2294.25 1197.93Z" fill="#FFCC00"/>
<path d="M2165.31 1104.25H2249.1V1146.14L2165.31 1104.25Z" fill="#FFCC00"/>
<path d="M2165.31 1104.25L2233.1 1153.5L2257.72 1119.6L2165.31 1104.25Z" fill="#FFCC00"/>
<path d="M2195.75 1197.93L2221.64 1118.24L2261.49 1131.18L2195.75 1197.93Z" fill="#FFCC00"/>
<path d="M2195.75 1197.93L2263.54 1148.68L2238.91 1114.78L2195.75 1197.93Z" fill="#FFCC00"/>
<circle cx="2245" cy="1130.14" r="85.7849" stroke="black" stroke-width="4"/>
<path d="M2305 1271.35L2279.11 1351.04L2318.95 1363.99L2305 1271.35Z" fill="#FFCC00"/>
<path d="M2305 1271.35L2330.89 1351.04L2291.05 1363.99L2305 1271.35Z" fill="#FFCC00"/>
<path d="M2384.69 1329.25H2300.9V1371.14L2384.69 1329.25Z" fill="#FFCC00"/>
<path d="M2384.69 1329.25L2316.9 1378.5L2292.28 1344.6L2384.69 1329.25Z" fill="#FFCC00"/>
<path d="M2354.25 1422.93L2328.36 1343.24L2288.51 1356.18L2354.25 1422.93Z" fill="#FFCC00"/>
<path d="M2354.25 1422.93L2286.46 1373.68L2311.09 1339.78L2354.25 1422.93Z" fill="#FFCC00"/>
<path d="M2225.31 1329.25H2309.1V1371.14L2225.31 1329.25Z" fill="#FFCC00"/>
<path d="M2225.31 1329.25L2293.1 1378.5L2317.72 1344.6L2225.31 1329.25Z" fill="#FFCC00"/>
<path d="M2255.75 1422.93L2281.64 1343.24L2321.49 1356.18L2255.75 1422.93Z" fill="#FFCC00"/>
<path d="M2255.75 1422.93L2323.54 1373.68L2298.91 1339.78L2255.75 1422.93Z" fill="#FFCC00"/>
<circle cx="2305" cy="1355.14" r="85.7849" stroke="black" stroke-width="4"/>
<path d="M2245 1496.35L2219.11 1576.04L2258.95 1588.99L2245 1496.35Z" fill="#FFCC00"/>
<path d="M2245 1496.35L2270.89 1576.04L2231.05 1588.99L2245 1496.35Z" fill="#FFCC00"/>
<path d="M2324.69 1554.25H2240.9V1596.14L2324.69 1554.25Z" fill="#FFCC00"/>
<path d="M2324.69 1554.25L2256.9 1603.5L2232.28 1569.6L2324.69 1554.25Z" fill="#FFCC00"/>
<path d="M2294.25 1647.93L2268.36 1568.24L2228.51 1581.18L2294.25 1647.93Z" fill="#FFCC00"/>
<path d="M2294.25 1647.93L2226.46 1598.68L2251.09 1564.78L2294.25 1647.93Z" fill="#FFCC00"/>
<path d="M2165.31 1554.25H2249.1V1596.14L2165.31 1554.25Z" fill="#FFCC00"/>
<path d="M2165.31 1554.25L2233.1 1603.5L2257.72 1569.6L2165.31 1554.25Z" fill="#FFCC00"/>
<path d="M2195.75 1647.93L2221.64 1568.24L2261.49 1581.18L2195.75 1647.93Z" fill="#FFCC00"/>
<path d="M2195.75 1647.93L2263.54 1598.68L2238.91 1564.78L2195.75 1647.93Z" fill="#FFCC00"/>
<circle cx="2245" cy="1580.14" r="85.7849" stroke="black" stroke-width="4"/>
<path d="M2080 1660.35L2054.11 1740.04L2093.95 1752.99L2080 1660.35Z" fill="#FFCC00"/>
<path d="M2080 1660.35L2105.89 1740.04L2066.05 1752.99L2080 1660.35Z" fill="#FFCC00"/>
<path d="M2159.69 1718.25H2075.9V1760.14L2159.69 1718.25Z" fill="#FFCC00"/>
<path d="M2159.69 1718.25L2091.9 1767.5L2067.28 1733.6L2159.69 1718.25Z" fill="#FFCC00"/>
<path d="M2129.25 1811.93L2103.36 1732.24L2063.51 1745.18L2129.25 1811.93Z" fill="#FFCC00"/>
<path d="M2129.25 1811.93L2061.46 1762.68L2086.09 1728.78L2129.25 1811.93Z" fill="#FFCC00"/>
<path d="M2000.31 1718.25H2084.1V1760.14L2000.31 1718.25Z" fill="#FFCC00"/>
<path d="M2000.31 1718.25L2068.1 1767.5L2092.72 1733.6L2000.31 1718.25Z" fill="#FFCC00"/>
<path d="M2030.75 1811.93L2056.64 1732.24L2096.49 1745.18L2030.75 1811.93Z" fill="#FFCC00"/>
<path d="M2030.75 1811.93L2098.54 1762.68L2073.91 1728.78L2030.75 1811.93Z" fill="#FFCC00"/>
<circle cx="2080" cy="1744.14" r="85.7849" stroke="black" stroke-width="4"/>
<path d="M1855 1721.35L1829.11 1801.04L1868.95 1813.98L1855 1721.35Z" fill="#FFCC00"/>
<path d="M1855 1721.35L1880.89 1801.04L1841.05 1813.99L1855 1721.35Z" fill="#FFCC00"/>
<path d="M1934.69 1779.25H1850.9V1821.14L1934.69 1779.25Z" fill="#FFCC00"/>
<path d="M1934.69 1779.25L1866.9 1828.5L1842.28 1794.6L1934.69 1779.25Z" fill="#FFCC00"/>
<path d="M1904.25 1872.93L1878.36 1793.24L1838.51 1806.18L1904.25 1872.93Z" fill="#FFCC00"/>
<path d="M1904.25 1872.93L1836.46 1823.68L1861.09 1789.78L1904.25 1872.93Z" fill="#FFCC00"/>
<path d="M1775.31 1779.25H1859.1V1821.14L1775.31 1779.25Z" fill="#FFCC00"/>
<path d="M1775.31 1779.25L1843.1 1828.5L1867.72 1794.6L1775.31 1779.25Z" fill="#FFCC00"/>
<path d="M1805.75 1872.93L1831.64 1793.24L1871.49 1806.18L1805.75 1872.93Z" fill="#FFCC00"/>
<path d="M1805.75 1872.93L1873.54 1823.68L1848.91 1789.78L1805.75 1872.93Z" fill="#FFCC00"/>
<circle cx="1855" cy="1805.14" r="85.7849" stroke="black" stroke-width="4"/>
<path d="M1630 1661.35L1604.11 1741.04L1643.95 1753.99L1630 1661.35Z" fill="#FFCC00"/>
<path d="M1630 1661.35L1655.89 1741.04L1616.05 1753.99L1630 1661.35Z" fill="#FFCC00"/>
<path d="M1709.69 1719.25H1625.9V1761.14L1709.69 1719.25Z" fill="#FFCC00"/>
<path d="M1709.69 1719.25L1641.9 1768.5L1617.28 1734.6L1709.69 1719.25Z" fill="#FFCC00"/>
<path d="M1679.25 1812.93L1653.36 1733.24L1613.51 1746.18L1679.25 1812.93Z" fill="#FFCC00"/>
<path d="M1679.25 1812.93L1611.46 1763.68L1636.09 1729.78L1679.25 1812.93Z" fill="#FFCC00"/>
<path d="M1550.31 1719.25H1634.1V1761.14L1550.31 1719.25Z" fill="#FFCC00"/>
<path d="M1550.31 1719.25L1618.1 1768.5L1642.72 1734.6L1550.31 1719.25Z" fill="#FFCC00"/>
<path d="M1580.75 1812.93L1606.64 1733.24L1646.49 1746.18L1580.75 1812.93Z" fill="#FFCC00"/>
<path d="M1580.75 1812.93L1648.54 1763.68L1623.91 1729.78L1580.75 1812.93Z" fill="#FFCC00"/>
<circle cx="1630" cy="1745.14" r="85.7849" stroke="black" stroke-width="4"/>
<path d="M1465 1496.35L1439.11 1576.04L1478.95 1588.99L1465 1496.35Z" fill="#FFCC00"/>
<path d="M1465 1496.35L1490.89 1576.04L1451.05 1588.99L1465 1496.35Z" fill="#FFCC00"/>
<path d="M1544.69 1554.25H1460.9V1596.14L1544.69 1554.25Z" fill="#FFCC00"/>
<path d="M1544.69 1554.25L1476.9 1603.5L1452.28 1569.6L1544.69 1554.25Z" fill="#FFCC00"/>
<path d="M1514.25 1647.93L1488.36 1568.24L1448.51 1581.18L1514.25 1647.93Z" fill="#FFCC00"/>
<path d="M1514.25 1647.93L1446.46 1598.68L1471.09 1564.78L1514.25 1647.93Z" fill="#FFCC00"/>
<path d="M1385.31 1554.25H1469.1V1596.14L1385.31 1554.25Z" fill="#FFCC00"/>
<path d="M1385.31 1554.25L1453.1 1603.5L1477.72 1569.6L1385.31 1554.25Z" fill="#FFCC00"/>
<path d="M1415.75 1647.93L1441.64 1568.24L1481.49 1581.18L1415.75 1647.93Z" fill="#FFCC00"/>
<path d="M1415.75 1647.93L1483.54 1598.68L1458.91 1564.78L1415.75 1647.93Z" fill="#FFCC00"/>
<circle cx="1465" cy="1580.14" r="85.7849" stroke="black" stroke-width="4"/>
<circle cx="1239.91" cy="742.912" r="449.912" stroke="black" stroke-width="4"/>
<path d="M1630.05 967.726L850.78 517.814" stroke="black" stroke-width="4"/>
<path d="M1464.73 1132.45L1014.81 353.18" stroke="black" stroke-width="4"/>
<path d="M1240.37 1193L1240.37 293.175" stroke="black" stroke-width="4"/>
<path d="M1015.41 1132.72L1465.33 353.452" stroke="black" stroke-width="4"/>
<path d="M850.451 967.726L1629.72 517.814" stroke="black" stroke-width="4"/>
<path d="M1690 742.77L790.175 742.77" stroke="black" stroke-width="4"/>
<circle cx="1854.91" cy="1356.91" r="449.913" stroke="black" stroke-width="4"/>
<path d="M2245.05 1581.73L1465.78 1131.81" stroke="black" stroke-width="4"/>
<path d="M2079.72 1746.45L1629.81 967.18" stroke="black" stroke-width="4"/>
<path d="M1855.37 1807L1855.37 907.175" stroke="black" stroke-width="4"/>
<path d="M1630.41 1746.72L2080.32 967.452" stroke="black" stroke-width="4"/>
<path d="M1465.45 1581.73L2244.72 1131.81" stroke="black" stroke-width="4"/>
<path d="M2305 1356.77L1405.17 1356.77" stroke="black" stroke-width="4"/>
<path d="M2458 1194.82V287" stroke="black" stroke-width="4"/>
<path d="M1240 293C1717.42 293 1982.58 289 2460 289" stroke="black" stroke-width="4"/>
<path d="M1240 1192.82L2460 1192.82" stroke="black" stroke-width="4"/>
<path d="M2525.12 762.031V756.281C2526.71 757.031 2528.31 757.604 2529.94 758C2531.56 758.396 2533.16 758.594 2534.72 758.594C2538.89 758.594 2542.06 757.198 2544.25 754.406C2546.46 751.594 2547.72 747.333 2548.03 741.625C2546.82 743.417 2545.29 744.792 2543.44 745.75C2541.58 746.708 2539.53 747.188 2537.28 747.188C2532.61 747.188 2528.92 745.781 2526.19 742.969C2523.48 740.136 2522.12 736.271 2522.12 731.375C2522.12 726.583 2523.54 722.74 2526.38 719.844C2529.21 716.948 2532.98 715.5 2537.69 715.5C2543.08 715.5 2547.2 717.573 2550.03 721.719C2552.89 725.844 2554.31 731.844 2554.31 739.719C2554.31 747.073 2552.56 752.948 2549.06 757.344C2545.58 761.719 2540.9 763.906 2535 763.906C2533.42 763.906 2531.81 763.75 2530.19 763.438C2528.56 763.125 2526.88 762.656 2525.12 762.031ZM2537.69 742.25C2540.52 742.25 2542.76 741.281 2544.41 739.344C2546.07 737.406 2546.91 734.75 2546.91 731.375C2546.91 728.021 2546.07 725.375 2544.41 723.438C2542.76 721.479 2540.52 720.5 2537.69 720.5C2534.85 720.5 2532.6 721.479 2530.94 723.438C2529.29 725.375 2528.47 728.021 2528.47 731.375C2528.47 734.75 2529.29 737.406 2530.94 739.344C2532.6 741.281 2534.85 742.25 2537.69 742.25ZM2575.09 716.344H2580.41L2564.16 768.938H2558.84L2575.09 716.344ZM2588.34 757.688H2598.66V722.094L2587.44 724.344V718.594L2598.59 716.344H2604.91V757.688H2615.22V763H2588.34V757.688ZM2641.5 720.5C2638.25 720.5 2635.8 722.104 2634.16 725.313C2632.53 728.5 2631.72 733.302 2631.72 739.719C2631.72 746.115 2632.53 750.917 2634.16 754.125C2635.8 757.313 2638.25 758.906 2641.5 758.906C2644.77 758.906 2647.22 757.313 2648.84 754.125C2650.49 750.917 2651.31 746.115 2651.31 739.719C2651.31 733.302 2650.49 728.5 2648.84 725.313C2647.22 722.104 2644.77 720.5 2641.5 720.5ZM2641.5 715.5C2646.73 715.5 2650.72 717.573 2653.47 721.719C2656.24 725.844 2657.62 731.844 2657.62 739.719C2657.62 747.573 2656.24 753.573 2653.47 757.719C2650.72 761.844 2646.73 763.906 2641.5 763.906C2636.27 763.906 2632.27 761.844 2629.5 757.719C2626.75 753.573 2625.38 747.573 2625.38 739.719C2625.38 731.844 2626.75 725.844 2629.5 721.719C2632.27 717.573 2636.27 715.5 2641.5 715.5Z" fill="black"/>
<path d="M2653 1808.82V901" stroke="black" stroke-width="4"/>
<path d="M1855 907C2168.06 907 2341.94 903 2655 903" stroke="black" stroke-width="4"/>
<path d="M1855 1807L2655 1807" stroke="black" stroke-width="4"/>
<path d="M2720.12 1376.03V1370.28C2721.71 1371.03 2723.31 1371.6 2724.94 1372C2726.56 1372.4 2728.16 1372.59 2729.72 1372.59C2733.89 1372.59 2737.06 1371.2 2739.25 1368.41C2741.46 1365.59 2742.72 1361.33 2743.03 1355.62C2741.82 1357.42 2740.29 1358.79 2738.44 1359.75C2736.58 1360.71 2734.53 1361.19 2732.28 1361.19C2727.61 1361.19 2723.92 1359.78 2721.19 1356.97C2718.48 1354.14 2717.12 1350.27 2717.12 1345.38C2717.12 1340.58 2718.54 1336.74 2721.38 1333.84C2724.21 1330.95 2727.98 1329.5 2732.69 1329.5C2738.08 1329.5 2742.2 1331.57 2745.03 1335.72C2747.89 1339.84 2749.31 1345.84 2749.31 1353.72C2749.31 1361.07 2747.56 1366.95 2744.06 1371.34C2740.58 1375.72 2735.9 1377.91 2730 1377.91C2728.42 1377.91 2726.81 1377.75 2725.19 1377.44C2723.56 1377.12 2721.88 1376.66 2720.12 1376.03ZM2732.69 1356.25C2735.52 1356.25 2737.76 1355.28 2739.41 1353.34C2741.07 1351.41 2741.91 1348.75 2741.91 1345.38C2741.91 1342.02 2741.07 1339.38 2739.41 1337.44C2737.76 1335.48 2735.52 1334.5 2732.69 1334.5C2729.85 1334.5 2727.6 1335.48 2725.94 1337.44C2724.29 1339.38 2723.47 1342.02 2723.47 1345.38C2723.47 1348.75 2724.29 1351.41 2725.94 1353.34C2727.6 1355.28 2729.85 1356.25 2732.69 1356.25ZM2770.09 1330.34H2775.41L2759.16 1382.94H2753.84L2770.09 1330.34ZM2783.34 1371.69H2793.66V1336.09L2782.44 1338.34V1332.59L2793.59 1330.34H2799.91V1371.69H2810.22V1377H2783.34V1371.69ZM2836.5 1334.5C2833.25 1334.5 2830.8 1336.1 2829.16 1339.31C2827.53 1342.5 2826.72 1347.3 2826.72 1353.72C2826.72 1360.11 2827.53 1364.92 2829.16 1368.12C2830.8 1371.31 2833.25 1372.91 2836.5 1372.91C2839.77 1372.91 2842.22 1371.31 2843.84 1368.12C2845.49 1364.92 2846.31 1360.11 2846.31 1353.72C2846.31 1347.3 2845.49 1342.5 2843.84 1339.31C2842.22 1336.1 2839.77 1334.5 2836.5 1334.5ZM2836.5 1329.5C2841.73 1329.5 2845.72 1331.57 2848.47 1335.72C2851.24 1339.84 2852.62 1345.84 2852.62 1353.72C2852.62 1361.57 2851.24 1367.57 2848.47 1371.72C2845.72 1375.84 2841.73 1377.91 2836.5 1377.91C2831.27 1377.91 2827.27 1375.84 2824.5 1371.72C2821.75 1367.57 2820.38 1361.57 2820.38 1353.72C2820.38 1345.84 2821.75 1339.84 2824.5 1335.72C2827.27 1331.57 2831.27 1329.5 2836.5 1329.5Z" fill="black"/>
<path d="M1782 600V432" stroke="black" stroke-width="4"/>
<path d="M1630 430.35L1784 430.35" stroke="black" stroke-width="4"/>
<path d="M1630 601.925H1784" stroke="black" stroke-width="4"/>
<path d="M1840.41 535.038H1850.72V499.444L1839.5 501.694V495.944L1850.66 493.694H1856.97V535.038H1867.28V540.35H1840.41V535.038ZM1889.47 493.694H1894.78L1878.53 546.288H1873.22L1889.47 493.694ZM1915.91 514.506C1913.07 514.506 1910.82 515.475 1909.16 517.413C1907.51 519.35 1906.69 522.006 1906.69 525.381C1906.69 528.736 1907.51 531.392 1909.16 533.35C1910.82 535.288 1913.07 536.256 1915.91 536.256C1918.74 536.256 1920.98 535.288 1922.62 533.35C1924.29 531.392 1925.12 528.736 1925.12 525.381C1925.12 522.006 1924.29 519.35 1922.62 517.413C1920.98 515.475 1918.74 514.506 1915.91 514.506ZM1928.44 494.725V500.475C1926.85 499.725 1925.25 499.152 1923.62 498.756C1922.02 498.361 1920.43 498.163 1918.84 498.163C1914.68 498.163 1911.49 499.569 1909.28 502.381C1907.09 505.194 1905.84 509.444 1905.53 515.131C1906.76 513.319 1908.3 511.933 1910.16 510.975C1912.01 509.996 1914.05 509.506 1916.28 509.506C1920.97 509.506 1924.67 510.933 1927.38 513.788C1930.1 516.621 1931.47 520.486 1931.47 525.381C1931.47 530.173 1930.05 534.017 1927.22 536.913C1924.39 539.808 1920.61 541.256 1915.91 541.256C1910.51 541.256 1906.39 539.194 1903.53 535.069C1900.68 530.923 1899.25 524.923 1899.25 517.069C1899.25 509.694 1901 503.819 1904.5 499.444C1908 495.048 1912.7 492.85 1918.59 492.85C1920.18 492.85 1921.77 493.006 1923.38 493.319C1925 493.631 1926.69 494.1 1928.44 494.725Z" fill="black"/>
<path d="M2062.22 1302.84C2065.24 1303.49 2067.59 1304.83 2069.28 1306.88C2070.99 1308.92 2071.84 1311.44 2071.84 1314.44C2071.84 1319.04 2070.26 1322.6 2067.09 1325.12C2063.93 1327.65 2059.43 1328.91 2053.59 1328.91C2051.64 1328.91 2049.61 1328.71 2047.53 1328.31C2045.47 1327.94 2043.33 1327.36 2041.12 1326.59V1320.5C2042.88 1321.52 2044.79 1322.29 2046.88 1322.81C2048.96 1323.33 2051.14 1323.59 2053.41 1323.59C2057.36 1323.59 2060.38 1322.81 2062.44 1321.25C2064.52 1319.69 2065.56 1317.42 2065.56 1314.44C2065.56 1311.69 2064.59 1309.54 2062.66 1308C2060.74 1306.44 2058.06 1305.66 2054.62 1305.66H2049.19V1300.47H2054.88C2057.98 1300.47 2060.35 1299.85 2062 1298.62C2063.65 1297.38 2064.47 1295.58 2064.47 1293.25C2064.47 1290.85 2063.61 1289.02 2061.91 1287.75C2060.22 1286.46 2057.79 1285.81 2054.62 1285.81C2052.9 1285.81 2051.04 1286 2049.06 1286.38C2047.08 1286.75 2044.91 1287.33 2042.53 1288.12V1282.5C2044.93 1281.83 2047.17 1281.33 2049.25 1281C2051.35 1280.67 2053.33 1280.5 2055.19 1280.5C2059.98 1280.5 2063.77 1281.59 2066.56 1283.78C2069.35 1285.95 2070.75 1288.89 2070.75 1292.59C2070.75 1295.18 2070.01 1297.36 2068.53 1299.16C2067.05 1300.93 2064.95 1302.16 2062.22 1302.84ZM2097.34 1285.5C2094.09 1285.5 2091.65 1287.1 2090 1290.31C2088.38 1293.5 2087.56 1298.3 2087.56 1304.72C2087.56 1311.11 2088.38 1315.92 2090 1319.12C2091.65 1322.31 2094.09 1323.91 2097.34 1323.91C2100.61 1323.91 2103.06 1322.31 2104.69 1319.12C2106.33 1315.92 2107.16 1311.11 2107.16 1304.72C2107.16 1298.3 2106.33 1293.5 2104.69 1290.31C2103.06 1287.1 2100.61 1285.5 2097.34 1285.5ZM2097.34 1280.5C2102.57 1280.5 2106.56 1282.57 2109.31 1286.72C2112.08 1290.84 2113.47 1296.84 2113.47 1304.72C2113.47 1312.57 2112.08 1318.57 2109.31 1322.72C2106.56 1326.84 2102.57 1328.91 2097.34 1328.91C2092.11 1328.91 2088.11 1326.84 2085.34 1322.72C2082.59 1318.57 2081.22 1312.57 2081.22 1304.72C2081.22 1296.84 2082.59 1290.84 2085.34 1286.72C2088.11 1282.57 2092.11 1280.5 2097.34 1280.5ZM2133.75 1284.53C2132.08 1284.53 2130.68 1285.11 2129.53 1286.28C2128.39 1287.43 2127.81 1288.83 2127.81 1290.5C2127.81 1292.15 2128.39 1293.54 2129.53 1294.69C2130.68 1295.81 2132.08 1296.38 2133.75 1296.38C2135.42 1296.38 2136.82 1295.81 2137.97 1294.69C2139.11 1293.54 2139.69 1292.15 2139.69 1290.5C2139.69 1288.85 2139.1 1287.45 2137.94 1286.28C2136.79 1285.11 2135.4 1284.53 2133.75 1284.53ZM2133.75 1280.5C2135.08 1280.5 2136.36 1280.76 2137.59 1281.28C2138.82 1281.78 2139.89 1282.51 2140.78 1283.47C2141.74 1284.41 2142.46 1285.47 2142.94 1286.66C2143.42 1287.84 2143.66 1289.12 2143.66 1290.5C2143.66 1293.25 2142.69 1295.58 2140.75 1297.5C2138.83 1299.4 2136.48 1300.34 2133.69 1300.34C2130.88 1300.34 2128.53 1299.41 2126.66 1297.53C2124.78 1295.66 2123.84 1293.31 2123.84 1290.5C2123.84 1287.71 2124.8 1285.34 2126.72 1283.41C2128.64 1281.47 2130.98 1280.5 2133.75 1280.5Z" fill="black"/>
<path d="M3050 2150L50 2150" stroke="black" stroke-width="4"/>
<path d="M1549 2165V2135" stroke="black" stroke-width="4"/>
<path d="M2332.44 2096.84C2335.46 2097.49 2337.81 2098.83 2339.5 2100.87C2341.21 2102.92 2342.06 2105.44 2342.06 2108.44C2342.06 2113.04 2340.48 2116.6 2337.31 2119.12C2334.15 2121.64 2329.65 2122.91 2323.81 2122.91C2321.85 2122.91 2319.83 2122.71 2317.75 2122.31C2315.69 2121.94 2313.55 2121.36 2311.34 2120.59V2114.5C2313.09 2115.52 2315.01 2116.29 2317.09 2116.81C2319.18 2117.33 2321.35 2117.59 2323.62 2117.59C2327.58 2117.59 2330.59 2116.81 2332.66 2115.25C2334.74 2113.69 2335.78 2111.42 2335.78 2108.44C2335.78 2105.69 2334.81 2103.54 2332.88 2102C2330.96 2100.44 2328.28 2099.66 2324.84 2099.66H2319.41V2094.47H2325.09C2328.2 2094.47 2330.57 2093.85 2332.22 2092.62C2333.86 2091.37 2334.69 2089.58 2334.69 2087.25C2334.69 2084.85 2333.83 2083.02 2332.12 2081.75C2330.44 2080.46 2328.01 2079.81 2324.84 2079.81C2323.11 2079.81 2321.26 2080 2319.28 2080.37C2317.3 2080.75 2315.12 2081.33 2312.75 2082.12V2076.5C2315.15 2075.83 2317.39 2075.33 2319.47 2075C2321.57 2074.67 2323.55 2074.5 2325.41 2074.5C2330.2 2074.5 2333.99 2075.59 2336.78 2077.78C2339.57 2079.95 2340.97 2082.88 2340.97 2086.59C2340.97 2089.18 2340.23 2091.36 2338.75 2093.16C2337.27 2094.93 2335.17 2096.16 2332.44 2096.84ZM2363.47 2075.34H2368.78L2352.53 2127.94H2347.22L2363.47 2075.34ZM2381.06 2116.69H2403.09V2122H2373.47V2116.69C2375.86 2114.21 2379.12 2110.88 2383.25 2106.72C2387.4 2102.53 2390 2099.83 2391.06 2098.62C2393.08 2096.35 2394.49 2094.44 2395.28 2092.87C2396.09 2091.29 2396.5 2089.74 2396.5 2088.22C2396.5 2085.74 2395.62 2083.72 2393.88 2082.16C2392.15 2080.59 2389.89 2079.81 2387.09 2079.81C2385.11 2079.81 2383.02 2080.16 2380.81 2080.84C2378.62 2081.53 2376.28 2082.57 2373.78 2083.97V2077.59C2376.32 2076.57 2378.7 2075.8 2380.91 2075.28C2383.11 2074.76 2385.14 2074.5 2386.97 2074.5C2391.8 2074.5 2395.66 2075.71 2398.53 2078.12C2401.41 2080.54 2402.84 2083.77 2402.84 2087.81C2402.84 2089.73 2402.48 2091.55 2401.75 2093.28C2401.04 2094.99 2399.74 2097.01 2397.84 2099.34C2397.32 2099.95 2395.67 2101.7 2392.88 2104.59C2390.08 2107.47 2386.15 2111.5 2381.06 2116.69Z" fill="black"/>
<path d="M832.438 2096.84C835.458 2097.49 837.812 2098.83 839.5 2100.87C841.208 2102.92 842.062 2105.44 842.062 2108.44C842.062 2113.04 840.479 2116.6 837.312 2119.12C834.146 2121.64 829.646 2122.91 823.812 2122.91C821.854 2122.91 819.833 2122.71 817.75 2122.31C815.688 2121.94 813.552 2121.36 811.344 2120.59V2114.5C813.094 2115.52 815.01 2116.29 817.094 2116.81C819.177 2117.33 821.354 2117.59 823.625 2117.59C827.583 2117.59 830.594 2116.81 832.656 2115.25C834.74 2113.69 835.781 2111.42 835.781 2108.44C835.781 2105.69 834.812 2103.54 832.875 2102C830.958 2100.44 828.281 2099.66 824.844 2099.66H819.406V2094.47H825.094C828.198 2094.47 830.573 2093.85 832.219 2092.62C833.865 2091.37 834.688 2089.58 834.688 2087.25C834.688 2084.85 833.833 2083.02 832.125 2081.75C830.438 2080.46 828.01 2079.81 824.844 2079.81C823.115 2079.81 821.26 2080 819.281 2080.37C817.302 2080.75 815.125 2081.33 812.75 2082.12V2076.5C815.146 2075.83 817.385 2075.33 819.469 2075C821.573 2074.67 823.552 2074.5 825.406 2074.5C830.198 2074.5 833.99 2075.59 836.781 2077.78C839.573 2079.95 840.969 2082.88 840.969 2086.59C840.969 2089.18 840.229 2091.36 838.75 2093.16C837.271 2094.93 835.167 2096.16 832.438 2096.84ZM863.469 2075.34H868.781L852.531 2127.94H847.219L863.469 2075.34ZM881.062 2116.69H903.094V2122H873.469V2116.69C875.865 2114.21 879.125 2110.88 883.25 2106.72C887.396 2102.53 890 2099.83 891.062 2098.62C893.083 2096.35 894.49 2094.44 895.281 2092.87C896.094 2091.29 896.5 2089.74 896.5 2088.22C896.5 2085.74 895.625 2083.72 893.875 2082.16C892.146 2080.59 889.885 2079.81 887.094 2079.81C885.115 2079.81 883.021 2080.16 880.812 2080.84C878.625 2081.53 876.281 2082.57 873.781 2083.97V2077.59C876.323 2076.57 878.698 2075.8 880.906 2075.28C883.115 2074.76 885.135 2074.5 886.969 2074.5C891.802 2074.5 895.656 2075.71 898.531 2078.12C901.406 2080.54 902.844 2083.77 902.844 2087.81C902.844 2089.73 902.479 2091.55 901.75 2093.28C901.042 2094.99 899.74 2097.01 897.844 2099.34C897.323 2099.95 895.667 2101.7 892.875 2104.59C890.083 2107.47 886.146 2111.5 881.062 2116.69Z" fill="black"/>
<path d="M1653 2050V1950" stroke="black" stroke-width="4"/>
<path d="M1549 1952H1653" stroke="black" stroke-width="4"/>
<path d="M3150 2050L3150 50" stroke="black" stroke-width="4"/>
<path d="M3135 1050H3165" stroke="black" stroke-width="4"/>
<path d="M3090.06 1604.69H3100.38V1569.09L3089.16 1571.34V1565.59L3100.31 1563.34H3106.62V1604.69H3116.94V1610H3090.06V1604.69Z" fill="black"/>
<path d="M3090.06 604.688H3100.38V569.094L3089.16 571.344V565.594L3100.31 563.344H3106.62V604.688H3116.94V610H3090.06V604.688Z" fill="black"/>
<path d="M2948 1150V1050" stroke="black" stroke-width="4"/>
<path d="M2946 1150H3050" stroke="black" stroke-width="4"/>
<path d="M1549 2050L1546.98 49.9999" stroke="black" stroke-width="4"/>
<path d="M50 1050L3050 1050" stroke="black" stroke-width="4"/>
<rect width="3202" height="2202" fill="white" fill-opacity="0.3"/>
</g>
<defs>
<clipPath id="clip0_59_122">
<rect width="3202" height="2202" fill="white"/>
</clipPath>
</defs>
</svg>
