<svg width="3202" height="2202" viewBox="0 0 3202 2202" fill="none" xmlns="http://www.w3.org/2000/svg">
<g clip-path="url(#clip0_2402_730)">
<rect width="3202" height="2202" fill="#F5F5F5"/>
<rect x="50" y="50" width="3000" height="2000" fill="white"/>
<g clip-path="url(#clip1_2402_730)">
<path d="M1988.8 340.999L1957.9 436.109L2005.46 451.56L1988.8 340.999Z" fill="#FBD324"/>
<path d="M1988.8 340.999L2019.71 436.109L1972.15 451.56L1988.8 340.999Z" fill="#FBD324"/>
<path d="M2083.91 410.099H1983.91V460.101L2083.91 410.099Z" fill="#FBD324"/>
<path d="M2083.91 410.099L2003.01 468.88L1973.62 428.428L2083.91 410.099Z" fill="#FBD324"/>
<path d="M2047.59 521.908L2016.68 426.798L1969.13 442.249L2047.59 521.908Z" fill="#FBD324"/>
<path d="M2047.59 521.908L1966.68 463.127L1996.07 422.674L2047.59 521.908Z" fill="#FBD324"/>
<path d="M1893.7 410.099H1993.7V460.101L1893.7 410.099Z" fill="#FBD324"/>
<path d="M1893.7 410.099L1974.6 468.88L2003.99 428.427L1893.7 410.099Z" fill="#FBD324"/>
<path d="M1930.02 521.908L1960.93 426.798L2008.48 442.249L1930.02 521.908Z" fill="#FBD324"/>
<path d="M1930.02 521.908L2010.93 463.126L1981.54 422.674L1930.02 521.908Z" fill="#FBD324"/>
<circle cx="1988.8" cy="440.999" r="102" stroke="black" stroke-width="4"/>
<path d="M2153.8 506.999L2122.9 602.109L2170.46 617.56L2153.8 506.999Z" fill="#FBD324"/>
<path d="M2153.8 506.999L2184.71 602.109L2137.15 617.56L2153.8 506.999Z" fill="#FBD324"/>
<path d="M2248.91 576.099H2148.91V626.101L2248.91 576.099Z" fill="#FBD324"/>
<path d="M2248.91 576.099L2168.01 634.88L2138.62 594.428L2248.91 576.099Z" fill="#FBD324"/>
<path d="M2212.59 687.908L2181.68 592.798L2134.13 608.249L2212.59 687.908Z" fill="#FBD324"/>
<path d="M2212.59 687.908L2131.68 629.127L2161.07 588.674L2212.59 687.908Z" fill="#FBD324"/>
<path d="M2058.7 576.099H2158.7V626.101L2058.7 576.099Z" fill="#FBD324"/>
<path d="M2058.7 576.099L2139.6 634.88L2168.99 594.427L2058.7 576.099Z" fill="#FBD324"/>
<path d="M2095.02 687.908L2125.93 592.798L2173.48 608.249L2095.02 687.908Z" fill="#FBD324"/>
<path d="M2095.02 687.908L2175.93 629.126L2146.54 588.674L2095.02 687.908Z" fill="#FBD324"/>
<circle cx="2153.8" cy="606.999" r="102" stroke="black" stroke-width="4"/>
<path d="M2260.8 715.999L2229.9 811.109L2277.46 826.56L2260.8 715.999Z" fill="#FBD324"/>
<path d="M2260.8 715.999L2291.71 811.109L2244.15 826.56L2260.8 715.999Z" fill="#FBD324"/>
<path d="M2355.91 785.099H2255.91V835.101L2355.91 785.099Z" fill="#FBD324"/>
<path d="M2355.91 785.099L2275.01 843.88L2245.62 803.428L2355.91 785.099Z" fill="#FBD324"/>
<path d="M2319.59 896.908L2288.68 801.798L2241.13 817.249L2319.59 896.908Z" fill="#FBD324"/>
<path d="M2319.59 896.908L2238.68 838.127L2268.07 797.674L2319.59 896.908Z" fill="#FBD324"/>
<path d="M2165.7 785.099H2265.7V835.101L2165.7 785.099Z" fill="#FBD324"/>
<path d="M2165.7 785.099L2246.6 843.88L2275.99 803.427L2165.7 785.099Z" fill="#FBD324"/>
<path d="M2202.02 896.907L2232.93 801.798L2280.48 817.249L2202.02 896.907Z" fill="#FBD324"/>
<path d="M2202.02 896.907L2282.93 838.126L2253.54 797.674L2202.02 896.907Z" fill="#FBD324"/>
<circle cx="2260.8" cy="815.999" r="102" stroke="black" stroke-width="4"/>
<path d="M2296.8 947.999L2265.9 1043.11L2313.46 1058.56L2296.8 947.999Z" fill="#FBD324"/>
<path d="M2296.8 947.999L2327.71 1043.11L2280.15 1058.56L2296.8 947.999Z" fill="#FBD324"/>
<path d="M2391.91 1017.1H2291.91V1067.1L2391.91 1017.1Z" fill="#FBD324"/>
<path d="M2391.91 1017.1L2311.01 1075.88L2281.62 1035.43L2391.91 1017.1Z" fill="#FBD324"/>
<path d="M2355.59 1128.91L2324.68 1033.8L2277.13 1049.25L2355.59 1128.91Z" fill="#FBD324"/>
<path d="M2355.59 1128.91L2274.68 1070.13L2304.07 1029.67L2355.59 1128.91Z" fill="#FBD324"/>
<path d="M2201.7 1017.1H2301.7V1067.1L2201.7 1017.1Z" fill="#FBD324"/>
<path d="M2201.7 1017.1L2282.6 1075.88L2311.99 1035.43L2201.7 1017.1Z" fill="#FBD324"/>
<path d="M2238.02 1128.91L2268.93 1033.8L2316.48 1049.25L2238.02 1128.91Z" fill="#FBD324"/>
<path d="M2238.02 1128.91L2318.93 1070.13L2289.54 1029.67L2238.02 1128.91Z" fill="#FBD324"/>
<circle cx="2296.8" cy="1048" r="102" stroke="black" stroke-width="4"/>
<path d="M2260.8 1180L2229.9 1275.11L2277.46 1290.56L2260.8 1180Z" fill="#FBD324"/>
<path d="M2260.8 1180L2291.71 1275.11L2244.15 1290.56L2260.8 1180Z" fill="#FBD324"/>
<path d="M2355.91 1249.1H2255.91V1299.1L2355.91 1249.1Z" fill="#FBD324"/>
<path d="M2355.91 1249.1L2275.01 1307.88L2245.62 1267.43L2355.91 1249.1Z" fill="#FBD324"/>
<path d="M2319.59 1360.91L2288.68 1265.8L2241.13 1281.25L2319.59 1360.91Z" fill="#FBD324"/>
<path d="M2319.59 1360.91L2238.68 1302.13L2268.07 1261.67L2319.59 1360.91Z" fill="#FBD324"/>
<path d="M2165.7 1249.1H2265.7V1299.1L2165.7 1249.1Z" fill="#FBD324"/>
<path d="M2165.7 1249.1L2246.6 1307.88L2275.99 1267.43L2165.7 1249.1Z" fill="#FBD324"/>
<path d="M2202.02 1360.91L2232.93 1265.8L2280.48 1281.25L2202.02 1360.91Z" fill="#FBD324"/>
<path d="M2202.02 1360.91L2282.93 1302.13L2253.54 1261.67L2202.02 1360.91Z" fill="#FBD324"/>
<circle cx="2260.8" cy="1280" r="102" stroke="black" stroke-width="4"/>
<path d="M2154.8 1389L2123.9 1484.11L2171.46 1499.56L2154.8 1389Z" fill="#FBD324"/>
<path d="M2154.8 1389L2185.71 1484.11L2138.15 1499.56L2154.8 1389Z" fill="#FBD324"/>
<path d="M2249.91 1458.1H2149.91V1508.1L2249.91 1458.1Z" fill="#FBD324"/>
<path d="M2249.91 1458.1L2169.01 1516.88L2139.62 1476.43L2249.91 1458.1Z" fill="#FBD324"/>
<path d="M2213.59 1569.91L2182.68 1474.8L2135.13 1490.25L2213.59 1569.91Z" fill="#FBD324"/>
<path d="M2213.59 1569.91L2132.68 1511.13L2162.07 1470.67L2213.59 1569.91Z" fill="#FBD324"/>
<path d="M2059.7 1458.1H2159.7V1508.1L2059.7 1458.1Z" fill="#FBD324"/>
<path d="M2059.7 1458.1L2140.6 1516.88L2169.99 1476.43L2059.7 1458.1Z" fill="#FBD324"/>
<path d="M2096.02 1569.91L2126.93 1474.8L2174.48 1490.25L2096.02 1569.91Z" fill="#FBD324"/>
<path d="M2096.02 1569.91L2176.93 1511.13L2147.54 1470.67L2096.02 1569.91Z" fill="#FBD324"/>
<circle cx="2154.8" cy="1489" r="102" stroke="black" stroke-width="4"/>
<path d="M1988.8 1555L1957.9 1650.11L2005.46 1665.56L1988.8 1555Z" fill="#FBD324"/>
<path d="M1988.8 1555L2019.71 1650.11L1972.15 1665.56L1988.8 1555Z" fill="#FBD324"/>
<path d="M2083.91 1624.1H1983.91V1674.1L2083.91 1624.1Z" fill="#FBD324"/>
<path d="M2083.91 1624.1L2003.01 1682.88L1973.62 1642.43L2083.91 1624.1Z" fill="#FBD324"/>
<path d="M2047.59 1735.91L2016.68 1640.8L1969.13 1656.25L2047.59 1735.91Z" fill="#FBD324"/>
<path d="M2047.59 1735.91L1966.68 1677.13L1996.07 1636.67L2047.59 1735.91Z" fill="#FBD324"/>
<path d="M1893.7 1624.1H1993.7V1674.1L1893.7 1624.1Z" fill="#FBD324"/>
<path d="M1893.7 1624.1L1974.6 1682.88L2003.99 1642.43L1893.7 1624.1Z" fill="#FBD324"/>
<path d="M1930.02 1735.91L1960.93 1640.8L2008.48 1656.25L1930.02 1735.91Z" fill="#FBD324"/>
<path d="M1930.02 1735.91L2010.93 1677.13L1981.54 1636.67L1930.02 1735.91Z" fill="#FBD324"/>
<circle cx="1988.8" cy="1655" r="102" stroke="black" stroke-width="4"/>
<path d="M1779.8 1662L1748.9 1757.11L1796.46 1772.56L1779.8 1662Z" fill="#FBD324"/>
<path d="M1779.8 1662L1810.71 1757.11L1763.15 1772.56L1779.8 1662Z" fill="#FBD324"/>
<path d="M1874.91 1731.1H1774.91V1781.1L1874.91 1731.1Z" fill="#FBD324"/>
<path d="M1874.91 1731.1L1794.01 1789.88L1764.62 1749.43L1874.91 1731.1Z" fill="#FBD324"/>
<path d="M1838.59 1842.91L1807.68 1747.8L1760.13 1763.25L1838.59 1842.91Z" fill="#FBD324"/>
<path d="M1838.59 1842.91L1757.68 1784.13L1787.07 1743.67L1838.59 1842.91Z" fill="#FBD324"/>
<path d="M1684.7 1731.1H1784.7V1781.1L1684.7 1731.1Z" fill="#FBD324"/>
<path d="M1684.7 1731.1L1765.6 1789.88L1794.99 1749.43L1684.7 1731.1Z" fill="#FBD324"/>
<path d="M1721.02 1842.91L1751.93 1747.8L1799.48 1763.25L1721.02 1842.91Z" fill="#FBD324"/>
<path d="M1721.02 1842.91L1801.93 1784.13L1772.54 1743.67L1721.02 1842.91Z" fill="#FBD324"/>
<circle cx="1779.8" cy="1762" r="102" stroke="black" stroke-width="4"/>
<path d="M1548.8 1698L1517.9 1793.11L1565.46 1808.56L1548.8 1698Z" fill="#FBD324"/>
<path d="M1548.8 1698L1579.71 1793.11L1532.15 1808.56L1548.8 1698Z" fill="#FBD324"/>
<path d="M1643.91 1767.1H1543.91V1817.1L1643.91 1767.1Z" fill="#FBD324"/>
<path d="M1643.91 1767.1L1563.01 1825.88L1533.62 1785.43L1643.91 1767.1Z" fill="#FBD324"/>
<path d="M1607.59 1878.91L1576.68 1783.8L1529.13 1799.25L1607.59 1878.91Z" fill="#FBD324"/>
<path d="M1607.59 1878.91L1526.68 1820.13L1556.07 1779.67L1607.59 1878.91Z" fill="#FBD324"/>
<path d="M1453.7 1767.1H1553.7V1817.1L1453.7 1767.1Z" fill="#FBD324"/>
<path d="M1453.7 1767.1L1534.6 1825.88L1563.99 1785.43L1453.7 1767.1Z" fill="#FBD324"/>
<path d="M1490.02 1878.91L1520.93 1783.8L1568.48 1799.25L1490.02 1878.91Z" fill="#FBD324"/>
<path d="M1490.02 1878.91L1570.93 1820.13L1541.54 1779.67L1490.02 1878.91Z" fill="#FBD324"/>
<circle cx="1548.8" cy="1798" r="102" stroke="black" stroke-width="4"/>
<path d="M1315.8 1662L1284.9 1757.11L1332.46 1772.56L1315.8 1662Z" fill="#FBD324"/>
<path d="M1315.8 1662L1346.71 1757.11L1299.15 1772.56L1315.8 1662Z" fill="#FBD324"/>
<path d="M1410.91 1731.1H1310.91V1781.1L1410.91 1731.1Z" fill="#FBD324"/>
<path d="M1410.91 1731.1L1330.01 1789.88L1300.62 1749.43L1410.91 1731.1Z" fill="#FBD324"/>
<path d="M1374.59 1842.91L1343.68 1747.8L1296.13 1763.25L1374.59 1842.91Z" fill="#FBD324"/>
<path d="M1374.59 1842.91L1293.68 1784.13L1323.07 1743.67L1374.59 1842.91Z" fill="#FBD324"/>
<path d="M1220.7 1731.1H1320.7V1781.1L1220.7 1731.1Z" fill="#FBD324"/>
<path d="M1220.7 1731.1L1301.6 1789.88L1330.99 1749.43L1220.7 1731.1Z" fill="#FBD324"/>
<path d="M1257.02 1842.91L1287.93 1747.8L1335.48 1763.25L1257.02 1842.91Z" fill="#FBD324"/>
<path d="M1257.02 1842.91L1337.93 1784.13L1308.54 1743.67L1257.02 1842.91Z" fill="#FBD324"/>
<circle cx="1315.8" cy="1762" r="102" stroke="black" stroke-width="4"/>
<path d="M1106.8 1555L1075.9 1650.11L1123.46 1665.56L1106.8 1555Z" fill="#FBD324"/>
<path d="M1106.8 1555L1137.71 1650.11L1090.15 1665.56L1106.8 1555Z" fill="#FBD324"/>
<path d="M1201.91 1624.1H1101.91V1674.1L1201.91 1624.1Z" fill="#FBD324"/>
<path d="M1201.91 1624.1L1121.01 1682.88L1091.62 1642.43L1201.91 1624.1Z" fill="#FBD324"/>
<path d="M1165.59 1735.91L1134.68 1640.8L1087.13 1656.25L1165.59 1735.91Z" fill="#FBD324"/>
<path d="M1165.59 1735.91L1084.68 1677.13L1114.07 1636.67L1165.59 1735.91Z" fill="#FBD324"/>
<path d="M1011.7 1624.1H1111.7V1674.1L1011.7 1624.1Z" fill="#FBD324"/>
<path d="M1011.7 1624.1L1092.6 1682.88L1121.99 1642.43L1011.7 1624.1Z" fill="#FBD324"/>
<path d="M1048.02 1735.91L1078.93 1640.8L1126.48 1656.25L1048.02 1735.91Z" fill="#FBD324"/>
<path d="M1048.02 1735.91L1128.93 1677.13L1099.54 1636.67L1048.02 1735.91Z" fill="#FBD324"/>
<circle cx="1106.8" cy="1655" r="102" stroke="black" stroke-width="4"/>
<path d="M939.804 1389L908.901 1484.11L956.456 1499.56L939.804 1389Z" fill="#FBD324"/>
<path d="M939.804 1389L970.707 1484.11L923.153 1499.56L939.804 1389Z" fill="#FBD324"/>
<path d="M1034.91 1458.1H934.911V1508.1L1034.91 1458.1Z" fill="#FBD324"/>
<path d="M1034.91 1458.1L954.01 1516.88L924.619 1476.43L1034.91 1458.1Z" fill="#FBD324"/>
<path d="M998.586 1569.91L967.683 1474.8L920.128 1490.25L998.586 1569.91Z" fill="#FBD324"/>
<path d="M998.586 1569.91L917.681 1511.13L947.071 1470.67L998.586 1569.91Z" fill="#FBD324"/>
<path d="M844.695 1458.1H944.699V1508.1L844.695 1458.1Z" fill="#FBD324"/>
<path d="M844.695 1458.1L925.6 1516.88L954.991 1476.43L844.695 1458.1Z" fill="#FBD324"/>
<path d="M881.024 1569.91L911.927 1474.8L959.482 1490.25L881.024 1569.91Z" fill="#FBD324"/>
<path d="M881.024 1569.91L961.929 1511.13L932.538 1470.67L881.024 1569.91Z" fill="#FBD324"/>
<circle cx="939.8" cy="1489" r="102" stroke="black" stroke-width="4"/>
<path d="M833.804 1180L802.901 1275.11L850.456 1290.56L833.804 1180Z" fill="#FBD324"/>
<path d="M833.804 1180L864.707 1275.11L817.153 1290.56L833.804 1180Z" fill="#FBD324"/>
<path d="M928.915 1249.1H828.911V1299.1L928.915 1249.1Z" fill="#FBD324"/>
<path d="M928.915 1249.1L848.01 1307.88L818.619 1267.43L928.915 1249.1Z" fill="#FBD324"/>
<path d="M892.586 1360.91L861.683 1265.8L814.128 1281.25L892.586 1360.91Z" fill="#FBD324"/>
<path d="M892.586 1360.91L811.681 1302.13L841.071 1261.67L892.586 1360.91Z" fill="#FBD324"/>
<path d="M738.695 1249.1H838.699V1299.1L738.695 1249.1Z" fill="#FBD324"/>
<path d="M738.695 1249.1L819.6 1307.88L848.991 1267.43L738.695 1249.1Z" fill="#FBD324"/>
<path d="M775.024 1360.91L805.927 1265.8L853.482 1281.25L775.024 1360.91Z" fill="#FBD324"/>
<path d="M775.024 1360.91L855.929 1302.13L826.538 1261.67L775.024 1360.91Z" fill="#FBD324"/>
<circle cx="833.8" cy="1280" r="102" stroke="black" stroke-width="4"/>
<path d="M796.804 947.999L765.901 1043.11L813.456 1058.56L796.804 947.999Z" fill="#FBD324"/>
<path d="M796.804 947.999L827.707 1043.11L780.153 1058.56L796.804 947.999Z" fill="#FBD324"/>
<path d="M891.915 1017.1H791.911V1067.1L891.915 1017.1Z" fill="#FBD324"/>
<path d="M891.915 1017.1L811.01 1075.88L781.619 1035.43L891.915 1017.1Z" fill="#FBD324"/>
<path d="M855.586 1128.91L824.683 1033.8L777.128 1049.25L855.586 1128.91Z" fill="#FBD324"/>
<path d="M855.586 1128.91L774.681 1070.13L804.071 1029.67L855.586 1128.91Z" fill="#FBD324"/>
<path d="M701.695 1017.1H801.699V1067.1L701.695 1017.1Z" fill="#FBD324"/>
<path d="M701.695 1017.1L782.6 1075.88L811.991 1035.43L701.695 1017.1Z" fill="#FBD324"/>
<path d="M738.024 1128.91L768.927 1033.8L816.482 1049.25L738.024 1128.91Z" fill="#FBD324"/>
<path d="M738.024 1128.91L818.929 1070.13L789.538 1029.67L738.024 1128.91Z" fill="#FBD324"/>
<circle cx="796.8" cy="1048" r="102" stroke="black" stroke-width="4"/>
<path d="M833.804 715.999L802.901 811.109L850.456 826.56L833.804 715.999Z" fill="#FBD324"/>
<path d="M833.804 715.999L864.707 811.109L817.153 826.56L833.804 715.999Z" fill="#FBD324"/>
<path d="M928.915 785.099H828.911V835.101L928.915 785.099Z" fill="#FBD324"/>
<path d="M928.915 785.099L848.01 843.88L818.619 803.428L928.915 785.099Z" fill="#FBD324"/>
<path d="M892.586 896.908L861.683 801.798L814.128 817.249L892.586 896.908Z" fill="#FBD324"/>
<path d="M892.586 896.908L811.681 838.127L841.071 797.674L892.586 896.908Z" fill="#FBD324"/>
<path d="M738.695 785.099H838.699V835.101L738.695 785.099Z" fill="#FBD324"/>
<path d="M738.695 785.099L819.6 843.88L848.991 803.427L738.695 785.099Z" fill="#FBD324"/>
<path d="M775.024 896.907L805.927 801.798L853.482 817.249L775.024 896.907Z" fill="#FBD324"/>
<path d="M775.024 896.907L855.929 838.126L826.538 797.674L775.024 896.907Z" fill="#FBD324"/>
<circle cx="833.8" cy="815.999" r="102" stroke="black" stroke-width="4"/>
<path d="M940.804 506.999L909.901 602.109L957.456 617.56L940.804 506.999Z" fill="#FBD324"/>
<path d="M940.804 506.999L971.707 602.109L924.153 617.56L940.804 506.999Z" fill="#FBD324"/>
<path d="M1035.91 576.099H935.911V626.101L1035.91 576.099Z" fill="#FBD324"/>
<path d="M1035.91 576.099L955.01 634.88L925.619 594.428L1035.91 576.099Z" fill="#FBD324"/>
<path d="M999.586 687.908L968.683 592.798L921.128 608.249L999.586 687.908Z" fill="#FBD324"/>
<path d="M999.586 687.908L918.681 629.127L948.071 588.674L999.586 687.908Z" fill="#FBD324"/>
<path d="M845.695 576.099H945.699V626.101L845.695 576.099Z" fill="#FBD324"/>
<path d="M845.695 576.099L926.6 634.88L955.991 594.427L845.695 576.099Z" fill="#FBD324"/>
<path d="M882.024 687.908L912.927 592.798L960.482 608.249L882.024 687.908Z" fill="#FBD324"/>
<path d="M882.024 687.908L962.929 629.126L933.538 588.674L882.024 687.908Z" fill="#FBD324"/>
<circle cx="940.8" cy="606.999" r="102" stroke="black" stroke-width="4"/>
<path d="M1106.8 340.999L1075.9 436.109L1123.46 451.56L1106.8 340.999Z" fill="#FBD324"/>
<path d="M1106.8 340.999L1137.71 436.109L1090.15 451.56L1106.8 340.999Z" fill="#FBD324"/>
<path d="M1201.91 410.099H1101.91V460.101L1201.91 410.099Z" fill="#FBD324"/>
<path d="M1201.91 410.099L1121.01 468.88L1091.62 428.428L1201.91 410.099Z" fill="#FBD324"/>
<path d="M1165.59 521.908L1134.68 426.798L1087.13 442.249L1165.59 521.908Z" fill="#FBD324"/>
<path d="M1165.59 521.908L1084.68 463.127L1114.07 422.674L1165.59 521.908Z" fill="#FBD324"/>
<path d="M1011.7 410.099H1111.7V460.101L1011.7 410.099Z" fill="#FBD324"/>
<path d="M1011.7 410.099L1092.6 468.88L1121.99 428.427L1011.7 410.099Z" fill="#FBD324"/>
<path d="M1048.02 521.908L1078.93 426.798L1126.48 442.249L1048.02 521.908Z" fill="#FBD324"/>
<path d="M1048.02 521.908L1128.93 463.126L1099.54 422.674L1048.02 521.908Z" fill="#FBD324"/>
<circle cx="1106.8" cy="440.999" r="102" stroke="black" stroke-width="4"/>
<path d="M1315.8 234.999L1284.9 330.109L1332.46 345.56L1315.8 234.999Z" fill="#FBD324"/>
<path d="M1315.8 234.999L1346.71 330.109L1299.15 345.56L1315.8 234.999Z" fill="#FBD324"/>
<path d="M1410.91 304.099H1310.91V354.101L1410.91 304.099Z" fill="#FBD324"/>
<path d="M1410.91 304.099L1330.01 362.88L1300.62 322.428L1410.91 304.099Z" fill="#FBD324"/>
<path d="M1374.59 415.908L1343.68 320.798L1296.13 336.249L1374.59 415.908Z" fill="#FBD324"/>
<path d="M1374.59 415.908L1293.68 357.127L1323.07 316.674L1374.59 415.908Z" fill="#FBD324"/>
<path d="M1220.7 304.099H1320.7V354.101L1220.7 304.099Z" fill="#FBD324"/>
<path d="M1220.7 304.099L1301.6 362.88L1330.99 322.427L1220.7 304.099Z" fill="#FBD324"/>
<path d="M1257.02 415.908L1287.93 320.798L1335.48 336.249L1257.02 415.908Z" fill="#FBD324"/>
<path d="M1257.02 415.908L1337.93 357.126L1308.54 316.674L1257.02 415.908Z" fill="#FBD324"/>
<circle cx="1315.8" cy="334.999" r="102" stroke="black" stroke-width="4"/>
<path d="M1546.8 197.999L1515.9 293.109L1563.46 308.56L1546.8 197.999Z" fill="#FBD324"/>
<path d="M1546.8 197.999L1577.71 293.109L1530.15 308.56L1546.8 197.999Z" fill="#FBD324"/>
<path d="M1641.91 267.099H1541.91V317.101L1641.91 267.099Z" fill="#FBD324"/>
<path d="M1641.91 267.099L1561.01 325.88L1531.62 285.428L1641.91 267.099Z" fill="#FBD324"/>
<path d="M1605.59 378.908L1574.68 283.798L1527.13 299.249L1605.59 378.908Z" fill="#FBD324"/>
<path d="M1605.59 378.908L1524.68 320.127L1554.07 279.674L1605.59 378.908Z" fill="#FBD324"/>
<path d="M1451.7 267.099H1551.7V317.101L1451.7 267.099Z" fill="#FBD324"/>
<path d="M1451.7 267.099L1532.6 325.88L1561.99 285.427L1451.7 267.099Z" fill="#FBD324"/>
<path d="M1488.02 378.908L1518.93 283.798L1566.48 299.249L1488.02 378.908Z" fill="#FBD324"/>
<path d="M1488.02 378.908L1568.93 320.126L1539.54 279.674L1488.02 378.908Z" fill="#FBD324"/>
<circle cx="1546.8" cy="297.999" r="102" stroke="black" stroke-width="4"/>
<path d="M1779.8 234.999L1748.9 330.109L1796.46 345.56L1779.8 234.999Z" fill="#FBD324"/>
<path d="M1779.8 234.999L1810.71 330.109L1763.15 345.56L1779.8 234.999Z" fill="#FBD324"/>
<path d="M1874.91 304.099H1774.91V354.101L1874.91 304.099Z" fill="#FBD324"/>
<path d="M1874.91 304.099L1794.01 362.88L1764.62 322.428L1874.91 304.099Z" fill="#FBD324"/>
<path d="M1838.59 415.908L1807.68 320.798L1760.13 336.249L1838.59 415.908Z" fill="#FBD324"/>
<path d="M1838.59 415.908L1757.68 357.127L1787.07 316.674L1838.59 415.908Z" fill="#FBD324"/>
<path d="M1684.7 304.099H1784.7V354.101L1684.7 304.099Z" fill="#FBD324"/>
<path d="M1684.7 304.099L1765.6 362.88L1794.99 322.427L1684.7 304.099Z" fill="#FBD324"/>
<path d="M1721.02 415.908L1751.93 320.798L1799.48 336.249L1721.02 415.908Z" fill="#FBD324"/>
<path d="M1721.02 415.908L1801.93 357.126L1772.54 316.674L1721.02 415.908Z" fill="#FBD324"/>
<circle cx="1779.8" cy="334.999" r="102" stroke="black" stroke-width="4"/>
<circle cx="1548" cy="1050" r="440" stroke="#FBD324" stroke-width="20"/>
</g>
<path d="M3050 2150L50 2150" stroke="black" stroke-width="4"/>
<path d="M1549 2165V2135" stroke="black" stroke-width="4"/>
<path d="M2332.44 2096.84C2335.46 2097.49 2337.81 2098.83 2339.5 2100.87C2341.21 2102.92 2342.06 2105.44 2342.06 2108.44C2342.06 2113.04 2340.48 2116.6 2337.31 2119.12C2334.15 2121.64 2329.65 2122.91 2323.81 2122.91C2321.85 2122.91 2319.83 2122.71 2317.75 2122.31C2315.69 2121.94 2313.55 2121.36 2311.34 2120.59V2114.5C2313.09 2115.52 2315.01 2116.29 2317.09 2116.81C2319.18 2117.33 2321.35 2117.59 2323.62 2117.59C2327.58 2117.59 2330.59 2116.81 2332.66 2115.25C2334.74 2113.69 2335.78 2111.42 2335.78 2108.44C2335.78 2105.69 2334.81 2103.54 2332.88 2102C2330.96 2100.44 2328.28 2099.66 2324.84 2099.66H2319.41V2094.47H2325.09C2328.2 2094.47 2330.57 2093.85 2332.22 2092.62C2333.86 2091.37 2334.69 2089.58 2334.69 2087.25C2334.69 2084.85 2333.83 2083.02 2332.12 2081.75C2330.44 2080.46 2328.01 2079.81 2324.84 2079.81C2323.11 2079.81 2321.26 2080 2319.28 2080.37C2317.3 2080.75 2315.12 2081.33 2312.75 2082.12V2076.5C2315.15 2075.83 2317.39 2075.33 2319.47 2075C2321.57 2074.67 2323.55 2074.5 2325.41 2074.5C2330.2 2074.5 2333.99 2075.59 2336.78 2077.78C2339.57 2079.95 2340.97 2082.88 2340.97 2086.59C2340.97 2089.18 2340.23 2091.36 2338.75 2093.16C2337.27 2094.93 2335.17 2096.16 2332.44 2096.84ZM2363.47 2075.34H2368.78L2352.53 2127.94H2347.22L2363.47 2075.34ZM2381.06 2116.69H2403.09V2122H2373.47V2116.69C2375.86 2114.21 2379.12 2110.88 2383.25 2106.72C2387.4 2102.53 2390 2099.83 2391.06 2098.62C2393.08 2096.35 2394.49 2094.44 2395.28 2092.87C2396.09 2091.29 2396.5 2089.74 2396.5 2088.22C2396.5 2085.74 2395.62 2083.72 2393.88 2082.16C2392.15 2080.59 2389.89 2079.81 2387.09 2079.81C2385.11 2079.81 2383.02 2080.16 2380.81 2080.84C2378.62 2081.53 2376.28 2082.57 2373.78 2083.97V2077.59C2376.32 2076.57 2378.7 2075.8 2380.91 2075.28C2383.11 2074.76 2385.14 2074.5 2386.97 2074.5C2391.8 2074.5 2395.66 2075.71 2398.53 2078.12C2401.41 2080.54 2402.84 2083.77 2402.84 2087.81C2402.84 2089.73 2402.48 2091.55 2401.75 2093.28C2401.04 2094.99 2399.74 2097.01 2397.84 2099.34C2397.32 2099.95 2395.67 2101.7 2392.88 2104.59C2390.08 2107.47 2386.15 2111.5 2381.06 2116.69Z" fill="black"/>
<path d="M832.438 2096.84C835.458 2097.49 837.812 2098.83 839.5 2100.87C841.208 2102.92 842.062 2105.44 842.062 2108.44C842.062 2113.04 840.479 2116.6 837.312 2119.12C834.146 2121.64 829.646 2122.91 823.812 2122.91C821.854 2122.91 819.833 2122.71 817.75 2122.31C815.688 2121.94 813.552 2121.36 811.344 2120.59V2114.5C813.094 2115.52 815.01 2116.29 817.094 2116.81C819.177 2117.33 821.354 2117.59 823.625 2117.59C827.583 2117.59 830.594 2116.81 832.656 2115.25C834.74 2113.69 835.781 2111.42 835.781 2108.44C835.781 2105.69 834.812 2103.54 832.875 2102C830.958 2100.44 828.281 2099.66 824.844 2099.66H819.406V2094.47H825.094C828.198 2094.47 830.573 2093.85 832.219 2092.62C833.865 2091.37 834.688 2089.58 834.688 2087.25C834.688 2084.85 833.833 2083.02 832.125 2081.75C830.438 2080.46 828.01 2079.81 824.844 2079.81C823.115 2079.81 821.26 2080 819.281 2080.37C817.302 2080.75 815.125 2081.33 812.75 2082.12V2076.5C815.146 2075.83 817.385 2075.33 819.469 2075C821.573 2074.67 823.552 2074.5 825.406 2074.5C830.198 2074.5 833.99 2075.59 836.781 2077.78C839.573 2079.95 840.969 2082.88 840.969 2086.59C840.969 2089.18 840.229 2091.36 838.75 2093.16C837.271 2094.93 835.167 2096.16 832.438 2096.84ZM863.469 2075.34H868.781L852.531 2127.94H847.219L863.469 2075.34ZM881.062 2116.69H903.094V2122H873.469V2116.69C875.865 2114.21 879.125 2110.88 883.25 2106.72C887.396 2102.53 890 2099.83 891.062 2098.62C893.083 2096.35 894.49 2094.44 895.281 2092.87C896.094 2091.29 896.5 2089.74 896.5 2088.22C896.5 2085.74 895.625 2083.72 893.875 2082.16C892.146 2080.59 889.885 2079.81 887.094 2079.81C885.115 2079.81 883.021 2080.16 880.812 2080.84C878.625 2081.53 876.281 2082.57 873.781 2083.97V2077.59C876.323 2076.57 878.698 2075.8 880.906 2075.28C883.115 2074.76 885.135 2074.5 886.969 2074.5C891.802 2074.5 895.656 2075.71 898.531 2078.12C901.406 2080.54 902.844 2083.77 902.844 2087.81C902.844 2089.73 902.479 2091.55 901.75 2093.28C901.042 2094.99 899.74 2097.01 897.844 2099.34C897.323 2099.95 895.667 2101.7 892.875 2104.59C890.083 2107.47 886.146 2111.5 881.062 2116.69Z" fill="black"/>
<path d="M1653 2050V1950" stroke="black" stroke-width="4"/>
<path d="M1549 1952H1653" stroke="black" stroke-width="4"/>
<path d="M3150 2050L3150 50" stroke="black" stroke-width="4"/>
<path d="M3135 1050H3165" stroke="black" stroke-width="4"/>
<path d="M3090.06 1604.69H3100.38V1569.09L3089.16 1571.34V1565.59L3100.31 1563.34H3106.62V1604.69H3116.94V1610H3090.06V1604.69Z" fill="black"/>
<path d="M3090.06 604.688H3100.38V569.094L3089.16 571.344V565.594L3100.31 563.344H3106.62V604.688H3116.94V610H3090.06V604.688Z" fill="black"/>
<path d="M2948 1150V1050" stroke="black" stroke-width="4"/>
<path d="M2946 1150H3050" stroke="black" stroke-width="4"/>
<path d="M1549 2050L1546.98 49.9999" stroke="black" stroke-width="4"/>
<path d="M50 1050L3050 1050" stroke="black" stroke-width="4"/>
<circle cx="1547" cy="1050" r="750" stroke="black" stroke-width="4"/>
<circle cx="1548" cy="1050" r="448" stroke="black" stroke-width="4"/>
<path d="M834 1281.52L2260.58 817.999" stroke="black" stroke-width="4"/>
<path d="M940 1490.68L2153.53 608.999" stroke="black" stroke-width="4"/>
<path d="M1107 1656.52L1988.68 442.999" stroke="black" stroke-width="4"/>
<path d="M1316 1763.58L1779.53 336.999" stroke="black" stroke-width="4"/>
<path d="M1779.53 1763.58L1316 336.999" stroke="black" stroke-width="4"/>
<path d="M1988.68 1656.52L1107 442.999" stroke="black" stroke-width="4"/>
<path d="M2154.53 1490.68L941 608.999" stroke="black" stroke-width="4"/>
<path d="M2260.58 1281.52L834 817.999" stroke="black" stroke-width="4"/>
<path d="M2046.19 984.686H2056.5V949.093L2045.28 951.343V945.593L2056.44 943.343H2062.75V984.686H2073.06V989.999H2046.19V984.686ZM2099.34 967.843C2096.34 967.843 2093.98 968.645 2092.25 970.249C2090.54 971.853 2089.69 974.061 2089.69 976.874C2089.69 979.686 2090.54 981.895 2092.25 983.499C2093.98 985.103 2096.34 985.905 2099.34 985.905C2102.34 985.905 2104.71 985.103 2106.44 983.499C2108.17 981.874 2109.03 979.666 2109.03 976.874C2109.03 974.061 2108.17 971.853 2106.44 970.249C2104.73 968.645 2102.36 967.843 2099.34 967.843ZM2093.03 965.155C2090.32 964.488 2088.21 963.228 2086.69 961.374C2085.19 959.52 2084.44 957.259 2084.44 954.593C2084.44 950.863 2085.76 947.916 2088.41 945.749C2091.07 943.582 2094.72 942.499 2099.34 942.499C2103.99 942.499 2107.64 943.582 2110.28 945.749C2112.93 947.916 2114.25 950.863 2114.25 954.593C2114.25 957.259 2113.49 959.52 2111.97 961.374C2110.47 963.228 2108.38 964.488 2105.69 965.155C2108.73 965.863 2111.09 967.249 2112.78 969.311C2114.49 971.374 2115.34 973.895 2115.34 976.874C2115.34 981.395 2113.96 984.863 2111.19 987.28C2108.44 989.697 2104.49 990.905 2099.34 990.905C2094.2 990.905 2090.24 989.697 2087.47 987.28C2084.72 984.863 2083.34 981.395 2083.34 976.874C2083.34 973.895 2084.2 971.374 2085.91 969.311C2087.61 967.249 2089.99 965.863 2093.03 965.155ZM2090.72 955.186C2090.72 957.603 2091.47 959.488 2092.97 960.843C2094.49 962.197 2096.61 962.874 2099.34 962.874C2102.05 962.874 2104.17 962.197 2105.69 960.843C2107.23 959.488 2108 957.603 2108 955.186C2108 952.77 2107.23 950.884 2105.69 949.53C2104.17 948.176 2102.05 947.499 2099.34 947.499C2096.61 947.499 2094.49 948.176 2092.97 949.53C2091.47 950.884 2090.72 952.77 2090.72 955.186ZM2135.75 946.53C2134.08 946.53 2132.68 947.113 2131.53 948.28C2130.39 949.426 2129.81 950.832 2129.81 952.499C2129.81 954.145 2130.39 955.541 2131.53 956.686C2132.68 957.811 2134.08 958.374 2135.75 958.374C2137.42 958.374 2138.82 957.811 2139.97 956.686C2141.11 955.541 2141.69 954.145 2141.69 952.499C2141.69 950.853 2141.1 949.447 2139.94 948.28C2138.79 947.113 2137.4 946.53 2135.75 946.53ZM2135.75 942.499C2137.08 942.499 2138.36 942.759 2139.59 943.28C2140.82 943.78 2141.89 944.509 2142.78 945.468C2143.74 946.405 2144.46 947.468 2144.94 948.655C2145.42 949.843 2145.66 951.124 2145.66 952.499C2145.66 955.249 2144.69 957.582 2142.75 959.499C2140.83 961.395 2138.48 962.343 2135.69 962.343C2132.88 962.343 2130.53 961.405 2128.66 959.53C2126.78 957.655 2125.84 955.311 2125.84 952.499C2125.84 949.707 2126.8 947.343 2128.72 945.405C2130.64 943.468 2132.98 942.499 2135.75 942.499Z" fill="black"/>
<path d="M2617 1500V600" stroke="black" stroke-width="4"/>
<path d="M1549 602L2619 602" stroke="black" stroke-width="4"/>
<path d="M1549 1498L2619 1498" stroke="black" stroke-width="4"/>
<path d="M2674.12 837.031V831.281C2675.71 832.031 2677.31 832.604 2678.94 833C2680.56 833.396 2682.16 833.594 2683.72 833.594C2687.89 833.594 2691.06 832.198 2693.25 829.406C2695.46 826.594 2696.72 822.333 2697.03 816.625C2695.82 818.417 2694.29 819.792 2692.44 820.75C2690.58 821.708 2688.53 822.188 2686.28 822.188C2681.61 822.188 2677.92 820.781 2675.19 817.969C2672.48 815.135 2671.12 811.271 2671.12 806.375C2671.12 801.583 2672.54 797.74 2675.38 794.844C2678.21 791.948 2681.98 790.5 2686.69 790.5C2692.08 790.5 2696.2 792.573 2699.03 796.719C2701.89 800.844 2703.31 806.844 2703.31 814.719C2703.31 822.073 2701.56 827.948 2698.06 832.344C2694.58 836.719 2689.9 838.906 2684 838.906C2682.42 838.906 2680.81 838.75 2679.19 838.438C2677.56 838.125 2675.88 837.656 2674.12 837.031ZM2686.69 817.25C2689.52 817.25 2691.76 816.281 2693.41 814.344C2695.07 812.406 2695.91 809.75 2695.91 806.375C2695.91 803.021 2695.07 800.375 2693.41 798.438C2691.76 796.479 2689.52 795.5 2686.69 795.5C2683.85 795.5 2681.6 796.479 2679.94 798.438C2678.29 800.375 2677.47 803.021 2677.47 806.375C2677.47 809.75 2678.29 812.406 2679.94 814.344C2681.6 816.281 2683.85 817.25 2686.69 817.25ZM2724.09 791.344H2729.41L2713.16 843.938H2707.84L2724.09 791.344ZM2737.34 832.688H2747.66V797.094L2736.44 799.344V793.594L2747.59 791.344H2753.91V832.688H2764.22V838H2737.34V832.688ZM2790.5 795.5C2787.25 795.5 2784.8 797.104 2783.16 800.312C2781.53 803.5 2780.72 808.302 2780.72 814.719C2780.72 821.115 2781.53 825.917 2783.16 829.125C2784.8 832.312 2787.25 833.906 2790.5 833.906C2793.77 833.906 2796.22 832.312 2797.84 829.125C2799.49 825.917 2800.31 821.115 2800.31 814.719C2800.31 808.302 2799.49 803.5 2797.84 800.312C2796.22 797.104 2793.77 795.5 2790.5 795.5ZM2790.5 790.5C2795.73 790.5 2799.72 792.573 2802.47 796.719C2805.24 800.844 2806.62 806.844 2806.62 814.719C2806.62 822.573 2805.24 828.573 2802.47 832.719C2799.72 836.844 2795.73 838.906 2790.5 838.906C2785.27 838.906 2781.27 836.844 2778.5 832.719C2775.75 828.573 2774.38 822.573 2774.38 814.719C2774.38 806.844 2775.75 800.844 2778.5 796.719C2781.27 792.573 2785.27 790.5 2790.5 790.5Z" fill="black"/>
<path d="M2862 1800L2862 300" stroke="black" stroke-width="4"/>
<path d="M1549 300L2864 300" stroke="black" stroke-width="4"/>
<path d="M1549 1800L2864 1800" stroke="black" stroke-width="4"/>
<path d="M2938.44 812.844C2941.46 813.49 2943.81 814.833 2945.5 816.875C2947.21 818.917 2948.06 821.438 2948.06 824.438C2948.06 829.042 2946.48 832.604 2943.31 835.125C2940.15 837.646 2935.65 838.906 2929.81 838.906C2927.85 838.906 2925.83 838.708 2923.75 838.312C2921.69 837.938 2919.55 837.365 2917.34 836.594V830.5C2919.09 831.521 2921.01 832.292 2923.09 832.812C2925.18 833.333 2927.35 833.594 2929.62 833.594C2933.58 833.594 2936.59 832.812 2938.66 831.25C2940.74 829.688 2941.78 827.417 2941.78 824.438C2941.78 821.688 2940.81 819.542 2938.88 818C2936.96 816.438 2934.28 815.656 2930.84 815.656H2925.41V810.469H2931.09C2934.2 810.469 2936.57 809.854 2938.22 808.625C2939.86 807.375 2940.69 805.583 2940.69 803.25C2940.69 800.854 2939.83 799.021 2938.12 797.75C2936.44 796.458 2934.01 795.812 2930.84 795.812C2929.11 795.812 2927.26 796 2925.28 796.375C2923.3 796.75 2921.12 797.333 2918.75 798.125V792.5C2921.15 791.833 2923.39 791.333 2925.47 791C2927.57 790.667 2929.55 790.5 2931.41 790.5C2936.2 790.5 2939.99 791.594 2942.78 793.781C2945.57 795.948 2946.97 798.885 2946.97 802.594C2946.97 805.177 2946.23 807.365 2944.75 809.156C2943.27 810.927 2941.17 812.156 2938.44 812.844ZM2969.47 791.344H2974.78L2958.53 843.938H2953.22L2969.47 791.344ZM2987.06 832.688H3009.09V838H2979.47V832.688C2981.86 830.208 2985.12 826.885 2989.25 822.719C2993.4 818.531 2996 815.833 2997.06 814.625C2999.08 812.354 3000.49 810.438 3001.28 808.875C3002.09 807.292 3002.5 805.74 3002.5 804.219C3002.5 801.74 3001.62 799.719 2999.88 798.156C2998.15 796.594 2995.89 795.812 2993.09 795.812C2991.11 795.812 2989.02 796.156 2986.81 796.844C2984.62 797.531 2982.28 798.573 2979.78 799.969V793.594C2982.32 792.573 2984.7 791.802 2986.91 791.281C2989.11 790.76 2991.14 790.5 2992.97 790.5C2997.8 790.5 3001.66 791.708 3004.53 794.125C3007.41 796.542 3008.84 799.771 3008.84 803.812C3008.84 805.729 3008.48 807.552 3007.75 809.281C3007.04 810.99 3005.74 813.01 3003.84 815.344C3003.32 815.948 3001.67 817.698 2998.88 820.594C2996.08 823.469 2992.15 827.5 2987.06 832.688Z" fill="black"/>
<path d="M2413 916V716" stroke="black" stroke-width="4"/>
<path d="M2261 714H2415" stroke="black" stroke-width="4"/>
<path d="M2261 918H2415" stroke="black" stroke-width="4"/>
<path d="M2471.41 832.688H2481.72V797.094L2470.5 799.344V793.594L2481.66 791.344H2487.97V832.688H2498.28V838H2471.41V832.688ZM2520.47 791.344H2525.78L2509.53 843.938H2504.22L2520.47 791.344ZM2532.69 791.344H2557.47V796.656H2538.47V808.094C2539.39 807.781 2540.3 807.552 2541.22 807.406C2542.14 807.24 2543.05 807.156 2543.97 807.156C2549.18 807.156 2553.3 808.583 2556.34 811.438C2559.39 814.292 2560.91 818.156 2560.91 823.031C2560.91 828.052 2559.34 831.958 2556.22 834.75C2553.09 837.521 2548.69 838.906 2543 838.906C2541.04 838.906 2539.04 838.74 2537 838.406C2534.98 838.073 2532.89 837.573 2530.72 836.906V830.562C2532.59 831.583 2534.53 832.344 2536.53 832.844C2538.53 833.344 2540.65 833.594 2542.88 833.594C2546.48 833.594 2549.33 832.646 2551.44 830.75C2553.54 828.854 2554.59 826.281 2554.59 823.031C2554.59 819.781 2553.54 817.208 2551.44 815.312C2549.33 813.417 2546.48 812.469 2542.88 812.469C2541.19 812.469 2539.5 812.656 2537.81 813.031C2536.15 813.406 2534.44 813.99 2532.69 814.781V791.344Z" fill="black"/>
<rect x="1978" y="1000" width="20" height="100" fill="black"/>
<path d="M2014.16 1128.69H2024.47V1093.09L2013.25 1095.34V1089.59L2024.41 1087.34H2030.72V1128.69H2041.03V1134H2014.16V1128.69ZM2063.22 1087.34H2068.53L2052.28 1139.94H2046.97L2063.22 1087.34ZM2076.47 1128.69H2086.78V1093.09L2075.56 1095.34V1089.59L2086.72 1087.34H2093.03V1128.69H2103.34V1134H2076.47V1128.69ZM2116.19 1087.34H2140.97V1092.66H2121.97V1104.09C2122.89 1103.78 2123.8 1103.55 2124.72 1103.41C2125.64 1103.24 2126.55 1103.16 2127.47 1103.16C2132.68 1103.16 2136.8 1104.58 2139.84 1107.44C2142.89 1110.29 2144.41 1114.16 2144.41 1119.03C2144.41 1124.05 2142.84 1127.96 2139.72 1130.75C2136.59 1133.52 2132.19 1134.91 2126.5 1134.91C2124.54 1134.91 2122.54 1134.74 2120.5 1134.41C2118.48 1134.07 2116.39 1133.57 2114.22 1132.91V1126.56C2116.09 1127.58 2118.03 1128.34 2120.03 1128.84C2122.03 1129.34 2124.15 1129.59 2126.38 1129.59C2129.98 1129.59 2132.83 1128.65 2134.94 1126.75C2137.04 1124.85 2138.09 1122.28 2138.09 1119.03C2138.09 1115.78 2137.04 1113.21 2134.94 1111.31C2132.83 1109.42 2129.98 1108.47 2126.38 1108.47C2124.69 1108.47 2123 1108.66 2121.31 1109.03C2119.65 1109.41 2117.94 1109.99 2116.19 1110.78V1087.34ZM2170.38 1091.5C2167.12 1091.5 2164.68 1093.1 2163.03 1096.31C2161.41 1099.5 2160.59 1104.3 2160.59 1110.72C2160.59 1117.11 2161.41 1121.92 2163.03 1125.12C2164.68 1128.31 2167.12 1129.91 2170.38 1129.91C2173.65 1129.91 2176.09 1128.31 2177.72 1125.12C2179.36 1121.92 2180.19 1117.11 2180.19 1110.72C2180.19 1104.3 2179.36 1099.5 2177.72 1096.31C2176.09 1093.1 2173.65 1091.5 2170.38 1091.5ZM2170.38 1086.5C2175.6 1086.5 2179.59 1088.57 2182.34 1092.72C2185.11 1096.84 2186.5 1102.84 2186.5 1110.72C2186.5 1118.57 2185.11 1124.57 2182.34 1128.72C2179.59 1132.84 2175.6 1134.91 2170.38 1134.91C2165.15 1134.91 2161.15 1132.84 2158.38 1128.72C2155.62 1124.57 2154.25 1118.57 2154.25 1110.72C2154.25 1102.84 2155.62 1096.84 2158.38 1092.72C2161.15 1088.57 2165.15 1086.5 2170.38 1086.5Z" fill="black"/>
<rect width="3202" height="2202" fill="white" fill-opacity="0.3"/>
</g>
<defs>
<clipPath id="clip0_2402_730">
<rect width="3202" height="2202" fill="white"/>
</clipPath>
<clipPath id="clip1_2402_730">
<rect width="1720" height="1714" fill="white" transform="translate(687 193)"/>
</clipPath>
</defs>
</svg>
