<svg width="3202" height="2202" viewBox="0 0 3202 2202" fill="none" xmlns="http://www.w3.org/2000/svg">
<g clip-path="url(#clip0_2475_132)">
<rect width="3202" height="2202" fill="#F5F5F5"/>
<rect x="50" y="50" width="3000" height="2000" fill="white"/>
<path d="M1856.8 805L1825.9 900.11L1873.46 915.561L1856.8 805Z" fill="#FBD324"/>
<path d="M1856.8 805L1887.71 900.11L1840.15 915.561L1856.8 805Z" fill="#FBD324"/>
<path d="M1951.91 874.1H1851.91V924.102L1951.91 874.1Z" fill="#FBD324"/>
<path d="M1951.91 874.1L1871.01 932.881L1841.62 892.429L1951.91 874.1Z" fill="#FBD324"/>
<path d="M1915.59 985.909L1884.68 890.799L1837.13 906.25L1915.59 985.909Z" fill="#FBD324"/>
<path d="M1915.59 985.909L1834.68 927.128L1864.07 886.675L1915.59 985.909Z" fill="#FBD324"/>
<path d="M1761.7 874.1H1861.7V924.102L1761.7 874.1Z" fill="#FBD324"/>
<path d="M1761.7 874.1L1842.6 932.881L1871.99 892.429L1761.7 874.1Z" fill="#FBD324"/>
<path d="M1798.02 985.909L1828.93 890.799L1876.48 906.25L1798.02 985.909Z" fill="#FBD324"/>
<path d="M1798.02 985.909L1878.93 927.127L1849.54 886.675L1798.02 985.909Z" fill="#FBD324"/>
<circle cx="1856.8" cy="905" r="102" stroke="black" stroke-width="4"/>
<path d="M2081.8 865L2050.9 960.11L2098.46 975.561L2081.8 865Z" fill="#FBD324"/>
<path d="M2081.8 865L2112.71 960.11L2065.15 975.561L2081.8 865Z" fill="#FBD324"/>
<path d="M2176.91 934.1H2076.91V984.102L2176.91 934.1Z" fill="#FBD324"/>
<path d="M2176.91 934.1L2096.01 992.881L2066.62 952.429L2176.91 934.1Z" fill="#FBD324"/>
<path d="M2140.59 1045.91L2109.68 950.799L2062.13 966.25L2140.59 1045.91Z" fill="#FBD324"/>
<path d="M2140.59 1045.91L2059.68 987.128L2089.07 946.675L2140.59 1045.91Z" fill="#FBD324"/>
<path d="M1986.7 934.1H2086.7V984.102L1986.7 934.1Z" fill="#FBD324"/>
<path d="M1986.7 934.1L2067.6 992.881L2096.99 952.429L1986.7 934.1Z" fill="#FBD324"/>
<path d="M2023.02 1045.91L2053.93 950.799L2101.48 966.25L2023.02 1045.91Z" fill="#FBD324"/>
<path d="M2023.02 1045.91L2103.93 987.127L2074.54 946.675L2023.02 1045.91Z" fill="#FBD324"/>
<circle cx="2081.8" cy="965" r="102" stroke="black" stroke-width="4"/>
<path d="M2246.8 1030L2215.9 1125.11L2263.46 1140.56L2246.8 1030Z" fill="#FBD324"/>
<path d="M2246.8 1030L2277.71 1125.11L2230.15 1140.56L2246.8 1030Z" fill="#FBD324"/>
<path d="M2341.91 1099.1H2241.91V1149.1L2341.91 1099.1Z" fill="#FBD324"/>
<path d="M2341.91 1099.1L2261.01 1157.88L2231.62 1117.43L2341.91 1099.1Z" fill="#FBD324"/>
<path d="M2305.59 1210.91L2274.68 1115.8L2227.13 1131.25L2305.59 1210.91Z" fill="#FBD324"/>
<path d="M2305.59 1210.91L2224.68 1152.13L2254.07 1111.68L2305.59 1210.91Z" fill="#FBD324"/>
<path d="M2151.7 1099.1H2251.7V1149.1L2151.7 1099.1Z" fill="#FBD324"/>
<path d="M2151.7 1099.1L2232.6 1157.88L2261.99 1117.43L2151.7 1099.1Z" fill="#FBD324"/>
<path d="M2188.02 1210.91L2218.93 1115.8L2266.48 1131.25L2188.02 1210.91Z" fill="#FBD324"/>
<path d="M2188.02 1210.91L2268.93 1152.13L2239.54 1111.67L2188.02 1210.91Z" fill="#FBD324"/>
<circle cx="2246.8" cy="1130" r="102" stroke="black" stroke-width="4"/>
<path d="M2306.8 1255L2275.9 1350.11L2323.46 1365.56L2306.8 1255Z" fill="#FBD324"/>
<path d="M2306.8 1255L2337.71 1350.11L2290.15 1365.56L2306.8 1255Z" fill="#FBD324"/>
<path d="M2401.91 1324.1H2301.91V1374.1L2401.91 1324.1Z" fill="#FBD324"/>
<path d="M2401.91 1324.1L2321.01 1382.88L2291.62 1342.43L2401.91 1324.1Z" fill="#FBD324"/>
<path d="M2365.59 1435.91L2334.68 1340.8L2287.13 1356.25L2365.59 1435.91Z" fill="#FBD324"/>
<path d="M2365.59 1435.91L2284.68 1377.13L2314.07 1336.68L2365.59 1435.91Z" fill="#FBD324"/>
<path d="M2211.7 1324.1H2311.7V1374.1L2211.7 1324.1Z" fill="#FBD324"/>
<path d="M2211.7 1324.1L2292.6 1382.88L2321.99 1342.43L2211.7 1324.1Z" fill="#FBD324"/>
<path d="M2248.02 1435.91L2278.93 1340.8L2326.48 1356.25L2248.02 1435.91Z" fill="#FBD324"/>
<path d="M2248.02 1435.91L2328.93 1377.13L2299.54 1336.67L2248.02 1435.91Z" fill="#FBD324"/>
<circle cx="2306.8" cy="1355" r="102" stroke="black" stroke-width="4"/>
<path d="M2246.8 1480L2215.9 1575.11L2263.46 1590.56L2246.8 1480Z" fill="#FBD324"/>
<path d="M2246.8 1480L2277.71 1575.11L2230.15 1590.56L2246.8 1480Z" fill="#FBD324"/>
<path d="M2341.91 1549.1H2241.91V1599.1L2341.91 1549.1Z" fill="#FBD324"/>
<path d="M2341.91 1549.1L2261.01 1607.88L2231.62 1567.43L2341.91 1549.1Z" fill="#FBD324"/>
<path d="M2305.59 1660.91L2274.68 1565.8L2227.13 1581.25L2305.59 1660.91Z" fill="#FBD324"/>
<path d="M2305.59 1660.91L2224.68 1602.13L2254.07 1561.68L2305.59 1660.91Z" fill="#FBD324"/>
<path d="M2151.7 1549.1H2251.7V1599.1L2151.7 1549.1Z" fill="#FBD324"/>
<path d="M2151.7 1549.1L2232.6 1607.88L2261.99 1567.43L2151.7 1549.1Z" fill="#FBD324"/>
<path d="M2188.02 1660.91L2218.93 1565.8L2266.48 1581.25L2188.02 1660.91Z" fill="#FBD324"/>
<path d="M2188.02 1660.91L2268.93 1602.13L2239.54 1561.67L2188.02 1660.91Z" fill="#FBD324"/>
<circle cx="2246.8" cy="1580" r="102" stroke="black" stroke-width="4"/>
<path d="M2081.8 1644L2050.9 1739.11L2098.46 1754.56L2081.8 1644Z" fill="#FBD324"/>
<path d="M2081.8 1644L2112.71 1739.11L2065.15 1754.56L2081.8 1644Z" fill="#FBD324"/>
<path d="M2176.91 1713.1H2076.91V1763.1L2176.91 1713.1Z" fill="#FBD324"/>
<path d="M2176.91 1713.1L2096.01 1771.88L2066.62 1731.43L2176.91 1713.1Z" fill="#FBD324"/>
<path d="M2140.59 1824.91L2109.68 1729.8L2062.13 1745.25L2140.59 1824.91Z" fill="#FBD324"/>
<path d="M2140.59 1824.91L2059.68 1766.13L2089.07 1725.68L2140.59 1824.91Z" fill="#FBD324"/>
<path d="M1986.7 1713.1H2086.7V1763.1L1986.7 1713.1Z" fill="#FBD324"/>
<path d="M1986.7 1713.1L2067.6 1771.88L2096.99 1731.43L1986.7 1713.1Z" fill="#FBD324"/>
<path d="M2023.02 1824.91L2053.93 1729.8L2101.48 1745.25L2023.02 1824.91Z" fill="#FBD324"/>
<path d="M2023.02 1824.91L2103.93 1766.13L2074.54 1725.67L2023.02 1824.91Z" fill="#FBD324"/>
<circle cx="2081.8" cy="1744" r="102" stroke="black" stroke-width="4"/>
<path d="M1856.8 1705L1825.9 1800.11L1873.46 1815.56L1856.8 1705Z" fill="#FBD324"/>
<path d="M1856.8 1705L1887.71 1800.11L1840.15 1815.56L1856.8 1705Z" fill="#FBD324"/>
<path d="M1951.91 1774.1H1851.91V1824.1L1951.91 1774.1Z" fill="#FBD324"/>
<path d="M1951.91 1774.1L1871.01 1832.88L1841.62 1792.43L1951.91 1774.1Z" fill="#FBD324"/>
<path d="M1915.59 1885.91L1884.68 1790.8L1837.13 1806.25L1915.59 1885.91Z" fill="#FBD324"/>
<path d="M1915.59 1885.91L1834.68 1827.13L1864.07 1786.68L1915.59 1885.91Z" fill="#FBD324"/>
<path d="M1761.7 1774.1H1861.7V1824.1L1761.7 1774.1Z" fill="#FBD324"/>
<path d="M1761.7 1774.1L1842.6 1832.88L1871.99 1792.43L1761.7 1774.1Z" fill="#FBD324"/>
<path d="M1798.02 1885.91L1828.93 1790.8L1876.48 1806.25L1798.02 1885.91Z" fill="#FBD324"/>
<path d="M1798.02 1885.91L1878.93 1827.13L1849.54 1786.67L1798.02 1885.91Z" fill="#FBD324"/>
<circle cx="1856.8" cy="1805" r="102" stroke="black" stroke-width="4"/>
<path d="M1631.8 1645L1600.9 1740.11L1648.46 1755.56L1631.8 1645Z" fill="#FBD324"/>
<path d="M1631.8 1645L1662.71 1740.11L1615.15 1755.56L1631.8 1645Z" fill="#FBD324"/>
<path d="M1726.91 1714.1H1626.91V1764.1L1726.91 1714.1Z" fill="#FBD324"/>
<path d="M1726.91 1714.1L1646.01 1772.88L1616.62 1732.43L1726.91 1714.1Z" fill="#FBD324"/>
<path d="M1690.59 1825.91L1659.68 1730.8L1612.13 1746.25L1690.59 1825.91Z" fill="#FBD324"/>
<path d="M1690.59 1825.91L1609.68 1767.13L1639.07 1726.68L1690.59 1825.91Z" fill="#FBD324"/>
<path d="M1536.7 1714.1H1636.7V1764.1L1536.7 1714.1Z" fill="#FBD324"/>
<path d="M1536.7 1714.1L1617.6 1772.88L1646.99 1732.43L1536.7 1714.1Z" fill="#FBD324"/>
<path d="M1573.02 1825.91L1603.93 1730.8L1651.48 1746.25L1573.02 1825.91Z" fill="#FBD324"/>
<path d="M1573.02 1825.91L1653.93 1767.13L1624.54 1726.67L1573.02 1825.91Z" fill="#FBD324"/>
<circle cx="1631.8" cy="1745" r="102" stroke="black" stroke-width="4"/>
<path d="M1466.8 1480L1435.9 1575.11L1483.46 1590.56L1466.8 1480Z" fill="#FBD324"/>
<path d="M1466.8 1480L1497.71 1575.11L1450.15 1590.56L1466.8 1480Z" fill="#FBD324"/>
<path d="M1561.91 1549.1H1461.91V1599.1L1561.91 1549.1Z" fill="#FBD324"/>
<path d="M1561.91 1549.1L1481.01 1607.88L1451.62 1567.43L1561.91 1549.1Z" fill="#FBD324"/>
<path d="M1525.59 1660.91L1494.68 1565.8L1447.13 1581.25L1525.59 1660.91Z" fill="#FBD324"/>
<path d="M1525.59 1660.91L1444.68 1602.13L1474.07 1561.68L1525.59 1660.91Z" fill="#FBD324"/>
<path d="M1371.7 1549.1H1471.7V1599.1L1371.7 1549.1Z" fill="#FBD324"/>
<path d="M1371.7 1549.1L1452.6 1607.88L1481.99 1567.43L1371.7 1549.1Z" fill="#FBD324"/>
<path d="M1408.02 1660.91L1438.93 1565.8L1486.48 1581.25L1408.02 1660.91Z" fill="#FBD324"/>
<path d="M1408.02 1660.91L1488.93 1602.13L1459.54 1561.67L1408.02 1660.91Z" fill="#FBD324"/>
<circle cx="1466.8" cy="1580" r="102" stroke="black" stroke-width="4"/>
<path d="M1631.8 865L1600.9 960.11L1648.46 975.561L1631.8 865Z" fill="#FBD324"/>
<path d="M1631.8 865L1662.71 960.11L1615.15 975.561L1631.8 865Z" fill="#FBD324"/>
<path d="M1726.91 934.1H1626.91V984.102L1726.91 934.1Z" fill="#FBD324"/>
<path d="M1726.91 934.1L1646.01 992.881L1616.62 952.429L1726.91 934.1Z" fill="#FBD324"/>
<path d="M1690.59 1045.91L1659.68 950.799L1612.13 966.25L1690.59 1045.91Z" fill="#FBD324"/>
<path d="M1690.59 1045.91L1609.68 987.128L1639.07 946.675L1690.59 1045.91Z" fill="#FBD324"/>
<path d="M1536.7 934.1H1636.7V984.102L1536.7 934.1Z" fill="#FBD324"/>
<path d="M1536.7 934.1L1617.6 992.881L1646.99 952.429L1536.7 934.1Z" fill="#FBD324"/>
<path d="M1573.02 1045.91L1603.93 950.799L1651.48 966.25L1573.02 1045.91Z" fill="#FBD324"/>
<path d="M1573.02 1045.91L1653.93 987.127L1624.54 946.675L1573.02 1045.91Z" fill="#FBD324"/>
<circle cx="1631.8" cy="965" r="102" stroke="black" stroke-width="4"/>
<path d="M1466.8 1029L1435.9 1124.11L1483.46 1139.56L1466.8 1029Z" fill="#FBD324"/>
<path d="M1466.8 1029L1497.71 1124.11L1450.15 1139.56L1466.8 1029Z" fill="#FBD324"/>
<path d="M1561.91 1098.1H1461.91V1148.1L1561.91 1098.1Z" fill="#FBD324"/>
<path d="M1561.91 1098.1L1481.01 1156.88L1451.62 1116.43L1561.91 1098.1Z" fill="#FBD324"/>
<path d="M1525.59 1209.91L1494.68 1114.8L1447.13 1130.25L1525.59 1209.91Z" fill="#FBD324"/>
<path d="M1525.59 1209.91L1444.68 1151.13L1474.07 1110.68L1525.59 1209.91Z" fill="#FBD324"/>
<path d="M1371.7 1098.1H1471.7V1148.1L1371.7 1098.1Z" fill="#FBD324"/>
<path d="M1371.7 1098.1L1452.6 1156.88L1481.99 1116.43L1371.7 1098.1Z" fill="#FBD324"/>
<path d="M1408.02 1209.91L1438.93 1114.8L1486.48 1130.25L1408.02 1209.91Z" fill="#FBD324"/>
<path d="M1408.02 1209.91L1488.93 1151.13L1459.54 1110.67L1408.02 1209.91Z" fill="#FBD324"/>
<circle cx="1466.8" cy="1129" r="102" stroke="black" stroke-width="4"/>
<path d="M1241.8 1090L1210.9 1185.11L1258.46 1200.56L1241.8 1090Z" fill="#FBD324"/>
<path d="M1241.8 1090L1272.71 1185.11L1225.15 1200.56L1241.8 1090Z" fill="#FBD324"/>
<path d="M1336.91 1159.1H1236.91V1209.1L1336.91 1159.1Z" fill="#FBD324"/>
<path d="M1336.91 1159.1L1256.01 1217.88L1226.62 1177.43L1336.91 1159.1Z" fill="#FBD324"/>
<path d="M1300.59 1270.91L1269.68 1175.8L1222.13 1191.25L1300.59 1270.91Z" fill="#FBD324"/>
<path d="M1300.59 1270.91L1219.68 1212.13L1249.07 1171.68L1300.59 1270.91Z" fill="#FBD324"/>
<path d="M1146.7 1159.1H1246.7V1209.1L1146.7 1159.1Z" fill="#FBD324"/>
<path d="M1146.7 1159.1L1227.6 1217.88L1256.99 1177.43L1146.7 1159.1Z" fill="#FBD324"/>
<path d="M1183.02 1270.91L1213.93 1175.8L1261.48 1191.25L1183.02 1270.91Z" fill="#FBD324"/>
<path d="M1183.02 1270.91L1263.93 1212.13L1234.54 1171.67L1183.02 1270.91Z" fill="#FBD324"/>
<circle cx="1241.8" cy="1190" r="102" stroke="black" stroke-width="4"/>
<path d="M1016.8 1030L985.902 1125.11L1033.46 1140.56L1016.8 1030Z" fill="#FBD324"/>
<path d="M1016.8 1030L1047.71 1125.11L1000.15 1140.56L1016.8 1030Z" fill="#FBD324"/>
<path d="M1111.91 1099.1H1011.91V1149.1L1111.91 1099.1Z" fill="#FBD324"/>
<path d="M1111.91 1099.1L1031.01 1157.88L1001.62 1117.43L1111.91 1099.1Z" fill="#FBD324"/>
<path d="M1075.59 1210.91L1044.68 1115.8L997.128 1131.25L1075.59 1210.91Z" fill="#FBD324"/>
<path d="M1075.59 1210.91L994.681 1152.13L1024.07 1111.68L1075.59 1210.91Z" fill="#FBD324"/>
<path d="M921.695 1099.1H1021.7V1149.1L921.695 1099.1Z" fill="#FBD324"/>
<path d="M921.695 1099.1L1002.6 1157.88L1031.99 1117.43L921.695 1099.1Z" fill="#FBD324"/>
<path d="M958.024 1210.91L988.927 1115.8L1036.48 1131.25L958.024 1210.91Z" fill="#FBD324"/>
<path d="M958.024 1210.91L1038.93 1152.13L1009.54 1111.67L958.024 1210.91Z" fill="#FBD324"/>
<circle cx="1016.8" cy="1130" r="102" stroke="black" stroke-width="4"/>
<path d="M852.805 865L821.902 960.11L869.456 975.561L852.805 865Z" fill="#FBD324"/>
<path d="M852.805 865L883.708 960.11L836.153 975.561L852.805 865Z" fill="#FBD324"/>
<path d="M947.915 934.1H847.911V984.102L947.915 934.1Z" fill="#FBD324"/>
<path d="M947.915 934.1L867.01 992.881L837.619 952.429L947.915 934.1Z" fill="#FBD324"/>
<path d="M911.586 1045.91L880.683 950.799L833.128 966.25L911.586 1045.91Z" fill="#FBD324"/>
<path d="M911.586 1045.91L830.681 987.128L860.071 946.675L911.586 1045.91Z" fill="#FBD324"/>
<path d="M757.695 934.1H857.7V984.102L757.695 934.1Z" fill="#FBD324"/>
<path d="M757.695 934.1L838.601 992.881L867.991 952.429L757.695 934.1Z" fill="#FBD324"/>
<path d="M794.024 1045.91L824.927 950.799L872.482 966.25L794.024 1045.91Z" fill="#FBD324"/>
<path d="M794.024 1045.91L874.929 987.127L845.539 946.675L794.024 1045.91Z" fill="#FBD324"/>
<circle cx="852.8" cy="965" r="102" stroke="black" stroke-width="4"/>
<path d="M791.805 640L760.902 735.11L808.456 750.561L791.805 640Z" fill="#FBD324"/>
<path d="M791.805 640L822.708 735.11L775.153 750.561L791.805 640Z" fill="#FBD324"/>
<path d="M886.915 709.1H786.911V759.102L886.915 709.1Z" fill="#FBD324"/>
<path d="M886.915 709.1L806.01 767.881L776.619 727.429L886.915 709.1Z" fill="#FBD324"/>
<path d="M850.586 820.909L819.683 725.799L772.128 741.25L850.586 820.909Z" fill="#FBD324"/>
<path d="M850.586 820.909L769.681 762.128L799.071 721.675L850.586 820.909Z" fill="#FBD324"/>
<path d="M696.695 709.1H796.7V759.102L696.695 709.1Z" fill="#FBD324"/>
<path d="M696.695 709.1L777.601 767.881L806.991 727.429L696.695 709.1Z" fill="#FBD324"/>
<path d="M733.024 820.909L763.927 725.799L811.482 741.25L733.024 820.909Z" fill="#FBD324"/>
<path d="M733.024 820.909L813.929 762.127L784.539 721.675L733.024 820.909Z" fill="#FBD324"/>
<circle cx="791.8" cy="740" r="102" stroke="black" stroke-width="4"/>
<path d="M852.805 415L821.902 510.11L869.456 525.561L852.805 415Z" fill="#FBD324"/>
<path d="M852.805 415L883.708 510.11L836.153 525.561L852.805 415Z" fill="#FBD324"/>
<path d="M947.915 484.1H847.911V534.102L947.915 484.1Z" fill="#FBD324"/>
<path d="M947.915 484.1L867.01 542.881L837.619 502.429L947.915 484.1Z" fill="#FBD324"/>
<path d="M911.586 595.909L880.683 500.799L833.128 516.25L911.586 595.909Z" fill="#FBD324"/>
<path d="M911.586 595.909L830.681 537.128L860.071 496.675L911.586 595.909Z" fill="#FBD324"/>
<path d="M757.695 484.1H857.7V534.102L757.695 484.1Z" fill="#FBD324"/>
<path d="M757.695 484.1L838.601 542.881L867.991 502.429L757.695 484.1Z" fill="#FBD324"/>
<path d="M794.024 595.909L824.927 500.799L872.482 516.25L794.024 595.909Z" fill="#FBD324"/>
<path d="M794.024 595.909L874.929 537.127L845.539 496.675L794.024 595.909Z" fill="#FBD324"/>
<circle cx="852.8" cy="515" r="102" stroke="black" stroke-width="4"/>
<path d="M1016.8 250L985.902 345.11L1033.46 360.561L1016.8 250Z" fill="#FBD324"/>
<path d="M1016.8 250L1047.71 345.11L1000.15 360.561L1016.8 250Z" fill="#FBD324"/>
<path d="M1111.91 319.1H1011.91V369.102L1111.91 319.1Z" fill="#FBD324"/>
<path d="M1111.91 319.1L1031.01 377.881L1001.62 337.429L1111.91 319.1Z" fill="#FBD324"/>
<path d="M1075.59 430.909L1044.68 335.799L997.128 351.25L1075.59 430.909Z" fill="#FBD324"/>
<path d="M1075.59 430.909L994.681 372.128L1024.07 331.675L1075.59 430.909Z" fill="#FBD324"/>
<path d="M921.695 319.1H1021.7V369.102L921.695 319.1Z" fill="#FBD324"/>
<path d="M921.695 319.1L1002.6 377.881L1031.99 337.429L921.695 319.1Z" fill="#FBD324"/>
<path d="M958.024 430.909L988.927 335.799L1036.48 351.25L958.024 430.909Z" fill="#FBD324"/>
<path d="M958.024 430.909L1038.93 372.127L1009.54 331.675L958.024 430.909Z" fill="#FBD324"/>
<circle cx="1016.8" cy="350" r="102" stroke="black" stroke-width="4"/>
<path d="M1241.8 190L1210.9 285.11L1258.46 300.561L1241.8 190Z" fill="#FBD324"/>
<path d="M1241.8 190L1272.71 285.11L1225.15 300.561L1241.8 190Z" fill="#FBD324"/>
<path d="M1336.91 259.1H1236.91V309.102L1336.91 259.1Z" fill="#FBD324"/>
<path d="M1336.91 259.1L1256.01 317.881L1226.62 277.429L1336.91 259.1Z" fill="#FBD324"/>
<path d="M1300.59 370.909L1269.68 275.799L1222.13 291.25L1300.59 370.909Z" fill="#FBD324"/>
<path d="M1300.59 370.909L1219.68 312.128L1249.07 271.675L1300.59 370.909Z" fill="#FBD324"/>
<path d="M1146.7 259.1H1246.7V309.102L1146.7 259.1Z" fill="#FBD324"/>
<path d="M1146.7 259.1L1227.6 317.881L1256.99 277.429L1146.7 259.1Z" fill="#FBD324"/>
<path d="M1183.02 370.909L1213.93 275.799L1261.48 291.25L1183.02 370.909Z" fill="#FBD324"/>
<path d="M1183.02 370.909L1263.93 312.127L1234.54 271.675L1183.02 370.909Z" fill="#FBD324"/>
<circle cx="1241.8" cy="290" r="102" stroke="black" stroke-width="4"/>
<path d="M1466.8 250L1435.9 345.11L1483.46 360.561L1466.8 250Z" fill="#FBD324"/>
<path d="M1466.8 250L1497.71 345.11L1450.15 360.561L1466.8 250Z" fill="#FBD324"/>
<path d="M1561.91 319.1H1461.91V369.102L1561.91 319.1Z" fill="#FBD324"/>
<path d="M1561.91 319.1L1481.01 377.881L1451.62 337.429L1561.91 319.1Z" fill="#FBD324"/>
<path d="M1525.59 430.909L1494.68 335.799L1447.13 351.25L1525.59 430.909Z" fill="#FBD324"/>
<path d="M1525.59 430.909L1444.68 372.128L1474.07 331.675L1525.59 430.909Z" fill="#FBD324"/>
<path d="M1371.7 319.1H1471.7V369.102L1371.7 319.1Z" fill="#FBD324"/>
<path d="M1371.7 319.1L1452.6 377.881L1481.99 337.429L1371.7 319.1Z" fill="#FBD324"/>
<path d="M1408.02 430.909L1438.93 335.799L1486.48 351.25L1408.02 430.909Z" fill="#FBD324"/>
<path d="M1408.02 430.909L1488.93 372.127L1459.54 331.675L1408.02 430.909Z" fill="#FBD324"/>
<circle cx="1466.8" cy="350" r="102" stroke="black" stroke-width="4"/>
<path d="M1631.8 415L1600.9 510.11L1648.46 525.561L1631.8 415Z" fill="#FBD324"/>
<path d="M1631.8 415L1662.71 510.11L1615.15 525.561L1631.8 415Z" fill="#FBD324"/>
<path d="M1726.91 484.1H1626.91V534.102L1726.91 484.1Z" fill="#FBD324"/>
<path d="M1726.91 484.1L1646.01 542.881L1616.62 502.429L1726.91 484.1Z" fill="#FBD324"/>
<path d="M1690.59 595.909L1659.68 500.799L1612.13 516.25L1690.59 595.909Z" fill="#FBD324"/>
<path d="M1690.59 595.909L1609.68 537.128L1639.07 496.675L1690.59 595.909Z" fill="#FBD324"/>
<path d="M1536.7 484.1H1636.7V534.102L1536.7 484.1Z" fill="#FBD324"/>
<path d="M1536.7 484.1L1617.6 542.881L1646.99 502.429L1536.7 484.1Z" fill="#FBD324"/>
<path d="M1573.02 595.909L1603.93 500.799L1651.48 516.25L1573.02 595.909Z" fill="#FBD324"/>
<path d="M1573.02 595.909L1653.93 537.127L1624.54 496.675L1573.02 595.909Z" fill="#FBD324"/>
<circle cx="1631.8" cy="515" r="102" stroke="black" stroke-width="4"/>
<circle cx="1241.91" cy="741.913" r="449.913" stroke="black" stroke-width="4"/>
<path d="M1632.05 966.727L852.78 516.814" stroke="black" stroke-width="4"/>
<path d="M1466.73 1131.45L1016.81 352.18" stroke="black" stroke-width="4"/>
<path d="M1242.37 1192L1242.37 292.175" stroke="black" stroke-width="4"/>
<path d="M1017.41 1131.72L1467.33 352.452" stroke="black" stroke-width="4"/>
<path d="M852.452 966.727L1631.72 516.814" stroke="black" stroke-width="4"/>
<path d="M1692 741.77L792.175 741.77" stroke="black" stroke-width="4"/>
<circle cx="1856.91" cy="1356.91" r="449.913" stroke="black" stroke-width="4"/>
<path d="M2247.05 1581.73L1467.78 1131.81" stroke="black" stroke-width="4"/>
<path d="M2081.73 1746.45L1631.81 967.18" stroke="black" stroke-width="4"/>
<path d="M1857.37 1807L1857.37 907.175" stroke="black" stroke-width="4"/>
<path d="M1632.41 1746.72L2082.33 967.452" stroke="black" stroke-width="4"/>
<path d="M1467.45 1581.73L2246.72 1131.81" stroke="black" stroke-width="4"/>
<path d="M2307 1356.77L1407.18 1356.77" stroke="black" stroke-width="4"/>
<path d="M3050 2150L50 2150" stroke="black" stroke-width="4"/>
<path d="M1549 2165V2135" stroke="black" stroke-width="4"/>
<path d="M2332.44 2096.84C2335.46 2097.49 2337.81 2098.83 2339.5 2100.87C2341.21 2102.92 2342.06 2105.44 2342.06 2108.44C2342.06 2113.04 2340.48 2116.6 2337.31 2119.12C2334.15 2121.64 2329.65 2122.91 2323.81 2122.91C2321.85 2122.91 2319.83 2122.71 2317.75 2122.31C2315.69 2121.94 2313.55 2121.36 2311.34 2120.59V2114.5C2313.09 2115.52 2315.01 2116.29 2317.09 2116.81C2319.18 2117.33 2321.35 2117.59 2323.62 2117.59C2327.58 2117.59 2330.59 2116.81 2332.66 2115.25C2334.74 2113.69 2335.78 2111.42 2335.78 2108.44C2335.78 2105.69 2334.81 2103.54 2332.88 2102C2330.96 2100.44 2328.28 2099.66 2324.84 2099.66H2319.41V2094.47H2325.09C2328.2 2094.47 2330.57 2093.85 2332.22 2092.62C2333.86 2091.37 2334.69 2089.58 2334.69 2087.25C2334.69 2084.85 2333.83 2083.02 2332.12 2081.75C2330.44 2080.46 2328.01 2079.81 2324.84 2079.81C2323.11 2079.81 2321.26 2080 2319.28 2080.37C2317.3 2080.75 2315.12 2081.33 2312.75 2082.12V2076.5C2315.15 2075.83 2317.39 2075.33 2319.47 2075C2321.57 2074.67 2323.55 2074.5 2325.41 2074.5C2330.2 2074.5 2333.99 2075.59 2336.78 2077.78C2339.57 2079.95 2340.97 2082.88 2340.97 2086.59C2340.97 2089.18 2340.23 2091.36 2338.75 2093.16C2337.27 2094.93 2335.17 2096.16 2332.44 2096.84ZM2363.47 2075.34H2368.78L2352.53 2127.94H2347.22L2363.47 2075.34ZM2381.06 2116.69H2403.09V2122H2373.47V2116.69C2375.86 2114.21 2379.12 2110.88 2383.25 2106.72C2387.4 2102.53 2390 2099.83 2391.06 2098.62C2393.08 2096.35 2394.49 2094.44 2395.28 2092.87C2396.09 2091.29 2396.5 2089.74 2396.5 2088.22C2396.5 2085.74 2395.62 2083.72 2393.88 2082.16C2392.15 2080.59 2389.89 2079.81 2387.09 2079.81C2385.11 2079.81 2383.02 2080.16 2380.81 2080.84C2378.62 2081.53 2376.28 2082.57 2373.78 2083.97V2077.59C2376.32 2076.57 2378.7 2075.8 2380.91 2075.28C2383.11 2074.76 2385.14 2074.5 2386.97 2074.5C2391.8 2074.5 2395.66 2075.71 2398.53 2078.12C2401.41 2080.54 2402.84 2083.77 2402.84 2087.81C2402.84 2089.73 2402.48 2091.55 2401.75 2093.28C2401.04 2094.99 2399.74 2097.01 2397.84 2099.34C2397.32 2099.95 2395.67 2101.7 2392.88 2104.59C2390.08 2107.47 2386.15 2111.5 2381.06 2116.69Z" fill="black"/>
<path d="M832.438 2096.84C835.458 2097.49 837.812 2098.83 839.5 2100.87C841.208 2102.92 842.062 2105.44 842.062 2108.44C842.062 2113.04 840.479 2116.6 837.312 2119.12C834.146 2121.64 829.646 2122.91 823.812 2122.91C821.854 2122.91 819.833 2122.71 817.75 2122.31C815.688 2121.94 813.552 2121.36 811.344 2120.59V2114.5C813.094 2115.52 815.01 2116.29 817.094 2116.81C819.177 2117.33 821.354 2117.59 823.625 2117.59C827.583 2117.59 830.594 2116.81 832.656 2115.25C834.74 2113.69 835.781 2111.42 835.781 2108.44C835.781 2105.69 834.812 2103.54 832.875 2102C830.958 2100.44 828.281 2099.66 824.844 2099.66H819.406V2094.47H825.094C828.198 2094.47 830.573 2093.85 832.219 2092.62C833.865 2091.37 834.688 2089.58 834.688 2087.25C834.688 2084.85 833.833 2083.02 832.125 2081.75C830.438 2080.46 828.01 2079.81 824.844 2079.81C823.115 2079.81 821.26 2080 819.281 2080.37C817.302 2080.75 815.125 2081.33 812.75 2082.12V2076.5C815.146 2075.83 817.385 2075.33 819.469 2075C821.573 2074.67 823.552 2074.5 825.406 2074.5C830.198 2074.5 833.99 2075.59 836.781 2077.78C839.573 2079.95 840.969 2082.88 840.969 2086.59C840.969 2089.18 840.229 2091.36 838.75 2093.16C837.271 2094.93 835.167 2096.16 832.438 2096.84ZM863.469 2075.34H868.781L852.531 2127.94H847.219L863.469 2075.34ZM881.062 2116.69H903.094V2122H873.469V2116.69C875.865 2114.21 879.125 2110.88 883.25 2106.72C887.396 2102.53 890 2099.83 891.062 2098.62C893.083 2096.35 894.49 2094.44 895.281 2092.87C896.094 2091.29 896.5 2089.74 896.5 2088.22C896.5 2085.74 895.625 2083.72 893.875 2082.16C892.146 2080.59 889.885 2079.81 887.094 2079.81C885.115 2079.81 883.021 2080.16 880.812 2080.84C878.625 2081.53 876.281 2082.57 873.781 2083.97V2077.59C876.323 2076.57 878.698 2075.8 880.906 2075.28C883.115 2074.76 885.135 2074.5 886.969 2074.5C891.802 2074.5 895.656 2075.71 898.531 2078.12C901.406 2080.54 902.844 2083.77 902.844 2087.81C902.844 2089.73 902.479 2091.55 901.75 2093.28C901.042 2094.99 899.74 2097.01 897.844 2099.34C897.323 2099.95 895.667 2101.7 892.875 2104.59C890.083 2107.47 886.146 2111.5 881.062 2116.69Z" fill="black"/>
<path d="M1653 2050V1950" stroke="black" stroke-width="4"/>
<path d="M1549 1952H1653" stroke="black" stroke-width="4"/>
<path d="M3150 2050L3150 50" stroke="black" stroke-width="4"/>
<path d="M3135 1050H3165" stroke="black" stroke-width="4"/>
<path d="M3090.06 1604.69H3100.38V1569.09L3089.16 1571.34V1565.59L3100.31 1563.34H3106.62V1604.69H3116.94V1610H3090.06V1604.69Z" fill="black"/>
<path d="M3090.06 604.688H3100.38V569.094L3089.16 571.344V565.594L3100.31 563.344H3106.62V604.688H3116.94V610H3090.06V604.688Z" fill="black"/>
<path d="M2948 1150V1050" stroke="black" stroke-width="4"/>
<path d="M2946 1150H3050" stroke="black" stroke-width="4"/>
<path d="M1549 2050L1546.98 49.9999" stroke="black" stroke-width="4"/>
<path d="M50 1050L3050 1050" stroke="black" stroke-width="4"/>
<path d="M2064.22 1295.84C2067.24 1296.49 2069.59 1297.83 2071.28 1299.88C2072.99 1301.92 2073.84 1304.44 2073.84 1307.44C2073.84 1312.04 2072.26 1315.6 2069.09 1318.12C2065.93 1320.65 2061.43 1321.91 2055.59 1321.91C2053.64 1321.91 2051.61 1321.71 2049.53 1321.31C2047.47 1320.94 2045.33 1320.36 2043.12 1319.59V1313.5C2044.88 1314.52 2046.79 1315.29 2048.88 1315.81C2050.96 1316.33 2053.14 1316.59 2055.41 1316.59C2059.36 1316.59 2062.38 1315.81 2064.44 1314.25C2066.52 1312.69 2067.56 1310.42 2067.56 1307.44C2067.56 1304.69 2066.59 1302.54 2064.66 1301C2062.74 1299.44 2060.06 1298.66 2056.62 1298.66H2051.19V1293.47H2056.88C2059.98 1293.47 2062.35 1292.85 2064 1291.62C2065.65 1290.38 2066.47 1288.58 2066.47 1286.25C2066.47 1283.85 2065.61 1282.02 2063.91 1280.75C2062.22 1279.46 2059.79 1278.81 2056.62 1278.81C2054.9 1278.81 2053.04 1279 2051.06 1279.38C2049.08 1279.75 2046.91 1280.33 2044.53 1281.12V1275.5C2046.93 1274.83 2049.17 1274.33 2051.25 1274C2053.35 1273.67 2055.33 1273.5 2057.19 1273.5C2061.98 1273.5 2065.77 1274.59 2068.56 1276.78C2071.35 1278.95 2072.75 1281.89 2072.75 1285.59C2072.75 1288.18 2072.01 1290.36 2070.53 1292.16C2069.05 1293.93 2066.95 1295.16 2064.22 1295.84ZM2099.34 1278.5C2096.09 1278.5 2093.65 1280.1 2092 1283.31C2090.38 1286.5 2089.56 1291.3 2089.56 1297.72C2089.56 1304.11 2090.38 1308.92 2092 1312.12C2093.65 1315.31 2096.09 1316.91 2099.34 1316.91C2102.61 1316.91 2105.06 1315.31 2106.69 1312.12C2108.33 1308.92 2109.16 1304.11 2109.16 1297.72C2109.16 1291.3 2108.33 1286.5 2106.69 1283.31C2105.06 1280.1 2102.61 1278.5 2099.34 1278.5ZM2099.34 1273.5C2104.57 1273.5 2108.56 1275.57 2111.31 1279.72C2114.08 1283.84 2115.47 1289.84 2115.47 1297.72C2115.47 1305.57 2114.08 1311.57 2111.31 1315.72C2108.56 1319.84 2104.57 1321.91 2099.34 1321.91C2094.11 1321.91 2090.11 1319.84 2087.34 1315.72C2084.59 1311.57 2083.22 1305.57 2083.22 1297.72C2083.22 1289.84 2084.59 1283.84 2087.34 1279.72C2090.11 1275.57 2094.11 1273.5 2099.34 1273.5ZM2135.75 1277.53C2134.08 1277.53 2132.68 1278.11 2131.53 1279.28C2130.39 1280.43 2129.81 1281.83 2129.81 1283.5C2129.81 1285.15 2130.39 1286.54 2131.53 1287.69C2132.68 1288.81 2134.08 1289.38 2135.75 1289.38C2137.42 1289.38 2138.82 1288.81 2139.97 1287.69C2141.11 1286.54 2141.69 1285.15 2141.69 1283.5C2141.69 1281.85 2141.1 1280.45 2139.94 1279.28C2138.79 1278.11 2137.4 1277.53 2135.75 1277.53ZM2135.75 1273.5C2137.08 1273.5 2138.36 1273.76 2139.59 1274.28C2140.82 1274.78 2141.89 1275.51 2142.78 1276.47C2143.74 1277.41 2144.46 1278.47 2144.94 1279.66C2145.42 1280.84 2145.66 1282.12 2145.66 1283.5C2145.66 1286.25 2144.69 1288.58 2142.75 1290.5C2140.83 1292.4 2138.48 1293.34 2135.69 1293.34C2132.88 1293.34 2130.53 1292.41 2128.66 1290.53C2126.78 1288.66 2125.84 1286.31 2125.84 1283.5C2125.84 1280.71 2126.8 1278.34 2128.72 1276.41C2130.64 1274.47 2132.98 1273.5 2135.75 1273.5Z" fill="black"/>
<path d="M2460 1192V292" stroke="black" stroke-width="4"/>
<path d="M1242 294L2462 294" stroke="black" stroke-width="4"/>
<path d="M1242 1190L2462 1190" stroke="black" stroke-width="4"/>
<path d="M2517.12 529.031V523.281C2518.71 524.031 2520.31 524.604 2521.94 525C2523.56 525.396 2525.16 525.594 2526.72 525.594C2530.89 525.594 2534.06 524.198 2536.25 521.406C2538.46 518.594 2539.72 514.333 2540.03 508.625C2538.82 510.417 2537.29 511.792 2535.44 512.75C2533.58 513.708 2531.53 514.188 2529.28 514.188C2524.61 514.188 2520.92 512.781 2518.19 509.969C2515.48 507.135 2514.12 503.271 2514.12 498.375C2514.12 493.583 2515.54 489.74 2518.38 486.844C2521.21 483.948 2524.98 482.5 2529.69 482.5C2535.08 482.5 2539.2 484.573 2542.03 488.719C2544.89 492.844 2546.31 498.844 2546.31 506.719C2546.31 514.073 2544.56 519.948 2541.06 524.344C2537.58 528.719 2532.9 530.906 2527 530.906C2525.42 530.906 2523.81 530.75 2522.19 530.438C2520.56 530.125 2518.88 529.656 2517.12 529.031ZM2529.69 509.25C2532.52 509.25 2534.76 508.281 2536.41 506.344C2538.07 504.406 2538.91 501.75 2538.91 498.375C2538.91 495.021 2538.07 492.375 2536.41 490.438C2534.76 488.479 2532.52 487.5 2529.69 487.5C2526.85 487.5 2524.6 488.479 2522.94 490.438C2521.29 492.375 2520.47 495.021 2520.47 498.375C2520.47 501.75 2521.29 504.406 2522.94 506.344C2524.6 508.281 2526.85 509.25 2529.69 509.25ZM2567.09 483.344H2572.41L2556.16 535.938H2550.84L2567.09 483.344ZM2580.34 524.688H2590.66V489.094L2579.44 491.344V485.594L2590.59 483.344H2596.91V524.688H2607.22V530H2580.34V524.688ZM2633.5 487.5C2630.25 487.5 2627.8 489.104 2626.16 492.312C2624.53 495.5 2623.72 500.302 2623.72 506.719C2623.72 513.115 2624.53 517.917 2626.16 521.125C2627.8 524.312 2630.25 525.906 2633.5 525.906C2636.77 525.906 2639.22 524.312 2640.84 521.125C2642.49 517.917 2643.31 513.115 2643.31 506.719C2643.31 500.302 2642.49 495.5 2640.84 492.312C2639.22 489.104 2636.77 487.5 2633.5 487.5ZM2633.5 482.5C2638.73 482.5 2642.72 484.573 2645.47 488.719C2648.24 492.844 2649.62 498.844 2649.62 506.719C2649.62 514.573 2648.24 520.573 2645.47 524.719C2642.72 528.844 2638.73 530.906 2633.5 530.906C2628.27 530.906 2624.27 528.844 2621.5 524.719C2618.75 520.573 2617.38 514.573 2617.38 506.719C2617.38 498.844 2618.75 492.844 2621.5 488.719C2624.27 484.573 2628.27 482.5 2633.5 482.5Z" fill="black"/>
<path d="M2675 1807V907" stroke="black" stroke-width="4"/>
<path d="M1857 909L2677 909" stroke="black" stroke-width="4"/>
<path d="M1857 1805L2677 1805" stroke="black" stroke-width="4"/>
<path d="M2732.12 1144.03V1138.28C2733.71 1139.03 2735.31 1139.6 2736.94 1140C2738.56 1140.4 2740.16 1140.59 2741.72 1140.59C2745.89 1140.59 2749.06 1139.2 2751.25 1136.41C2753.46 1133.59 2754.72 1129.33 2755.03 1123.62C2753.82 1125.42 2752.29 1126.79 2750.44 1127.75C2748.58 1128.71 2746.53 1129.19 2744.28 1129.19C2739.61 1129.19 2735.92 1127.78 2733.19 1124.97C2730.48 1122.14 2729.12 1118.27 2729.12 1113.38C2729.12 1108.58 2730.54 1104.74 2733.38 1101.84C2736.21 1098.95 2739.98 1097.5 2744.69 1097.5C2750.08 1097.5 2754.2 1099.57 2757.03 1103.72C2759.89 1107.84 2761.31 1113.84 2761.31 1121.72C2761.31 1129.07 2759.56 1134.95 2756.06 1139.34C2752.58 1143.72 2747.9 1145.91 2742 1145.91C2740.42 1145.91 2738.81 1145.75 2737.19 1145.44C2735.56 1145.12 2733.88 1144.66 2732.12 1144.03ZM2744.69 1124.25C2747.52 1124.25 2749.76 1123.28 2751.41 1121.34C2753.07 1119.41 2753.91 1116.75 2753.91 1113.38C2753.91 1110.02 2753.07 1107.38 2751.41 1105.44C2749.76 1103.48 2747.52 1102.5 2744.69 1102.5C2741.85 1102.5 2739.6 1103.48 2737.94 1105.44C2736.29 1107.38 2735.47 1110.02 2735.47 1113.38C2735.47 1116.75 2736.29 1119.41 2737.94 1121.34C2739.6 1123.28 2741.85 1124.25 2744.69 1124.25ZM2782.09 1098.34H2787.41L2771.16 1150.94H2765.84L2782.09 1098.34ZM2795.34 1139.69H2805.66V1104.09L2794.44 1106.34V1100.59L2805.59 1098.34H2811.91V1139.69H2822.22V1145H2795.34V1139.69ZM2848.5 1102.5C2845.25 1102.5 2842.8 1104.1 2841.16 1107.31C2839.53 1110.5 2838.72 1115.3 2838.72 1121.72C2838.72 1128.11 2839.53 1132.92 2841.16 1136.12C2842.8 1139.31 2845.25 1140.91 2848.5 1140.91C2851.77 1140.91 2854.22 1139.31 2855.84 1136.12C2857.49 1132.92 2858.31 1128.11 2858.31 1121.72C2858.31 1115.3 2857.49 1110.5 2855.84 1107.31C2854.22 1104.1 2851.77 1102.5 2848.5 1102.5ZM2848.5 1097.5C2853.73 1097.5 2857.72 1099.57 2860.47 1103.72C2863.24 1107.84 2864.62 1113.84 2864.62 1121.72C2864.62 1129.57 2863.24 1135.57 2860.47 1139.72C2857.72 1143.84 2853.73 1145.91 2848.5 1145.91C2843.27 1145.91 2839.27 1143.84 2836.5 1139.72C2833.75 1135.57 2832.38 1129.57 2832.38 1121.72C2832.38 1113.84 2833.75 1107.84 2836.5 1103.72C2839.27 1099.57 2843.27 1097.5 2848.5 1097.5Z" fill="black"/>
<rect width="3202" height="2202" fill="white" fill-opacity="0.3"/>
</g>
<defs>
<clipPath id="clip0_2475_132">
<rect width="3202" height="2202" fill="white"/>
</clipPath>
</defs>
</svg>
