<svg width="1720" height="1713" viewBox="0 0 1720 1713" fill="none" xmlns="http://www.w3.org/2000/svg">
<g clip-path="url(#clip0_2451_82)">
<path d="M1301.8 147L1270.9 242.11L1318.46 257.561L1301.8 147Z" fill="#FBD324"/>
<path d="M1301.8 147L1332.71 242.11L1285.15 257.561L1301.8 147Z" fill="#FBD324"/>
<path d="M1396.91 216.1H1296.91V266.102L1396.91 216.1Z" fill="#FBD324"/>
<path d="M1396.91 216.1L1316.01 274.881L1286.62 234.429L1396.91 216.1Z" fill="#FBD324"/>
<path d="M1360.59 327.909L1329.68 232.799L1282.13 248.25L1360.59 327.909Z" fill="#FBD324"/>
<path d="M1360.59 327.909L1279.68 269.128L1309.07 228.675L1360.59 327.909Z" fill="#FBD324"/>
<path d="M1206.7 216.1H1306.7V266.102L1206.7 216.1Z" fill="#FBD324"/>
<path d="M1206.7 216.1L1287.6 274.881L1316.99 234.429L1206.7 216.1Z" fill="#FBD324"/>
<path d="M1243.02 327.909L1273.93 232.799L1321.48 248.25L1243.02 327.909Z" fill="#FBD324"/>
<path d="M1243.02 327.909L1323.93 269.127L1294.54 228.675L1243.02 327.909Z" fill="#FBD324"/>
<path d="M1466.8 313L1435.9 408.11L1483.46 423.561L1466.8 313Z" fill="#FBD324"/>
<path d="M1466.8 313L1497.71 408.11L1450.15 423.561L1466.8 313Z" fill="#FBD324"/>
<path d="M1561.91 382.1H1461.91V432.102L1561.91 382.1Z" fill="#FBD324"/>
<path d="M1561.91 382.1L1481.01 440.881L1451.62 400.429L1561.91 382.1Z" fill="#FBD324"/>
<path d="M1525.59 493.909L1494.68 398.799L1447.13 414.25L1525.59 493.909Z" fill="#FBD324"/>
<path d="M1525.59 493.909L1444.68 435.128L1474.07 394.675L1525.59 493.909Z" fill="#FBD324"/>
<path d="M1371.7 382.1H1471.7V432.102L1371.7 382.1Z" fill="#FBD324"/>
<path d="M1371.7 382.1L1452.6 440.881L1481.99 400.429L1371.7 382.1Z" fill="#FBD324"/>
<path d="M1408.02 493.909L1438.93 398.799L1486.48 414.25L1408.02 493.909Z" fill="#FBD324"/>
<path d="M1408.02 493.909L1488.93 435.127L1459.54 394.675L1408.02 493.909Z" fill="#FBD324"/>
<path d="M1573.8 522L1542.9 617.11L1590.46 632.561L1573.8 522Z" fill="#FBD324"/>
<path d="M1573.8 522L1604.71 617.11L1557.15 632.561L1573.8 522Z" fill="#FBD324"/>
<path d="M1668.91 591.1H1568.91V641.102L1668.91 591.1Z" fill="#FBD324"/>
<path d="M1668.91 591.1L1588.01 649.881L1558.62 609.429L1668.91 591.1Z" fill="#FBD324"/>
<path d="M1632.59 702.909L1601.68 607.799L1554.13 623.25L1632.59 702.909Z" fill="#FBD324"/>
<path d="M1632.59 702.909L1551.68 644.128L1581.07 603.675L1632.59 702.909Z" fill="#FBD324"/>
<path d="M1478.7 591.1H1578.7V641.102L1478.7 591.1Z" fill="#FBD324"/>
<path d="M1478.7 591.1L1559.6 649.881L1588.99 609.429L1478.7 591.1Z" fill="#FBD324"/>
<path d="M1515.02 702.909L1545.93 607.799L1593.48 623.25L1515.02 702.909Z" fill="#FBD324"/>
<path d="M1515.02 702.909L1595.93 644.127L1566.54 603.675L1515.02 702.909Z" fill="#FBD324"/>
<path d="M1609.8 754L1578.9 849.11L1626.46 864.561L1609.8 754Z" fill="#FBD324"/>
<path d="M1609.8 754L1640.71 849.11L1593.15 864.561L1609.8 754Z" fill="#FBD324"/>
<path d="M1704.91 823.1H1604.91V873.102L1704.91 823.1Z" fill="#FBD324"/>
<path d="M1704.91 823.1L1624.01 881.881L1594.62 841.429L1704.91 823.1Z" fill="#FBD324"/>
<path d="M1668.59 934.909L1637.68 839.799L1590.13 855.25L1668.59 934.909Z" fill="#FBD324"/>
<path d="M1668.59 934.909L1587.68 876.128L1617.07 835.675L1668.59 934.909Z" fill="#FBD324"/>
<path d="M1514.7 823.1H1614.7V873.102L1514.7 823.1Z" fill="#FBD324"/>
<path d="M1514.7 823.1L1595.6 881.881L1624.99 841.429L1514.7 823.1Z" fill="#FBD324"/>
<path d="M1551.02 934.909L1581.93 839.799L1629.48 855.25L1551.02 934.909Z" fill="#FBD324"/>
<path d="M1551.02 934.909L1631.93 876.127L1602.54 835.675L1551.02 934.909Z" fill="#FBD324"/>
<path d="M1573.8 986L1542.9 1081.11L1590.46 1096.56L1573.8 986Z" fill="#FBD324"/>
<path d="M1573.8 986L1604.71 1081.11L1557.15 1096.56L1573.8 986Z" fill="#FBD324"/>
<path d="M1668.91 1055.1H1568.91V1105.1L1668.91 1055.1Z" fill="#FBD324"/>
<path d="M1668.91 1055.1L1588.01 1113.88L1558.62 1073.43L1668.91 1055.1Z" fill="#FBD324"/>
<path d="M1632.59 1166.91L1601.68 1071.8L1554.13 1087.25L1632.59 1166.91Z" fill="#FBD324"/>
<path d="M1632.59 1166.91L1551.68 1108.13L1581.07 1067.68L1632.59 1166.91Z" fill="#FBD324"/>
<path d="M1478.7 1055.1H1578.7V1105.1L1478.7 1055.1Z" fill="#FBD324"/>
<path d="M1478.7 1055.1L1559.6 1113.88L1588.99 1073.43L1478.7 1055.1Z" fill="#FBD324"/>
<path d="M1515.02 1166.91L1545.93 1071.8L1593.48 1087.25L1515.02 1166.91Z" fill="#FBD324"/>
<path d="M1515.02 1166.91L1595.93 1108.13L1566.54 1067.67L1515.02 1166.91Z" fill="#FBD324"/>
<path d="M1467.8 1195L1436.9 1290.11L1484.46 1305.56L1467.8 1195Z" fill="#FBD324"/>
<path d="M1467.8 1195L1498.71 1290.11L1451.15 1305.56L1467.8 1195Z" fill="#FBD324"/>
<path d="M1562.91 1264.1H1462.91V1314.1L1562.91 1264.1Z" fill="#FBD324"/>
<path d="M1562.91 1264.1L1482.01 1322.88L1452.62 1282.43L1562.91 1264.1Z" fill="#FBD324"/>
<path d="M1526.59 1375.91L1495.68 1280.8L1448.13 1296.25L1526.59 1375.91Z" fill="#FBD324"/>
<path d="M1526.59 1375.91L1445.68 1317.13L1475.07 1276.68L1526.59 1375.91Z" fill="#FBD324"/>
<path d="M1372.7 1264.1H1472.7V1314.1L1372.7 1264.1Z" fill="#FBD324"/>
<path d="M1372.7 1264.1L1453.6 1322.88L1482.99 1282.43L1372.7 1264.1Z" fill="#FBD324"/>
<path d="M1409.02 1375.91L1439.93 1280.8L1487.48 1296.25L1409.02 1375.91Z" fill="#FBD324"/>
<path d="M1409.02 1375.91L1489.93 1317.13L1460.54 1276.67L1409.02 1375.91Z" fill="#FBD324"/>
<path d="M1301.8 1361L1270.9 1456.11L1318.46 1471.56L1301.8 1361Z" fill="#FBD324"/>
<path d="M1301.8 1361L1332.71 1456.11L1285.15 1471.56L1301.8 1361Z" fill="#FBD324"/>
<path d="M1396.91 1430.1H1296.91V1480.1L1396.91 1430.1Z" fill="#FBD324"/>
<path d="M1396.91 1430.1L1316.01 1488.88L1286.62 1448.43L1396.91 1430.1Z" fill="#FBD324"/>
<path d="M1360.59 1541.91L1329.68 1446.8L1282.13 1462.25L1360.59 1541.91Z" fill="#FBD324"/>
<path d="M1360.59 1541.91L1279.68 1483.13L1309.07 1442.68L1360.59 1541.91Z" fill="#FBD324"/>
<path d="M1206.7 1430.1H1306.7V1480.1L1206.7 1430.1Z" fill="#FBD324"/>
<path d="M1206.7 1430.1L1287.6 1488.88L1316.99 1448.43L1206.7 1430.1Z" fill="#FBD324"/>
<path d="M1243.02 1541.91L1273.93 1446.8L1321.48 1462.25L1243.02 1541.91Z" fill="#FBD324"/>
<path d="M1243.02 1541.91L1323.93 1483.13L1294.54 1442.67L1243.02 1541.91Z" fill="#FBD324"/>
<path d="M1092.8 1468L1061.9 1563.11L1109.46 1578.56L1092.8 1468Z" fill="#FBD324"/>
<path d="M1092.8 1468L1123.71 1563.11L1076.15 1578.56L1092.8 1468Z" fill="#FBD324"/>
<path d="M1187.91 1537.1H1087.91V1587.1L1187.91 1537.1Z" fill="#FBD324"/>
<path d="M1187.91 1537.1L1107.01 1595.88L1077.62 1555.43L1187.91 1537.1Z" fill="#FBD324"/>
<path d="M1151.59 1648.91L1120.68 1553.8L1073.13 1569.25L1151.59 1648.91Z" fill="#FBD324"/>
<path d="M1151.59 1648.91L1070.68 1590.13L1100.07 1549.68L1151.59 1648.91Z" fill="#FBD324"/>
<path d="M997.695 1537.1H1097.7V1587.1L997.695 1537.1Z" fill="#FBD324"/>
<path d="M997.695 1537.1L1078.6 1595.88L1107.99 1555.43L997.695 1537.1Z" fill="#FBD324"/>
<path d="M1034.02 1648.91L1064.93 1553.8L1112.48 1569.25L1034.02 1648.91Z" fill="#FBD324"/>
<path d="M1034.02 1648.91L1114.93 1590.13L1085.54 1549.67L1034.02 1648.91Z" fill="#FBD324"/>
<path d="M861.804 1504L830.901 1599.11L878.456 1614.56L861.804 1504Z" fill="#FBD324"/>
<path d="M861.804 1504L892.707 1599.11L845.153 1614.56L861.804 1504Z" fill="#FBD324"/>
<path d="M956.915 1573.1H856.911V1623.1L956.915 1573.1Z" fill="#FBD324"/>
<path d="M956.915 1573.1L876.01 1631.88L846.619 1591.43L956.915 1573.1Z" fill="#FBD324"/>
<path d="M920.586 1684.91L889.683 1589.8L842.128 1605.25L920.586 1684.91Z" fill="#FBD324"/>
<path d="M920.586 1684.91L839.681 1626.13L869.071 1585.68L920.586 1684.91Z" fill="#FBD324"/>
<path d="M766.695 1573.1H866.699V1623.1L766.695 1573.1Z" fill="#FBD324"/>
<path d="M766.695 1573.1L847.6 1631.88L876.991 1591.43L766.695 1573.1Z" fill="#FBD324"/>
<path d="M803.024 1684.91L833.927 1589.8L881.482 1605.25L803.024 1684.91Z" fill="#FBD324"/>
<path d="M803.024 1684.91L883.929 1626.13L854.538 1585.67L803.024 1684.91Z" fill="#FBD324"/>
<path d="M628.804 1468L597.901 1563.11L645.456 1578.56L628.804 1468Z" fill="#FBD324"/>
<path d="M628.804 1468L659.707 1563.11L612.153 1578.56L628.804 1468Z" fill="#FBD324"/>
<path d="M723.915 1537.1H623.911V1587.1L723.915 1537.1Z" fill="#FBD324"/>
<path d="M723.915 1537.1L643.01 1595.88L613.619 1555.43L723.915 1537.1Z" fill="#FBD324"/>
<path d="M687.586 1648.91L656.683 1553.8L609.128 1569.25L687.586 1648.91Z" fill="#FBD324"/>
<path d="M687.586 1648.91L606.681 1590.13L636.071 1549.68L687.586 1648.91Z" fill="#FBD324"/>
<path d="M533.695 1537.1H633.699V1587.1L533.695 1537.1Z" fill="#FBD324"/>
<path d="M533.695 1537.1L614.6 1595.88L643.991 1555.43L533.695 1537.1Z" fill="#FBD324"/>
<path d="M570.024 1648.91L600.927 1553.8L648.482 1569.25L570.024 1648.91Z" fill="#FBD324"/>
<path d="M570.024 1648.91L650.929 1590.13L621.538 1549.67L570.024 1648.91Z" fill="#FBD324"/>
<path d="M419.804 1361L388.901 1456.11L436.456 1471.56L419.804 1361Z" fill="#FBD324"/>
<path d="M419.804 1361L450.707 1456.11L403.153 1471.56L419.804 1361Z" fill="#FBD324"/>
<path d="M514.915 1430.1H414.911V1480.1L514.915 1430.1Z" fill="#FBD324"/>
<path d="M514.915 1430.1L434.01 1488.88L404.619 1448.43L514.915 1430.1Z" fill="#FBD324"/>
<path d="M478.586 1541.91L447.683 1446.8L400.128 1462.25L478.586 1541.91Z" fill="#FBD324"/>
<path d="M478.586 1541.91L397.681 1483.13L427.071 1442.68L478.586 1541.91Z" fill="#FBD324"/>
<path d="M324.695 1430.1H424.699V1480.1L324.695 1430.1Z" fill="#FBD324"/>
<path d="M324.695 1430.1L405.6 1488.88L434.991 1448.43L324.695 1430.1Z" fill="#FBD324"/>
<path d="M361.024 1541.91L391.927 1446.8L439.482 1462.25L361.024 1541.91Z" fill="#FBD324"/>
<path d="M361.024 1541.91L441.929 1483.13L412.538 1442.67L361.024 1541.91Z" fill="#FBD324"/>
<path d="M252.804 1195L221.901 1290.11L269.456 1305.56L252.804 1195Z" fill="#FBD324"/>
<path d="M252.804 1195L283.707 1290.11L236.153 1305.56L252.804 1195Z" fill="#FBD324"/>
<path d="M347.915 1264.1H247.911V1314.1L347.915 1264.1Z" fill="#FBD324"/>
<path d="M347.915 1264.1L267.01 1322.88L237.619 1282.43L347.915 1264.1Z" fill="#FBD324"/>
<path d="M311.586 1375.91L280.683 1280.8L233.128 1296.25L311.586 1375.91Z" fill="#FBD324"/>
<path d="M311.586 1375.91L230.681 1317.13L260.071 1276.68L311.586 1375.91Z" fill="#FBD324"/>
<path d="M157.695 1264.1H257.699V1314.1L157.695 1264.1Z" fill="#FBD324"/>
<path d="M157.695 1264.1L238.6 1322.88L267.991 1282.43L157.695 1264.1Z" fill="#FBD324"/>
<path d="M194.024 1375.91L224.927 1280.8L272.482 1296.25L194.024 1375.91Z" fill="#FBD324"/>
<path d="M194.024 1375.91L274.929 1317.13L245.538 1276.67L194.024 1375.91Z" fill="#FBD324"/>
<path d="M146.804 986L115.901 1081.11L163.456 1096.56L146.804 986Z" fill="#FBD324"/>
<path d="M146.804 986L177.707 1081.11L130.153 1096.56L146.804 986Z" fill="#FBD324"/>
<path d="M241.915 1055.1H141.911V1105.1L241.915 1055.1Z" fill="#FBD324"/>
<path d="M241.915 1055.1L161.01 1113.88L131.619 1073.43L241.915 1055.1Z" fill="#FBD324"/>
<path d="M205.586 1166.91L174.683 1071.8L127.128 1087.25L205.586 1166.91Z" fill="#FBD324"/>
<path d="M205.586 1166.91L124.681 1108.13L154.071 1067.68L205.586 1166.91Z" fill="#FBD324"/>
<path d="M51.6952 1055.1H151.699V1105.1L51.6952 1055.1Z" fill="#FBD324"/>
<path d="M51.6952 1055.1L132.6 1113.88L161.991 1073.43L51.6952 1055.1Z" fill="#FBD324"/>
<path d="M88.0238 1166.91L118.927 1071.8L166.482 1087.25L88.0238 1166.91Z" fill="#FBD324"/>
<path d="M88.0238 1166.91L168.929 1108.13L139.538 1067.67L88.0238 1166.91Z" fill="#FBD324"/>
<path d="M109.804 754L78.9014 849.11L126.456 864.561L109.804 754Z" fill="#FBD324"/>
<path d="M109.804 754L140.707 849.11L93.1526 864.561L109.804 754Z" fill="#FBD324"/>
<path d="M204.915 823.1H104.911V873.102L204.915 823.1Z" fill="#FBD324"/>
<path d="M204.915 823.1L124.01 881.881L94.6191 841.429L204.915 823.1Z" fill="#FBD324"/>
<path d="M168.586 934.909L137.683 839.799L90.1279 855.25L168.586 934.909Z" fill="#FBD324"/>
<path d="M168.586 934.909L87.6806 876.128L117.071 835.675L168.586 934.909Z" fill="#FBD324"/>
<path d="M14.6952 823.1H114.699V873.102L14.6952 823.1Z" fill="#FBD324"/>
<path d="M14.6952 823.1L95.6004 881.881L124.991 841.429L14.6952 823.1Z" fill="#FBD324"/>
<path d="M51.0238 934.909L81.9269 839.799L129.482 855.25L51.0238 934.909Z" fill="#FBD324"/>
<path d="M51.0238 934.909L131.929 876.127L102.538 835.675L51.0238 934.909Z" fill="#FBD324"/>
<path d="M146.804 522L115.901 617.11L163.456 632.561L146.804 522Z" fill="#FBD324"/>
<path d="M146.804 522L177.707 617.11L130.153 632.561L146.804 522Z" fill="#FBD324"/>
<path d="M241.915 591.1H141.911V641.102L241.915 591.1Z" fill="#FBD324"/>
<path d="M241.915 591.1L161.01 649.881L131.619 609.429L241.915 591.1Z" fill="#FBD324"/>
<path d="M205.586 702.909L174.683 607.799L127.128 623.25L205.586 702.909Z" fill="#FBD324"/>
<path d="M205.586 702.909L124.681 644.128L154.071 603.675L205.586 702.909Z" fill="#FBD324"/>
<path d="M51.6952 591.1H151.699V641.102L51.6952 591.1Z" fill="#FBD324"/>
<path d="M51.6952 591.1L132.6 649.881L161.991 609.429L51.6952 591.1Z" fill="#FBD324"/>
<path d="M88.0238 702.909L118.927 607.799L166.482 623.25L88.0238 702.909Z" fill="#FBD324"/>
<path d="M88.0238 702.909L168.929 644.127L139.538 603.675L88.0238 702.909Z" fill="#FBD324"/>
<path d="M253.804 313L222.901 408.11L270.456 423.561L253.804 313Z" fill="#FBD324"/>
<path d="M253.804 313L284.707 408.11L237.153 423.561L253.804 313Z" fill="#FBD324"/>
<path d="M348.915 382.1H248.911V432.102L348.915 382.1Z" fill="#FBD324"/>
<path d="M348.915 382.1L268.01 440.881L238.619 400.429L348.915 382.1Z" fill="#FBD324"/>
<path d="M312.586 493.909L281.683 398.799L234.128 414.25L312.586 493.909Z" fill="#FBD324"/>
<path d="M312.586 493.909L231.681 435.128L261.071 394.675L312.586 493.909Z" fill="#FBD324"/>
<path d="M158.695 382.1H258.699V432.102L158.695 382.1Z" fill="#FBD324"/>
<path d="M158.695 382.1L239.6 440.881L268.991 400.429L158.695 382.1Z" fill="#FBD324"/>
<path d="M195.024 493.909L225.927 398.799L273.482 414.25L195.024 493.909Z" fill="#FBD324"/>
<path d="M195.024 493.909L275.929 435.127L246.538 394.675L195.024 493.909Z" fill="#FBD324"/>
<path d="M419.804 147L388.901 242.11L436.456 257.561L419.804 147Z" fill="#FBD324"/>
<path d="M419.804 147L450.707 242.11L403.153 257.561L419.804 147Z" fill="#FBD324"/>
<path d="M514.915 216.1H414.911V266.102L514.915 216.1Z" fill="#FBD324"/>
<path d="M514.915 216.1L434.01 274.881L404.619 234.429L514.915 216.1Z" fill="#FBD324"/>
<path d="M478.586 327.909L447.683 232.799L400.128 248.25L478.586 327.909Z" fill="#FBD324"/>
<path d="M478.586 327.909L397.681 269.128L427.071 228.675L478.586 327.909Z" fill="#FBD324"/>
<path d="M324.695 216.1H424.699V266.102L324.695 216.1Z" fill="#FBD324"/>
<path d="M324.695 216.1L405.6 274.881L434.991 234.429L324.695 216.1Z" fill="#FBD324"/>
<path d="M361.024 327.909L391.927 232.799L439.482 248.25L361.024 327.909Z" fill="#FBD324"/>
<path d="M361.024 327.909L441.929 269.127L412.538 228.675L361.024 327.909Z" fill="#FBD324"/>
<path d="M628.804 41L597.901 136.11L645.456 151.561L628.804 41Z" fill="#FBD324"/>
<path d="M628.804 41L659.707 136.11L612.153 151.561L628.804 41Z" fill="#FBD324"/>
<path d="M723.915 110.1H623.911V160.102L723.915 110.1Z" fill="#FBD324"/>
<path d="M723.915 110.1L643.01 168.881L613.619 128.429L723.915 110.1Z" fill="#FBD324"/>
<path d="M687.586 221.909L656.683 126.799L609.128 142.25L687.586 221.909Z" fill="#FBD324"/>
<path d="M687.586 221.909L606.681 163.128L636.071 122.675L687.586 221.909Z" fill="#FBD324"/>
<path d="M533.695 110.1H633.699V160.102L533.695 110.1Z" fill="#FBD324"/>
<path d="M533.695 110.1L614.6 168.881L643.991 128.429L533.695 110.1Z" fill="#FBD324"/>
<path d="M570.024 221.909L600.927 126.799L648.482 142.25L570.024 221.909Z" fill="#FBD324"/>
<path d="M570.024 221.909L650.929 163.127L621.538 122.675L570.024 221.909Z" fill="#FBD324"/>
<path d="M859.804 4L828.901 99.1098L876.456 114.561L859.804 4Z" fill="#FBD324"/>
<path d="M859.804 4L890.707 99.1098L843.153 114.561L859.804 4Z" fill="#FBD324"/>
<path d="M954.915 73.1003H854.911V123.102L954.915 73.1003Z" fill="#FBD324"/>
<path d="M954.915 73.1003L874.01 131.881L844.619 91.4287L954.915 73.1003Z" fill="#FBD324"/>
<path d="M918.586 184.909L887.683 89.7989L840.128 105.25L918.586 184.909Z" fill="#FBD324"/>
<path d="M918.586 184.909L837.681 126.128L867.071 85.675L918.586 184.909Z" fill="#FBD324"/>
<path d="M764.695 73.1H864.699V123.102L764.695 73.1Z" fill="#FBD324"/>
<path d="M764.695 73.1L845.6 131.881L874.991 91.4285L764.695 73.1Z" fill="#FBD324"/>
<path d="M801.024 184.909L831.927 89.7988L879.482 105.25L801.024 184.909Z" fill="#FBD324"/>
<path d="M801.024 184.909L881.929 126.127L852.538 85.6749L801.024 184.909Z" fill="#FBD324"/>
<path d="M1092.8 41L1061.9 136.11L1109.46 151.561L1092.8 41Z" fill="#FBD324"/>
<path d="M1092.8 41L1123.71 136.11L1076.15 151.561L1092.8 41Z" fill="#FBD324"/>
<path d="M1187.91 110.1H1087.91V160.102L1187.91 110.1Z" fill="#FBD324"/>
<path d="M1187.91 110.1L1107.01 168.881L1077.62 128.429L1187.91 110.1Z" fill="#FBD324"/>
<path d="M1151.59 221.909L1120.68 126.799L1073.13 142.25L1151.59 221.909Z" fill="#FBD324"/>
<path d="M1151.59 221.909L1070.68 163.128L1100.07 122.675L1151.59 221.909Z" fill="#FBD324"/>
<path d="M997.695 110.1H1097.7V160.102L997.695 110.1Z" fill="#FBD324"/>
<path d="M997.695 110.1L1078.6 168.881L1107.99 128.429L997.695 110.1Z" fill="#FBD324"/>
<path d="M1034.02 221.909L1064.93 126.799L1112.48 142.25L1034.02 221.909Z" fill="#FBD324"/>
<path d="M1034.02 221.909L1114.93 163.127L1085.54 122.675L1034.02 221.909Z" fill="#FBD324"/>
<circle cx="860" cy="856" r="440" stroke="#FBD324" stroke-width="20"/>
</g>
<defs>
<clipPath id="clip0_2451_82">
<rect width="1720" height="1713" fill="white"/>
</clipPath>
</defs>
</svg>
