<svg width="3000" height="2000" viewBox="0 0 3000 2000" fill="none" xmlns="http://www.w3.org/2000/svg">
<rect width="3000" height="2000" fill="white"/>
<g clip-path="url(#clip0_2_252)">
<path d="M1941.8 290L1910.9 385.11L1958.46 400.561L1941.8 290Z" fill="#FBD324"/>
<path d="M1941.8 290L1972.71 385.11L1925.15 400.561L1941.8 290Z" fill="#FBD324"/>
<path d="M2036.91 359.1H1936.91V409.102L2036.91 359.1Z" fill="#FBD324"/>
<path d="M2036.91 359.1L1956.01 417.881L1926.62 377.429L2036.91 359.1Z" fill="#FBD324"/>
<path d="M2000.59 470.909L1969.68 375.799L1922.13 391.25L2000.59 470.909Z" fill="#FBD324"/>
<path d="M2000.59 470.909L1919.68 412.128L1949.07 371.675L2000.59 470.909Z" fill="#FBD324"/>
<path d="M1846.7 359.1H1946.7V409.102L1846.7 359.1Z" fill="#FBD324"/>
<path d="M1846.7 359.1L1927.6 417.881L1956.99 377.429L1846.7 359.1Z" fill="#FBD324"/>
<path d="M1883.02 470.909L1913.93 375.799L1961.48 391.25L1883.02 470.909Z" fill="#FBD324"/>
<path d="M1883.02 470.909L1963.93 412.127L1934.54 371.675L1883.02 470.909Z" fill="#FBD324"/>
<path d="M2106.8 456L2075.9 551.11L2123.46 566.561L2106.8 456Z" fill="#FBD324"/>
<path d="M2106.8 456L2137.71 551.11L2090.15 566.561L2106.8 456Z" fill="#FBD324"/>
<path d="M2201.91 525.1H2101.91V575.102L2201.91 525.1Z" fill="#FBD324"/>
<path d="M2201.91 525.1L2121.01 583.881L2091.62 543.429L2201.91 525.1Z" fill="#FBD324"/>
<path d="M2165.59 636.909L2134.68 541.799L2087.13 557.25L2165.59 636.909Z" fill="#FBD324"/>
<path d="M2165.59 636.909L2084.68 578.128L2114.07 537.675L2165.59 636.909Z" fill="#FBD324"/>
<path d="M2011.7 525.1H2111.7V575.102L2011.7 525.1Z" fill="#FBD324"/>
<path d="M2011.7 525.1L2092.6 583.881L2121.99 543.429L2011.7 525.1Z" fill="#FBD324"/>
<path d="M2048.02 636.909L2078.93 541.799L2126.48 557.25L2048.02 636.909Z" fill="#FBD324"/>
<path d="M2048.02 636.909L2128.93 578.127L2099.54 537.675L2048.02 636.909Z" fill="#FBD324"/>
<path d="M2213.8 665L2182.9 760.11L2230.46 775.561L2213.8 665Z" fill="#FBD324"/>
<path d="M2213.8 665L2244.71 760.11L2197.15 775.561L2213.8 665Z" fill="#FBD324"/>
<path d="M2308.91 734.1H2208.91V784.102L2308.91 734.1Z" fill="#FBD324"/>
<path d="M2308.91 734.1L2228.01 792.881L2198.62 752.429L2308.91 734.1Z" fill="#FBD324"/>
<path d="M2272.59 845.909L2241.68 750.799L2194.13 766.25L2272.59 845.909Z" fill="#FBD324"/>
<path d="M2272.59 845.909L2191.68 787.128L2221.07 746.675L2272.59 845.909Z" fill="#FBD324"/>
<path d="M2118.7 734.1H2218.7V784.102L2118.7 734.1Z" fill="#FBD324"/>
<path d="M2118.7 734.1L2199.6 792.881L2228.99 752.429L2118.7 734.1Z" fill="#FBD324"/>
<path d="M2155.02 845.909L2185.93 750.799L2233.48 766.25L2155.02 845.909Z" fill="#FBD324"/>
<path d="M2155.02 845.909L2235.93 787.127L2206.54 746.675L2155.02 845.909Z" fill="#FBD324"/>
<path d="M2249.8 897L2218.9 992.11L2266.46 1007.56L2249.8 897Z" fill="#FBD324"/>
<path d="M2249.8 897L2280.71 992.11L2233.15 1007.56L2249.8 897Z" fill="#FBD324"/>
<path d="M2344.91 966.1H2244.91V1016.1L2344.91 966.1Z" fill="#FBD324"/>
<path d="M2344.91 966.1L2264.01 1024.88L2234.62 984.429L2344.91 966.1Z" fill="#FBD324"/>
<path d="M2308.59 1077.91L2277.68 982.799L2230.13 998.25L2308.59 1077.91Z" fill="#FBD324"/>
<path d="M2308.59 1077.91L2227.68 1019.13L2257.07 978.675L2308.59 1077.91Z" fill="#FBD324"/>
<path d="M2154.7 966.1H2254.7V1016.1L2154.7 966.1Z" fill="#FBD324"/>
<path d="M2154.7 966.1L2235.6 1024.88L2264.99 984.429L2154.7 966.1Z" fill="#FBD324"/>
<path d="M2191.02 1077.91L2221.93 982.799L2269.48 998.25L2191.02 1077.91Z" fill="#FBD324"/>
<path d="M2191.02 1077.91L2271.93 1019.13L2242.54 978.675L2191.02 1077.91Z" fill="#FBD324"/>
<path d="M2213.8 1129L2182.9 1224.11L2230.46 1239.56L2213.8 1129Z" fill="#FBD324"/>
<path d="M2213.8 1129L2244.71 1224.11L2197.15 1239.56L2213.8 1129Z" fill="#FBD324"/>
<path d="M2308.91 1198.1H2208.91V1248.1L2308.91 1198.1Z" fill="#FBD324"/>
<path d="M2308.91 1198.1L2228.01 1256.88L2198.62 1216.43L2308.91 1198.1Z" fill="#FBD324"/>
<path d="M2272.59 1309.91L2241.68 1214.8L2194.13 1230.25L2272.59 1309.91Z" fill="#FBD324"/>
<path d="M2272.59 1309.91L2191.68 1251.13L2221.07 1210.68L2272.59 1309.91Z" fill="#FBD324"/>
<path d="M2118.7 1198.1H2218.7V1248.1L2118.7 1198.1Z" fill="#FBD324"/>
<path d="M2118.7 1198.1L2199.6 1256.88L2228.99 1216.43L2118.7 1198.1Z" fill="#FBD324"/>
<path d="M2155.02 1309.91L2185.93 1214.8L2233.48 1230.25L2155.02 1309.91Z" fill="#FBD324"/>
<path d="M2155.02 1309.91L2235.93 1251.13L2206.54 1210.67L2155.02 1309.91Z" fill="#FBD324"/>
<path d="M2107.8 1338L2076.9 1433.11L2124.46 1448.56L2107.8 1338Z" fill="#FBD324"/>
<path d="M2107.8 1338L2138.71 1433.11L2091.15 1448.56L2107.8 1338Z" fill="#FBD324"/>
<path d="M2202.91 1407.1H2102.91V1457.1L2202.91 1407.1Z" fill="#FBD324"/>
<path d="M2202.91 1407.1L2122.01 1465.88L2092.62 1425.43L2202.91 1407.1Z" fill="#FBD324"/>
<path d="M2166.59 1518.91L2135.68 1423.8L2088.13 1439.25L2166.59 1518.91Z" fill="#FBD324"/>
<path d="M2166.59 1518.91L2085.68 1460.13L2115.07 1419.68L2166.59 1518.91Z" fill="#FBD324"/>
<path d="M2012.7 1407.1H2112.7V1457.1L2012.7 1407.1Z" fill="#FBD324"/>
<path d="M2012.7 1407.1L2093.6 1465.88L2122.99 1425.43L2012.7 1407.1Z" fill="#FBD324"/>
<path d="M2049.02 1518.91L2079.93 1423.8L2127.48 1439.25L2049.02 1518.91Z" fill="#FBD324"/>
<path d="M2049.02 1518.91L2129.93 1460.13L2100.54 1419.67L2049.02 1518.91Z" fill="#FBD324"/>
<path d="M1941.8 1504L1910.9 1599.11L1958.46 1614.56L1941.8 1504Z" fill="#FBD324"/>
<path d="M1941.8 1504L1972.71 1599.11L1925.15 1614.56L1941.8 1504Z" fill="#FBD324"/>
<path d="M2036.91 1573.1H1936.91V1623.1L2036.91 1573.1Z" fill="#FBD324"/>
<path d="M2036.91 1573.1L1956.01 1631.88L1926.62 1591.43L2036.91 1573.1Z" fill="#FBD324"/>
<path d="M2000.59 1684.91L1969.68 1589.8L1922.13 1605.25L2000.59 1684.91Z" fill="#FBD324"/>
<path d="M2000.59 1684.91L1919.68 1626.13L1949.07 1585.68L2000.59 1684.91Z" fill="#FBD324"/>
<path d="M1846.7 1573.1H1946.7V1623.1L1846.7 1573.1Z" fill="#FBD324"/>
<path d="M1846.7 1573.1L1927.6 1631.88L1956.99 1591.43L1846.7 1573.1Z" fill="#FBD324"/>
<path d="M1883.02 1684.91L1913.93 1589.8L1961.48 1605.25L1883.02 1684.91Z" fill="#FBD324"/>
<path d="M1883.02 1684.91L1963.93 1626.13L1934.54 1585.67L1883.02 1684.91Z" fill="#FBD324"/>
<path d="M1732.8 1611L1701.9 1706.11L1749.46 1721.56L1732.8 1611Z" fill="#FBD324"/>
<path d="M1732.8 1611L1763.71 1706.11L1716.15 1721.56L1732.8 1611Z" fill="#FBD324"/>
<path d="M1827.91 1680.1H1727.91V1730.1L1827.91 1680.1Z" fill="#FBD324"/>
<path d="M1827.91 1680.1L1747.01 1738.88L1717.62 1698.43L1827.91 1680.1Z" fill="#FBD324"/>
<path d="M1791.59 1791.91L1760.68 1696.8L1713.13 1712.25L1791.59 1791.91Z" fill="#FBD324"/>
<path d="M1791.59 1791.91L1710.68 1733.13L1740.07 1692.68L1791.59 1791.91Z" fill="#FBD324"/>
<path d="M1637.7 1680.1H1737.7V1730.1L1637.7 1680.1Z" fill="#FBD324"/>
<path d="M1637.7 1680.1L1718.6 1738.88L1747.99 1698.43L1637.7 1680.1Z" fill="#FBD324"/>
<path d="M1674.02 1791.91L1704.93 1696.8L1752.48 1712.25L1674.02 1791.91Z" fill="#FBD324"/>
<path d="M1674.02 1791.91L1754.93 1733.13L1725.54 1692.67L1674.02 1791.91Z" fill="#FBD324"/>
<path d="M1501.8 1647L1470.9 1742.11L1518.46 1757.56L1501.8 1647Z" fill="#FBD324"/>
<path d="M1501.8 1647L1532.71 1742.11L1485.15 1757.56L1501.8 1647Z" fill="#FBD324"/>
<path d="M1596.91 1716.1H1496.91V1766.1L1596.91 1716.1Z" fill="#FBD324"/>
<path d="M1596.91 1716.1L1516.01 1774.88L1486.62 1734.43L1596.91 1716.1Z" fill="#FBD324"/>
<path d="M1560.59 1827.91L1529.68 1732.8L1482.13 1748.25L1560.59 1827.91Z" fill="#FBD324"/>
<path d="M1560.59 1827.91L1479.68 1769.13L1509.07 1728.68L1560.59 1827.91Z" fill="#FBD324"/>
<path d="M1406.7 1716.1H1506.7V1766.1L1406.7 1716.1Z" fill="#FBD324"/>
<path d="M1406.7 1716.1L1487.6 1774.88L1516.99 1734.43L1406.7 1716.1Z" fill="#FBD324"/>
<path d="M1443.02 1827.91L1473.93 1732.8L1521.48 1748.25L1443.02 1827.91Z" fill="#FBD324"/>
<path d="M1443.02 1827.91L1523.93 1769.13L1494.54 1728.67L1443.02 1827.91Z" fill="#FBD324"/>
<path d="M1268.8 1611L1237.9 1706.11L1285.46 1721.56L1268.8 1611Z" fill="#FBD324"/>
<path d="M1268.8 1611L1299.71 1706.11L1252.15 1721.56L1268.8 1611Z" fill="#FBD324"/>
<path d="M1363.91 1680.1H1263.91V1730.1L1363.91 1680.1Z" fill="#FBD324"/>
<path d="M1363.91 1680.1L1283.01 1738.88L1253.62 1698.43L1363.91 1680.1Z" fill="#FBD324"/>
<path d="M1327.59 1791.91L1296.68 1696.8L1249.13 1712.25L1327.59 1791.91Z" fill="#FBD324"/>
<path d="M1327.59 1791.91L1246.68 1733.13L1276.07 1692.68L1327.59 1791.91Z" fill="#FBD324"/>
<path d="M1173.7 1680.1H1273.7V1730.1L1173.7 1680.1Z" fill="#FBD324"/>
<path d="M1173.7 1680.1L1254.6 1738.88L1283.99 1698.43L1173.7 1680.1Z" fill="#FBD324"/>
<path d="M1210.02 1791.91L1240.93 1696.8L1288.48 1712.25L1210.02 1791.91Z" fill="#FBD324"/>
<path d="M1210.02 1791.91L1290.93 1733.13L1261.54 1692.67L1210.02 1791.91Z" fill="#FBD324"/>
<path d="M1059.8 1504L1028.9 1599.11L1076.46 1614.56L1059.8 1504Z" fill="#FBD324"/>
<path d="M1059.8 1504L1090.71 1599.11L1043.15 1614.56L1059.8 1504Z" fill="#FBD324"/>
<path d="M1154.91 1573.1H1054.91V1623.1L1154.91 1573.1Z" fill="#FBD324"/>
<path d="M1154.91 1573.1L1074.01 1631.88L1044.62 1591.43L1154.91 1573.1Z" fill="#FBD324"/>
<path d="M1118.59 1684.91L1087.68 1589.8L1040.13 1605.25L1118.59 1684.91Z" fill="#FBD324"/>
<path d="M1118.59 1684.91L1037.68 1626.13L1067.07 1585.68L1118.59 1684.91Z" fill="#FBD324"/>
<path d="M964.695 1573.1H1064.7V1623.1L964.695 1573.1Z" fill="#FBD324"/>
<path d="M964.695 1573.1L1045.6 1631.88L1074.99 1591.43L964.695 1573.1Z" fill="#FBD324"/>
<path d="M1001.02 1684.91L1031.93 1589.8L1079.48 1605.25L1001.02 1684.91Z" fill="#FBD324"/>
<path d="M1001.02 1684.91L1081.93 1626.13L1052.54 1585.67L1001.02 1684.91Z" fill="#FBD324"/>
<path d="M892.805 1338L861.902 1433.11L909.456 1448.56L892.805 1338Z" fill="#FBD324"/>
<path d="M892.805 1338L923.708 1433.11L876.153 1448.56L892.805 1338Z" fill="#FBD324"/>
<path d="M987.915 1407.1H887.911V1457.1L987.915 1407.1Z" fill="#FBD324"/>
<path d="M987.915 1407.1L907.01 1465.88L877.619 1425.43L987.915 1407.1Z" fill="#FBD324"/>
<path d="M951.586 1518.91L920.683 1423.8L873.128 1439.25L951.586 1518.91Z" fill="#FBD324"/>
<path d="M951.586 1518.91L870.681 1460.13L900.071 1419.68L951.586 1518.91Z" fill="#FBD324"/>
<path d="M797.695 1407.1H897.7V1457.1L797.695 1407.1Z" fill="#FBD324"/>
<path d="M797.695 1407.1L878.601 1465.88L907.991 1425.43L797.695 1407.1Z" fill="#FBD324"/>
<path d="M834.024 1518.91L864.927 1423.8L912.482 1439.25L834.024 1518.91Z" fill="#FBD324"/>
<path d="M834.024 1518.91L914.929 1460.13L885.539 1419.67L834.024 1518.91Z" fill="#FBD324"/>
<path d="M786.805 1129L755.902 1224.11L803.456 1239.56L786.805 1129Z" fill="#FBD324"/>
<path d="M786.805 1129L817.708 1224.11L770.153 1239.56L786.805 1129Z" fill="#FBD324"/>
<path d="M881.915 1198.1H781.911V1248.1L881.915 1198.1Z" fill="#FBD324"/>
<path d="M881.915 1198.1L801.01 1256.88L771.619 1216.43L881.915 1198.1Z" fill="#FBD324"/>
<path d="M845.586 1309.91L814.683 1214.8L767.128 1230.25L845.586 1309.91Z" fill="#FBD324"/>
<path d="M845.586 1309.91L764.681 1251.13L794.071 1210.68L845.586 1309.91Z" fill="#FBD324"/>
<path d="M691.695 1198.1H791.7V1248.1L691.695 1198.1Z" fill="#FBD324"/>
<path d="M691.695 1198.1L772.601 1256.88L801.991 1216.43L691.695 1198.1Z" fill="#FBD324"/>
<path d="M728.024 1309.91L758.927 1214.8L806.482 1230.25L728.024 1309.91Z" fill="#FBD324"/>
<path d="M728.024 1309.91L808.929 1251.13L779.539 1210.67L728.024 1309.91Z" fill="#FBD324"/>
<path d="M749.805 897L718.902 992.11L766.456 1007.56L749.805 897Z" fill="#FBD324"/>
<path d="M749.805 897L780.708 992.11L733.153 1007.56L749.805 897Z" fill="#FBD324"/>
<path d="M844.915 966.1H744.911V1016.1L844.915 966.1Z" fill="#FBD324"/>
<path d="M844.915 966.1L764.01 1024.88L734.619 984.429L844.915 966.1Z" fill="#FBD324"/>
<path d="M808.586 1077.91L777.683 982.799L730.128 998.25L808.586 1077.91Z" fill="#FBD324"/>
<path d="M808.586 1077.91L727.681 1019.13L757.071 978.675L808.586 1077.91Z" fill="#FBD324"/>
<path d="M654.695 966.1H754.7V1016.1L654.695 966.1Z" fill="#FBD324"/>
<path d="M654.695 966.1L735.601 1024.88L764.991 984.429L654.695 966.1Z" fill="#FBD324"/>
<path d="M691.024 1077.91L721.927 982.799L769.482 998.25L691.024 1077.91Z" fill="#FBD324"/>
<path d="M691.024 1077.91L771.929 1019.13L742.539 978.675L691.024 1077.91Z" fill="#FBD324"/>
<path d="M786.805 665L755.902 760.11L803.456 775.561L786.805 665Z" fill="#FBD324"/>
<path d="M786.805 665L817.708 760.11L770.153 775.561L786.805 665Z" fill="#FBD324"/>
<path d="M881.915 734.1H781.911V784.102L881.915 734.1Z" fill="#FBD324"/>
<path d="M881.915 734.1L801.01 792.881L771.619 752.429L881.915 734.1Z" fill="#FBD324"/>
<path d="M845.586 845.909L814.683 750.799L767.128 766.25L845.586 845.909Z" fill="#FBD324"/>
<path d="M845.586 845.909L764.681 787.128L794.071 746.675L845.586 845.909Z" fill="#FBD324"/>
<path d="M691.695 734.1H791.7V784.102L691.695 734.1Z" fill="#FBD324"/>
<path d="M691.695 734.1L772.601 792.881L801.991 752.429L691.695 734.1Z" fill="#FBD324"/>
<path d="M728.024 845.909L758.927 750.799L806.482 766.25L728.024 845.909Z" fill="#FBD324"/>
<path d="M728.024 845.909L808.929 787.127L779.539 746.675L728.024 845.909Z" fill="#FBD324"/>
<path d="M893.805 456L862.902 551.11L910.456 566.561L893.805 456Z" fill="#FBD324"/>
<path d="M893.805 456L924.708 551.11L877.153 566.561L893.805 456Z" fill="#FBD324"/>
<path d="M988.915 525.1H888.911V575.102L988.915 525.1Z" fill="#FBD324"/>
<path d="M988.915 525.1L908.01 583.881L878.619 543.429L988.915 525.1Z" fill="#FBD324"/>
<path d="M952.586 636.909L921.683 541.799L874.128 557.25L952.586 636.909Z" fill="#FBD324"/>
<path d="M952.586 636.909L871.681 578.128L901.071 537.675L952.586 636.909Z" fill="#FBD324"/>
<path d="M798.695 525.1H898.7V575.102L798.695 525.1Z" fill="#FBD324"/>
<path d="M798.695 525.1L879.601 583.881L908.991 543.429L798.695 525.1Z" fill="#FBD324"/>
<path d="M835.024 636.909L865.927 541.799L913.482 557.25L835.024 636.909Z" fill="#FBD324"/>
<path d="M835.024 636.909L915.929 578.127L886.539 537.675L835.024 636.909Z" fill="#FBD324"/>
<path d="M1059.8 290L1028.9 385.11L1076.46 400.561L1059.8 290Z" fill="#FBD324"/>
<path d="M1059.8 290L1090.71 385.11L1043.15 400.561L1059.8 290Z" fill="#FBD324"/>
<path d="M1154.91 359.1H1054.91V409.102L1154.91 359.1Z" fill="#FBD324"/>
<path d="M1154.91 359.1L1074.01 417.881L1044.62 377.429L1154.91 359.1Z" fill="#FBD324"/>
<path d="M1118.59 470.909L1087.68 375.799L1040.13 391.25L1118.59 470.909Z" fill="#FBD324"/>
<path d="M1118.59 470.909L1037.68 412.128L1067.07 371.675L1118.59 470.909Z" fill="#FBD324"/>
<path d="M964.695 359.1H1064.7V409.102L964.695 359.1Z" fill="#FBD324"/>
<path d="M964.695 359.1L1045.6 417.881L1074.99 377.429L964.695 359.1Z" fill="#FBD324"/>
<path d="M1001.02 470.909L1031.93 375.799L1079.48 391.25L1001.02 470.909Z" fill="#FBD324"/>
<path d="M1001.02 470.909L1081.93 412.127L1052.54 371.675L1001.02 470.909Z" fill="#FBD324"/>
<path d="M1268.8 184L1237.9 279.11L1285.46 294.561L1268.8 184Z" fill="#FBD324"/>
<path d="M1268.8 184L1299.71 279.11L1252.15 294.561L1268.8 184Z" fill="#FBD324"/>
<path d="M1363.91 253.1H1263.91V303.102L1363.91 253.1Z" fill="#FBD324"/>
<path d="M1363.91 253.1L1283.01 311.881L1253.62 271.429L1363.91 253.1Z" fill="#FBD324"/>
<path d="M1327.59 364.909L1296.68 269.799L1249.13 285.25L1327.59 364.909Z" fill="#FBD324"/>
<path d="M1327.59 364.909L1246.68 306.128L1276.07 265.675L1327.59 364.909Z" fill="#FBD324"/>
<path d="M1173.7 253.1H1273.7V303.102L1173.7 253.1Z" fill="#FBD324"/>
<path d="M1173.7 253.1L1254.6 311.881L1283.99 271.429L1173.7 253.1Z" fill="#FBD324"/>
<path d="M1210.02 364.909L1240.93 269.799L1288.48 285.25L1210.02 364.909Z" fill="#FBD324"/>
<path d="M1210.02 364.909L1290.93 306.127L1261.54 265.675L1210.02 364.909Z" fill="#FBD324"/>
<path d="M1499.8 147L1468.9 242.11L1516.46 257.561L1499.8 147Z" fill="#FBD324"/>
<path d="M1499.8 147L1530.71 242.11L1483.15 257.561L1499.8 147Z" fill="#FBD324"/>
<path d="M1594.91 216.1H1494.91V266.102L1594.91 216.1Z" fill="#FBD324"/>
<path d="M1594.91 216.1L1514.01 274.881L1484.62 234.429L1594.91 216.1Z" fill="#FBD324"/>
<path d="M1558.59 327.909L1527.68 232.799L1480.13 248.25L1558.59 327.909Z" fill="#FBD324"/>
<path d="M1558.59 327.909L1477.68 269.128L1507.07 228.675L1558.59 327.909Z" fill="#FBD324"/>
<path d="M1404.7 216.1H1504.7V266.102L1404.7 216.1Z" fill="#FBD324"/>
<path d="M1404.7 216.1L1485.6 274.881L1514.99 234.429L1404.7 216.1Z" fill="#FBD324"/>
<path d="M1441.02 327.909L1471.93 232.799L1519.48 248.25L1441.02 327.909Z" fill="#FBD324"/>
<path d="M1441.02 327.909L1521.93 269.127L1492.54 228.675L1441.02 327.909Z" fill="#FBD324"/>
<path d="M1732.8 184L1701.9 279.11L1749.46 294.561L1732.8 184Z" fill="#FBD324"/>
<path d="M1732.8 184L1763.71 279.11L1716.15 294.561L1732.8 184Z" fill="#FBD324"/>
<path d="M1827.91 253.1H1727.91V303.102L1827.91 253.1Z" fill="#FBD324"/>
<path d="M1827.91 253.1L1747.01 311.881L1717.62 271.429L1827.91 253.1Z" fill="#FBD324"/>
<path d="M1791.59 364.909L1760.68 269.799L1713.13 285.25L1791.59 364.909Z" fill="#FBD324"/>
<path d="M1791.59 364.909L1710.68 306.128L1740.07 265.675L1791.59 364.909Z" fill="#FBD324"/>
<path d="M1637.7 253.1H1737.7V303.102L1637.7 253.1Z" fill="#FBD324"/>
<path d="M1637.7 253.1L1718.6 311.881L1747.99 271.429L1637.7 253.1Z" fill="#FBD324"/>
<path d="M1674.02 364.909L1704.93 269.799L1752.48 285.25L1674.02 364.909Z" fill="#FBD324"/>
<path d="M1674.02 364.909L1754.93 306.127L1725.54 265.675L1674.02 364.909Z" fill="#FBD324"/>
<circle cx="1500" cy="999" r="440" stroke="#FBD324" stroke-width="20"/>
</g>
<defs>
<clipPath id="clip0_2_252">
<rect width="1720" height="1713" fill="white" transform="translate(640 143)"/>
</clipPath>
</defs>
</svg>
